<?xml version="1.0" encoding="UTF-8"?>
<!-- Generated by jsxcad -->
<!DOCTYPE svg PUBLIC "-//W3C//DTD SVG 1.1 Tiny//EN" "http://www.w3.org/Graphics/SVG/1.1/DTD/svg11-tiny.dtd">
<svg viewBox="-250 -250 500 500" width="500" height="500" xmlns="http://www.w3.org/2000/svg"><path d="M-16.742873852645225,-65.98563406808358L-14.84364130520177,-48.40487581931438L-14.64364977714825,-61.77989278613097z" style="fill:rgb(247,158,158)"/><path d="M-24.40331808131155,-65.09745230284884L-20.792199529661296,-51.88715543135059L-20.511178887362902,-65.25725810943209z" style="fill:rgb(120,217,217)"/><path d="M-28.27564559894623,-65.51186089268165L-24.737615410930978,-51.727113624869915L-24.40331808131155,-65.09745230284884z" style="fill:rgb(145,216,216)"/><path d="M-20.511178887362902,-65.25725810943209L-16.972418532579937,-52.61659419972316L-16.742873852645225,-65.98563406808358z" style="fill:rgb(95,214,214)"/><path d="M-31.985123288380393,-66.48581913727963L-28.66313639428434,-52.142129536304004L-28.27564559894623,-65.51186089268165z" style="fill:rgb(169,212,212)"/><path d="M-35.39395393762589,-67.98472455934272L-32.42383986322561,-53.11752307007032L-31.985123288380393,-66.48581913727963z" style="fill:rgb(192,205,205)"/><path d="M-38.902196816682384,-56.59193477995962L-35.39395393762589,-67.98472455934272L-38.37417564700312,-69.9549312115653z" style="fill:rgb(212,194,194)"/><path d="M-14.84364130520177,-48.40487581931438L-16.742873852645225,-65.98563406808358L-16.972418532579937,-52.61659419972316z" style="fill:rgb(247,158,158)"/><path d="M-20.792199529661296,-51.88715543135059L-24.40331808131155,-65.09745230284884L-24.737615410930978,-51.727113624869915z" style="fill:rgb(120,217,217)"/><path d="M-24.737615410930978,-51.727113624869915L-28.27564559894623,-65.51186089268165L-28.66313639428434,-52.142129536304004z" style="fill:rgb(145,216,216)"/><path d="M-16.972418532579937,-52.61659419972316L-20.511178887362902,-65.25725810943209L-20.792199529661296,-51.88715543135059z" style="fill:rgb(95,214,214)"/><path d="M-28.66313639428434,-52.142129536304004L-31.985123288380393,-66.48581913727963L-32.42383986322561,-53.11752307007032z" style="fill:rgb(169,212,212)"/><path d="M-41.37489768399754,-58.96608617078123L-38.37417564700312,-69.9549312115653L-40.81211680979414,-72.32528730640598z" style="fill:rgb(229,181,181)"/><path d="M-24.737615410930978,-51.727113624869915L-24.899366858505033,-47.257713101903576L-19.791105736730554,-47.46407566660589zM-28.66313639428434,-52.142129536304004L-29.98233289514835,-47.792888970481954L-24.899366858505033,-47.257713101903576z" style="fill:rgb(127,37,217)"/><path d="M-32.42383986322561,-53.11752307007032L-35.39395393762589,-67.98472455934272L-35.88009270766689,-54.61867570855117z" style="fill:rgb(192,205,205)"/><path d="M-16.972418532579937,-52.61659419972316L-19.791105736730554,-47.46407566660589L-14.84364130520177,-48.40487581931438zM-32.42383986322561,-53.11752307007032L-34.85460820896358,-49.0511667733704L-29.98233289514835,-47.792888970481954z" style="fill:rgb(127,37,217)"/><path d="M-35.39395393762589,-67.98472455934272L-38.902196816682384,-56.59193477995962L-35.88009270766689,-54.61867570855117z" style="fill:rgb(212,194,194)"/><path d="M-24.737615410930978,-51.727113624869915L-19.791105736730554,-47.46407566660589L-20.792199529661296,-51.88715543135059zM-28.66313639428434,-52.142129536304004L-24.899366858505033,-47.257713101903576L-24.737615410930978,-51.727113624869915zM-20.792199529661296,-51.88715543135059L-19.791105736730554,-47.46407566660589L-16.972418532579937,-52.61659419972316z" style="fill:rgb(127,37,217)"/><path d="M-43.2016698725301,-61.65440051704368L-40.81211680979414,-72.32528730640598L-42.612625371732555,-75.00913232631446z" style="fill:rgb(242,166,166)"/><path d="M-32.42383986322561,-53.11752307007032L-29.98233289514835,-47.792888970481954L-28.66313639428434,-52.142129536304004z" style="fill:rgb(127,37,217)"/><path d="M-48.205145526791505,-73.44957705373321L-43.2016698725301,-61.65440051704368L-42.612625371732555,-75.00913232631446z" style="fill:rgb(83,212,212)"/><path d="M-38.902196816682384,-56.59193477995962L-39.33717491118048,-50.98897748313663L-34.85460820896358,-49.0511667733704zM-35.88009270766689,-54.61867570855117L-34.85460820896358,-49.0511667733704L-32.42383986322561,-53.11752307007032z" style="fill:rgb(127,37,217)"/><path d="M-38.37417564700312,-69.9549312115653L-41.37489768399754,-58.96608617078123L-38.902196816682384,-56.59193477995962z" style="fill:rgb(229,181,181)"/><path d="M-38.902196816682384,-56.59193477995962L-34.85460820896358,-49.0511667733704L-35.88009270766689,-54.61867570855117z" style="fill:rgb(127,37,217)"/><path d="M-40.81211680979414,-72.32528730640598L-43.2016698725301,-61.65440051704368L-41.37489768399754,-58.96608617078123z" style="fill:rgb(242,166,166)"/><path d="M-43.2016698725301,-61.65440051704368L-43.26305732434938,-53.53861570283221L-39.33717491118048,-50.98897748313663zM-41.37489768399754,-58.96608617078123L-39.33717491118048,-50.98897748313663L-38.902196816682384,-56.59193477995962z" style="fill:rgb(127,37,217)"/><path d="M-43.2016698725301,-61.65440051704368L-48.205145526791505,-73.44957705373321L-48.870553181288315,-60.09222479424817z" style="fill:rgb(83,212,212)"/><path d="M-43.2016698725301,-61.65440051704368L-39.33717491118048,-50.98897748313663L-41.37489768399754,-58.96608617078123zM-43.2016698725301,-61.65440051704368L-46.48292075585404,-56.609836539933134L-43.26305732434938,-53.53861570283221zM-46.48292075585404,-56.609836539933134L-43.2016698725301,-61.65440051704368L-48.870553181288315,-60.09222479424817z" style="fill:rgb(127,37,217)"/><path d="M-57.82785100285763,-104.36691917136564L-43.2016698725301,-61.65440051704368L-42.612625371732555,-75.00913232631446z" style="fill:rgb(247,158,158)"/><path d="M49.558389102272386,-84.2075786019976L53.940735900799,-72.18535987863984L53.19834267020619,-85.52088551773326z" style="fill:rgb(72,208,208)"/><path d="M53.940735900799,-72.18535987863984L56.467848341900805,-87.34820193739563L53.19834267020619,-85.52088551773326z" style="fill:rgb(50,199,199)"/><path d="M57.25716365272269,-74.01629538684736L59.243273050932316,-89.62389190020842L56.467848341900805,-87.34820193739563z" style="fill:rgb(32,187,187)"/><path d="M53.940735900799,-72.18535987863984L49.558389102272386,-84.2075786019976L50.24916857828543,-70.86950243980246z" style="fill:rgb(72,208,208)"/><path d="M60.07307638240751,-76.29660831148792L61.41758679278064,-92.26531256448368L59.243273050932316,-89.62389190020842z" style="fill:rgb(17,173,173)"/><path d="M56.467848341900805,-87.34820193739563L53.940735900799,-72.18535987863984L57.25716365272269,-74.01629538684736z" style="fill:rgb(50,199,199)"/><path d="M53.940735900799,-72.18535987863984L52.150263323347524,-66.5163697634018L56.9350990246235,-68.21421556195097zM52.150263323347524,-66.5163697634018L53.940735900799,-72.18535987863984L50.24916857828543,-70.86950243980246z" style="fill:rgb(127,37,217)"/><path d="M59.243273050932316,-89.62389190020842L57.25716365272269,-74.01629538684736L60.07307638240751,-76.29660831148792z" style="fill:rgb(32,187,187)"/><path d="M61.41758679278064,-92.26531256448368L63.789983813396496,-81.85978429343783L62.90451359425656,-95.17525137982915z" style="fill:rgb(7,157,157)"/><path d="M57.25716365272269,-74.01629538684736L56.9350990246235,-68.21421556195097L61.239554269910066,-70.57863097830561zM-58.64853566312232,-91.07269915535221L-48.870553181288315,-60.09222479424817L-43.2016698725301,-61.65440051704368zM53.940735900799,-72.18535987863984L56.9350990246235,-68.21421556195097L57.25716365272269,-74.01629538684736z" style="fill:rgb(127,37,217)"/><path d="M61.41758679278064,-92.26531256448368L60.07307638240751,-76.29660831148792L62.27988214106132,-78.94355606271169z" style="fill:rgb(17,173,173)"/><path d="M62.90451359425656,-95.17525137982915L64.54054108532253,-84.93641457798776L63.642232948030035,-98.24501898685354z" style="fill:rgb(1,140,140)"/><path d="M57.25716365272269,-74.01629538684736L61.239554269910066,-70.57863097830561L60.07307638240751,-76.29660831148792zM62.27988214106132,-78.94355606271169L61.239554269910066,-70.57863097830561L64.90172542839734,-73.52658529470949z" style="fill:rgb(127,37,217)"/><path d="M63.789983813396496,-81.85978429343783L61.41758679278064,-92.26531256448368L62.27988214106132,-78.94355606271169z" style="fill:rgb(7,157,157)"/><path d="M60.07307638240751,-76.29660831148792L61.239554269910066,-70.57863097830561L62.27988214106132,-78.94355606271169z" style="fill:rgb(127,37,217)"/><path d="M-43.2016698725301,-61.65440051704368L-57.82785100285763,-104.36691917136564L-58.64853566312232,-91.07269915535221z" style="fill:rgb(247,158,158)"/><path d="M63.642232948030035,-98.24501898685354L64.49658272821436,-88.05673603680202L63.59643451110522,-101.35814193449299z" style="fill:rgb(0,122,122)"/><path d="M64.54054108532253,-84.93641457798776L62.90451359425656,-95.17525137982915L63.789983813396496,-81.85978429343783z" style="fill:rgb(1,140,140)"/><path d="M62.27988214106132,-78.94355606271169L64.90172542839734,-73.52658529470949L63.789983813396496,-81.85978429343783z" style="fill:rgb(127,37,217)"/><path d="M68.67003021188394,-106.04197492055806L70.72208030874904,-88.78671513696563L69.7344168273358,-102.08640234323197z" style="fill:rgb(251,149,149)"/><path d="M-63.545400931908524,-102.7243337521463L-58.64853566312232,-91.07269915535221L-57.82785100285763,-104.36691917136564z" style="fill:rgb(83,212,212)"/><path d="M63.789983813396496,-81.85978429343783L64.90172542839734,-73.52658529470949L64.54054108532253,-84.93641457798776zM-48.870553181288315,-60.09222479424817L-58.64853566312232,-91.07269915535221L-64.44591721015051,-89.426162880402z" style="fill:rgb(127,37,217)"/><path d="M64.49658272821436,-88.05673603680202L63.642232948030035,-98.24501898685354L64.54054108532253,-84.93641457798776z" style="fill:rgb(0,122,122)"/><path d="M69.6460303764001,-92.75185285283264L64.90172542839734,-73.52658529470949L67.78031287866565,-76.95299325655616z" style="fill:rgb(127,37,217)"/><path d="M62.76254197073129,-104.3945872410844L69.6460303764001,-92.75185285283264L68.67003021188394,-106.04197492055806z" style="fill:rgb(83,212,212)"/><path d="M69.6460303764001,-92.75185285283264L67.78031287866565,-76.95299325655616L69.76006428938912,-80.7335576513746zM69.6460303764001,-92.75185285283264L64.54054108532253,-84.93641457798776L64.90172542839734,-73.52658529470949z" style="fill:rgb(127,37,217)"/><path d="M-58.64853566312232,-91.07269915535221L-63.545400931908524,-102.7243337521463L-64.44591721015051,-89.426162880402z" style="fill:rgb(83,212,212)"/><path d="M70.72208030874904,-88.78671513696563L69.76006428938912,-80.7335576513746L70.75685958384095,-84.72842358552086z" style="fill:rgb(127,37,217)"/><path d="M70.72208030874904,-88.78671513696563L68.67003021188394,-106.04197492055806L69.6460303764001,-92.75185285283264z" style="fill:rgb(251,149,149)"/><path d="M69.6460303764001,-92.75185285283264L62.76254197073129,-104.3945872410844L63.65328087720419,-91.10043434786935z" style="fill:rgb(83,212,212)"/><path d="M69.6460303764001,-92.75185285283264L69.76006428938912,-80.7335576513746L70.72208030874904,-88.78671513696563zM69.6460303764001,-92.75185285283264L64.49658272821436,-88.05673603680202L64.54054108532253,-84.93641457798776zM64.49658272821436,-88.05673603680202L69.6460303764001,-92.75185285283264L63.65328087720419,-91.10043434786935z" style="fill:rgb(127,37,217)"/><path d="M68.67003021188394,-106.04197492055806L60.11305997878354,-115.9355212204901L69.6460303764001,-92.75185285283264zM60.11305997878354,-115.9355212204901L68.67003021188394,-106.04197492055806L59.253680384430936,-129.1619619472166z" style="fill:rgb(247,158,158)"/><path d="M60.11305997878354,-115.9355212204901L63.65328087720419,-91.10043434786935L69.6460303764001,-92.75185285283264z" style="fill:rgb(127,37,217)"/><path d="M54.012168972771356,-114.2159572687126L59.253680384430936,-129.1619619472166L53.2411388156519,-127.44757595073355z" style="fill:rgb(83,212,212)"/><path d="M63.65328087720419,-91.10043434786935L60.11305997878354,-115.9355212204901L54.012168972771356,-114.2159572687126z" style="fill:rgb(127,37,217)"/><path d="M59.253680384430936,-129.1619619472166L54.012168972771356,-114.2159572687126L60.11305997878354,-115.9355212204901zM-16.742873852645225,-65.98563406808358L62.432332063538276,164.37179716095727L49.558389102272386,-84.2075786019976z" style="fill:rgb(83,212,212)"/><path d="M49.558389102272386,-84.2075786019976L64.73293868558956,168.6325779343659L51.436116020682135,-79.86257650309835z" style="fill:rgb(247,158,158)"/><path d="M62.432332063538276,164.37179716095727L-16.742873852645225,-65.98563406808358L-21.00390616383377,182.18352787831827z" style="fill:rgb(83,212,212)"/><path d="M64.73293868558956,168.6325779343659L49.558389102272386,-84.2075786019976L62.432332063538276,164.37179716095727zM-19.669042876114013,104.4390109443602L-18.35269650809828,186.2734294720837L-17.19152569107888,108.61673473180204z" style="fill:rgb(247,158,158)"/><path d="M-30.60767322283643,183.04790265731347L-24.09316903871713,105.16293263555082L-28.664293213225555,105.32173801626814z" style="fill:rgb(120,217,217)"/><path d="M-35.46788667051844,182.6446367933651L-28.664293213225555,105.32173801626814L-33.21492542595992,104.90990596387319z" style="fill:rgb(145,216,216)"/><path d="M-24.09316903871713,105.16293263555082L-21.00390616383377,182.18352787831827L-19.669042876114013,104.4390109443602z" style="fill:rgb(95,214,214)"/><path d="M-37.578161661212455,103.94178985368022L-35.46788667051844,182.6446367933651L-33.21492542595992,104.90990596387319z" style="fill:rgb(169,212,212)"/><path d="M-44.42206005823929,180.2367299948333L-37.578161661212455,103.94178985368022L-41.59291208104936,102.45129235187237z" style="fill:rgb(192,205,205)"/><path d="M-48.18428606657247,178.31630876541138L-41.59291208104936,102.45129235187237L-45.10912440575876,100.49106644040847z" style="fill:rgb(212,194,194)"/><path d="M-51.27342464057536,176.00354165550996L-45.10912440575876,100.49106644040847L-47.99290507633633,98.13110018341003z" style="fill:rgb(229,181,181)"/><path d="M-50.13146167974602,95.45688532886521L-51.27342464057536,176.00354165550996L-47.99290507633633,98.13110018341003z" style="fill:rgb(242,166,166)"/><path d="M-60.577170234206974,174.9056846616918L-50.13146167974602,95.45688532886521L-56.69678749081903,97.01112054782398z" style="fill:rgb(83,212,212)"/><path d="M-18.35269650809828,186.2734294720837L-19.669042876114013,104.4390109443602L-21.00390616383377,182.18352787831827z" style="fill:rgb(247,158,158)"/><path d="M-24.09316903871713,105.16293263555082L-30.60767322283643,183.04790265731347L-25.726932061066826,182.89239728185623z" style="fill:rgb(120,217,217)"/><path d="M-28.664293213225555,105.32173801626814L-35.46788667051844,182.6446367933651L-30.60767322283643,183.04790265731347z" style="fill:rgb(145,216,216)"/><path d="M-21.00390616383377,182.18352787831827L-24.09316903871713,105.16293263555082L-25.726932061066826,182.89239728185623z" style="fill:rgb(95,214,214)"/><path d="M-35.46788667051844,182.6446367933651L-37.578161661212455,103.94178985368022L-40.12989376402626,181.69658548136272z" style="fill:rgb(169,212,212)"/><path d="M-37.578161661212455,103.94178985368022L-44.42206005823929,180.2367299948333L-40.12989376402626,181.69658548136272z" style="fill:rgb(192,205,205)"/><path d="M-41.59291208104936,102.45129235187237L-48.18428606657247,178.31630876541138L-44.42206005823929,180.2367299948333z" style="fill:rgb(212,194,194)"/><path d="M-45.10912440575876,100.49106644040847L-51.27342464057536,176.00354165550996L-48.18428606657247,178.31630876541138z" style="fill:rgb(229,181,181)"/><path d="M-51.27342464057536,176.00354165550996L-50.13146167974602,95.45688532886521L-53.56854004748952,173.3818543523309z" style="fill:rgb(242,166,166)"/><path d="M-50.13146167974602,95.45688532886521L-60.577170234206974,174.9056846616918L-53.56854004748952,173.3818543523309z" style="fill:rgb(83,212,212)"/><path d="M-30.60767322283643,183.04790265731347L-30.777949865378208,187.38610636381796L-24.464755348253124,187.1859866294936zM-35.46788667051844,182.6446367933651L-37.065273505445255,186.8670880664585L-30.777949865378208,187.38610636381796zM-21.00390616383377,182.18352787831827L-24.464755348253124,187.1859866294936L-18.35269650809828,186.2734294720837zM-40.12989376402626,181.69658548136272L-43.100321972512404,185.64630447894888L-37.065273505445255,186.8670880664585zM-30.60767322283643,183.04790265731347L-24.464755348253124,187.1859866294936L-25.726932061066826,182.89239728185623zM-35.46788667051844,182.6446367933651L-30.777949865378208,187.38610636381796L-30.60767322283643,183.04790265731347zM-25.726932061066826,182.89239728185623L-24.464755348253124,187.1859866294936L-21.00390616383377,182.18352787831827zM-40.12989376402626,181.69658548136272L-37.065273505445255,186.8670880664585L-35.46788667051844,182.6446367933651zM-48.18428606657247,178.31630876541138L-48.663806784719704,183.76495678275484L-43.100321972512404,185.64630447894888zM-44.42206005823929,180.2367299948333L-43.100321972512404,185.64630447894888L-40.12989376402626,181.69658548136272zM-48.18428606657247,178.31630876541138L-43.100321972512404,185.64630447894888L-44.42206005823929,180.2367299948333zM-53.56854004748952,173.3818543523309L-53.55012415743767,181.2871819600188L-48.663806784719704,183.76495678275484zM-51.27342464057536,176.00354165550996L-48.663806784719704,183.76495678275484L-48.18428606657247,178.31630876541138zM-53.56854004748952,173.3818543523309L-48.663806784719704,183.76495678275484L-51.27342464057536,176.00354165550996zM-53.56854004748952,173.3818543523309L-57.573999620362486,178.298884598985L-53.55012415743767,181.2871819600188zM-18.35269650809828,186.2734294720837L62.432332063538276,164.37179716095727L-21.00390616383377,182.18352787831827zM-57.573999620362486,178.298884598985L-53.56854004748952,173.3818543523309L-60.577170234206974,174.9056846616918z" style="fill:rgb(127,37,217)"/><path d="M-94.16331478894091,113.61097553217165L-50.13146167974602,95.45688532886521L-87.73402131301019,34.768346185962244z" style="fill:rgb(247,158,158)"/><path d="M62.432332063538276,164.37179716095727L-18.35269650809828,186.2734294720837L64.73293868558956,168.6325779343659z" style="fill:rgb(127,37,217)"/><path d="M-50.13146167974602,95.45688532886521L-94.16331478894091,113.61097553217165L-53.56854004748952,173.3818543523309z" style="fill:rgb(247,158,158)"/><path d="M-94.6540309449658,36.52819746768362L-94.16331478894091,113.61097553217165L-87.73402131301019,34.768346185962244z" style="fill:rgb(83,212,212)"/><path d="M-94.16331478894091,113.61097553217165L-60.577170234206974,174.9056846616918L-53.56854004748952,173.3818543523309z" style="fill:rgb(127,37,217)"/><path d="M-94.16331478894091,113.61097553217165L-94.6540309449658,36.52819746768362L-101.57742226324373,115.35164532750154z" style="fill:rgb(83,212,212)"/><path d="M-60.577170234206974,174.9056846616918L-94.16331478894091,113.61097553217165L-101.57742226324373,115.35164532750154z" style="fill:rgb(127,37,217)"/></svg>
