<?xml version="1.0" encoding="UTF-8"?>
<!-- Generated by jsxcad -->
<!DOCTYPE svg PUBLIC "-//W3C//DTD SVG 1.1 Tiny//EN" "http://www.w3.org/Graphics/SVG/1.1/DTD/svg11-tiny.dtd">
<svg viewBox="-250 -250 500 500" width="500" height="500" xmlns="http://www.w3.org/2000/svg"><path d="M-62.91553656465593,-11.204456744857254L-101.76710920547002,-16.730995627776192L-66.18446000501626,42.30703583639323zM-101.76710920547002,-16.730995627776192L-62.91553656465593,-11.204456744857254L-96.45923117492353,-70.15999298922014z" style="fill:rgb(247,158,158)"/><path d="M-72.80029755989283,31.330170316264887L-70.80450448895655,37.32721110333731L-68.91769203774611,37.77210680886028zM-75.49776516484464,29.74191054627281L-75.76884063946633,35.37887503337152L-70.80450448895655,37.32721110333731zM-75.49776516484464,29.74191054627281L-70.80450448895655,37.32721110333731L-72.80029755989283,31.330170316264887zM-78.2860123011289,27.35174504983418L-78.28538430607433,33.90563112124096L-75.76884063946633,35.37887503337152zM-78.2860123011289,27.35174504983418L-75.76884063946633,35.37887503337152L-75.49776516484464,29.74191054627281zM-80.38101843612755,24.64414555691723L-78.28538430607433,33.90563112124096L-78.2860123011289,27.35174504983418zM-78.28538430607433,33.90563112124096L-80.38101843612755,24.64414555691723L-83.45197930750182,25.43152116982909z" style="fill:rgb(127,37,217)"/><path d="M-46.52797136612806,-68.22261651325154L123.51035786617935,140.70789680392218L97.49934893240572,-108.18175612891174zM-108.1191395177973,-15.026917510030357L-96.45923117492353,-70.15999298922014L-102.48856557443105,-68.4631049904162z" style="fill:rgb(83,212,212)"/><path d="M-72.24732762922008,117.85103378751853L-66.18446000501626,42.30703583639323L-67.41121012148919,40.27163117833342zM-73.62291360534799,115.76226828251102L-67.41121012148919,40.27163117833342L-68.6843197763145,38.15931770902217zM-68.91769203774611,37.77210680886028L-73.62291360534799,115.76226828251102L-68.6843197763145,38.15931770902217zM123.51035786617935,140.70789680392218L99.22794934108676,-103.6500911302736L97.49934893240572,-108.18175612891174z" style="fill:rgb(247,158,158)"/><path d="M-70.80450448895655,37.32721110333731L-73.87511586316587,115.37930620239318L-68.91769203774611,37.77210680886028z" style="fill:rgb(169,212,212)"/><path d="M-75.76884063946633,35.37887503337152L-75.9000712290033,114.93926579847265L-70.80450448895655,37.32721110333731z" style="fill:rgb(192,205,205)"/><path d="M-78.28538430607433,33.90563112124096L-81.23301686734258,113.01186336865952L-75.76884063946633,35.37887503337152z" style="fill:rgb(212,194,194)"/><path d="M-96.45923117492353,-70.15999298922014L-108.1191395177973,-15.026917510030357L-101.76710920547002,-16.730995627776192z" style="fill:rgb(83,212,212)"/><path d="M-66.18446000501626,42.30703583639323L-72.24732762922008,117.85103378751853L-70.92222676712652,119.86314125390346zM-67.41121012148919,40.27163117833342L-73.62291360534799,115.76226828251102L-72.24732762922008,117.85103378751853zM-51.40435356025743,33.741929457794825L-55.562950407447666,184.1155480324373L-48.93572063178318,37.976870530164256zM-73.62291360534799,115.76226828251102L-68.91769203774611,37.77210680886028L-73.87511586316587,115.37930620239318z" style="fill:rgb(247,158,158)"/><path d="M-73.87511586316587,115.37930620239318L-70.80450448895655,37.32721110333731L-75.9000712290033,114.93926579847265z" style="fill:rgb(169,212,212)"/><path d="M-67.98965444420092,180.87369508547667L-55.550474656472126,34.475605741401324L-59.853246245516914,34.6365628927755z" style="fill:rgb(120,217,217)"/><path d="M-72.87979141439662,180.46840264671025L-59.853246245516914,34.6365628927755L-64.1545588507613,34.21916058889565z" style="fill:rgb(145,216,216)"/><path d="M-55.550474656472126,34.475605741401324L-58.3992783411243,180.00493264979445L-51.40435356025743,33.741929457794825z" style="fill:rgb(95,214,214)"/><path d="M-68.2962299132439,33.238038584626935L-72.87979141439662,180.46840264671025L-64.1545588507613,34.21916058889565z" style="fill:rgb(169,212,212)"/><path d="M-75.9000712290033,114.93926579847265L-75.76884063946633,35.37887503337152L-81.23301686734258,113.01186336865952zM-81.9618604795432,178.04825927441865L-68.2962299132439,33.238038584626935L-72.12504540913808,31.727753016919007z" style="fill:rgb(192,205,205)"/><path d="M-81.23301686734258,113.01186336865952L-78.28538430607433,33.90563112124096L-83.9399082604286,111.55409539426064zM-85.81758808261984,176.11803790862078L-72.12504540913808,31.727753016919007L-75.49776516484464,29.74191054627281z" style="fill:rgb(212,194,194)"/><path d="M-89.0157047738582,173.79345893467968L-75.49776516484464,29.74191054627281L-78.2860123011289,27.35174504983418z" style="fill:rgb(229,181,181)"/><path d="M-98.3912326189937,172.68998458542512L-80.38101843612755,24.64414555691723L-86.51817971787361,26.21767840202147z" style="fill:rgb(83,212,212)"/><path d="M-91.43130367095213,171.15834710152888L-78.2860123011289,27.35174504983418L-80.38101843612755,24.64414555691723z" style="fill:rgb(242,166,166)"/><path d="M-109.51522546615246,61.261386260043764L-72.80029755989283,31.330170316264887L-101.76710920547002,-16.730995627776192z" style="fill:rgb(247,158,158)"/><path d="M-72.24732762922008,117.85103378751853L-73.2478773871731,120.4023042299912L-70.92222676712652,119.86314125390346zM-73.2478773871731,120.4023042299912L-83.2602708911118,112.57353924528861L-77.39935799786048,121.36475211380461zM-72.24732762922008,117.85103378751853L-83.2602708911118,112.57353924528861L-73.2478773871731,120.4023042299912zM-72.24732762922008,117.85103378751853L-73.62291360534799,115.76226828251102L-81.23301686734258,113.01186336865952zM-73.62291360534799,115.76226828251102L-73.87511586316587,115.37930620239318L-75.9000712290033,114.93926579847265z" style="fill:rgb(127,37,217)"/><path d="M-72.80029755989283,31.330170316264887L-109.51522546615246,61.261386260043764L-78.07304916202116,109.00493901354871z" style="fill:rgb(247,158,158)"/><path d="M-83.2602708911118,112.57353924528861L-72.24732762922008,117.85103378751853L-83.9399082604286,111.55409539426064z" style="fill:rgb(127,37,217)"/><path d="M-108.1191395177973,-15.026917510030357L-109.51522546615246,61.261386260043764L-101.76710920547002,-16.730995627776192zM123.51035786617935,140.70789680392218L-46.52797136612806,-68.22261651325154L-58.3992783411243,180.00493264979445z" style="fill:rgb(83,212,212)"/><path d="M-78.07304916202116,109.00493901354871L-83.98003554340157,105.06530238809914L-80.97510886295453,107.43242626446624zM-89.0612711254419,103.05086720392639L-89.91847396212128,102.58639269840042L-89.53407181123836,103.16298548178248zM-87.1212508313989,102.5908082005287L-89.91847396212128,102.58639269840042L-89.0612711254419,103.05086720392639zM-89.91847396212128,102.58639269840042L-87.1212508313989,102.5908082005287L-93.00612593842894,97.95498644562112zM-86.24416605063197,102.38280706317877L-93.00612593842894,97.95498644562112L-87.1212508313989,102.5908082005287zM-78.07304916202116,109.00493901354871L-104.37525391304129,80.90158493808899L-83.98003554340157,105.06530238809914z" style="fill:rgb(127,37,217)"/><path d="M-55.562950407447666,184.1155480324373L-51.40435356025743,33.741929457794825L-58.3992783411243,180.00493264979445z" style="fill:rgb(247,158,158)"/><path d="M-55.550474656472126,34.475605741401324L-67.98965444420092,180.87369508547667L-63.103338109500456,180.71742009014733z" style="fill:rgb(120,217,217)"/><path d="M-59.853246245516914,34.6365628927755L-72.87979141439662,180.46840264671025L-67.98965444420092,180.87369508547667z" style="fill:rgb(145,216,216)"/><path d="M-58.3992783411243,180.00493264979445L-55.550474656472126,34.475605741401324L-63.103338109500456,180.71742009014733z" style="fill:rgb(95,214,214)"/><path d="M-72.87979141439662,180.46840264671025L-68.2962299132439,33.238038584626935L-77.59502224130992,179.5155382564299z" style="fill:rgb(169,212,212)"/><path d="M-68.2962299132439,33.238038584626935L-81.9618604795432,178.04825927441865L-77.59502224130992,179.5155382564299z" style="fill:rgb(192,205,205)"/><path d="M-93.00612593842894,97.95498644562112L-86.24416605063197,102.38280706317877L-104.37525391304129,80.90158493808899z" style="fill:rgb(127,37,217)"/><path d="M-72.12504540913808,31.727753016919007L-85.81758808261984,176.11803790862078L-81.9618604795432,178.04825927441865z" style="fill:rgb(212,194,194)"/><path d="M-75.49776516484464,29.74191054627281L-89.0157047738582,173.79345893467968L-85.81758808261984,176.11803790862078z" style="fill:rgb(229,181,181)"/><path d="M-78.2860123011289,27.35174504983418L-91.43130367095213,171.15834710152888L-89.0157047738582,173.79345893467968z" style="fill:rgb(242,166,166)"/><path d="M-80.38101843612755,24.64414555691723L-98.3912326189937,172.68998458542512L-91.43130367095213,171.15834710152888z" style="fill:rgb(83,212,212)"/><path d="M99.22794934108676,-103.6500911302736L123.51035786617935,140.70789680392218L125.56807761065075,145.2010727484131z" style="fill:rgb(247,158,158)"/><path d="M-109.51522546615246,61.261386260043764L-108.1191395177973,-15.026917510030357L-116.33660974446572,62.95984787862856z" style="fill:rgb(83,212,212)"/><path d="M-109.51522546615246,61.261386260043764L-104.37525391304129,80.90158493808899L-78.07304916202116,109.00493901354871zM-104.37525391304129,80.90158493808899L-109.51522546615246,61.261386260043764L-116.33660974446572,62.95984787862856zM-67.98965444420092,180.87369508547667L-67.97098536189809,185.23384391851948L-61.65061289901615,185.03271428072748zM-72.87979141439662,180.46840264671025L-74.29681355137397,184.71220505230502L-67.97098536189809,185.23384391851948zM-58.3992783411243,180.00493264979445L-61.65061289901615,185.03271428072748L-55.562950407447666,184.1155480324373zM-77.59502224130992,179.5155382564299L-80.40041244633116,183.48527323210428L-74.29681355137397,184.71220505230502zM-67.98965444420092,180.87369508547667L-61.65061289901615,185.03271428072748L-63.103338109500456,180.71742009014733zM-72.87979141439662,180.46840264671025L-67.97098536189809,185.23384391851948L-67.98965444420092,180.87369508547667zM-63.103338109500456,180.71742009014733L-61.65061289901615,185.03271428072748L-58.3992783411243,180.00493264979445zM-77.59502224130992,179.5155382564299L-74.29681355137397,184.71220505230502L-72.87979141439662,180.46840264671025zM-85.81758808261984,176.11803790862078L-86.06017835444955,181.59438263465714L-80.40041244633116,183.48527323210428zM-81.9618604795432,178.04825927441865L-80.40041244633116,183.48527323210428L-77.59502224130992,179.5155382564299zM-85.81758808261984,176.11803790862078L-80.40041244633116,183.48527323210428L-81.9618604795432,178.04825927441865zM-91.43130367095213,171.15834710152888L-91.06719030624808,179.10403546881608L-86.06017835444955,181.59438263465714zM-89.0157047738582,173.79345893467968L-86.06017835444955,181.59438263465714L-85.81758808261984,176.11803790862078zM-91.43130367095213,171.15834710152888L-86.06017835444955,181.59438263465714L-89.0157047738582,173.79345893467968zM-91.43130367095213,171.15834710152888L-95.23197510317078,176.10052323682382L-91.06719030624808,179.10403546881608zM-95.23197510317078,176.10052323682382L-91.43130367095213,171.15834710152888L-98.3912326189937,172.68998458542512zM-55.562950407447666,184.1155480324373L123.51035786617935,140.70789680392218L-58.3992783411243,180.00493264979445zM123.51035786617935,140.70789680392218L-55.562950407447666,184.1155480324373L125.56807761065075,145.2010727484131z" style="fill:rgb(127,37,217)"/></svg>
