<?xml version="1.0" encoding="UTF-8"?>
<!-- Generated by jsxcad -->
<!DOCTYPE svg PUBLIC "-//W3C//DTD SVG 1.1 Tiny//EN" "http://www.w3.org/Graphics/SVG/1.1/DTD/svg11-tiny.dtd">
<svg viewBox="-250 -250 500 500" width="500" height="500" xmlns="http://www.w3.org/2000/svg"><path d="M-66.1007700304234,-84.9751943369695L126.97334410937894,117.04213850924668L99.68153429231882,-131.89397430600758z" style="fill:rgb(83,212,212)"/><path d="M126.97334410937894,117.04213850924668L101.43686480830846,-127.17383936603677L99.68153429231882,-131.89397430600758zM-83.28673423971644,163.6181830105402L-71.62732022961751,37.63574825002436L-74.27484363094517,33.2620217013394z" style="fill:rgb(247,158,158)"/><path d="M-82.97644337943376,34.186072534432284L-88.05922393039002,164.35799904407952L-78.53809641538172,34.019826643661325z" style="fill:rgb(120,217,217)"/><path d="M-98.02888542078554,164.09942531522015L-82.97644337943376,34.186072534432284L-87.42703293288989,33.75495403641116z" style="fill:rgb(145,216,216)"/><path d="M-78.53809641538172,34.019826643661325L-83.28673423971644,163.6181830105402L-74.27484363094517,33.2620217013394z" style="fill:rgb(95,214,214)"/><path d="M-102.86221443487739,163.10997731911738L-87.42703293288989,33.75495403641116L-91.72644922566938,32.74153858287747z" style="fill:rgb(169,212,212)"/><path d="M-95.71588656890434,31.181422656885896L-102.86221443487739,163.10997731911738L-91.72644922566938,32.74153858287747z" style="fill:rgb(192,205,205)"/><path d="M-99.24630140828278,29.129823646961782L-107.35613399012641,161.58626001594695L-95.71588656890434,31.181422656885896z" style="fill:rgb(212,194,194)"/><path d="M-114.67265887771494,157.16728597965025L-99.24630140828278,29.129823646961782L-102.18346765865999,26.660170448720244z" style="fill:rgb(229,181,181)"/><path d="M-104.41291513549099,23.862063133449514L-114.67265887771494,157.16728597965025L-102.18346765865999,26.660170448720244z" style="fill:rgb(242,166,166)"/><path d="M-110.71217554283845,25.488252981690255L-117.21409521360933,154.43006662684948L-104.41291513549099,23.862063133449514zM126.97334410937894,117.04213850924668L-66.1007700304234,-84.9751943369695L-83.28673423971644,163.6181830105402z" style="fill:rgb(83,212,212)"/><path d="M-71.62732022961751,37.63574825002436L-83.28673423971644,163.6181830105402L-80.27573182762342,167.88625108600013z" style="fill:rgb(247,158,158)"/><path d="M-88.05922393039002,164.35799904407952L-82.97644337943376,34.186072534432284L-93.03376830952674,164.52028942937673z" style="fill:rgb(120,217,217)"/><path d="M-82.97644337943376,34.186072534432284L-98.02888542078554,164.09942531522015L-93.03376830952674,164.52028942937673z" style="fill:rgb(145,216,216)"/><path d="M-83.28673423971644,163.6181830105402L-78.53809641538172,34.019826643661325L-88.05922393039002,164.35799904407952z" style="fill:rgb(95,214,214)"/><path d="M-87.42703293288989,33.75495403641116L-102.86221443487739,163.10997731911738L-98.02888542078554,164.09942531522015z" style="fill:rgb(169,212,212)"/><path d="M-102.86221443487739,163.10997731911738L-95.71588656890434,31.181422656885896L-107.35613399012641,161.58626001594695z" style="fill:rgb(192,205,205)"/><path d="M-107.35613399012641,161.58626001594695L-99.24630140828278,29.129823646961782L-111.34338625904739,159.5816721243542z" style="fill:rgb(212,194,194)"/><path d="M-99.24630140828278,29.129823646961782L-114.67265887771494,157.16728597965025L-111.34338625904739,159.5816721243542z" style="fill:rgb(229,181,181)"/><path d="M-117.21409521360933,154.43006662684948L-110.71217554283845,25.488252981690255L-124.26131078642217,156.02109273829012z" style="fill:rgb(83,212,212)"/><path d="M-114.67265887771494,157.16728597965025L-104.41291513549099,23.862063133449514L-117.21409521360933,154.43006662684948z" style="fill:rgb(242,166,166)"/><path d="M101.43686480830846,-127.17383936603677L126.97334410937894,117.04213850924668L129.0671216377116,121.77387770982419z" style="fill:rgb(247,158,158)"/><path d="M-93.03376830952674,164.52028942937673L-92.88547344295456,169.04727206915345L-86.45156621934242,168.83846575421973zM-98.02888542078554,164.09942531522015L-99.34642188783073,168.50571955985518L-92.88547344295456,169.04727206915345zM-83.28673423971644,163.6181830105402L-86.45156621934242,168.83846575421973L-80.27573182762342,167.88625108600013zM-102.86221443487739,163.10997731911738L-105.60219104630963,167.2318798149687L-99.34642188783073,168.50571955985518zM-93.03376830952674,164.52028942937673L-86.45156621934242,168.83846575421973L-88.05922393039002,164.35799904407952zM-98.02888542078554,164.09942531522015L-92.88547344295456,169.04727206915345L-93.03376830952674,164.52028942937673zM-88.05922393039002,164.35799904407952L-86.45156621934242,168.83846575421973L-83.28673423971644,163.6181830105402zM-102.86221443487739,163.10997731911738L-99.34642188783073,168.50571955985518L-98.02888542078554,164.09942531522015zM-111.34338625904739,159.5816721243542L-111.42598936349854,165.26861440098864L-105.60219104630963,167.2318798149687zM-107.35613399012641,161.58626001594695L-105.60219104630963,167.2318798149687L-102.86221443487739,163.10997731911738zM-111.34338625904739,159.5816721243542L-105.60219104630963,167.2318798149687L-107.35613399012641,161.58626001594695zM-117.21409521360933,154.43006662684948L-116.60319497445946,162.68266844100177L-111.42598936349854,165.26861440098864zM-114.67265887771494,157.16728597965025L-111.42598936349854,165.26861440098864L-111.34338625904739,159.5816721243542zM-117.21409521360933,154.43006662684948L-111.42598936349854,165.26861440098864L-114.67265887771494,157.16728597965025zM-117.21409521360933,154.43006662684948L-120.93819484134634,159.5634734258337L-116.60319497445946,162.68266844100177zM-120.93819484134634,159.5634734258337L-117.21409521360933,154.43006662684948L-124.26131078642217,156.02109273829012zM-80.27573182762342,167.88625108600013L126.97334410937894,117.04213850924668L-83.28673423971644,163.6181830105402zM126.97334410937894,117.04213850924668L-80.27573182762342,167.88625108600013L129.0671216377116,121.77387770982419z" style="fill:rgb(127,37,217)"/></svg>
