<?xml version="1.0" encoding="UTF-8"?>
<!-- Generated by jsxcad -->
<!DOCTYPE svg PUBLIC "-//W3C//DTD SVG 1.1 Tiny//EN" "http://www.w3.org/Graphics/SVG/1.1/DTD/svg11-tiny.dtd">
<svg viewBox="-250 -250 500 500" width="500" height="500" xmlns="http://www.w3.org/2000/svg"><path d="M-50.545026615164225,43.96981974936524L-43.50219874372354,-55.25851040545504L-45.72671588670028,-59.46832194376678z" style="fill:rgb(247,158,158)"/><path d="M-59.04031760298427,44.86015811924631L-49.501885621281396,-58.73922886233795L-53.416720949189575,-58.579262862130335z" style="fill:rgb(120,217,217)"/><path d="M-57.32677138593005,-58.9940790585454L-59.04031760298427,44.86015811924631L-53.416720949189575,-58.579262862130335z" style="fill:rgb(145,216,216)"/><path d="M-49.501885621281396,-58.73922886233795L-50.545026615164225,43.96981974936524L-45.72671588670028,-59.46832194376678z" style="fill:rgb(95,214,214)"/><path d="M-61.08766258980178,-59.96900586233192L-63.36452551561729,44.44476386211238L-57.32677138593005,-58.9940790585454z" style="fill:rgb(169,212,212)"/><path d="M-71.37622452952498,41.96528874252766L-61.08766258980178,-59.96900586233192L-64.559769775598,-61.46942127560543z" style="fill:rgb(192,205,205)"/><path d="M-67.6128353969678,-63.44166519945155L-71.37622452952498,41.96528874252766L-64.559769775598,-61.46942127560543z" style="fill:rgb(212,194,194)"/><path d="M-77.56743373895955,37.61008267221883L-67.6128353969678,-63.44166519945155L-70.1305344895516,-65.81453001311145z" style="fill:rgb(229,181,181)"/><path d="M-72.01474079945447,-68.5013024616367L-77.56743373895955,37.61008267221883L-70.1305344895516,-65.81453001311145z" style="fill:rgb(242,166,166)"/><path d="M-77.60486644126188,-66.94003469671293L-79.6719463819835,34.915251755393996L-72.01474079945447,-68.5013024616367z" style="fill:rgb(83,212,212)"/><path d="M-43.50219874372354,-55.25851040545504L-50.545026615164225,43.96981974936524L-48.066741340119506,48.18434588389019z" style="fill:rgb(247,158,158)"/><path d="M-49.501885621281396,-58.73922886233795L-59.04031760298427,44.86015811924631L-54.71417508124799,44.699972626427325z" style="fill:rgb(120,217,217)"/><path d="M-59.04031760298427,44.86015811924631L-57.32677138593005,-58.9940790585454L-63.36452551561729,44.44476386211238z" style="fill:rgb(145,216,216)"/><path d="M-50.545026615164225,43.96981974936524L-49.501885621281396,-58.73922886233795L-54.71417508124799,44.699972626427325z" style="fill:rgb(95,214,214)"/><path d="M-63.36452551561729,44.44476386211238L-61.08766258980178,-59.96900586233192L-67.52782070178128,43.468349619889295z" style="fill:rgb(169,212,212)"/><path d="M-61.08766258980178,-59.96900586233192L-71.37622452952498,41.96528874252766L-67.52782070178128,43.468349619889295z" style="fill:rgb(192,205,205)"/><path d="M-71.37622452952498,41.96528874252766L-67.6128353969678,-63.44166519945155L-74.76575814752707,39.98891155731582z" style="fill:rgb(212,194,194)"/><path d="M-107.21190033818668,-10.10820040156033L-72.01474079945447,-68.5013024616367L-96.49305519426959,-113.18649844301537z" style="fill:rgb(247,158,158)"/><path d="M-67.6128353969678,-63.44166519945155L-77.56743373895955,37.61008267221883L-74.76575814752707,39.98891155731582z" style="fill:rgb(229,181,181)"/><path d="M-79.6719463819835,34.915251755393996L-77.60486644126188,-66.94003469671293L-85.84362371640779,36.481371485849984z" style="fill:rgb(83,212,212)"/><path d="M-77.56743373895955,37.61008267221883L-72.01474079945447,-68.5013024616367L-79.6719463819835,34.915251755393996z" style="fill:rgb(242,166,166)"/><path d="M-102.27208233378497,-111.49709755674384L-107.21190033818668,-10.10820040156033L-96.49305519426959,-113.18649844301537z" style="fill:rgb(83,212,212)"/><path d="M-72.01474079945447,-68.5013024616367L-107.21190033818668,-10.10820040156033L-79.6719463819835,34.915251755393996z" style="fill:rgb(247,158,158)"/><path d="M-59.04031760298427,44.86015811924631L-59.063931485685586,49.3317232796195L-53.46491737446266,49.12533953942589zM-63.36452551561729,44.44476386211238L-64.66088377029253,48.79648057827872L-59.063931485685586,49.3317232796195zM-50.545026615164225,43.96981974936524L-53.46491737446266,49.12533953942589L-48.066741340119506,48.18434588389019zM-67.52782070178128,43.468349619889295L-70.05274179053198,47.53783095539601L-64.66088377029253,48.79648057827872zM-59.04031760298427,44.86015811924631L-53.46491737446266,49.12533953942589L-54.71417508124799,44.699972626427325zM-63.36452551561729,44.44476386211238L-59.063931485685586,49.3317232796195L-59.04031760298427,44.86015811924631zM-54.71417508124799,44.699972626427325L-53.46491737446266,49.12533953942589L-50.545026615164225,43.96981974936524zM-67.52782070178128,43.468349619889295L-64.66088377029253,48.79648057827872L-63.36452551561729,44.44476386211238zM-74.76575814752707,39.98891155731582L-75.0423966616308,45.598898255322545L-70.05274179053198,47.53783095539601zM-71.37622452952498,41.96528874252766L-70.05274179053198,47.53783095539601L-67.52782070178128,43.468349619889295zM-74.76575814752707,39.98891155731582L-70.05274179053198,47.53783095539601L-71.37622452952498,41.96528874252766z" style="fill:rgb(127,37,217)"/><path d="M-45.41746516039307,-66.10723783541835L124.54178945379995,142.96010589811422L98.36535547202935,-105.91144502389501z" style="fill:rgb(83,212,212)"/><path d="M-79.6719463819835,34.915251755393996L-79.44474452938941,43.046763221785284L-75.0423966616308,45.598898255322545zM-77.56743373895955,37.61008267221883L-75.0423966616308,45.598898255322545L-74.76575814752707,39.98891155731582zM-79.6719463819835,34.915251755393996L-75.0423966616308,45.598898255322545L-77.56743373895955,37.61008267221883zM-79.6719463819835,34.915251755393996L-83.09276581242071,39.9709785241689L-79.44474452938941,43.046763221785284zM-83.09276581242071,39.9709785241689L-79.6719463819835,34.915251755393996L-85.84362371640779,36.481371485849984z" style="fill:rgb(127,37,217)"/><path d="M98.36535547202935,-105.91144502389501L126.5892583415803,147.43089834740132L100.08714918926304,-101.39762433522279z" style="fill:rgb(247,158,158)"/><path d="M-107.21190033818668,-10.10820040156033L-102.27208233378497,-111.49709755674384L-113.61442040873301,-8.398967203451523z" style="fill:rgb(83,212,212)"/><path d="M-107.21190033818668,-10.10820040156033L-85.84362371640779,36.481371485849984L-79.6719463819835,34.915251755393996zM-85.84362371640779,36.481371485849984L-107.21190033818668,-10.10820040156033L-113.61442040873301,-8.398967203451523z" style="fill:rgb(127,37,217)"/><path d="M124.54178945379995,142.96010589811422L-45.41746516039307,-66.10723783541835L-56.97772330503332,182.06515613919885z" style="fill:rgb(83,212,212)"/><path d="M126.5892583415803,147.43089834740132L98.36535547202935,-105.91144502389501L124.54178945379995,142.96010589811422z" style="fill:rgb(247,158,158)"/><path d="M-54.154916992949936,186.15618186013964L124.54178945379995,142.96010589811422L-56.97772330503332,182.06515613919885zM124.54178945379995,142.96010589811422L-54.154916992949936,186.15618186013964L126.5892583415803,147.43089834740132z" style="fill:rgb(127,37,217)"/></svg>
