<?xml version="1.0" encoding="UTF-8"?>
<!-- Generated by jsxcad -->
<!DOCTYPE svg PUBLIC "-//W3C//DTD SVG 1.1 Tiny//EN" "http://www.w3.org/Graphics/SVG/1.1/DTD/svg11-tiny.dtd">
<svg viewBox="-250 -250 500 500" width="500" height="500" xmlns="http://www.w3.org/2000/svg"><path d="M-11.01547126075291,-71.5807006944706L70.28958945704127,158.68944189383774L55.720995904117686,-89.98874977950246z" style="fill:rgb(83,212,212)"/><path d="M55.720995904117686,-89.98874977950246L72.566614543813,163.0054595847208L57.58442135264556,-85.59909375542169z" style="fill:rgb(247,158,158)"/><path d="M70.28958945704127,158.68944189383774L-11.01547126075291,-71.5807006944706L-13.83667924867872,176.73030084542657z" style="fill:rgb(83,212,212)"/><path d="M72.566614543813,163.0054595847208L55.720995904117686,-89.98874977950246L70.28958945704127,158.68944189383774zM-12.95209196790073,98.87261390636264L-11.20305137891278,180.87214900723143L-10.49004542359853,103.1000049698134z" style="fill:rgb(247,158,158)"/><path d="M-18.675078474811674,177.16820958581678L-15.180760442388628,99.23902385184294L-17.481735347506998,99.31944566564964z" style="fill:rgb(120,217,217)"/><path d="M-21.11843838924106,176.96386336738468L-17.481735347506998,99.31944566564964L-19.76866510996472,99.11092194540123z" style="fill:rgb(145,216,216)"/><path d="M-16.217128315180684,177.0894057321193L-12.95209196790073,98.87261390636264L-15.180760442388628,99.23902385184294z" style="fill:rgb(95,214,214)"/><path d="M-23.455604958457197,176.4838192506531L-19.76866510996472,99.11092194540123L-21.955673797482042,98.62110289027282z" style="fill:rgb(169,212,212)"/><path d="M-23.960368131345707,97.86797149667343L-23.455604958457197,176.4838192506531L-21.955673797482042,98.62110289027282z" style="fill:rgb(192,205,205)"/><path d="M-25.706748375326747,96.87929496459942L-25.598649483739162,175.74562669574874L-23.960368131345707,97.86797149667343z" style="fill:rgb(212,194,194)"/><path d="M-28.987413784090947,173.61210767296137L-25.706748375326747,96.87929496459942L-27.127977531736494,95.69172007148117z" style="fill:rgb(229,181,181)"/><path d="M-37.16123352900041,173.82365860680454L-28.168898083267017,94.34958633737388L-34.77802036653208,95.90745867620004z" style="fill:rgb(83,212,212)"/><path d="M-30.10261004169951,172.29599812035946L-27.127977531736494,95.69172007148117L-28.168898083267017,94.34958633737388z" style="fill:rgb(242,166,166)"/><path d="M-11.20305137891278,180.87214900723143L-12.95209196790073,98.87261390636264L-13.83667924867872,176.73030084542657z" style="fill:rgb(247,158,158)"/><path d="M-15.180760442388628,99.23902385184294L-18.675078474811674,177.16820958581678L-16.217128315180684,177.0894057321193z" style="fill:rgb(120,217,217)"/><path d="M-17.481735347506998,99.31944566564964L-21.11843838924106,176.96386336738468L-18.675078474811674,177.16820958581678z" style="fill:rgb(145,216,216)"/><path d="M-12.95209196790073,98.87261390636264L-16.217128315180684,177.0894057321193L-13.83667924867872,176.73030084542657z" style="fill:rgb(95,214,214)"/><path d="M-19.76866510996472,99.11092194540123L-23.455604958457197,176.4838192506531L-21.11843838924106,176.96386336738468z" style="fill:rgb(169,212,212)"/><path d="M-23.455604958457197,176.4838192506531L-23.960368131345707,97.86797149667343L-25.598649483739162,175.74562669574874z" style="fill:rgb(192,205,205)"/><path d="M-25.598649483739162,175.74562669574874L-25.706748375326747,96.87929496459942L-27.466405299448095,174.77645106568272z" style="fill:rgb(212,194,194)"/><path d="M-25.706748375326747,96.87929496459942L-28.987413784090947,173.61210767296137L-27.466405299448095,174.77645106568272z" style="fill:rgb(229,181,181)"/><path d="M-64.40768932667055,33.51433783343431L-30.10261004169951,172.29599812035946L-28.168898083267017,94.34958633737388z" style="fill:rgb(247,158,158)"/><path d="M-27.127977531736494,95.69172007148117L-30.10261004169951,172.29599812035946L-28.987413784090947,173.61210767296137z" style="fill:rgb(242,166,166)"/><path d="M-28.168898083267017,94.34958633737388L-37.16123352900041,173.82365860680454L-30.10261004169951,172.29599812035946z" style="fill:rgb(83,212,212)"/><path d="M-18.675078474811674,177.16820958581678L-18.907227915687205,181.56588851332924L-14.994337109603826,181.4410775715361zM-21.11843838924106,176.96386336738468L-22.79734426053477,181.24221477907753L-18.907227915687205,181.56588851332924zM-13.83667924867872,176.73030084542657L-14.994337109603826,181.4410775715361L-11.20305137891278,180.87214900723143zM-25.598649483739162,175.74562669574874L-26.52101474891641,180.48146172337218L-22.79734426053477,181.24221477907753zM-18.675078474811674,177.16820958581678L-14.994337109603826,181.4410775715361L-16.217128315180684,177.0894057321193zM-21.11843838924106,176.96386336738468L-18.907227915687205,181.56588851332924L-18.675078474811674,177.16820958581678zM-16.217128315180684,177.0894057321193L-14.994337109603826,181.4410775715361L-13.83667924867872,176.73030084542657zM-23.455604958457197,176.4838192506531L-22.79734426053477,181.24221477907753L-21.11843838924106,176.96386336738468zM-25.598649483739162,175.74562669574874L-22.79734426053477,181.24221477907753L-23.455604958457197,176.4838192506531zM-30.10261004169951,172.29599812035946L-29.939934171017224,179.3106680491186L-26.52101474891641,180.48146172337218zM-27.466405299448095,174.77645106568272L-26.52101474891641,180.48146172337218L-25.598649483739162,175.74562669574874zM-30.10261004169951,172.29599812035946L-32.925766108406776,177.77169770705638L-29.939934171017224,179.3106680491186zM-28.987413784090947,173.61210767296137L-26.52101474891641,180.48146172337218L-27.466405299448095,174.77645106568272zM-30.10261004169951,172.29599812035946L-26.52101474891641,180.48146172337218L-28.987413784090947,173.61210767296137zM-30.10261004169951,172.29599812035946L-35.364609949387116,175.92013511052917L-32.925766108406776,177.77169770705638zM-35.364609949387116,175.92013511052917L-30.10261004169951,172.29599812035946L-37.16123352900041,173.82365860680454zM-11.20305137891278,180.87214900723143L70.28958945704127,158.68944189383774L-13.83667924867872,176.73030084542657zM70.28958945704127,158.68944189383774L-11.20305137891278,180.87214900723143L72.566614543813,163.0054595847208z" style="fill:rgb(127,37,217)"/><path d="M-76.60492259532874,114.11568038878703L-64.40768932667055,33.51433783343431L-71.37713374722797,35.27857208110835z" style="fill:rgb(83,212,212)"/><path d="M-30.10261004169951,172.29599812035946L-64.40768932667055,33.51433783343431L-69.1339019255632,112.37035847126471z" style="fill:rgb(247,158,158)"/><path d="M-69.1339019255632,112.37035847126471L-37.16123352900041,173.82365860680454L-30.10261004169951,172.29599812035946z" style="fill:rgb(127,37,217)"/><path d="M-64.40768932667055,33.51433783343431L-76.60492259532874,114.11568038878703L-69.1339019255632,112.37035847126471z" style="fill:rgb(83,212,212)"/><path d="M-37.16123352900041,173.82365860680454L-69.1339019255632,112.37035847126471L-76.60492259532874,114.11568038878703z" style="fill:rgb(127,37,217)"/></svg>
