<?xml version="1.0" encoding="UTF-8"?>
<!-- Generated by jsxcad -->
<!DOCTYPE svg PUBLIC "-//W3C//DTD SVG 1.1 Tiny//EN" "http://www.w3.org/Graphics/SVG/1.1/DTD/svg11-tiny.dtd">
<svg viewBox="-250 -250 500 500" width="500" height="500" xmlns="http://www.w3.org/2000/svg"><path d="M21.38231363830598,31.56268020831851L-61.76361910308559,50.787595108117976L-61.934636331447415,52.24858024444574z" style="fill:rgb(84,220,202)"/><path d="M19.22117913961444,-79.92093262664794L109.92759418429861,150.18906929392298L86.96985735740735,-98.60819127624174z" style="fill:rgb(83,212,212)"/><path d="M21.202318682207,32.69013353978036L-61.934636331447415,52.24858024444574L-62.2615804511163,53.3902990178729z" style="fill:rgb(85,234,182)"/><path d="M-62.73285804183655,54.16764452742838L21.202318682207,32.69013353978036L-62.2615804511163,53.3902990178729z" style="fill:rgb(89,244,159)"/><path d="M109.92759418429861,150.18906929392298L88.7252784768833,-94.1515352598531L86.96985735740735,-98.60819127624174z" style="fill:rgb(247,158,158)"/><path d="M-63.33129002790132,54.548774558768855L20.887466688710862,33.44254409710113L-62.73285804183655,54.16764452742838z" style="fill:rgb(93,250,135)"/><path d="M-61.76361910308559,50.787595108117976L21.38231363830598,31.56268020831851L21.42138146830956,30.104843978102366z" style="fill:rgb(84,220,202)"/><path d="M22.096236792431398,40.385139514436275L-62.85594142926129,60.98248078184963L-61.73418876565848,61.01309437336343z" style="fill:rgb(155,4,143)"/><path d="M-61.934636331447415,52.24858024444574L21.202318682207,32.69013353978036L21.38231363830598,31.56268020831851z" style="fill:rgb(85,234,182)"/><path d="M21.202318682207,32.69013353978036L-62.73285804183655,54.16764452742838L20.887466688710862,33.44254409710113z" style="fill:rgb(89,244,159)"/><path d="M21.42138146830956,30.104843978102366L23.569137500838398,36.77313279644349L23.625713716648253,34.43708393796946z" style="fill:rgb(247,158,158)"/><path d="M-62.85594142926129,60.98248078184963L20.21555379138973,39.50950652153425L-64.10611818796953,60.28608883852608z" style="fill:rgb(148,8,167)"/><path d="M23.569137500838398,36.77313279644349L21.42138146830956,30.104843978102366L23.288231153118534,38.58840124531227z" style="fill:rgb(247,158,158)"/><path d="M20.887466688710862,33.44254409710113L-63.33129002790132,54.548774558768855L20.44899973763979,33.7889266230412z" style="fill:rgb(93,250,135)"/><path d="M23.288231153118534,38.58840124531227L21.42138146830956,30.104843978102366L21.38231363830598,31.56268020831851z" style="fill:rgb(247,158,158)"/><path d="M-64.10611818796953,60.28608883852608L19.10070065054377,38.079885015390744L-65.43688675034976,58.9451100303854z" style="fill:rgb(140,16,189)"/><path d="M23.288231153118534,38.58840124531227L21.38231363830598,31.56268020831851L22.791636977818495,39.809791951754754z" style="fill:rgb(247,158,158)"/><path d="M-62.85594142926129,60.98248078184963L22.096236792431398,40.385139514436275L21.226845882175866,40.28595982616261z" style="fill:rgb(155,4,143)"/><path d="M22.791636977818495,39.809791951754754L21.38231363830598,31.56268020831851L21.202318682207,32.69013353978036z" style="fill:rgb(247,158,158)"/><path d="M17.92549718348322,36.048045076142614L-66.49230872609118,52.00950867234039L-66.79630232666283,57.007132009619795z" style="fill:rgb(83,212,212)"/><path d="M22.791636977818495,39.809791951754754L21.202318682207,32.69013353978036L20.887466688710862,33.44254409710113z" style="fill:rgb(247,158,158)"/><path d="M-65.43688675034976,58.9451100303854L17.92549718348322,36.048045076142614L-66.79630232666283,57.007132009619795z" style="fill:rgb(131,29,208)"/><path d="M20.21555379138973,39.50950652153425L-62.85594142926129,60.98248078184963L21.226845882175866,40.28595982616261z" style="fill:rgb(148,8,167)"/><path d="M22.791636977818495,39.809791951754754L20.887466688710862,33.44254409710113L22.096236792431398,40.385139514436275zM22.096236792431398,40.385139514436275L20.887466688710862,33.44254409710113L20.44899973763979,33.7889266230412z" style="fill:rgb(247,158,158)"/><path d="M19.10070065054377,38.079885015390744L-64.10611818796953,60.28608883852608L20.21555379138973,39.50950652153425z" style="fill:rgb(140,16,189)"/><path d="M22.096236792431398,40.385139514436275L20.44899973763979,33.7889266230412L19.903023195322422,33.71347013547011zM22.096236792431398,40.385139514436275L19.903023195322422,33.71347013547011L21.226845882175866,40.28595982616261z" style="fill:rgb(247,158,158)"/><path d="M-66.49230872609118,52.00950867234039L17.92549718348322,36.048045076142614L17.842188610433453,31.041931365997822z" style="fill:rgb(83,212,212)"/><path d="M21.226845882175866,40.28595982616261L19.903023195322422,33.71347013547011L19.270012679651476,33.21652591688108z" style="fill:rgb(247,158,158)"/><path d="M17.92549718348322,36.048045076142614L-65.43688675034976,58.9451100303854L19.10070065054377,38.079885015390744z" style="fill:rgb(131,29,208)"/><path d="M21.226845882175866,40.28595982616261L19.270012679651476,33.21652591688108L20.21555379138973,39.50950652153425zM20.21555379138973,39.50950652153425L19.270012679651476,33.21652591688108L18.574103580704207,32.31497365697846zM20.21555379138973,39.50950652153425L18.574103580704207,32.31497365697846L17.842188610433453,31.041931365997822zM20.21555379138973,39.50950652153425L17.842188610433453,31.041931365997822L19.10070065054377,38.079885015390744zM19.10070065054377,38.079885015390744L17.842188610433453,31.041931365997822L17.92549718348322,36.048045076142614z" style="fill:rgb(247,158,158)"/><path d="M-14.262487293224124,-26.415966583139607L-66.79630232666283,57.007132009619795L17.92549718348322,36.048045076142614z" style="fill:rgb(127,37,217)"/><path d="M17.842188610433453,31.041931365997822L-14.262487293224124,-26.415966583139607L17.92549718348322,36.048045076142614z" style="fill:rgb(247,158,158)"/><path d="M-66.79630232666283,57.007132009619795L-14.262487293224124,-26.415966583139607L-103.41939425283157,-2.8024767152523475z" style="fill:rgb(127,37,217)"/><path d="M-14.262487293224124,-26.415966583139607L17.842188610433453,31.041931365997822L-14.192105065089486,-31.423295445836107z" style="fill:rgb(247,158,158)"/><path d="M109.92759418429861,150.18906929392298L19.22117913961444,-79.92093262664794L24.190398423917248,168.5754005260292zM-14.262487293224124,-26.415966583139607L-102.92027209675443,-7.81358495800976L-103.41939425283157,-2.8024767152523475z" style="fill:rgb(83,212,212)"/><path d="M88.7252784768833,-94.1515352598531L109.92759418429861,150.18906929392298L112.03080252088006,154.5883927097521z" style="fill:rgb(247,158,158)"/><path d="M-102.92027209675443,-7.81358495800976L-14.262487293224124,-26.415966583139607L-14.192105065089486,-31.423295445836107z" style="fill:rgb(83,212,212)"/><path d="M26.66490836991692,172.79554132310616L109.92759418429861,150.18906929392298L24.190398423917248,168.5754005260292zM109.92759418429861,150.18906929392298L26.66490836991692,172.79554132310616L112.03080252088006,154.5883927097521z" style="fill:rgb(127,37,217)"/></svg>
