<?xml version="1.0" encoding="UTF-8"?>
<!-- Generated by jsxcad -->
<!DOCTYPE svg PUBLIC "-//W3C//DTD SVG 1.1 Tiny//EN" "http://www.w3.org/Graphics/SVG/1.1/DTD/svg11-tiny.dtd">
<svg viewBox="-250 -250 500 500" width="500" height="500" xmlns="http://www.w3.org/2000/svg"><path d="M-12.265943901158272,38.48071237754661L-9.371698816264967,-18.885250245860096L-11.565711463819783,-23.15083692316978z" style="fill:rgb(247,158,158)"/><path d="M-16.5560413009143,38.93099397660916L-13.556389284524267,-22.7812762440506L-15.611297875069353,-22.700163590048962z" style="fill:rgb(120,217,217)"/><path d="M-18.721653988268432,38.72086186452669L-15.611297875069353,-22.700163590048962L-17.65312235691779,-22.91048241042614z" style="fill:rgb(145,216,216)"/><path d="M-14.376842844498121,38.84994988738209L-11.565711463819783,-23.15083692316978L-13.556389284524267,-22.7812762440506z" style="fill:rgb(95,214,214)"/><path d="M-20.792259412959126,38.22727372500435L-17.65312235691779,-22.91048241042614L-19.604997975123297,-23.404489124632292z" style="fill:rgb(169,212,212)"/><path d="M-21.39323102080987,-24.16395214858685L-20.792259412959126,38.22727372500435L-19.604997975123297,-23.404489124632292z" style="fill:rgb(192,205,205)"/><path d="M-24.34218467007813,36.47227841819472L-21.39323102080987,-24.16395214858685L-22.94992612745125,-25.16074785145393z" style="fill:rgb(212,194,194)"/><path d="M-25.68625820343435,35.275912534418794L-22.94992612745125,-25.16074785145393L-24.21547633577995,-26.357771984366202z" style="fill:rgb(229,181,181)"/><path d="M-31.044959166317515,-26.140338167858065L-26.669847687404285,33.92403335086292L-25.14081194979461,-27.710201076018883z" style="fill:rgb(83,212,212)"/><path d="M-26.669847687404285,33.92403335086292L-24.21547633577995,-26.357771984366202L-25.14081194979461,-27.710201076018883z" style="fill:rgb(242,166,166)"/><path d="M-9.371698816264967,-18.885250245860096L-12.265943901158272,38.48071237754661L-9.936687039682445,42.7416480480019z" style="fill:rgb(247,158,158)"/><path d="M-13.556389284524267,-22.7812762440506L-16.5560413009143,38.93099397660916L-14.376842844498121,38.84994988738209z" style="fill:rgb(120,217,217)"/><path d="M-15.611297875069353,-22.700163590048962L-18.721653988268432,38.72086186452669L-16.5560413009143,38.93099397660916z" style="fill:rgb(145,216,216)"/><path d="M-11.565711463819783,-23.15083692316978L-14.376842844498121,38.84994988738209L-12.265943901158272,38.48071237754661z" style="fill:rgb(95,214,214)"/><path d="M-17.65312235691779,-22.91048241042614L-20.792259412959126,38.22727372500435L-18.721653988268432,38.72086186452669z" style="fill:rgb(169,212,212)"/><path d="M-20.792259412959126,38.22727372500435L-21.39323102080987,-24.16395214858685L-22.68976629525732,37.46839600450341z" style="fill:rgb(192,205,205)"/><path d="M-21.39323102080987,-24.16395214858685L-24.34218467007813,36.47227841819472L-22.68976629525732,37.46839600450341z" style="fill:rgb(212,194,194)"/><path d="M-22.94992612745125,-25.16074785145393L-25.68625820343435,35.275912534418794L-24.34218467007813,36.47227841819472z" style="fill:rgb(229,181,181)"/><path d="M-57.08985851211241,-88.58238995073822L-26.669847687404285,33.92403335086292L-25.14081194979461,-27.710201076018883z" style="fill:rgb(247,158,158)"/><path d="M-26.669847687404285,33.92403335086292L-31.044959166317515,-26.140338167858065L-32.93013785833363,35.49323857668764z" style="fill:rgb(83,212,212)"/><path d="M-24.21547633577995,-26.357771984366202L-26.669847687404285,33.92403335086292L-25.68625820343435,35.275912534418794z" style="fill:rgb(242,166,166)"/><path d="M-11.01547126075291,-71.5807006944706L70.28958945704127,158.68944189383774L55.720995904117686,-89.98874977950246z" style="fill:rgb(83,212,212)"/><path d="M55.720995904117686,-89.98874977950246L72.566614543813,163.0054595847208L57.58442135264556,-85.59909375542169z" style="fill:rgb(247,158,158)"/><path d="M-16.5560413009143,38.93099397660916L-16.771531268318295,43.45579890714141L-13.300409392130863,43.327294042633206zM-18.721653988268432,38.72086186452669L-20.221373366525754,43.122574776715346L-16.771531268318295,43.45579890714141zM-12.265943901158272,38.48071237754661L-13.300409392130863,43.327294042633206L-9.936687039682445,42.7416480480019zM-22.68976629525732,37.46839600450341L-23.521939930937055,42.339518857612376L-20.221373366525754,43.122574776715346zM-16.5560413009143,38.93099397660916L-13.300409392130863,43.327294042633206L-14.376842844498121,38.84994988738209zM-18.721653988268432,38.72086186452669L-16.771531268318295,43.45579890714141L-16.5560413009143,38.93099397660916zM-14.376842844498121,38.84994988738209L-13.300409392130863,43.327294042633206L-12.265943901158272,38.48071237754661zM-20.792259412959126,38.22727372500435L-20.221373366525754,43.122574776715346L-18.721653988268432,38.72086186452669zM-22.68976629525732,37.46839600450341L-20.221373366525754,43.122574776715346L-20.792259412959126,38.22727372500435zM-26.669847687404285,33.92403335086292L-26.55015543097378,41.13471313085688L-23.521939930937055,42.339518857612376zM-24.34218467007813,36.47227841819472L-23.521939930937055,42.339518857612376L-22.68976629525732,37.46839600450341zM-26.669847687404285,33.92403335086292L-29.192034451670743,39.551604208042654L-26.55015543097378,41.13471313085688zM-25.68625820343435,35.275912534418794L-23.521939930937055,42.339518857612376L-24.34218467007813,36.47227841819472zM-26.669847687404285,33.92403335086292L-23.521939930937055,42.339518857612376L-25.68625820343435,35.275912534418794zM-26.669847687404285,33.92403335086292L-31.346697065287614,37.647786575561454L-29.192034451670743,39.551604208042654zM-31.346697065287614,37.647786575561454L-26.669847687404285,33.92403335086292L-32.93013785833363,35.49323857668764z" style="fill:rgb(127,37,217)"/><path d="M-67.35515050028968,-25.374513785438946L-57.08985851211241,-88.58238995073822L-63.280036279579704,-86.82884469091616z" style="fill:rgb(83,212,212)"/><path d="M-26.669847687404285,33.92403335086292L-57.08985851211241,-88.58238995073822L-60.772419072731864,-27.139510808986177z" style="fill:rgb(247,158,158)"/><path d="M-60.772419072731864,-27.139510808986177L-32.93013785833363,35.49323857668764L-26.669847687404285,33.92403335086292z" style="fill:rgb(127,37,217)"/><path d="M-57.08985851211241,-88.58238995073822L-67.35515050028968,-25.374513785438946L-60.772419072731864,-27.139510808986177z" style="fill:rgb(83,212,212)"/><path d="M-32.93013785833363,35.49323857668764L-60.772419072731864,-27.139510808986177L-67.35515050028968,-25.374513785438946z" style="fill:rgb(127,37,217)"/><path d="M70.28958945704127,158.68944189383774L-11.01547126075291,-71.5807006944706L-13.83667924867872,176.73030084542657z" style="fill:rgb(83,212,212)"/><path d="M72.566614543813,163.0054595847208L55.720995904117686,-89.98874977950246L70.28958945704127,158.68944189383774z" style="fill:rgb(247,158,158)"/><path d="M-11.20305137891278,180.87214900723143L70.28958945704127,158.68944189383774L-13.83667924867872,176.73030084542657zM70.28958945704127,158.68944189383774L-11.20305137891278,180.87214900723143L72.566614543813,163.0054595847208z" style="fill:rgb(127,37,217)"/></svg>
