<?xml version="1.0" encoding="UTF-8"?>
<!-- Generated by jsxcad -->
<!DOCTYPE svg PUBLIC "-//W3C//DTD SVG 1.1 Tiny//EN" "http://www.w3.org/Graphics/SVG/1.1/DTD/svg11-tiny.dtd">
<svg viewBox="-250 -250 500 500" width="500" height="500" xmlns="http://www.w3.org/2000/svg"><path d="M-19.28963776101957,-28.289889308567712L-16.39189255753538,-65.28244845965372L-18.504491440477313,-69.51498533299342z" style="fill:rgb(247,158,158)"/><path d="M-23.295565147696017,-27.841115609392684L-20.394686824799024,-69.14835667866602L-22.347746925320834,-69.06788846521238z" style="fill:rgb(120,217,217)"/><path d="M-25.320510408058094,-28.05054731452037L-22.347746925320834,-69.06788846521238L-24.290110780034492,-69.2765400488036z" style="fill:rgb(145,216,216)"/><path d="M-21.25973639304898,-27.921888088491013L-18.504491440477313,-69.51498533299342L-20.394686824799024,-69.14835667866602z" style="fill:rgb(95,214,214)"/><path d="M-27.2583292356197,-28.54246785547828L-24.290110780034492,-69.2765400488036L-26.148581900858904,-69.7666215383765z" style="fill:rgb(169,212,212)"/><path d="M-29.035848688512164,-29.298717662755834L-26.148581900858904,-69.7666215383765L-27.85293338641794,-70.52000763566137z" style="fill:rgb(192,205,205)"/><path d="M-30.585583825578176,-30.291276886872932L-27.85293338641794,-70.52000763566137L-29.338424492662966,-71.50874987259078z" style="fill:rgb(212,194,194)"/><path d="M-30.54816251014289,-72.69597155605229L-30.585583825578176,-30.291276886872932L-29.338424492662966,-71.50874987259078z" style="fill:rgb(229,181,181)"/><path d="M-38.614457023862684,-31.266691064618353L-31.435278363460522,-74.03717975607114L-37.03853751900591,-72.4803289704856z" style="fill:rgb(83,212,212)"/><path d="M-31.435278363460522,-74.03717975607114L-31.84819117787558,-31.483195332416386L-30.54816251014289,-72.69597155605229z" style="fill:rgb(242,166,166)"/><path d="M-16.39189255753538,-65.28244845965372L-19.28963776101957,-28.289889308567712L-17.08463958397402,-24.042162300513247zM-46.34328062311637,-103.34320661405819L-32.774738901803936,-32.829825090713L-31.435278363460522,-74.03717975607114z" style="fill:rgb(247,158,158)"/><path d="M-20.394686824799024,-69.14835667866602L-23.295565147696017,-27.841115609392684L-21.25973639304898,-27.921888088491013z" style="fill:rgb(120,217,217)"/><path d="M-22.347746925320834,-69.06788846521238L-25.320510408058094,-28.05054731452037L-23.295565147696017,-27.841115609392684z" style="fill:rgb(145,216,216)"/><path d="M-18.504491440477313,-69.51498533299342L-21.25973639304898,-27.921888088491013L-19.28963776101957,-28.289889308567712z" style="fill:rgb(95,214,214)"/><path d="M-24.290110780034492,-69.2765400488036L-27.2583292356197,-28.54246785547828L-25.320510408058094,-28.05054731452037z" style="fill:rgb(169,212,212)"/><path d="M-26.148581900858904,-69.7666215383765L-29.035848688512164,-29.298717662755834L-27.2583292356197,-28.54246785547828z" style="fill:rgb(192,205,205)"/><path d="M-27.85293338641794,-70.52000763566137L-30.585583825578176,-30.291276886872932L-29.035848688512164,-29.298717662755834z" style="fill:rgb(212,194,194)"/><path d="M-30.585583825578176,-30.291276886872932L-30.54816251014289,-72.69597155605229L-31.84819117787558,-31.483195332416386z" style="fill:rgb(229,181,181)"/><path d="M47.98246674101458,-87.85422065750534L51.95733752977451,-47.37476305917964L49.806352478955326,-88.51474730059822z" style="fill:rgb(72,208,208)"/><path d="M51.95733752977451,-47.37476305917964L51.44136882837691,-89.43252393929959L49.806352478955326,-88.51474730059822z" style="fill:rgb(50,199,199)"/><path d="M-31.435278363460522,-74.03717975607114L-38.614457023862684,-31.266691064618353L-32.774738901803936,-32.829825090713z" style="fill:rgb(83,212,212)"/><path d="M-31.84819117787558,-31.483195332416386L-31.435278363460522,-74.03717975607114L-32.774738901803936,-32.829825090713z" style="fill:rgb(242,166,166)"/><path d="M53.664847541368616,-48.29735293768929L52.825175632818286,-90.57343092594608L51.44136882837691,-89.43252393929959z" style="fill:rgb(32,187,187)"/><path d="M55.11087041832887,-49.44432955127113L53.90448783398387,-91.89481375041744L52.825175632818286,-90.57343092594608z" style="fill:rgb(17,173,173)"/><path d="M53.90448783398387,-91.89481375041744L57.007266913637295,-52.233053246952956L54.63712767551816,-93.34696829858832z" style="fill:rgb(7,157,157)"/><path d="M57.007266913637295,-52.233053246952956L54.993766136118325,-94.87484800076436L54.63712767551816,-93.34696829858832z" style="fill:rgb(1,140,140)"/><path d="M57.382727470432876,-53.76955318992094L54.959210247609185,-96.42010998017128L54.993766136118325,-94.87484800076436z" style="fill:rgb(0,122,122)"/><path d="M-23.295565147696017,-27.841115609392684L-23.46855824184357,-23.329993621091585L-20.22484811856381,-23.45814483123115zM-25.320510408058094,-28.05054731452037L-26.695230689900068,-23.662303208981996L-23.46855824184357,-23.329993621091585zM-19.28963776101957,-28.289889308567712L-20.22484811856381,-23.45814483123115L-17.08463958397402,-24.042162300513247zM-29.035848688512164,-29.298717662755834L-29.784871282317663,-24.443144097640136L-26.695230689900068,-23.662303208981996zM-23.295565147696017,-27.841115609392684L-20.22484811856381,-23.45814483123115L-21.25973639304898,-27.921888088491013zM-25.320510408058094,-28.05054731452037L-23.46855824184357,-23.329993621091585L-23.295565147696017,-27.841115609392684zM-21.25973639304898,-27.921888088491013L-20.22484811856381,-23.45814483123115L-19.28963776101957,-28.289889308567712zM-27.2583292356197,-28.54246785547828L-26.695230689900068,-23.662303208981996L-25.320510408058094,-28.05054731452037z" style="fill:rgb(127,37,217)"/><path d="M63.030409692933304,-58.474249906358736L61.0651757532433,-97.14208888178446L60.39552352781161,-99.55205671899888z" style="fill:rgb(251,149,149)"/><path d="M-29.035848688512164,-29.298717662755834L-26.695230689900068,-23.662303208981996L-27.2583292356197,-28.54246785547828z" style="fill:rgb(127,37,217)"/><path d="M54.53320768986274,-97.92323617490045L63.030409692933304,-58.474249906358736L60.39552352781161,-99.55205671899888z" style="fill:rgb(83,212,212)"/><path d="M-32.774738901803936,-32.829825090713L-32.62204638908013,-25.64439184505101L-29.784871282317663,-24.443144097640136zM-30.585583825578176,-30.291276886872932L-29.784871282317663,-24.443144097640136L-29.035848688512164,-29.298717662755834zM-32.774738901803936,-32.829825090713L-35.09982415932939,-27.222537976801867L-32.62204638908013,-25.64439184505101zM-31.84819117787558,-31.483195332416386L-29.784871282317663,-24.443144097640136L-30.585583825578176,-30.291276886872932zM-32.774738901803936,-32.829825090713L-29.784871282317663,-24.443144097640136L-31.84819117787558,-31.483195332416386zM-32.774738901803936,-32.829825090713L-37.12356363307509,-29.119958666391486L-35.09982415932939,-27.222537976801867z" style="fill:rgb(127,37,217)"/><path d="M-52.07217740889321,-101.7035440478653L-48.37211851194506,-62.28891448090113L-46.34328062311637,-103.34320661405819z" style="fill:rgb(83,212,212)"/><path d="M-37.12356363307509,-29.119958666391486L-32.774738901803936,-32.829825090713L-38.614457023862684,-31.266691064618353z" style="fill:rgb(127,37,217)"/><path d="M51.95733752977451,-47.37476305917964L47.98246674101458,-87.85422065750534L50.053420194359525,-46.71081236225032z" style="fill:rgb(72,208,208)"/><path d="M51.44136882837691,-89.43252393929959L51.95733752977451,-47.37476305917964L53.664847541368616,-48.29735293768929z" style="fill:rgb(50,199,199)"/><path d="M52.825175632818286,-90.57343092594608L53.664847541368616,-48.29735293768929L55.11087041832887,-49.44432955127113z" style="fill:rgb(32,187,187)"/><path d="M50.86774964962932,-122.40867659191763L63.030409692933304,-58.474249906358736L60.39552352781161,-99.55205671899888z" style="fill:rgb(247,158,158)"/><path d="M53.90448783398387,-91.89481375041744L55.11087041832887,-49.44432955127113L56.23972370937701,-50.772875898563356z" style="fill:rgb(17,173,173)"/><path d="M57.007266913637295,-52.233053246952956L53.90448783398387,-91.89481375041744L56.23972370937701,-50.772875898563356z" style="fill:rgb(7,157,157)"/><path d="M-32.774738901803936,-32.829825090713L-46.34328062311637,-103.34320661405819L-48.37211851194506,-62.28891448090113z" style="fill:rgb(247,158,158)"/><path d="M54.993766136118325,-94.87484800076436L57.007266913637295,-52.233053246952956L57.382727470432876,-53.76955318992094z" style="fill:rgb(1,140,140)"/><path d="M54.959210247609185,-96.42010998017128L57.382727470432876,-53.76955318992094L57.350058094570905,-55.32370379113819z" style="fill:rgb(0,122,122)"/><path d="M61.0651757532433,-97.14208888178446L63.030409692933304,-58.474249906358736L63.7234054520336,-56.04990645763522z" style="fill:rgb(251,149,149)"/><path d="M63.030409692933304,-58.474249906358736L54.53320768986274,-97.92323617490045L56.90879358429644,-56.835660332904155z" style="fill:rgb(83,212,212)"/><path d="M-48.37211851194506,-62.28891448090113L-38.614457023862684,-31.266691064618353L-32.774738901803936,-32.829825090713zM53.664847541368616,-48.29735293768929L52.01618431722914,-42.31584607651358L55.053160869710815,-43.36998905679163zM52.01618431722914,-42.31584607651358L51.95733752977451,-47.37476305917964L50.053420194359525,-46.71081236225032z" style="fill:rgb(127,37,217)"/><path d="M-48.37211851194506,-62.28891448090113L-52.07217740889321,-101.7035440478653L-54.348410071663224,-60.638948479166594z" style="fill:rgb(83,212,212)"/><path d="M51.95733752977451,-47.37476305917964L52.01618431722914,-42.31584607651358L53.664847541368616,-48.29735293768929zM56.23972370937701,-50.772875898563356L55.053160869710815,-43.36998905679163L57.7806851789305,-44.83603223441788zM53.664847541368616,-48.29735293768929L55.053160869710815,-43.36998905679163L55.11087041832887,-49.44432955127113zM55.11087041832887,-49.44432955127113L55.053160869710815,-43.36998905679163L56.23972370937701,-50.772875898563356z" style="fill:rgb(127,37,217)"/><path d="M44.90205101395687,-120.71398958511664L53.13339807124708,-81.48944203210398L50.86774964962932,-122.40867659191763z" style="fill:rgb(83,212,212)"/><path d="M56.23972370937701,-50.772875898563356L57.7806851789305,-44.83603223441788L57.007266913637295,-52.233053246952956zM63.030409692933304,-58.474249906358736L57.7806851789305,-44.83603223441788L60.095330448813414,-46.660700148413326zM57.007266913637295,-52.233053246952956L57.7806851789305,-44.83603223441788L57.382727470432876,-53.76955318992094zM63.030409692933304,-58.474249906358736L60.095330448813414,-46.660700148413326L61.907887361213525,-48.777077619216065zM-38.614457023862684,-31.266691064618353L-48.37211851194506,-62.28891448090113L-54.348410071663224,-60.638948479166594zM63.030409692933304,-58.474249906358736L57.382727470432876,-53.76955318992094L57.7806851789305,-44.83603223441788zM63.030409692933304,-58.474249906358736L61.907887361213525,-48.777077619216065L63.146803327568485,-51.106687736965945zM63.7234054520336,-56.04990645763522L63.146803327568485,-51.106687736965945L63.76122358665483,-53.56208943208922zM63.030409692933304,-58.474249906358736L63.146803327568485,-51.106687736965945L63.7234054520336,-56.04990645763522zM63.030409692933304,-58.474249906358736L57.350058094570905,-55.32370379113819L57.382727470432876,-53.76955318992094zM57.350058094570905,-55.32370379113819L63.030409692933304,-58.474249906358736L56.90879358429644,-56.835660332904155z" style="fill:rgb(127,37,217)"/><path d="M63.030409692933304,-58.474249906358736L50.86774964962932,-122.40867659191763L53.13339807124708,-81.48944203210398z" style="fill:rgb(247,158,158)"/><path d="M53.13339807124708,-81.48944203210398L44.90205101395687,-120.71398958511664L46.898946156369796,-79.78161634648124z" style="fill:rgb(83,212,212)"/><path d="M53.13339807124708,-81.48944203210398L56.90879358429644,-56.835660332904155L63.030409692933304,-58.474249906358736zM56.90879358429644,-56.835660332904155L53.13339807124708,-81.48944203210398L46.898946156369796,-79.78161634648124z" style="fill:rgb(127,37,217)"/><path d="M-18.504491440477313,-69.51498533299342L60.49793614226227,160.78925645715654L47.98246674101458,-87.85422065750534z" style="fill:rgb(83,212,212)"/><path d="M60.49793614226227,160.78925645715654L49.872354862410525,-83.48107788576463L47.98246674101458,-87.85422065750534z" style="fill:rgb(247,158,158)"/><path d="M60.49793614226227,160.78925645715654L-18.504491440477313,-69.51498533299342L-23.232694417785865,178.7452885071483z" style="fill:rgb(83,212,212)"/><path d="M49.872354862410525,-83.48107788576463L60.49793614226227,160.78925645715654L62.81732762791498,165.08482722332195zM-21.750654189485935,100.9288896411289L-20.56027833398361,182.8678851990196L-19.25458356930403,105.13789914280754z" style="fill:rgb(247,158,158)"/><path d="M-28.055080629657475,179.18116113712532L-23.97105050049637,101.29370309683539L-26.2662611118185,101.37376564084545z" style="fill:rgb(120,217,217)"/><path d="M-30.494962506264336,178.97774493634816L-26.2662611118185,101.37376564084545L-28.550144513406032,101.1661592729159z" style="fill:rgb(145,216,216)"/><path d="M-25.603706915494428,179.1027031598178L-21.750654189485935,100.9288896411289L-23.97105050049637,101.29370309683539z" style="fill:rgb(95,214,214)"/><path d="M-30.736935469579894,100.67847483694638L-30.494962506264336,178.97774493634816L-28.550144513406032,101.1661592729159z" style="fill:rgb(169,212,212)"/><path d="M-34.97790185898474,177.76518103858857L-30.736935469579894,100.67847483694638L-32.74424854094261,99.92862783526688z" style="fill:rgb(192,205,205)"/><path d="M-34.49599623482931,98.94425754826385L-34.97790185898474,177.76518103858857L-32.74424854094261,99.92862783526688z" style="fill:rgb(212,194,194)"/><path d="M-38.38180067867214,175.64163520362914L-34.49599623482931,98.94425754826385L-35.925137812132355,97.76188138185103z" style="fill:rgb(229,181,181)"/><path d="M-46.53422981405298,175.85217888786585L-36.97623482074846,96.42561141642241L-43.55644087157068,97.97667664454885z" style="fill:rgb(83,212,212)"/><path d="M-36.97623482074846,96.42561141642241L-38.38180067867214,175.64163520362914L-35.925137812132355,97.76188138185103z" style="fill:rgb(242,166,166)"/><path d="M-20.56027833398361,182.8678851990196L-21.750654189485935,100.9288896411289L-23.232694417785865,178.7452885071483z" style="fill:rgb(247,158,158)"/><path d="M-23.97105050049637,101.29370309683539L-28.055080629657475,179.18116113712532L-25.603706915494428,179.1027031598178z" style="fill:rgb(120,217,217)"/><path d="M-26.2662611118185,101.37376564084545L-30.494962506264336,178.97774493634816L-28.055080629657475,179.18116113712532z" style="fill:rgb(145,216,216)"/><path d="M-21.750654189485935,100.9288896411289L-25.603706915494428,179.1027031598178L-23.232694417785865,178.7452885071483z" style="fill:rgb(95,214,214)"/><path d="M-30.494962506264336,178.97774493634816L-30.736935469579894,100.67847483694638L-32.831876161132584,178.49993523865788z" style="fill:rgb(169,212,212)"/><path d="M-30.736935469579894,100.67847483694638L-34.97790185898474,177.76518103858857L-32.831876161132584,178.49993523865788z" style="fill:rgb(192,205,205)"/><path d="M-34.97790185898474,177.76518103858857L-34.49599623482931,98.94425754826385L-36.85177351635393,176.80052573086454z" style="fill:rgb(212,194,194)"/><path d="M-34.49599623482931,98.94425754826385L-38.38180067867214,175.64163520362914L-36.85177351635393,176.80052573086454z" style="fill:rgb(229,181,181)"/><path d="M-36.97623482074846,96.42561141642241L-46.53422981405298,175.85217888786585L-39.50860024372967,174.3316798169564z" style="fill:rgb(83,212,212)"/><path d="M-38.38180067867214,175.64163520362914L-36.97623482074846,96.42561141642241L-39.50860024372967,174.3316798169564z" style="fill:rgb(242,166,166)"/><path d="M-28.055080629657475,179.18116113712532L-28.239079331918575,183.55843138378674L-24.33660632804065,183.4341808499036zM-30.494962506264336,178.97774493634816L-32.123684511245926,183.23623709860175L-28.239079331918575,183.55843138378674zM-23.232694417785865,178.7452885071483L-24.33660632804065,183.4341808499036L-20.56027833398361,182.8678851990196zM-34.97790185898474,177.76518103858857L-35.846944573102725,182.4790081335599L-32.123684511245926,183.23623709860175zM-28.055080629657475,179.18116113712532L-24.33660632804065,183.4341808499036L-25.603706915494428,179.1027031598178zM-30.494962506264336,178.97774493634816L-28.239079331918575,183.55843138378674L-28.055080629657475,179.18116113712532zM-25.603706915494428,179.1027031598178L-24.33660632804065,183.4341808499036L-23.232694417785865,178.7452885071483zM-32.831876161132584,178.49993523865788L-32.123684511245926,183.23623709860175L-30.494962506264336,178.97774493634816zM-34.97790185898474,177.76518103858857L-32.123684511245926,183.23623709860175L-32.831876161132584,178.49993523865788zM-39.50860024372967,174.3316798169564L-39.27057291932405,181.3136440750692L-35.846944573102725,182.4790081335599zM-36.85177351635393,176.80052573086454L-35.846944573102725,182.4790081335599L-34.97790185898474,177.76518103858857zM-39.50860024372967,174.3316798169564L-42.26607193866851,179.78182359732776L-39.27057291932405,181.3136440750692zM-38.38180067867214,175.64163520362914L-35.846944573102725,182.4790081335599L-36.85177351635393,176.80052573086454zM-39.50860024372967,174.3316798169564L-35.846944573102725,182.4790081335599L-38.38180067867214,175.64163520362914zM-39.50860024372967,174.3316798169564L-44.71920283129694,177.93887635864283L-42.26607193866851,179.78182359732776zM-44.71920283129694,177.93887635864283L-39.50860024372967,174.3316798169564L-46.53422981405298,175.85217888786585z" style="fill:rgb(127,37,217)"/><path d="M-79.08903080025203,114.69600773173912L-36.97623482074846,96.42561141642241L-73.6948646843017,35.86527670362706z" style="fill:rgb(247,158,158)"/><path d="M-20.56027833398361,182.8678851990196L60.49793614226227,160.78925645715654L-23.232694417785865,178.7452885071483z" style="fill:rgb(127,37,217)"/><path d="M-36.97623482074846,96.42561141642241L-79.08903080025203,114.69600773173912L-39.50860024372967,174.3316798169564z" style="fill:rgb(247,158,158)"/><path d="M60.49793614226227,160.78925645715654L-20.56027833398361,182.8678851990196L62.81732762791498,165.08482722332195z" style="fill:rgb(127,37,217)"/><path d="M-86.52273475898343,116.43261293823929L-73.6948646843017,35.86527670362706L-80.63186653493239,37.621298493716964z" style="fill:rgb(83,212,212)"/><path d="M-79.08903080025203,114.69600773173912L-46.53422981405298,175.85217888786585L-39.50860024372967,174.3316798169564z" style="fill:rgb(127,37,217)"/><path d="M-73.6948646843017,35.86527670362706L-86.52273475898343,116.43261293823929L-79.08903080025203,114.69600773173912z" style="fill:rgb(83,212,212)"/><path d="M-46.53422981405298,175.85217888786585L-79.08903080025203,114.69600773173912L-86.52273475898343,116.43261293823929z" style="fill:rgb(127,37,217)"/></svg>
