<?xml version="1.0" encoding="UTF-8"?>
<!-- Generated by jsxcad -->
<!DOCTYPE svg PUBLIC "-//W3C//DTD SVG 1.1 Tiny//EN" "http://www.w3.org/Graphics/SVG/1.1/DTD/svg11-tiny.dtd">
<svg viewBox="-250 -250 500 500" width="500" height="500" xmlns="http://www.w3.org/2000/svg"><path d="M-43.97519247758806,-65.41042683169323L122.65114227087899,139.2288169777747L97.32612961914482,-104.48897118021193z" style="fill:rgb(83,212,212)"/><path d="M97.32612961914482,-104.48897118021193L124.66257639865795,143.61901419485747L99.02172360356059,-100.05984183593131zM-54.93048534556312,177.66179992761292L-46.082622386122694,38.86249489288947L-48.488054962624425,34.71940005837118z" style="fill:rgb(247,158,158)"/><path d="M-64.29825824025377,178.51239393627787L-52.549981370609224,35.43711228864703L-56.763699310427455,35.59456816735589z" style="fill:rgb(120,217,217)"/><path d="M-69.07139092864857,178.11557193299222L-56.763699310427455,35.59456816735589L-60.97422429128988,35.18624478397207z" style="fill:rgb(145,216,216)"/><path d="M-52.549981370609224,35.43711228864703L-54.93048534556312,177.66179992761292L-48.488054962624425,34.71940005837118z" style="fill:rgb(95,214,214)"/><path d="M-65.0265734628657,34.22648607651748L-69.07139092864857,178.11557193299222L-60.97422429128988,35.18624478397207z" style="fill:rgb(169,212,212)"/><path d="M-77.92828454574337,175.74617406284165L-65.0265734628657,34.22648607651748L-68.77070984510402,32.74916192628984z" style="fill:rgb(192,205,205)"/><path d="M-81.68384769386279,173.85668205703286L-68.77070984510402,32.74916192628984L-72.066464489812,30.806800337776185z" style="fill:rgb(212,194,194)"/><path d="M-84.7951384328108,171.58139972732766L-72.066464489812,30.806800337776185L-74.7883439074526,28.469179646279517z" style="fill:rgb(229,181,181)"/><path d="M-76.83020479023604,25.821382471189423L-84.7951384328108,171.58139972732766L-74.7883439074526,28.469179646279517z" style="fill:rgb(242,166,166)"/><path d="M-82.84400169748656,27.360124854755604L-87.14067785957357,169.00251829065698L-76.83020479023604,25.821382471189423zM122.65114227087899,139.2288169777747L-43.97519247758806,-65.41042683169323L-54.93048534556312,177.66179992761292z" style="fill:rgb(83,212,212)"/><path d="M-46.082622386122694,38.86249489288947L-54.93048534556312,177.66179992761292L-52.17692389048431,181.6868112023422z" style="fill:rgb(247,158,158)"/><path d="M-52.549981370609224,35.43711228864703L-64.29825824025377,178.51239393627787L-59.52646703221054,178.35936531764753z" style="fill:rgb(120,217,217)"/><path d="M-56.763699310427455,35.59456816735589L-69.07139092864857,178.11557193299222L-64.29825824025377,178.51239393627787z" style="fill:rgb(145,216,216)"/><path d="M-54.93048534556312,177.66179992761292L-52.549981370609224,35.43711228864703L-59.52646703221054,178.35936531764753z" style="fill:rgb(95,214,214)"/><path d="M-69.07139092864857,178.11557193299222L-65.0265734628657,34.22648607651748L-73.67120846113637,177.18265674952934z" style="fill:rgb(169,212,212)"/><path d="M-65.0265734628657,34.22648607651748L-77.92828454574337,175.74617406284165L-73.67120846113637,177.18265674952934z" style="fill:rgb(192,205,205)"/><path d="M-68.77070984510402,32.74916192628984L-81.68384769386279,173.85668205703286L-77.92828454574337,175.74617406284165z" style="fill:rgb(212,194,194)"/><path d="M-116.67802988621723,121.8287147480782L-71.54643493604054,33.23204714967991L-102.61619999248,-18.32740671626493z" style="fill:rgb(247,158,158)"/><path d="M-72.066464489812,30.806800337776185L-84.7951384328108,171.58139972732766L-81.68384769386279,173.85668205703286z" style="fill:rgb(229,181,181)"/><path d="M-87.14067785957357,169.00251829065698L-82.84400169748656,27.360124854755604L-93.94241620018795,170.50142703684742z" style="fill:rgb(83,212,212)"/><path d="M-84.7951384328108,171.58139972732766L-76.83020479023604,25.821382471189423L-87.14067785957357,169.00251829065698z" style="fill:rgb(242,166,166)"/><path d="M124.66257639865795,143.61901419485747L97.32612961914482,-104.48897118021193L122.65114227087899,139.2288169777747z" style="fill:rgb(247,158,158)"/><path d="M-108.89776736106215,-16.639325188760306L-116.67802988621723,121.8287147480782L-102.61619999248,-18.32740671626493z" style="fill:rgb(83,212,212)"/><path d="M-71.54643493604054,33.23204714967991L-116.67802988621723,121.8287147480782L-80.81195692049319,172.36409141576314z" style="fill:rgb(247,158,158)"/><path d="M-64.29825824025377,178.51239393627787L-64.29828461416727,182.7819744428416L-58.12532367919333,182.585001018698zM-69.07139092864857,178.11557193299222L-70.4734970456353,182.27111809364465L-64.29828461416727,182.7819744428416zM-54.93048534556312,177.66179992761292L-58.12532367919333,182.585001018698L-52.17692389048431,181.6868112023422zM-73.67120846113637,177.18265674952934L-76.42832785143585,181.06958371488187L-70.4734970456353,182.27111809364465zM-64.29825824025377,178.51239393627787L-58.12532367919333,182.585001018698L-59.52646703221054,178.35936531764753zM-69.07139092864857,178.11557193299222L-64.29828461416727,182.7819744428416L-64.29825824025377,178.51239393627787zM-59.52646703221054,178.35936531764753L-58.12532367919333,182.585001018698L-54.93048534556312,177.66179992761292zM-73.67120846113637,177.18265674952934L-70.4734970456353,182.27111809364465L-69.07139092864857,178.11557193299222zM-81.68384769386279,173.85668205703286L-81.94626838839423,179.21804194210307L-76.42832785143585,181.06958371488187zM-77.92828454574337,175.74617406284165L-76.42832785143585,181.06958371488187L-73.67120846113637,177.18265674952934zM-81.68384769386279,173.85668205703286L-76.42832785143585,181.06958371488187L-77.92828454574337,175.74617406284165zM-87.14067785957357,169.00251829065698L-86.82340657319617,176.77978348511277L-81.94626838839423,179.21804194210307zM-84.7951384328108,171.58139972732766L-81.94626838839423,179.21804194210307L-81.68384769386279,173.85668205703286zM-87.14067785957357,169.00251829065698L-81.94626838839423,179.21804194210307L-84.7951384328108,171.58139972732766zM-87.14067785957357,169.00251829065698L-90.87506768034173,173.83953928224162L-86.82340657319617,176.77978348511277zM-90.87506768034173,173.83953928224162L-87.14067785957357,169.00251829065698L-93.94241620018795,170.50142703684742zM-52.17692389048431,181.6868112023422L122.65114227087899,139.2288169777747L-54.93048534556312,177.66179992761292z" style="fill:rgb(127,37,217)"/><path d="M-116.67802988621723,121.8287147480782L-108.89776736106215,-16.639325188760306L-123.79336116703006,123.4939292760899z" style="fill:rgb(83,212,212)"/><path d="M122.65114227087899,139.2288169777747L-52.17692389048431,181.6868112023422L124.66257639865795,143.61901419485747z" style="fill:rgb(127,37,217)"/><path d="M-116.67802988621723,121.8287147480782L-81.15096762980615,177.45472107742768L-80.81195692049319,172.36409141576314z" style="fill:rgb(247,158,158)"/><path d="M-117.19608604865343,126.99224929202191L-87.96522430918925,178.93959483410833L-81.15096762980615,177.45472107742768z" style="fill:rgb(127,37,217)"/><path d="M-81.15096762980615,177.45472107742768L-116.67802988621723,121.8287147480782L-117.19608604865343,126.99224929202191z" style="fill:rgb(247,158,158)"/><path d="M-87.96522430918925,178.93959483410833L-117.19608604865343,126.99224929202191L-124.3420113288692,128.65546462263563z" style="fill:rgb(127,37,217)"/><path d="M-124.3420113288692,128.65546462263563L-116.67802988621723,121.8287147480782L-123.79336116703006,123.4939292760899zM-116.67802988621723,121.8287147480782L-124.3420113288692,128.65546462263563L-117.19608604865343,126.99224929202191z" style="fill:rgb(83,212,212)"/></svg>
