<?xml version="1.0" encoding="UTF-8"?>
<!-- Generated by jsxcad -->
<!DOCTYPE svg PUBLIC "-//W3C//DTD SVG 1.1 Tiny//EN" "http://www.w3.org/Graphics/SVG/1.1/DTD/svg11-tiny.dtd">
<svg viewBox="-250 -250 500 500" width="500" height="500" xmlns="http://www.w3.org/2000/svg"><path d="M7.245812797377132,-39.74806264265562L8.485134558823244,-80.50710874030348L6.9269038343280975,-83.82115840025675z" style="fill:rgb(247,158,158)"/><path d="M4.911117054022015,-39.32918346244611L5.826943187893352,-83.6060187851576L4.694287883542487,-83.55878169599967z" style="fill:rgb(120,217,217)"/><path d="M6.095638543705656,-39.45272635512883L6.9269038343280975,-83.82115840025675L5.826943187893352,-83.6060187851576z" style="fill:rgb(95,214,214)"/><path d="M3.7372331943769237,-39.38214346031205L4.694287883542487,-83.55878169599967L3.5719638203720665,-83.68124581413325z" style="fill:rgb(145,216,216)"/><path d="M2.61860046526291,-39.609687149996965L3.5719638203720665,-83.68124581413325L2.502616491383823,-83.9687883449374z" style="fill:rgb(169,212,212)"/><path d="M-4.569866139431153,-74.03908001899984L-2.084128254440359,-89.81937160313889L-4.471579289320053,-94.83860245355152z" style="fill:rgb(247,158,158)"/><path d="M1.526947195730369,-84.41062127137293L2.61860046526291,-39.609687149996965L2.502616491383823,-83.9687883449374z" style="fill:rgb(192,205,205)"/><path d="M0.7139166146815322,-40.54831104365658L1.526947195730369,-84.41062127137293L0.6822069173856341,-84.99008923995677z" style="fill:rgb(212,194,194)"/><path d="M0.0008400461153420304,-41.224084635656425L0.6822069173856341,-84.99008923995677L0.0008026926190652464,-85.68531195632724z" style="fill:rgb(229,181,181)"/><path d="M-5.073121977638052,-40.45984360386865L-0.4909391903965643,-86.46996100960968L-4.846015885411571,-85.2557836472401z" style="fill:rgb(83,212,212)"/><path d="M-0.4909391903965643,-86.46996100960968L0.0008400461153420304,-41.224084635656425L0.0008026926190652464,-85.68531195632724z" style="fill:rgb(242,166,166)"/><path d="M-10.630527848255205,-76.03582335667818L-9.521568732691048,-97.593440399666L-10.40149020657938,-96.82875135826762z" style="fill:rgb(32,187,187)"/><path d="M-7.027493134008091,-79.11034901767825L-4.471579289320053,-94.83860245355152L-6.875676354528827,-99.89282031230863z" style="fill:rgb(247,158,158)"/><path d="M-9.521568732691048,-97.593440399666L-7.49101625190315,-79.70916342402786L-7.3291012238480615,-100.48956527561221z" style="fill:rgb(17,173,173)"/><path d="M-2.084128254440359,-89.81937160313889L-4.569866139431153,-74.03908001899984L-2.129731364029667,-69.00390727234729zM-7.4070621115967565,-79.89357909089539L-6.875676354528827,-99.89282031230863L-7.246935952277423,-100.67332923264102z" style="fill:rgb(247,158,158)"/><path d="M-7.3291012238480615,-100.48956527561221L-7.4070621115967565,-79.89357909089539L-7.246935952277423,-100.67332923264102z" style="fill:rgb(7,157,157)"/><path d="M-4.471579289320053,-94.83860245355152L-7.027493134008091,-79.11034901767825L-4.569866139431153,-74.03908001899984z" style="fill:rgb(247,158,158)"/><path d="M-9.521568732691048,-97.593440399666L-10.630527848255205,-76.03582335667818L-9.731374629357148,-76.80308161682994z" style="fill:rgb(32,187,187)"/><path d="M-7.49101625190315,-79.70916342402786L-9.521568732691048,-97.593440399666L-9.731374629357148,-76.80308161682994z" style="fill:rgb(17,173,173)"/><path d="M8.485134558823244,-80.50710874030348L7.245812797377132,-39.74806264265562L8.8745799644609,-36.41765445590593zM-6.875676354528827,-99.89282031230863L-7.4070621115967565,-79.89357909089539L-7.027493134008091,-79.11034901767825z" style="fill:rgb(247,158,158)"/><path d="M-7.4070621115967565,-79.89357909089539L-7.3291012238480615,-100.48956527561221L-7.49101625190315,-79.70916342402786z" style="fill:rgb(7,157,157)"/><path d="M5.826943187893352,-83.6060187851576L4.911117054022015,-39.32918346244611L6.095638543705656,-39.45272635512883z" style="fill:rgb(120,217,217)"/><path d="M4.694287883542487,-83.55878169599967L3.7372331943769237,-39.38214346031205L4.911117054022015,-39.32918346244611z" style="fill:rgb(145,216,216)"/><path d="M6.9269038343280975,-83.82115840025675L6.095638543705656,-39.45272635512883L7.245812797377132,-39.74806264265562z" style="fill:rgb(95,214,214)"/><path d="M3.5719638203720665,-83.68124581413325L2.61860046526291,-39.609687149996965L3.7372331943769237,-39.38214346031205z" style="fill:rgb(169,212,212)"/><path d="M2.61860046526291,-39.609687149996965L1.526947195730369,-84.41062127137293L1.597823276937429,-40.00333275639492z" style="fill:rgb(192,205,205)"/><path d="M1.526947195730369,-84.41062127137293L0.7139166146815322,-40.54831104365658L1.597823276937429,-40.00333275639492z" style="fill:rgb(212,194,194)"/><path d="M0.6822069173856341,-84.99008923995677L0.0008400461153420304,-41.224084635656425L0.7139166146815322,-40.54831104365658z" style="fill:rgb(229,181,181)"/><path d="M-0.4909391903965643,-86.46996100960968L-5.073121977638052,-40.45984360386865L-0.5138058168739579,-42.00508010112959z" style="fill:rgb(83,212,212)"/><path d="M0.0008400461153420304,-41.224084635656425L-0.4909391903965643,-86.46996100960968L-0.5138058168739579,-42.00508010112959z" style="fill:rgb(242,166,166)"/><path d="M-7.384591726800756,-79.84721270776843L-9.049026537323076,-72.8028285385333L-4.569866139431153,-74.03908001899984zM-9.049026537323076,-72.8028285385333L-7.384591726800756,-79.84721270776843L-10.51109440083972,-75.7916750194235zM-9.731374629357148,-76.80308161682994L-10.630527848255205,-76.03582335667818L-10.51109440083972,-75.7916750194235zM-7.384591726800756,-79.84721270776843L-7.4070621115967565,-79.89357909089539L-7.49101625190315,-79.70916342402786z" style="fill:rgb(127,37,217)"/><path d="M-4.706921724348318,-45.035300783941324L-2.129731364029667,-69.00390727234729L-4.569866139431153,-74.03908001899984zM13.30238965968429,-27.363927513690115L5.21285505922353,-40.63728055011416L13.345774742321309,-24.05762324341995z" style="fill:rgb(247,158,158)"/><path d="M-9.335687972769847,-42.12789983313681L-4.569866139431153,-74.03908001899984L-9.049026537323076,-72.8028285385333z" style="fill:rgb(83,212,212)"/><path d="M4.094400632997759,-40.25886286817714L11.18451932197337,-23.173716774148858L12.242877759245859,-23.68821413756925z" style="fill:rgb(162,50,222)"/><path d="M3.019822777796509,-39.73586777440099L10.2108486134698,-22.533661539082825L11.18451932197337,-23.173716774148858z" style="fill:rgb(183,62,221)"/><path d="M5.21285505922353,-40.63728055011416L12.242877759245859,-23.68821413756925L13.345774742321309,-24.05762324341995z" style="fill:rgb(139,40,220)"/><path d="M10.2108486134698,-22.533661539082825L1.1621705376159601,-38.34020550734335L9.358857202854198,-21.79229394355168z" style="fill:rgb(203,77,216)"/><path d="M9.358857202854198,-21.79229394355168L0.44976302157396675,-37.520389085489875L8.661016323892854,-20.97768697936333z" style="fill:rgb(220,94,208)"/><path d="M-18.97695081877965,-125.33377232254949L-18.623385036481675,-103.03825204361937L-18.21265818197346,-123.7269680668821z" style="fill:rgb(247,158,158)"/><path d="M7.327419179027025,-39.58119735390369L6.810488111648125,-35.88846222695658L8.8745799644609,-36.41765445590593z" style="fill:rgb(139,40,220)"/><path d="M5.110154857359389,-39.34994442312389L4.686436177309448,-35.38153341360069L6.810488111648125,-35.88846222695658z" style="fill:rgb(162,50,222)"/><path d="M8.661016323892854,-20.97768697936333L-0.08004037543437154,-36.65977558493972L8.144075460796552,-20.120734578747147z" style="fill:rgb(233,112,197)"/><path d="M-21.36474048204501,-124.64197261678191L-21.100967531946328,-104.16961317491854L-20.635149336518165,-124.85335211854486z" style="fill:rgb(83,212,212)"/><path d="M2.9786954776417796,-38.842568221910746L3.6341526698647124,-35.14868508119886L4.686436177309448,-35.38153341360069z" style="fill:rgb(183,62,221)"/><path d="M-15.514250373179273,-97.16137364429596L25.604527671835196,26.302255922225484L22.386149112932518,-107.86769493039549zM-21.100967531946328,-104.16961317491854L-18.97695081877965,-125.33377232254949L-20.635149336518165,-124.85335211854486z" style="fill:rgb(83,212,212)"/><path d="M8.144075460796552,-20.120734578747147L-0.40673741608097713,-35.79107870855183L7.828041070774234,-19.25401387768675z" style="fill:rgb(242,130,183)"/><path d="M6.810488111648125,-35.88846222695658L7.327419179027025,-39.58119735390369L5.110154857359389,-39.34994442312389z" style="fill:rgb(139,40,220)"/><path d="M4.686436177309448,-35.38153341360069L5.110154857359389,-39.34994442312389L2.9786954776417796,-38.842568221910746z" style="fill:rgb(162,50,222)"/><path d="M-0.5174352955707688,-34.94744895145919L3.1967876018419084,-17.226632799485326L7.725389763811569,-18.410599970788002z" style="fill:rgb(127,37,217)"/><path d="M7.828041070774234,-19.25401387768675L-0.5174352955707688,-34.94744895145919L7.725389763811569,-18.410599970788002z" style="fill:rgb(246,149,167)"/><path d="M3.6341526698647124,-35.14868508119886L2.9786954776417796,-38.842568221910746L1.4860287536131491,-38.26180153055274zM-0.5142400808578078,-41.16064008623178L2.580558318277011,-34.91554829804881L3.6341526698647124,-35.14868508119886z" style="fill:rgb(183,62,221)"/><path d="M5.21285505922353,-40.63728055011416L13.30238965968429,-27.363927513690115L5.195646063232903,-43.940124403274z" style="fill:rgb(247,158,158)"/><path d="M7.327419179027025,-39.58119735390369L7.245812797377132,-39.74806264265562L6.095638543705656,-39.45272635512883z" style="fill:rgb(139,40,220)"/><path d="M5.110154857359389,-39.34994442312389L4.911117054022015,-39.32918346244611L4.911247410288947,-39.302597534392156z" style="fill:rgb(120,217,217)"/><path d="M4.911117054022015,-39.32918346244611L3.737876658611829,-39.20967279448643L4.911247410288947,-39.302597534392156z" style="fill:rgb(145,216,216)"/><path d="M4.911247410288947,-39.302597534392156L3.737876658611829,-39.20967279448643L4.307685565052955,-39.15892329123908z" style="fill:rgb(162,50,222)"/><path d="M3.737876658611829,-39.20967279448643L4.911117054022015,-39.32918346244611L3.7372331943769237,-39.38214346031205z" style="fill:rgb(145,216,216)"/><path d="M2.61860046526291,-39.609687149996965L3.737876658611829,-39.20967279448643L3.7372331943769237,-39.38214346031205z" style="fill:rgb(169,212,212)"/><path d="M4.307685565052955,-39.15892329123908L2.7693244619022006,-39.266896978059535L3.679877922030669,-39.009479121263645zM3.679877922030669,-39.009479121263645L2.7693244619022006,-39.266896978059535L2.9786954776417796,-38.842568221910746z" style="fill:rgb(162,50,222)"/><path d="M25.604527671835196,26.302255922225484L23.898191756479136,-104.48431629570456L22.386149112932518,-107.86769493039549z" style="fill:rgb(247,158,158)"/><path d="M2.7693244619022006,-39.266896978059535L4.307685565052955,-39.15892329123908L2.7543397134975383,-39.297264148896424z" style="fill:rgb(162,50,222)"/><path d="M3.737876658611829,-39.20967279448643L2.61860046526291,-39.609687149996965L2.619385922720461,-39.30928196746618z" style="fill:rgb(169,212,212)"/><path d="M2.580558318277011,-34.91554829804881L-2.0727434498536232,-39.819600123694066L0.5706350479417425,-34.50782121641475z" style="fill:rgb(203,77,216)"/><path d="M2.7693244619022006,-39.266896978059535L1.4860287536131491,-38.26180153055274L2.9786954776417796,-38.842568221910746z" style="fill:rgb(183,62,221)"/><path d="M2.542686460818208,-39.6389642251089L2.619385922720461,-39.30928196746618L2.61860046526291,-39.609687149996965z" style="fill:rgb(192,205,205)"/><path d="M28.2885780439705,-46.80057643390466L13.345774742321309,-24.05762324341995L36.111583449998875,-30.032991995734342z" style="fill:rgb(127,37,217)"/><path d="M2.7693244619022006,-39.266896978059535L2.7543397134975383,-39.297264148896424L2.619431450715229,-39.29187400240081z" style="fill:rgb(183,62,221)"/><path d="M2.7543397134975383,-39.297264148896424L2.619385922720461,-39.30928196746618L2.619431450715229,-39.29187400240081z" style="fill:rgb(169,212,212)"/><path d="M2.542686460818208,-39.6389642251089L1.5984703672512153,-39.59789945771095L2.619385922720461,-39.30928196746618zM2.542686460818208,-39.6389642251089L1.597823276937429,-40.00333275639492L1.5983699552521156,-39.660812419248245zM1.5984703672512153,-39.59789945771095L2.619431450715229,-39.29187400240081L2.619385922720461,-39.30928196746618zM1.5984703672512153,-39.59789945771095L2.542686460818208,-39.6389642251089L1.5983699552521156,-39.660812419248245zM2.619431450715229,-39.29187400240081L1.5984703672512153,-39.59789945771095L1.5986873331781613,-39.46195983755339z" style="fill:rgb(192,205,205)"/><path d="M1.4860287536131491,-38.26180153055274L2.7693244619022006,-39.266896978059535L0.5356651658217773,-39.63909146903359z" style="fill:rgb(183,62,221)"/><path d="M5.195646063232903,-43.940124403274L5.110154857359389,-39.34994442312389L6.095638543705656,-39.45272635512883zM5.195646063232903,-43.940124403274L6.095638543705656,-39.45272635512883L7.245812797377132,-39.74806264265562z" style="fill:rgb(139,40,220)"/><path d="M1.5984703672512153,-39.59789945771095L1.5983699552521156,-39.660812419248245L1.316310997189473,-39.74689855077194zM1.597823276937429,-40.00333275639492L0.7143573418156037,-39.93062316706852L1.5983699552521156,-39.660812419248245zM1.316310997189473,-39.74689855077194L1.5986873331781613,-39.46195983755339L1.5984703672512153,-39.59789945771095z" style="fill:rgb(212,194,194)"/><path d="M35.99353389047331,-33.338242251109456L28.2885780439705,-46.80057643390466L36.111583449998875,-30.032991995734342z" style="fill:rgb(247,158,158)"/><path d="M0.7143573418156037,-39.93062316706852L1.597823276937429,-40.00333275639492L0.7139166146815322,-40.54831104365658zM1.316310997189473,-39.74689855077194L0.7144214682047664,-39.84074875250898L1.5986873331781613,-39.46195983755339z" style="fill:rgb(212,194,194)"/><path d="M2.580558318277011,-34.91554829804881L-0.5142400808578078,-41.16064008623178L-0.5143909174645138,-41.16054366575627zM1.5986873331781613,-39.46195983755339L0.7144214682047664,-39.84074875250898L1.0777784027935302,-39.5487578623033z" style="fill:rgb(183,62,221)"/><path d="M11.18451932197337,-23.173716774148858L4.094400632997759,-40.25886286817714L3.019822777796509,-39.73586777440099z" style="fill:rgb(162,50,222)"/><path d="M0.5706350479417425,-34.50782121641475L-3.3541397499306407,-38.34922959215676L-1.268428204666178,-34.173703396796675z" style="fill:rgb(220,94,208)"/><path d="M0.7144214682047664,-39.84074875250898L1.316310997189473,-39.74689855077194L0.7143573418156037,-39.93062316706852z" style="fill:rgb(212,194,194)"/><path d="M10.2108486134698,-22.533661539082825L3.019822777796509,-39.73586777440099L2.029879262769626,-39.088137350299654z" style="fill:rgb(183,62,221)"/><path d="M12.242877759245859,-23.68821413756925L5.21285505922353,-40.63728055011416L4.094400632997759,-40.25886286817714z" style="fill:rgb(139,40,220)"/><path d="M-2.0727434498536232,-39.819600123694066L2.580558318277011,-34.91554829804881L-0.5143909174645138,-41.16054366575627zM1.1621705376159601,-38.34020550734335L10.2108486134698,-22.533661539082825L2.029879262769626,-39.088137350299654z" style="fill:rgb(203,77,216)"/><path d="M0.7139166146815322,-40.54831104365658L0.0008407074677888249,-40.436888058864994L0.7143573418156037,-39.93062316706852zM0.0008407074677888249,-40.436888058864994L0.7139166146815322,-40.54831104365658L0.0008400461153420304,-41.224084635656425z" style="fill:rgb(229,181,181)"/><path d="M1.0777784027935302,-39.5487578623033L0.0008407265514386636,-40.41417311481559L0.5356651658217773,-39.63909146903359z" style="fill:rgb(183,62,221)"/><path d="M0.0008407074677888249,-40.436888058864994L0.7144214682047664,-39.84074875250898L0.7143573418156037,-39.93062316706852z" style="fill:rgb(229,181,181)"/><path d="M0.44976302157396675,-37.520389085489875L9.358857202854198,-21.79229394355168L1.1621705376159601,-38.34020550734335z" style="fill:rgb(220,94,208)"/><path d="M5.110154857359389,-39.34994442312389L5.195646063232903,-43.940124403274L3.1893936447128715,-43.26016598050144z" style="fill:rgb(139,40,220)"/><path d="M0.7144214682047664,-39.84074875250898L0.0008407074677888249,-40.436888058864994L0.0008407265514386636,-40.41417311481559z" style="fill:rgb(229,181,181)"/><path d="M-3.3541397499306407,-38.34922959215676L0.5706350479417425,-34.50782121641475L-2.0727434498536232,-39.819600123694066z" style="fill:rgb(220,94,208)"/><path d="M-0.5142400648331102,-41.16067124676181L0.0008400461153420304,-41.224084635656425L-0.5138058168739579,-42.00508010112959z" style="fill:rgb(242,166,166)"/><path d="M-0.08004037543437154,-36.65977558493972L8.661016323892854,-20.97768697936333L0.44976302157396675,-37.520389085489875z" style="fill:rgb(233,112,197)"/><path d="M0.0008400461153420304,-41.224084635656425L-0.5142400648331102,-41.16067124676181L0.0008407074677888249,-40.436888058864994z" style="fill:rgb(242,166,166)"/><path d="M3.1893936447128715,-43.26016598050144L1.6761182186419867,-41.482468578225244L3.6021068458918606,-42.41997827477445z" style="fill:rgb(162,50,222)"/><path d="M1.2619345728196292,-42.32188446860854L0.019530565237891116,-40.39915452610947L1.6761182186419867,-41.482468578225244zM1.2619345728196292,-42.32188446860854L0.0008407265514386636,-40.41417311481559L0.019530565237891116,-40.39915452610947z" style="fill:rgb(183,62,221)"/><path d="M-0.5142400648331102,-41.16067124676181L0.0008407265514386636,-40.41417311481559L0.0008407074677888249,-40.436888058864994z" style="fill:rgb(242,166,166)"/><path d="M1.6761182186419867,-41.482468578225244L3.1893936447128715,-43.26016598050144L1.2619345728196292,-42.32188446860854z" style="fill:rgb(162,50,222)"/><path d="M-2.129731364029667,-69.00390727234729L-4.706921724348318,-45.035300783941324L-2.1933075682981675,-39.984641076638354z" style="fill:rgb(247,158,158)"/><path d="M5.195646063232903,-43.940124403274L3.6021068458918606,-42.41997827477445L5.6069500483912265,-43.09911368695816z" style="fill:rgb(139,40,220)"/><path d="M0.0008407265514386636,-40.41417311481559L1.2619345728196292,-42.32188446860854L-0.5142400808578078,-41.16064008623178z" style="fill:rgb(183,62,221)"/><path d="M3.6021068458918606,-42.41997827477445L5.195646063232903,-43.940124403274L3.1893936447128715,-43.26016598050144z" style="fill:rgb(139,40,220)"/><path d="M-5.0895285640618475,-37.22369764868281L-0.5138058168739579,-42.00508010112959L-5.073121977638052,-40.45984360386865z" style="fill:rgb(83,212,212)"/><path d="M0.0008407265514386636,-40.41417311481559L-0.5142400648331102,-41.16067124676181L-0.5142400808578078,-41.16064008623178z" style="fill:rgb(242,166,166)"/><path d="M-0.40673741608097713,-35.79107870855183L8.144075460796552,-20.120734578747147L-0.08004037543437154,-36.65977558493972z" style="fill:rgb(242,130,183)"/><path d="M-1.268428204666178,-34.173703396796675L-4.309582580250436,-36.8045753392296L-2.8671294390561886,-33.926060203261294z" style="fill:rgb(233,112,197)"/><path d="M-0.5142400808578078,-41.16064008623178L-0.5142400648331102,-41.16067124676181L-0.5143909174645138,-41.16054366575627z" style="fill:rgb(85,212,212)"/><path d="M-0.5138058168739579,-42.00508010112959L-5.0895285640618475,-37.22369764868281L-0.5142400648331102,-41.16067124676181z" style="fill:rgb(83,212,212)"/><path d="M13.345774742321309,-24.05762324341995L28.2885780439705,-46.80057643390466L5.21285505922353,-40.63728055011416zM3.1967876018419084,-17.226632799485326L-0.5174352955707688,-34.94744895145919L-5.107259799987108,-33.72627120513067z" style="fill:rgb(127,37,217)"/><path d="M-4.309582580250436,-36.8045753392296L-1.268428204666178,-34.173703396796675L-3.3541397499306407,-38.34922959215676z" style="fill:rgb(233,112,197)"/><path d="M-0.5174352955707688,-34.94744895145919L7.828041070774234,-19.25401387768675L-0.40673741608097713,-35.79107870855183z" style="fill:rgb(246,149,167)"/><path d="M1.2619345728196292,-42.32188446860854L2.029879262769626,-39.088137350299654L3.1893936447128715,-43.26016598050144zM3.1893936447128715,-43.26016598050144L4.094400632997759,-40.25886286817714L5.195646063232903,-43.940124403274zM-2.0727434498536232,-39.819600123694066L-3.695159018255253,-38.42353442941863L-4.008189596477301,-37.59872200309927z" style="fill:rgb(83,212,212)"/><path d="M-2.8671294390561886,-33.926060203261294L-4.816144137816438,-35.469821290395664L-3.97589637067405,-33.79669286396608z" style="fill:rgb(242,130,183)"/><path d="M-0.5143909174645138,-41.16054366575627L-0.40673741608097713,-35.79107870855183L1.2619345728196292,-42.32188446860854z" style="fill:rgb(83,212,212)"/><path d="M28.2885780439705,-46.80057643390466L35.99353389047331,-33.338242251109456L28.194659952080663,-50.101706408034445z" style="fill:rgb(247,158,158)"/><path d="M-3.3541397499306407,-38.34922959215676L-4.008189596477301,-37.59872200309927L-4.309582580250436,-36.8045753392296z" style="fill:rgb(83,212,212)"/><path d="M-4.816144137816438,-35.469821290395664L-2.8671294390561886,-33.926060203261294L-4.309582580250436,-36.8045753392296z" style="fill:rgb(242,130,183)"/><path d="M-15.344158679796,-33.86699616047176L-14.82614426516545,-31.14044393283114L-14.801651210187714,-32.808940413875796z" style="fill:rgb(247,158,158)"/><path d="M-21.100967531946328,-104.16961317491854L-21.36474048204501,-124.64197261678191L-21.846939104063996,-103.95728654828449z" style="fill:rgb(83,212,212)"/><path d="M-18.623385036481675,-103.03825204361937L-18.97695081877965,-125.33377232254949L-19.40551724398714,-104.65216190748353z" style="fill:rgb(247,158,158)"/><path d="M-4.573963528781033,-37.66733663634551L-4.816144137816438,-35.469821290395664L-3.695159018255253,-38.42353442941863zM3.1893936447128715,-43.26016598050144L3.019822777796509,-39.73586777440099L4.094400632997759,-40.25886286817714zM-5.09880221009793,-35.39450104834896L-4.573963528781033,-37.66733663634551L-5.0895285640618475,-37.22369764868281zM3.1893936447128715,-43.26016598050144L2.029879262769626,-39.088137350299654L3.019822777796509,-39.73586777440099zM-2.0727434498536232,-39.819600123694066L-0.5174352955707688,-34.94744895145919L-0.5143909174645138,-41.16054366575627zM1.2619345728196292,-42.32188446860854L1.1621705376159601,-38.34020550734335L2.029879262769626,-39.088137350299654zM5.195646063232903,-43.940124403274L4.094400632997759,-40.25886286817714L5.21285505922353,-40.63728055011416zM-18.97695081877965,-125.33377232254949L-21.100967531946328,-104.16961317491854L-19.40551724398714,-104.65216190748353z" style="fill:rgb(83,212,212)"/><path d="M-3.97589637067405,-33.79669286396608L-4.48131114926621,-34.40665896898512L-4.163855078548131,-33.7747642099295z" style="fill:rgb(242,130,183)"/><path d="M-14.801651210187714,-32.808940413875796L-9.123451019875194,-32.657713948642204L-9.108357672763892,-34.32605662505491z" style="fill:rgb(83,212,212)"/><path d="M-4.48131114926621,-34.40665896898512L-3.97589637067405,-33.79669286396608L-4.39569381376644,-34.632606769173414z" style="fill:rgb(242,130,183)"/><path d="M1.2619345728196292,-42.32188446860854L0.44976302157396675,-37.520389085489875L1.1621705376159601,-38.34020550734335zM-9.123451019875194,-32.657713948642204L-14.801651210187714,-32.808940413875796L-14.82614426516545,-31.14044393283114zM-3.3541397499306407,-38.34922959215676L-0.5174352955707688,-34.94744895145919L-2.0727434498536232,-39.819600123694066zM-4.39569381376644,-34.632606769173414L-4.452901590595712,-34.61737752453647L-4.48131114926621,-34.40665896898512zM-4.573963528781033,-37.66733663634551L-5.09880221009793,-35.39450104834896L-4.873390755524046,-35.45456834120775z" style="fill:rgb(83,212,212)"/><path d="M-14.82614426516545,-31.14044393283114L-15.344158679796,-33.86699616047176L-15.36957442845859,-32.19860383078544z" style="fill:rgb(247,158,158)"/><path d="M-4.816144137816438,-35.469821290395664L-4.573963528781033,-37.66733663634551L-4.873390755524046,-35.45456834120775zM1.2619345728196292,-42.32188446860854L-0.08004037543437154,-36.65977558493972L0.44976302157396675,-37.520389085489875z" style="fill:rgb(83,212,212)"/><path d="M-4.569315391074344,-33.753922730569116L-4.163855078548131,-33.7747642099295L-4.48131114926621,-34.40665896898512z" style="fill:rgb(246,149,167)"/><path d="M-4.873390755524046,-35.45456834120775L-4.56553486825908,-34.58738863245474L-4.452901590595712,-34.61737752453647z" style="fill:rgb(127,37,217)"/><path d="M-4.452901590595712,-34.61737752453647L-4.56553486825908,-34.58738863245474L-4.569315391074344,-33.753922730569116z" style="fill:rgb(83,212,212)"/><path d="M-4.816144137816438,-35.469821290395664L-4.452901590595712,-34.61737752453647L-4.39569381376644,-34.632606769173414z" style="fill:rgb(127,37,217)"/><path d="M-4.39569381376644,-34.632606769173414L-4.901904301952237,-35.243849431057654L-4.48131114926621,-34.40665896898512z" style="fill:rgb(242,130,183)"/><path d="M-4.56553486825908,-34.58738863245474L-4.873390755524046,-35.45456834120775L-5.09880221009793,-35.39450104834896zM-4.452901590595712,-34.61737752453647L-4.816144137816438,-35.469821290395664L-4.873390755524046,-35.45456834120775z" style="fill:rgb(127,37,217)"/><path d="M-16.516924715186132,-36.15424810323915L-15.36957442845859,-32.19860383078544L-15.344158679796,-33.86699616047176z" style="fill:rgb(247,158,158)"/><path d="M-4.901904301952237,-35.243849431057654L-4.39569381376644,-34.632606769173414L-4.816144137816438,-35.469821290395664z" style="fill:rgb(242,130,183)"/><path d="M1.2619345728196292,-42.32188446860854L-0.40673741608097713,-35.79107870855183L-0.08004037543437154,-36.65977558493972zM-4.569866139431153,-74.03908001899984L-9.335687972769847,-42.12789983313681L-4.714799276247207,-43.368248862443956zM-4.309582580250436,-36.8045753392296L-0.5174352955707688,-34.94744895145919L-3.3541397499306407,-38.34922959215676zM-9.108357672763892,-34.32605662505491L-5.967926685211754,-33.497279880560995L-5.958045937614661,-35.16553416701408zM-4.816144137816438,-35.469821290395664L-4.873390755524046,-35.45456834120775L-4.901904301952237,-35.243849431057654zM-5.967926685211754,-33.497279880560995L-9.108357672763892,-34.32605662505491L-9.123451019875194,-32.657713948642204zM-5.958045937614661,-35.16553416701408L-5.338037001753659,-33.664869626450574L-5.329197774029947,-35.33310619797619z" style="fill:rgb(83,212,212)"/><path d="M-5.107259799987108,-33.72627120513067L-4.48131114926621,-34.40665896898512L-4.901904301952237,-35.243849431057654z" style="fill:rgb(246,149,167)"/><path d="M-0.5143909174645138,-41.16054366575627L-0.5174352955707688,-34.94744895145919L-0.40673741608097713,-35.79107870855183zM-5.338037001753659,-33.664869626450574L-4.873390755524046,-35.45456834120775L-5.329197774029947,-35.33310619797619z" style="fill:rgb(83,212,212)"/><path d="M-4.48131114926621,-34.40665896898512L-5.107259799987108,-33.72627120513067L-4.685915663169134,-32.88908515764542z" style="fill:rgb(246,149,167)"/><path d="M-4.901904301952237,-35.243849431057654L-0.5174352955707688,-34.94744895145919L-4.309582580250436,-36.8045753392296z" style="fill:rgb(83,212,212)"/><path d="M-16.544341367955308,-34.486100519915816L-14.850718447950076,-29.466416272876586L-14.82614426516545,-31.14044393283114z" style="fill:rgb(247,158,158)"/><path d="M28.2885780439705,-46.80057643390466L5.195646063232903,-43.940124403274L5.21285505922353,-40.63728055011416zM-5.338037001753659,-33.664869626450574L-5.958045937614661,-35.16553416701408L-5.967926685211754,-33.497279880560995z" style="fill:rgb(83,212,212)"/><path d="M7.311937653341059,-30.609632123519035L8.380621041717564,-32.66062552911286L7.299825319456248,-32.28355216489223z" style="fill:rgb(72,208,208)"/><path d="M-14.992911885981787,-28.481674841054296L-9.138594512925142,-30.983833053733356L-15.421904098028323,-29.31468219060353z" style="fill:rgb(127,37,217)"/><path d="M-15.36957442845859,-32.19860383078544L-16.516924715186132,-36.15424810323915L-16.544341367955308,-34.486100519915816z" style="fill:rgb(247,158,158)"/><path d="M-4.873390755524046,-35.45456834120775L-5.338037001753659,-33.664869626450574L-5.107259799987108,-33.72627120513067z" style="fill:rgb(83,212,212)"/><path d="M-15.395074581947362,-30.52467781665104L-15.421904098028323,-29.31468219060353L-14.850718447950076,-29.466416272876586zM-9.138594512925142,-30.983833053733356L-14.992911885981787,-28.481674841054296L-8.601053645665338,-30.178159235240905zM-15.421904098028323,-29.31468219060353L-15.395074581947362,-30.52467781665104L-15.704786152202141,-29.86397489120226z" style="fill:rgb(127,37,217)"/><path d="M8.39453155410986,-30.986744779598848L9.341789992546856,-33.18426211359474L8.380621041717564,-32.66062552911286z" style="fill:rgb(50,199,199)"/><path d="M-0.5174352955707688,-34.94744895145919L-4.901904301952237,-35.243849431057654L-5.107259799987108,-33.72627120513067zM5.195646063232903,-43.940124403274L28.2885780439705,-46.80057643390466L28.194659952080663,-50.101706408034445z" style="fill:rgb(83,212,212)"/><path d="M8.380621041717564,-32.66062552911286L7.311937653341059,-30.609632123519035L8.39453155410986,-30.986744779598848z" style="fill:rgb(72,208,208)"/><path d="M9.341789992546856,-33.18426211359474L8.39453155410986,-30.986744779598848L9.357303465379385,-31.51043362221193z" style="fill:rgb(50,199,199)"/><path d="M9.341789992546856,-33.18426211359474L10.163416907051158,-32.16096726070193L10.146556735021472,-33.83472950798389z" style="fill:rgb(32,187,187)"/><path d="M7.552460632267534,-35.41778638202565L-14.82614426516545,-31.14044393283114L-14.850718447950076,-29.466416272876586z" style="fill:rgb(83,212,212)"/><path d="M-8.601053645665338,-30.178159235240905L-6.646303064893319,-31.645906218375362L-9.138594512925142,-30.983833053733356zM-6.646303064893319,-31.645906218375362L-8.601053645665338,-30.178159235240905L-5.2821631774531435,-31.059038231226854zM-16.571849116242184,-32.81240562251709L-15.704786152202141,-29.86397489120226L-15.395074581947362,-30.52467781665104z" style="fill:rgb(127,37,217)"/><path d="M-14.850718447950076,-29.466416272876586L-16.544341367955308,-34.486100519915816L-16.571849116242184,-32.81240562251709z" style="fill:rgb(247,158,158)"/><path d="M-0.08004037543437154,-36.65977558493972L7.539893889668102,-37.091198216971364L-0.026946605513809976,-36.746019738533775z" style="fill:rgb(83,212,212)"/><path d="M10.163416907051158,-32.16096726070193L9.341789992546856,-33.18426211359474L9.357303465379385,-31.51043362221193z" style="fill:rgb(32,187,187)"/><path d="M-11.27261593883744,-37.5801188569494L-11.272321583373062,-35.8937587177666L-11.253617174642223,-37.561751696620945z" style="fill:rgb(229,181,181)"/><path d="M-0.40673741608097713,-35.79107870855183L7.539893889668102,-37.091198216971364L-0.08004037543437154,-36.65977558493972z" style="fill:rgb(83,212,212)"/><path d="M10.146556735021472,-33.83472950798389L10.78183637928423,-32.91375784636278L10.76393783507374,-34.587442124387245z" style="fill:rgb(17,173,173)"/><path d="M7.946456024285313,-36.261466400077886L7.9394782664227295,-37.916716126057324L7.933265804152045,-37.92941500411098z" style="fill:rgb(247,158,158)"/><path d="M-5.2821631774531435,-31.059038231226854L-3.9673629929739334,-32.357563184051365L-6.646303064893319,-31.645906218375362z" style="fill:rgb(127,37,217)"/><path d="M-0.026946605513809976,-36.746019738533775L7.539893889668102,-37.091198216971364L7.527368864155671,-38.75905025857641z" style="fill:rgb(83,212,212)"/><path d="M-15.704786152202141,-29.86397489120226L-16.571849116242184,-32.81240562251709L-17.14457322563804,-32.659722039449996z" style="fill:rgb(127,37,217)"/><path d="M-11.818776908385406,-36.70389124217115L-11.27261593883744,-37.5801188569494L-11.799151033014915,-38.37179104613195z" style="fill:rgb(242,166,166)"/><path d="M10.78183637928423,-32.91375784636278L10.146556735021472,-33.83472950798389L10.163416907051158,-32.16096726070193z" style="fill:rgb(17,173,173)"/><path d="M-11.272321583373062,-35.8937587177666L-11.27261593883744,-37.5801188569494L-11.291352244499967,-35.912130298856596z" style="fill:rgb(229,181,181)"/><path d="M7.539893889668102,-37.091198216971364L-0.40673741608097713,-35.79107870855183L-0.5174352955707688,-34.94744895145919z" style="fill:rgb(83,212,212)"/><path d="M-11.27261593883744,-37.5801188569494L-11.818776908385406,-36.70389124217115L-11.291352244499967,-35.912130298856596z" style="fill:rgb(242,166,166)"/><path d="M7.539893889668102,-37.091198216971364L7.933265804152045,-37.92941500411098L7.527368864155671,-38.75905025857641zM7.9394782664227295,-37.916716126057324L7.946456024285313,-36.261466400077886L7.952678695799381,-36.24876622603464z" style="fill:rgb(247,158,158)"/><path d="M-14.82614426516545,-31.14044393283114L7.552460632267534,-35.41778638202565L7.539893889668102,-37.091198216971364zM0.019652723333902708,-34.13995268997313L5.658278771608874,-33.962779685793244L5.648876482749037,-35.63635436316598z" style="fill:rgb(83,212,212)"/><path d="M10.76393783507374,-34.587442124387245L11.188531874530451,-33.740238449144066L11.169943926132255,-35.41383494640609z" style="fill:rgb(7,157,157)"/><path d="M5.658278771608874,-33.962779685793244L0.019652723333902708,-34.13995268997313L0.019685388760567215,-32.46622175984202z" style="fill:rgb(83,212,212)"/><path d="M-3.9673629929739334,-32.357563184051365L-5.2821631774531435,-31.059038231226854L5.658278771608874,-33.962779685793244z" style="fill:rgb(127,37,217)"/><path d="M7.933265804152045,-37.92941500411098L7.539893889668102,-37.091198216971364L7.946456024285313,-36.261466400077886z" style="fill:rgb(247,158,158)"/><path d="M11.188531874530451,-33.740238449144066L10.76393783507374,-34.587442124387245L10.78183637928423,-32.91375784636278z" style="fill:rgb(7,157,157)"/><path d="M-12.126358683695807,-37.55582760675245L-11.799151033014915,-38.37179104613195L-12.106206164155191,-39.2236249136626zM-11.799151033014915,-38.37179104613195L-12.126358683695807,-37.55582760675245L-11.818776908385406,-36.70389124217115z" style="fill:rgb(251,149,149)"/><path d="M11.169943926132255,-35.41383494640609L11.367436417188419,-34.60890784204728L11.34853596551022,-36.28240964325578z" style="fill:rgb(1,140,140)"/><path d="M5.648876482749037,-35.63635436316598L7.96592305740578,-34.57526056007473L7.952678695799381,-36.24876622603464z" style="fill:rgb(83,212,212)"/><path d="M-12.181490130938757,-40.103091820127496L-12.126358683695807,-37.55582760675245L-12.106206164155191,-39.2236249136626z" style="fill:rgb(254,132,132)"/><path d="M7.946456024285313,-36.261466400077886L7.96592305740578,-34.57526056007473L7.952678695799381,-36.24876622603464z" style="fill:rgb(247,158,158)"/><path d="M11.367436417188419,-34.60890784204728L11.169943926132255,-35.41383494640609L11.188531874530451,-33.740238449144066z" style="fill:rgb(1,140,140)"/><path d="M-3.9673629929739334,-32.357563184051365L5.658278771608874,-33.962779685793244L5.570317747642376,-34.14114110113709z" style="fill:rgb(127,37,217)"/><path d="M7.96592305740578,-34.57526056007473L5.648876482749037,-35.63635436316598L5.658278771608874,-33.962779685793244z" style="fill:rgb(83,212,212)"/><path d="M5.570317747642376,-34.14114110113709L5.243246729528864,-34.80434633885062L-3.9673629929739334,-32.357563184051365z" style="fill:rgb(127,37,217)"/><path d="M16.144061152075178,-37.706193645940175L16.265187538234493,-34.452606205920006L16.238147596802435,-36.12612519003207z" style="fill:rgb(254,132,132)"/><path d="M-18.623385036481675,-103.03825204361937L-18.646795001567515,-103.0865557195441L-18.850618577675156,-103.14201595628087z" style="fill:rgb(127,37,217)"/><path d="M7.552460632267534,-35.41778638202565L7.946456024285313,-36.261466400077886L7.539893889668102,-37.091198216971364zM7.96592305740578,-34.57526056007473L7.946456024285313,-36.261466400077886L7.959690214579844,-34.58795995675881z" style="fill:rgb(247,158,158)"/><path d="M-12.126358683695807,-37.55582760675245L-12.181490130938757,-40.103091820127496L-12.201784500058567,-38.435402612429804z" style="fill:rgb(254,132,132)"/><path d="M-11.291088322752477,-34.22021432537394L-11.31015098817261,-34.238587909242256L-11.29686438302126,-34.21867589969538zM5.658278771608874,-33.962779685793244L7.959690214579844,-34.58795995675881L5.570317747642376,-34.14114110113709z" style="fill:rgb(127,37,217)"/><path d="M7.946456024285313,-36.261466400077886L7.552460632267534,-35.41778638202565L7.959690214579844,-34.58795995675881z" style="fill:rgb(247,158,158)"/><path d="M7.959690214579844,-34.58795995675881L5.658278771608874,-33.962779685793244L7.96592305740578,-34.57526056007473zM-11.29686438302126,-34.21867589969538L-12.686875068325477,-36.30204007207808L-14.001462243160285,-33.49765094921915zM-18.646795001567515,-103.0865557195441L-19.40551724398714,-104.65216190748353L-21.846939104063996,-103.95728654828449zM7.552460632267534,-35.41778638202565L5.570317747642376,-34.14114110113709L7.959690214579844,-34.58795995675881zM5.570317747642376,-34.14114110113709L7.552460632267534,-35.41778638202565L5.243246729528864,-34.80434633885062z" style="fill:rgb(127,37,217)"/><path d="M16.265187538234493,-34.452606205920006L16.144061152075178,-37.706193645940175L16.170983829083834,-36.032849356777106z" style="fill:rgb(254,132,132)"/><path d="M-11.430984819112467,-38.98120856038255L-17.14457322563804,-32.659722039449996L-14.001462243160285,-33.49765094921915z" style="fill:rgb(127,37,217)"/><path d="M-11.411901666188179,-40.65419928699214L-19.248853850847734,-40.21145027179779L-19.28092575623674,-38.543769761117126z" style="fill:rgb(83,212,212)"/><path d="M15.949258390510655,-36.69414665792681L16.144061152075178,-37.706193645940175L15.922688590154305,-38.36741216825999z" style="fill:rgb(251,149,149)"/><path d="M-19.248853850847734,-40.21145027179779L-11.411901666188179,-40.65419928699214L-11.392882071579365,-42.3216156134087z" style="fill:rgb(83,212,212)"/><path d="M-11.838468234321958,-35.0304361576496L-12.146578463264138,-35.88246862672763L-12.108101961061331,-35.434567171872054z" style="fill:rgb(127,37,217)"/><path d="M-2.1933075682981675,-39.984641076638354L-4.300614710836119,-42.5373038540453L-2.19696122892006,-38.316932986867904z" style="fill:rgb(247,158,158)"/><path d="M16.144061152075178,-37.706193645940175L15.949258390510655,-36.69414665792681L16.170983829083834,-36.032849356777106z" style="fill:rgb(251,149,149)"/><path d="M-11.217804900483628,-39.03829447719475L-11.31015098817261,-34.238587909242256L-11.291088322752477,-34.22021432537394zM-4.346371084275565,-42.5491358525843L-6.799224826227356,-37.08810283366021L-2.19696122892006,-38.316932986867904zM-11.670869306325299,-38.46946725533496L-11.838468234321958,-35.0304361576496L-11.31015098817261,-34.238587909242256z" style="fill:rgb(127,37,217)"/><path d="M11.002867466198989,-38.01256416285495L15.655480995281062,-37.570340678390465L15.629379439176562,-39.24350282633052zM-11.392882071579365,-42.3216156134087L-11.199076596870816,-40.71128030269464L-11.180410773696376,-42.378684795793504z" style="fill:rgb(83,212,212)"/><path d="M15.655480995281062,-37.570340678390465L15.922688590154305,-38.36741216825999L15.629379439176562,-39.24350282633052z" style="fill:rgb(251,149,149)"/><path d="M15.655480995281062,-37.570340678390465L11.002867466198989,-38.01256416285495L11.021221688018377,-36.33925762967887z" style="fill:rgb(83,212,212)"/><path d="M-17.14457322563804,-32.659722039449996L-11.430984819112467,-38.98120856038255L-19.313104627689654,-36.87052486699106zM-12.061704695039682,-37.63570365971853L-12.146578463264138,-35.88246862672763L-11.838468234321958,-35.0304361576496zM-12.108101961061331,-35.434567171872054L-12.260719270642715,-37.211151832781425L-12.686875068325477,-36.30204007207808z" style="fill:rgb(127,37,217)"/><path d="M-19.313104627689654,-36.87052486699106L-11.411901666188179,-40.65419928699214L-19.28092575623674,-38.543769761117126z" style="fill:rgb(83,212,212)"/><path d="M15.922688590154305,-38.36741216825999L15.655480995281062,-37.570340678390465L15.949258390510655,-36.69414665792681z" style="fill:rgb(251,149,149)"/><path d="M-4.300614710836119,-42.5373038540453L-2.1933075682981675,-39.984641076638354L-4.293434659208728,-44.20447287258716z" style="fill:rgb(247,158,158)"/><path d="M-11.199076596870816,-40.71128030269464L-11.392882071579365,-42.3216156134087L-11.411901666188179,-40.65419928699214z" style="fill:rgb(83,212,212)"/><path d="M-12.146578463264138,-35.88246862672763L-12.061704695039682,-37.63570365971853L-12.222146657898984,-36.76214286853598zM-11.217804900483628,-39.03829447719475L-11.291088322752477,-34.22021432537394L-0.011288630348584188,-37.22732063531478zM-6.799224826227356,-37.08810283366021L-4.346371084275565,-42.5491358525843L-8.929117992440823,-41.32006782870409zM-12.061704695039682,-37.63570365971853L-11.838468234321958,-35.0304361576496L-11.670869306325299,-38.46946725533496zM-12.061704695039682,-37.63570365971853L-12.260719270642715,-37.211151832781425L-12.222146657898984,-36.76214286853598z" style="fill:rgb(127,37,217)"/><path d="M3.7892413878482474,-46.39963556480568L5.8822832444963495,-40.47413696919145L5.872481192061667,-42.1415763711092z" style="fill:rgb(247,158,158)"/><path d="M-11.670869306325299,-38.46946725533496L-11.31015098817261,-34.238587909242256L-11.217804900483628,-39.03829447719475zM-4.293434659208728,-44.20447287258716L-4.304014488086862,-44.22573357526546L-4.339114561449264,-44.21630328270622zM1.038984726879707,-37.903660596773605L-0.011288630348584188,-37.22732063531478L0.8204158624226792,-37.44904830942961zM-0.3123756899100409,-38.10593367742649L-0.011288630348584188,-37.22732063531478L-0.013007867343494137,-37.25038480807959zM-4.346371084275565,-42.5491358525843L-2.19696122892006,-38.316932986867904L-4.300614710836119,-42.5373038540453z" style="fill:rgb(127,37,217)"/><path d="M-4.339114561449264,-44.21630328270622L-4.298247179626178,-43.08703644517986L-4.293434659208728,-44.20447287258716z" style="fill:rgb(169,212,212)"/><path d="M1.4679108084846553,-37.62166360889182L1.038984726879707,-37.903660596773605L0.8204158624226792,-37.44904830942961z" style="fill:rgb(127,37,217)"/><path d="M-11.411901666188179,-40.65419928699214L-19.313104627689654,-36.87052486699106L-11.430984819112467,-38.98120856038255z" style="fill:rgb(83,212,212)"/><path d="M-0.013007867343494137,-37.25038480807959L-0.04651102250341784,-37.69979821658124L-0.3123756899100409,-38.10593367742649z" style="fill:rgb(127,37,217)"/><path d="M-11.430984819112467,-38.98120856038255L-11.199076596870816,-40.71128030269464L-11.411901666188179,-40.65419928699214zM-4.339114561449264,-44.21630328270622L-4.227728966307172,-42.580956409269334L-4.2206703166558075,-44.24811956541217z" style="fill:rgb(83,212,212)"/><path d="M-0.011288630348584188,-37.22732063531478L1.038984726879707,-37.903660596773605L-0.11843549589024666,-38.66459891704684z" style="fill:rgb(127,37,217)"/><path d="M-4.227728966307172,-42.580956409269334L-3.722269987359939,-44.381990530223355L-4.2206703166558075,-44.24811956541217z" style="fill:rgb(83,212,212)"/><path d="M-0.8344696402472873,-38.90349010169508L-0.011288630348584188,-37.22732063531478L-0.3123756899100409,-38.10593367742649z" style="fill:rgb(127,37,217)"/><path d="M-4.298247179626178,-43.08703644517986L-4.339114561449264,-44.21630328270622L-4.344342411588573,-43.015222871838574z" style="fill:rgb(169,212,212)"/><path d="M-4.706921724348318,-45.035300783941324L-4.311212373889693,-42.558567411618505L-4.304014488086862,-44.22573357526546z" style="fill:rgb(247,158,158)"/><path d="M-11.199076596870816,-40.71128030269464L-11.430984819112467,-38.98120856038255L-11.217804900483628,-39.03829447719475zM-4.227728966307172,-42.580956409269334L-4.339114561449264,-44.21630328270622L-4.346371084275565,-42.5491358525843z" style="fill:rgb(83,212,212)"/><path d="M-0.04651102250341784,-37.69979821658124L-0.11843549589024666,-38.66459891704684L-1.1009278149296602,-39.31053452825026zM-1.5595847318948448,-39.61207518614601L-0.011288630348584188,-37.22732063531478L-0.8344696402472873,-38.90349010169508z" style="fill:rgb(127,37,217)"/><path d="M-3.722269987359939,-44.381990530223355L-4.227728966307172,-42.580956409269334L-3.728495864241235,-42.71484988880633z" style="fill:rgb(83,212,212)"/><path d="M-4.346371084275565,-42.5491358525843L-4.298247179626178,-43.08703644517986L-4.344342411588573,-43.015222871838574z" style="fill:rgb(169,212,212)"/><path d="M-8.929117992440823,-41.32006782870409L-4.714799276247207,-43.368248862443956L-9.335687972769847,-42.12789983313681zM-11.217804900483628,-39.03829447719475L-11.430984819112467,-38.98120856038255L-11.670869306325299,-38.46946725533496z" style="fill:rgb(127,37,217)"/><path d="M-4.298247179626178,-43.08703644517986L-4.346371084275565,-42.5491358525843L-4.300614710836119,-42.5373038540453z" style="fill:rgb(169,212,212)"/><path d="M-4.714799276247207,-43.368248862443956L-8.929117992440823,-41.32006782870409L-4.311212373889693,-42.558567411618505z" style="fill:rgb(127,37,217)"/><path d="M-3.722269987359939,-44.381990530223355L1.4760452391818395,-44.11068012555156L1.4735773574907893,-45.77762964237487z" style="fill:rgb(83,212,212)"/><path d="M-4.311212373889693,-42.558567411618505L-4.706921724348318,-45.035300783941324L-4.714799276247207,-43.368248862443956z" style="fill:rgb(247,158,158)"/><path d="M-2.4600161737508315,-40.20405698321687L-0.011288630348584188,-37.22732063531478L-1.5595847318948448,-39.61207518614601zM-11.217804900483628,-39.03829447719475L-0.011288630348584188,-37.22732063531478L-4.353651918664617,-40.87638760787134z" style="fill:rgb(127,37,217)"/><path d="M-4.353651918664617,-40.87638760787134L-11.199076596870816,-40.71128030269464L-11.217804900483628,-39.03829447719475zM-11.199076596870816,-40.71128030269464L-4.353651918664617,-40.87638760787134L-4.346371084275565,-42.5491358525843zM1.4760452391818395,-44.11068012555156L-3.722269987359939,-44.381990530223355L-3.728495864241235,-42.71484988880633z" style="fill:rgb(83,212,212)"/><path d="M5.8822832444963495,-40.47413696919145L3.7892413878482474,-46.39963556480568L3.795591093992569,-44.73276866481401z" style="fill:rgb(247,158,158)"/><path d="M-0.8344696402472873,-38.90349010169508L-1.1009278149296602,-39.31053452825026L-1.5595847318948448,-39.61207518614601zM-3.5010995124751116,-40.6562725015524L-0.011288630348584188,-37.22732063531478L-2.4600161737508315,-40.20405698321687z" style="fill:rgb(127,37,217)"/><path d="M7.311937653341059,-30.609632123519035L8.594243181884616,-6.955068211667468L8.39453155410986,-30.986744779598848z" style="fill:rgb(72,208,208)"/><path d="M1.4785214076269406,-42.43813325748116L1.4679108084846553,-37.62166360889182L3.5766023988327422,-38.18382468104487zM-4.353651918664617,-40.87638760787134L-0.011288630348584188,-37.22732063531478L-3.5010995124751116,-40.6562725015524z" style="fill:rgb(127,37,217)"/><path d="M5.8822832444963495,-40.47413696919145L3.8019620992992214,-43.06030578930765L5.89211804726231,-38.801124019791544z" style="fill:rgb(247,158,158)"/><path d="M8.594243181884616,-6.955068211667468L9.357303465379385,-31.51043362221193L8.39453155410986,-30.986744779598848z" style="fill:rgb(50,199,199)"/><path d="M-4.346371084275565,-42.5491358525843L-4.234811246147313,-40.90821210346638L-4.227728966307172,-42.580956409269334zM-4.227728966307172,-42.580956409269334L-3.7347426197245377,-41.04211845807511L-3.728495864241235,-42.71484988880633zM1.4735773574907893,-45.77762964237487L3.795591093992569,-44.73276866481401L3.7892413878482474,-46.39963556480568z" style="fill:rgb(83,212,212)"/><path d="M3.8019620992992214,-43.06030578930765L3.5766023988327422,-38.18382468104487L5.89211804726231,-38.801124019791544z" style="fill:rgb(127,37,217)"/><path d="M3.795591093992569,-44.73276866481401L1.4735773574907893,-45.77762964237487L1.4760452391818395,-44.11068012555156zM-4.234811246147313,-40.90821210346638L-4.346371084275565,-42.5491358525843L-4.353651918664617,-40.87638760787134zM-3.7347426197245377,-41.04211845807511L-4.227728966307172,-42.580956409269334L-4.234811246147313,-40.90821210346638z" style="fill:rgb(83,212,212)"/><path d="M1.4679108084846553,-37.62166360889182L1.4785214076269406,-42.43813325748116L-3.7347426197245377,-41.04211845807511z" style="fill:rgb(127,37,217)"/><path d="M3.8019620992992214,-43.06030578930765L5.8822832444963495,-40.47413696919145L3.795591093992569,-44.73276866481401z" style="fill:rgb(247,158,158)"/><path d="M9.357303465379385,-31.51043362221193L10.405482527763414,-8.130320342071228L10.163416907051158,-32.16096726070193z" style="fill:rgb(32,187,187)"/><path d="M-2.4600161737508315,-40.20405698321687L-3.3974802369507593,-40.82038599496762L-4.032174480189459,-40.88695487659093z" style="fill:rgb(127,37,217)"/><path d="M-3.728495864241235,-42.71484988880633L1.4785214076269406,-42.43813325748116L1.4760452391818395,-44.11068012555156z" style="fill:rgb(83,212,212)"/><path d="M-3.5010995124751116,-40.6562725015524L-4.234811246147313,-40.90821210346638L-4.353651918664617,-40.87638760787134zM-4.234811246147313,-40.90821210346638L-3.5010995124751116,-40.6562725015524L-4.032174480189459,-40.88695487659093z" style="fill:rgb(127,37,217)"/><path d="M1.4785214076269406,-42.43813325748116L-3.728495864241235,-42.71484988880633L-3.7347426197245377,-41.04211845807511z" style="fill:rgb(83,212,212)"/><path d="M-3.3974802369507593,-40.82038599496762L-3.7347426197245377,-41.04211845807511L-4.234811246147313,-40.90821210346638z" style="fill:rgb(127,37,217)"/><path d="M10.163416907051158,-32.16096726070193L11.038815445879148,-8.88380274100437L10.78183637928423,-32.91375784636278z" style="fill:rgb(17,173,173)"/><path d="M3.5766023988327422,-38.18382468104487L3.8019620992992214,-43.06030578930765L1.4785214076269406,-42.43813325748116z" style="fill:rgb(127,37,217)"/><path d="M1.4760452391818395,-44.11068012555156L3.8019620992992214,-43.06030578930765L3.795591093992569,-44.73276866481401z" style="fill:rgb(83,212,212)"/><path d="M11.038815445879148,-8.88380274100437L11.188531874530451,-33.740238449144066L10.78183637928423,-32.91375784636278z" style="fill:rgb(7,157,157)"/><path d="M3.8019620992992214,-43.06030578930765L1.4760452391818395,-44.11068012555156L1.4785214076269406,-42.43813325748116z" style="fill:rgb(83,212,212)"/><path d="M11.188531874530451,-33.740238449144066L11.638810568350305,-10.580603263704752L11.367436417188419,-34.60890784204728z" style="fill:rgb(1,140,140)"/><path d="M16.55755589246741,-12.006031735113L16.265187538234493,-34.452606205920006L16.170983829083834,-36.032849356777106z" style="fill:rgb(254,132,132)"/><path d="M15.655480995281062,-37.570340678390465L16.55755589246741,-12.006031735113L16.170983829083834,-36.032849356777106z" style="fill:rgb(251,149,149)"/><path d="M11.021221688018377,-36.33925762967887L16.03027654568397,-13.545228272099486L15.655480995281062,-37.570340678390465z" style="fill:rgb(83,212,212)"/><path d="M8.594243181884616,-6.955068211667468L7.311937653341059,-30.609632123519035L7.485830997571758,-6.57763777034041z" style="fill:rgb(72,208,208)"/><path d="M9.357303465379385,-31.51043362221193L8.594243181884616,-6.955068211667468L9.58003135754053,-7.4792081196239z" style="fill:rgb(50,199,199)"/><path d="M10.405482527763414,-8.130320342071228L9.357303465379385,-31.51043362221193L9.58003135754053,-7.4792081196239z" style="fill:rgb(32,187,187)"/><path d="M11.038815445879148,-8.88380274100437L10.163416907051158,-32.16096726070193L10.405482527763414,-8.130320342071228z" style="fill:rgb(17,173,173)"/><path d="M11.188531874530451,-33.740238449144066L11.038815445879148,-8.88380274100437L11.455414323169506,-9.711071858130943z" style="fill:rgb(7,157,157)"/><path d="M11.638810568350305,-10.580603263704752L11.188531874530451,-33.740238449144066L11.455414323169506,-9.711071858130943z" style="fill:rgb(1,140,140)"/><path d="M16.265187538234493,-34.452606205920006L16.55755589246741,-12.006031735113L16.65342771296123,-10.42414525887332z" style="fill:rgb(254,132,132)"/><path d="M16.03027654568397,-13.545228272099486L11.021221688018377,-36.33925762967887L11.284763849309092,-12.312770160862343z" style="fill:rgb(83,212,212)"/><path d="M6.927924803240966,-42.34186139957066L5.2723706615440475,-42.86207432929615L5.517912289868311,-41.96482639755759z" style="fill:rgb(99,111,250)"/><path d="M7.130554202500976,-41.445943049988244L5.517912289868311,-41.96482639755759L5.720313578217896,-41.06917758904894z" style="fill:rgb(93,135,250)"/><path d="M16.55755589246741,-12.006031735113L15.655480995281062,-37.570340678390465L16.03027654568397,-13.545228272099486z" style="fill:rgb(251,149,149)"/><path d="M5.517912289868311,-41.96482639755759L7.130554202500976,-41.445943049988244L6.927924803240966,-42.34186139957066z" style="fill:rgb(93,135,250)"/><path d="M5.2723706615440475,-42.86207432929615L6.927924803240966,-42.34186139957066L6.682379547869184,-43.23944345211334z" style="fill:rgb(99,111,250)"/><path d="M5.2723706615440475,-42.86207432929615L6.403225567397642,-44.104636605783924L4.992995706425307,-43.726881392914564zM6.403225567397642,-44.104636605783924L5.2723706615440475,-42.86207432929615L6.682379547869184,-43.23944345211334z" style="fill:rgb(106,87,246)"/><path d="M7.282565543666864,-40.58567770362731L5.720313578217896,-41.06917758904894L5.871880874595802,-40.209111873233795zM5.720313578217896,-41.06917758904894L7.282565543666864,-40.58567770362731L7.130554202500976,-41.445943049988244z" style="fill:rgb(89,159,244)"/><path d="M6.1010355614547285,-44.90458313415053L4.992995706425307,-43.726881392914564L6.403225567397642,-44.104636605783924z" style="fill:rgb(114,65,238)"/><path d="M5.966818141755462,-39.4173040891687L7.282565543666864,-40.58567770362731L5.871880874595802,-40.209111873233795z" style="fill:rgb(85,182,234)"/><path d="M4.992995706425307,-43.726881392914564L6.1010355614547285,-44.90458313415053L4.690368686149868,-44.52640415045007z" style="fill:rgb(114,65,238)"/><path d="M11.038815445879148,-8.88380274100437L9.167615877557372,-3.24280114362601L11.158065220776184,-3.9180520799992538zM9.167615877557372,-3.24280114362601L11.038815445879148,-8.88380274100437L8.682510293235511,-4.204724394867765z" style="fill:rgb(127,37,217)"/><path d="M7.282565543666864,-40.58567770362731L5.966818141755462,-39.4173040891687L7.378146101366862,-39.793761733843496z" style="fill:rgb(85,182,234)"/><path d="M5.787268106269386,-45.608804807314485L4.690368686149868,-44.52640415045007L6.1010355614547285,-44.90458313415053z" style="fill:rgb(123,46,225)"/><path d="M6.0014424717591535,-38.72395780876636L7.378146101366862,-39.793761733843496L5.966818141755462,-39.4173040891687z" style="fill:rgb(84,202,220)"/><path d="M4.690368686149868,-44.52640415045007L5.787268106269386,-45.608804807314485L4.375964020561852,-45.23018044019775z" style="fill:rgb(123,46,225)"/><path d="M2.6572762335482993,-55.17166238897021L4.101317335306391,-46.32542689613265L4.063276123189302,-55.552475897627z" style="fill:rgb(83,212,212)"/><path d="M8.682510293235511,-4.204724394867765L8.594243181884616,-6.955068211667468L7.485830997571758,-6.57763777034041z" style="fill:rgb(127,37,217)"/><path d="M7.378146101366862,-39.793761733843496L6.0014424717591535,-38.72395780876636L7.413588783298845,-39.100386532385066z" style="fill:rgb(84,202,220)"/><path d="M11.455414323169506,-9.711071858130943L11.158065220776184,-3.9180520799992538L12.930349286511644,-4.856419373623444zM8.594243181884616,-6.955068211667468L8.682510293235511,-4.204724394867765L10.372461489047133,-7.56057665742802z" style="fill:rgb(127,37,217)"/><path d="M5.473847326274171,-46.19034988653071L4.375964020561852,-45.23018044019775L5.787268106269386,-45.608804807314485zM4.375964020561852,-45.23018044019775L5.473847326274171,-46.19034988653071L4.061730110450935,-45.81128006881697z" style="fill:rgb(131,29,208)"/><path d="M6.0014424717591535,-38.72395780876636L7.387442327722636,-38.532127097418076L7.413588783298845,-39.100386532385066zM7.387442327722636,-38.532127097418076L6.0014424717591535,-38.72395780876636L5.974333506039867,-38.155637372913475z" style="fill:rgb(84,220,202)"/><path d="M11.889359508376435,-10.572785741035473L12.930349286511644,-4.856419373623444L13.673083294471326,-5.439352227267727z" style="fill:rgb(127,37,217)"/><path d="M5.172726839734471,-46.62680414787415L4.061730110450935,-45.81128006881697L5.473847326274171,-46.19034988653071zM4.061730110450935,-45.81128006881697L5.172726839734471,-46.62680414787415L3.7596509950390606,-46.247296663442405z" style="fill:rgb(140,16,189)"/><path d="M5.974333506039867,-38.155637372913475L7.3005785341251626,-38.11092643264729L7.387442327722636,-38.532127097418076z" style="fill:rgb(85,234,182)"/><path d="M10.372461489047133,-7.56057665742802L9.58003135754053,-7.4792081196239L8.594243181884616,-6.955068211667468z" style="fill:rgb(127,37,217)"/><path d="M7.3005785341251626,-38.11092643264729L5.974333506039867,-38.155637372913475L5.886399554201156,-37.734288065983066z" style="fill:rgb(85,234,182)"/><path d="M11.038815445879148,-8.88380274100437L11.158065220776184,-3.9180520799992538L11.455414323169506,-9.711071858130943zM9.58003135754053,-7.4792081196239L10.372461489047133,-7.56057665742802L10.606263048768973,-8.024851612386456zM10.082961331182105,-7.746613897375546L10.405482527763414,-8.130320342071228L9.58003135754053,-7.4792081196239z" style="fill:rgb(127,37,217)"/><path d="M4.89544301067272,-46.90116313441171L3.7596509950390606,-46.247296663442405L5.172726839734471,-46.62680414787415z" style="fill:rgb(148,8,167)"/><path d="M10.606263048768973,-8.024851612386456L10.405482527763414,-8.130320342071228L10.082961331182105,-7.746613897375546z" style="fill:rgb(127,37,217)"/><path d="M5.740864610117731,-37.47636846223863L7.3005785341251626,-38.11092643264729L5.886399554201156,-37.734288065983066z" style="fill:rgb(89,244,159)"/><path d="M3.7596509950390606,-46.247296663442405L4.89544301067272,-46.90116313441171L3.4812999448172826,-46.52124249049974z" style="fill:rgb(148,8,167)"/><path d="M7.53929152695672,-30.77254150746314L13.993872395546438,-42.639977045849L7.347742881740928,-56.44206825133324z" style="fill:rgb(247,158,158)"/><path d="M16.03027654568397,-13.545228272099486L13.673083294471326,-5.439352227267727L14.416913985840548,-6.023144167560261zM10.405482527763414,-8.130320342071228L10.606263048768973,-8.024851612386456L11.038815445879148,-8.88380274100437zM11.455414323169506,-9.711071858130943L12.930349286511644,-4.856419373623444L11.889359508376435,-10.572785741035473z" style="fill:rgb(127,37,217)"/><path d="M7.3005785341251626,-38.11092643264729L5.740864610117731,-37.47636846223863L7.156180653371569,-37.85323303472778z" style="fill:rgb(89,244,159)"/><path d="M4.89544301067272,-46.90116313441171L3.2373998470910124,-46.62222647196115L3.4812999448172826,-46.52124249049974z" style="fill:rgb(155,4,143)"/><path d="M5.543165214279339,-37.39217424655558L7.156180653371569,-37.85323303472778L5.740864610117731,-37.47636846223863z" style="fill:rgb(93,250,135)"/><path d="M4.101317335306391,-46.32542689613265L2.6572762335482993,-55.17166238897021L2.6821454742939603,-45.94428219405143z" style="fill:rgb(83,212,212)"/><path d="M16.03027654568397,-13.545228272099486L14.416913985840548,-6.023144167560261L15.560452429359886,-7.374745412696833z" style="fill:rgb(127,37,217)"/><path d="M3.2373998470910124,-46.62222647196115L4.89544301067272,-46.90116313441171L4.652678412469645,-47.00251036782086z" style="fill:rgb(155,4,143)"/><path d="M7.156180653371569,-37.85323303472778L5.543165214279339,-37.39217424655558L6.959641768242363,-37.7693368055851z" style="fill:rgb(93,250,135)"/><path d="M16.03027654568397,-13.545228272099486L15.560452429359886,-7.374745412696833L16.316127681950228,-8.860486958250904zM11.455414323169506,-9.711071858130943L11.668047861024878,-10.133311007924865L11.638810568350305,-10.580603263704752zM16.03027654568397,-13.545228272099486L11.58138882530888,-11.459103225299248L13.673083294471326,-5.439352227267727zM11.889359508376435,-10.572785741035473L11.638810568350305,-10.580603263704752L11.668047861024878,-10.133311007924865zM16.55755589246741,-12.006031735113L16.316127681950228,-8.860486958250904L16.65342771296123,-10.42414525887332zM11.638810568350305,-10.580603263704752L11.889359508376435,-10.572785741035473L11.58138882530888,-11.459103225299248zM16.03027654568397,-13.545228272099486L16.316127681950228,-8.860486958250904L16.55755589246741,-12.006031735113z" style="fill:rgb(127,37,217)"/><path d="M4.063276123189302,-55.552475897627L7.53929152695672,-30.77254150746314L7.347742881740928,-56.44206825133324z" style="fill:rgb(83,212,212)"/><path d="M11.58138882530888,-11.459103225299248L16.03027654568397,-13.545228272099486L11.284763849309092,-12.312770160862343z" style="fill:rgb(127,37,217)"/><path d="M2.6821454742939603,-45.94428219405143L4.105096109791367,-45.40886490872156L4.101317335306391,-46.32542689613265z" style="fill:rgb(83,212,212)"/><path d="M13.993872395546438,-42.639977045849L7.53929152695672,-30.77254150746314L14.353975437214705,-16.946264260287446z" style="fill:rgb(247,158,158)"/><path d="M4.105096109791367,-45.40886490872156L2.6821454742939603,-45.94428219405143L2.6846158254416608,-45.02769548882014zM2.6846158254416608,-45.02769548882014L4.11075815132872,-44.03551840901179L4.105096109791367,-45.40886490872156zM25.604527671835196,26.302255922225484L-15.514250373179273,-97.16137364429596L-17.720949210614098,37.103904206596354zM4.11075815132872,-44.03551840901179L2.6846158254416608,-45.02769548882014L2.6883173326833725,-43.65430080248221zM2.6883173326833725,-43.65430080248221L4.1151831944890365,-42.96220370967973L4.11075815132872,-44.03551840901179zM4.1151831944890365,-42.96220370967973L2.6883173326833725,-43.65430080248221L2.6912101660293417,-42.58095320405086z" style="fill:rgb(83,212,212)"/><path d="M23.898191756479136,-104.48431629570456L25.604527671835196,26.302255922225484L27.32238881220228,29.718882738534344z" style="fill:rgb(247,158,158)"/><path d="M2.6912101660293417,-42.58095320405086L4.169113787037616,-29.88111695744252L4.1151831944890365,-42.96220370967973z" style="fill:rgb(83,212,212)"/><path d="M4.169113787037616,-29.88111695744252L9.595148568870538,-15.705853583543785L11.021625769912957,-16.077671439363478z" style="fill:rgb(127,37,217)"/><path d="M7.53929152695672,-30.77254150746314L4.063276123189302,-55.552475897627L4.169113787037616,-29.88111695744252z" style="fill:rgb(83,212,212)"/><path d="M7.53929152695672,-30.77254150746314L11.021625769912957,-16.077671439363478L14.353975437214705,-16.946264260287446z" style="fill:rgb(127,37,217)"/><path d="M4.169113787037616,-29.88111695744252L2.6912101660293417,-42.58095320405086L2.7264666476548105,-29.499533166273476z" style="fill:rgb(83,212,212)"/><path d="M9.595148568870538,-15.705853583543785L4.169113787037616,-29.88111695744252L2.7264666476548105,-29.499533166273476zM11.021625769912957,-16.077671439363478L7.53929152695672,-30.77254150746314L4.169113787037616,-29.88111695744252zM-15.877045733232661,40.448334455813665L25.604527671835196,26.302255922225484L-17.720949210614098,37.103904206596354zM25.604527671835196,26.302255922225484L-15.877045733232661,40.448334455813665L27.32238881220228,29.718882738534344z" style="fill:rgb(127,37,217)"/><path d="M-21.672402490746354,42.023493932839145L-19.876262099584096,62.766975325127206L-9.181148210892694,35.96830901275947zM-9.181148210892694,35.96830901275947L-4.450083343367627,53.947286157002736L3.8259321273249953,31.73196625505962zM-33.24062294209898,49.697981823945135L-31.859048352781944,75.10826645857995L-21.672402490746354,42.023493932839145zM3.8259321273249953,31.73196625505962L12.280398855340202,49.85955378023858L16.924242048672113,29.466294306893598zM-9.181148210892694,35.96830901275947L-12.466726454930724,57.82885078681461L-4.450083343367627,53.947286157002736zM-9.181148210892694,35.96830901275947L-19.876262099584096,62.766975325127206L-12.466726454930724,57.82885078681461zM-21.672402490746354,42.023493932839145L-26.418786500112844,68.59291153220013L-19.876262099584096,62.766975325127206zM3.8259321273249953,31.73196625505962L-4.450083343367627,53.947286157002736L3.8955641789056554,51.25783247546489zM16.924242048672113,29.466294306893598L20.40967142442247,49.81188322632694L29.67797968754907,29.271323591904434zM3.8259321273249953,31.73196625505962L3.8955641789056554,51.25783247546489L12.280398855340202,49.85955378023858zM-21.672402490746354,42.023493932839145L-31.859048352781944,75.10826645857995L-26.418786500112844,68.59291153220013zM-39.725138512465705,96.45323639355297L-33.24062294209898,49.697981823945135L-43.501913217682535,58.74774441531784z" style="fill:rgb(83,212,212)"/><path d="M-4.450083343367627,53.947286157002736L-10.600428546753424,61.17580983039664L-2.6106517057484253,57.30820108841309z" style="fill:rgb(162,50,222)"/><path d="M-12.466726454930724,57.82885078681461L-17.982814859904913,66.10054906999943L-10.600428546753424,61.17580983039664z" style="fill:rgb(183,62,221)"/><path d="M3.8955641789056554,51.25783247546489L-2.6106517057484253,57.30820108841309L5.70924640096667,54.6328356671355z" style="fill:rgb(139,40,220)"/><path d="M-10.600428546753424,61.17580983039664L-4.450083343367627,53.947286157002736L-12.466726454930724,57.82885078681461z" style="fill:rgb(162,50,222)"/><path d="M-17.982814859904913,66.10054906999943L-12.466726454930724,57.82885078681461L-19.876262099584096,62.766975325127206z" style="fill:rgb(183,62,221)"/><path d="M-2.6106517057484253,57.30820108841309L3.8955641789056554,51.25783247546489L-4.450083343367627,53.947286157002736z" style="fill:rgb(139,40,220)"/><path d="M16.924242048672113,29.466294306893598L12.280398855340202,49.85955378023858L20.40967142442247,49.81188322632694zM-33.24062294209898,49.697981823945135L-35.99311313308584,82.08906274193009L-31.859048352781944,75.10826645857995z" style="fill:rgb(83,212,212)"/><path d="M-17.982814859904913,66.10054906999943L-26.418786500112844,68.59291153220013L-24.49876154064006,71.91406688327716zM-26.418786500112844,68.59291153220013L-17.982814859904913,66.10054906999943L-19.876262099584096,62.766975325127206z" style="fill:rgb(203,77,216)"/><path d="M12.280398855340202,49.85955378023858L5.70924640096667,54.6328356671355L14.070247172183226,53.248300988436746zM5.70924640096667,54.6328356671355L12.280398855340202,49.85955378023858L3.8955641789056554,51.25783247546489z" style="fill:rgb(115,34,214)"/><path d="M-24.49876154064006,71.91406688327716L-31.859048352781944,75.10826645857995L-29.913906972366004,78.41832512zM-31.859048352781944,75.10826645857995L-24.49876154064006,71.91406688327716L-26.418786500112844,68.59291153220013z" style="fill:rgb(220,94,208)"/><path d="M-33.24062294209898,49.697981823945135L-38.65526917281794,89.29056430875309L-35.99311313308584,82.08906274193009zM29.67797968754907,29.271323591904434L34.742911463013264,53.79052946208895L41.647489345675744,31.190137526541996z" style="fill:rgb(83,212,212)"/><path d="M14.070247172183226,53.248300988436746L20.40967142442247,49.81188322632694L12.280398855340202,49.85955378023858zM20.40967142442247,49.81188322632694L14.070247172183226,53.248300988436746L22.178359800067287,53.21352415280046z" style="fill:rgb(92,32,204)"/><path d="M29.67797968754907,29.271323591904434L20.40967142442247,49.81188322632694L27.991065906050448,51.13167194475568z" style="fill:rgb(83,212,212)"/><path d="M-35.99311313308584,82.08906274193009L-29.913906972366004,78.41832512L-31.859048352781944,75.10826645857995z" style="fill:rgb(233,112,197)"/><path d="M-33.24062294209898,49.697981823945135L-39.725138512465705,96.45323639355297L-38.65526917281794,89.29056430875309z" style="fill:rgb(83,212,212)"/><path d="M-29.913906972366004,78.41832512L-35.99311313308584,82.08906274193009L-34.0251964439892,85.3896620867964z" style="fill:rgb(233,112,197)"/><path d="M29.67797968754907,29.271323591904434L27.991065906050448,51.13167194475568L34.742911463013264,53.79052946208895z" style="fill:rgb(83,212,212)"/><path d="M22.178359800067287,53.21352415280046L27.991065906050448,51.13167194475568L20.40967142442247,49.81188322632694zM27.991065906050448,51.13167194475568L22.178359800067287,53.21352415280046L29.741981937481892,54.5448358015772z" style="fill:rgb(71,33,192)"/><path d="M-38.65526917281794,89.29056430875309L-34.0251964439892,85.3896620867964L-35.99311313308584,82.08906274193009z" style="fill:rgb(242,130,183)"/><path d="M-52.10217833164401,68.88689921832966L-46.69697004241498,139.52876582356726L-43.501913217682535,58.74774441531784z" style="fill:rgb(83,212,212)"/><path d="M-34.0251964439892,85.3896620867964L-38.65526917281794,89.29056430875309L-36.667794034320394,92.5836223500087z" style="fill:rgb(242,130,183)"/><path d="M36.480101727439255,57.21333238449248L27.991065906050448,51.13167194475568L29.741981937481892,54.5448358015772z" style="fill:rgb(51,38,177)"/><path d="M-58.72491513539512,79.7905011319218L-55.07880877229007,132.3021076332758L-52.10217833164401,68.88689921832966zM-63.100757919228116,91.0981320174327L-61.01182898395739,123.44179201843023L-58.72491513539512,79.7905011319218zM41.647489345675744,31.190137526541996L44.740455856575664,62.77492241933805L52.39864953194273,35.20292963630033zM41.647489345675744,31.190137526541996L34.742911463013264,53.79052946208895L40.40335540915277,57.71286322909958z" style="fill:rgb(83,212,212)"/><path d="M27.991065906050448,51.13167194475568L36.480101727439255,57.21333238449248L34.742911463013264,53.79052946208895z" style="fill:rgb(51,38,177)"/><path d="M-64.34042963776908,113.34152101644217L-63.100757919228116,91.0981320174327L-65.01894523578846,102.41930315418611z" style="fill:rgb(83,212,212)"/><path d="M-39.725138512465705,96.45323639355297L-36.667794034320394,92.5836223500087L-38.65526917281794,89.29056430875309zM-36.667794034320394,92.5836223500087L-39.725138512465705,96.45323639355297L-37.72214925781963,99.7409161897912z" style="fill:rgb(246,149,167)"/><path d="M42.131444617307466,61.14294329862021L34.742911463013264,53.79052946208895L36.480101727439255,57.21333238449248z" style="fill:rgb(34,46,160)"/><path d="M41.647489345675744,31.190137526541996L40.40335540915277,57.71286322909958L44.740455856575664,62.77492241933805z" style="fill:rgb(83,212,212)"/><path d="M34.742911463013264,53.79052946208895L42.131444617307466,61.14294329862021L40.40335540915277,57.71286322909958z" style="fill:rgb(34,46,160)"/><path d="M-39.725138512465705,96.45323639355297L-37.120959401580215,106.5946514796773L-37.72214925781963,99.7409161897912z" style="fill:rgb(246,167,149)"/><path d="M-63.100757919228116,91.0981320174327L-64.34042963776908,113.34152101644217L-61.01182898395739,123.44179201843023z" style="fill:rgb(83,212,212)"/><path d="M46.46454451755261,66.20950741802744L40.40335540915277,57.71286322909958L42.131444617307466,61.14294329862021z" style="fill:rgb(21,57,142)"/><path d="M-37.120959401580215,106.5946514796773L-39.725138512465705,96.45323639355297L-39.134675478825855,103.30997689352289z" style="fill:rgb(246,167,149)"/><path d="M-43.501913217682535,58.74774441531784L-36.13791812230725,144.77479441348743L-39.725138512465705,96.45323639355297zM52.39864953194273,35.20292963630033L44.740455856575664,62.77492241933805L47.56289034530196,68.8055539353698zM-58.72491513539512,79.7905011319218L-61.01182898395739,123.44179201843023L-55.07880877229007,132.3021076332758z" style="fill:rgb(83,212,212)"/><path d="M40.40335540915277,57.71286322909958L46.46454451755261,66.20950741802744L44.740455856575664,62.77492241933805z" style="fill:rgb(21,57,142)"/><path d="M-39.134675478825855,103.30997689352289L-34.85549442947079,112.8791742444756L-37.120959401580215,106.5946514796773z" style="fill:rgb(242,183,130)"/><path d="M52.39864953194273,35.20292963630033L47.56289034530196,68.8055539353698L48.7307648043267,75.58906073108096z" style="fill:rgb(83,212,212)"/><path d="M-34.85549442947079,112.8791742444756L-39.134675478825855,103.30997689352289L-36.874539207873845,109.59496454513892z" style="fill:rgb(242,183,130)"/><path d="M-52.10217833164401,68.88689921832966L-55.07880877229007,132.3021076332758L-46.69697004241498,139.52876582356726zM52.39864953194273,35.20292963630033L65.1352149419169,104.91774072002538L61.51497867982186,41.22077683249447zM-43.501913217682535,58.74774441531784L-46.69697004241498,139.52876582356726L-36.13791812230725,144.77479441348743z" style="fill:rgb(83,212,212)"/><path d="M-52.97114749880003,135.54392346868732L-61.01182898395739,123.44179201843023L-58.90508500738613,126.68126075622912z" style="fill:rgb(21,57,142)"/><path d="M-39.725138512465705,96.45323639355297L-36.13791812230725,144.77479441348743L-39.134675478825855,103.30997689352289zM61.51497867982186,41.22077683249447L71.37361476500566,92.94561425789502L68.61288089349213,49.08003978290492z" style="fill:rgb(83,212,212)"/><path d="M73.35991389021005,58.53869913166284L77.14342596979745,72.75520951316466L74.99863894443939,62.02015639270274z" style="fill:rgb(246,167,149)"/><path d="M-61.01182898395739,123.44179201843023L-52.97114749880003,135.54392346868732L-55.07880877229007,132.3021076332758z" style="fill:rgb(21,57,142)"/><path d="M-39.134675478825855,103.30997689352289L-36.13791812230725,144.77479441348743L-36.874539207873845,109.59496454513892zM68.61288089349213,49.08003978290492L74.8515128308186,80.8975643665205L73.35991389021005,58.53869913166284zM52.39864953194273,35.20292963630033L48.7307648043267,75.58906073108096L56.34628423528926,116.2912163253521z" style="fill:rgb(83,212,212)"/><path d="M77.14342596979745,72.75520951316466L73.35991389021005,58.53869913166284L75.49535006341037,69.2760749502446z" style="fill:rgb(246,167,149)"/><path d="M-36.874539207873845,109.59496454513892L-36.13791812230725,144.77479441348743L-32.999165557872956,115.05381359311879z" style="fill:rgb(83,212,212)"/><path d="M-44.598328253131385,142.77711172063655L-55.07880877229007,132.3021076332758L-52.97114749880003,135.54392346868732z" style="fill:rgb(34,46,160)"/><path d="M73.35991389021005,58.53869913166284L74.8515128308186,80.8975643665205L75.49535006341037,69.2760749502446z" style="fill:rgb(83,212,212)"/><path d="M-55.07880877229007,132.3021076332758L-44.598328253131385,142.77711172063655L-46.69697004241498,139.52876582356726z" style="fill:rgb(34,46,160)"/><path d="M74.8515128308186,80.8975643665205L77.14342596979745,72.75520951316466L75.49535006341037,69.2760749502446z" style="fill:rgb(246,149,167)"/><path d="M68.61288089349213,49.08003978290492L71.37361476500566,92.94561425789502L74.8515128308186,80.8975643665205z" style="fill:rgb(83,212,212)"/><path d="M77.14342596979745,72.75520951316466L74.8515128308186,80.8975643665205L76.51804725523968,84.3687606289577z" style="fill:rgb(246,149,167)"/><path d="M-32.999165557872956,115.05381359311879L-23.788144431988755,147.7637340715369L-27.629659257605134,119.45509651785245zM61.51497867982186,41.22077683249447L65.1352149419169,104.91774072002538L71.37361476500566,92.94561425789502zM52.39864953194273,35.20292963630033L56.34628423528926,116.2912163253521L65.1352149419169,104.91774072002538z" style="fill:rgb(83,212,212)"/><path d="M-34.05834286622697,148.03396153748494L-46.69697004241498,139.52876582356726L-44.598328253131385,142.77711172063655z" style="fill:rgb(51,38,177)"/><path d="M-27.629659257605134,119.45509651785245L-23.788144431988755,147.7637340715369L-20.953641349428644,122.60224341205125zM48.165620333452324,82.87079305595655L56.34628423528926,116.2912163253521L48.7307648043267,75.58906073108096zM-32.999165557872956,115.05381359311879L-36.13791812230725,144.77479441348743L-23.788144431988755,147.7637340715369z" style="fill:rgb(83,212,212)"/><path d="M-46.69697004241498,139.52876582356726L-34.05834286622697,148.03396153748494L-36.13791812230725,144.77479441348743z" style="fill:rgb(51,38,177)"/><path d="M71.37361476500566,92.94561425789502L76.51804725523968,84.3687606289577L74.8515128308186,80.8975643665205z" style="fill:rgb(242,130,183)"/><path d="M45.85870039796907,90.36563415773685L56.34628423528926,116.2912163253521L48.165620333452324,82.87079305595655z" style="fill:rgb(83,212,212)"/><path d="M76.51804725523968,84.3687606289577L71.37361476500566,92.94561425789502L73.06750388290175,96.4034624159823z" style="fill:rgb(242,130,183)"/><path d="M-20.953641349428644,122.60224341205125L-10.13877817876227,148.31252042513242L-13.221307123383795,124.34534722822283zM-13.221307123383795,124.34534722822283L-10.13877817876227,148.31252042513242L-4.737165055462707,124.59154588686548zM41.87621579034733,97.76950529583611L45.35129935779519,126.55293065150362L45.85870039796907,90.36563415773685z" style="fill:rgb(83,212,212)"/><path d="M-34.05834286622697,148.03396153748494L-23.788144431988755,147.7637340715369L-36.13791812230725,144.77479441348743zM-23.788144431988755,147.7637340715369L-34.05834286622697,148.03396153748494L-21.737221955099105,151.0379483175588z" style="fill:rgb(71,33,192)"/><path d="M-20.953641349428644,122.60224341205125L-23.788144431988755,147.7637340715369L-10.13877817876227,148.31252042513242zM36.36066498039078,104.77331479470642L45.35129935779519,126.55293065150362L41.87621579034733,97.76950529583611z" style="fill:rgb(83,212,212)"/><path d="M65.1352149419169,104.91774072002538L73.06750388290175,96.4034624159823L71.37361476500566,92.94561425789502z" style="fill:rgb(233,112,197)"/><path d="M-4.737165055462707,124.59154588686548L4.234677537577601,146.35030471623168L4.152522559783976,123.31281853161265z" style="fill:rgb(83,212,212)"/><path d="M73.06750388290175,96.4034624159823L65.1352149419169,104.91774072002538L66.86464341708627,108.35740285600983z" style="fill:rgb(233,112,197)"/><path d="M29.52732897624532,111.07868102968267L32.615879986213734,135.2318170342018L36.36066498039078,104.77331479470642zM4.152522559783976,123.31281853161265L18.702120611859655,141.93021407563043L13.076117774652069,120.55029066695103zM21.655701650801994,116.41413072010282L32.615879986213734,135.2318170342018L29.52732897624532,111.07868102968267zM13.076117774652069,120.55029066695103L18.702120611859655,141.93021407563043L21.655701650801994,116.41413072010282zM45.85870039796907,90.36563415773685L45.35129935779519,126.55293065150362L56.34628423528926,116.2912163253521z" style="fill:rgb(83,212,212)"/><path d="M-21.737221955099105,151.0379483175588L-10.13877817876227,148.31252042513242L-23.788144431988755,147.7637340715369zM-10.13877817876227,148.31252042513242L-21.737221955099105,151.0379483175588L-8.125027013231069,151.60570930926784z" style="fill:rgb(92,32,204)"/><path d="M-4.737165055462707,124.59154588686548L-10.13877817876227,148.31252042513242L4.234677537577601,146.35030471623168z" style="fill:rgb(83,212,212)"/><path d="M56.34628423528926,116.2912163253521L66.86464341708627,108.35740285600983L65.1352149419169,104.91774072002538zM66.86464341708627,108.35740285600983L56.34628423528926,116.2912163253521L58.11818238511367,119.70876961073986z" style="fill:rgb(220,94,208)"/><path d="M36.36066498039078,104.77331479470642L32.615879986213734,135.2318170342018L45.35129935779519,126.55293065150362zM4.152522559783976,123.31281853161265L4.234677537577601,146.35030471623168L18.702120611859655,141.93021407563043z" style="fill:rgb(83,212,212)"/><path d="M-8.125027013231069,151.60570930926784L4.234677537577601,146.35030471623168L-10.13877817876227,148.31252042513242z" style="fill:rgb(115,34,214)"/><path d="M21.655701650801994,116.41413072010282L18.702120611859655,141.93021407563043L32.615879986213734,135.2318170342018z" style="fill:rgb(83,212,212)"/><path d="M4.234677537577601,146.35030471623168L-8.125027013231069,151.60570930926784L6.204402149770934,149.66582081480456z" style="fill:rgb(115,34,214)"/><path d="M45.35129935779519,126.55293065150362L58.11818238511367,119.70876961073986L56.34628423528926,116.2912163253521zM58.11818238511367,119.70876961073986L45.35129935779519,126.55293065150362L47.17081529478676,129.94564350990208z" style="fill:rgb(203,77,216)"/><path d="M18.702120611859655,141.93021407563043L6.204402149770934,149.66582081480456L20.62311687565034,145.2705446091095z" style="fill:rgb(139,40,220)"/><path d="M45.35129935779519,126.55293065150362L34.48593542240584,138.59832029034493L47.17081529478676,129.94564350990208z" style="fill:rgb(183,62,221)"/><path d="M6.204402149770934,149.66582081480456L18.702120611859655,141.93021407563043L4.234677537577601,146.35030471623168z" style="fill:rgb(139,40,220)"/><path d="M32.615879986213734,135.2318170342018L20.62311687565034,145.2705446091095L34.48593542240584,138.59832029034493z" style="fill:rgb(162,50,222)"/><path d="M34.48593542240584,138.59832029034493L45.35129935779519,126.55293065150362L32.615879986213734,135.2318170342018z" style="fill:rgb(183,62,221)"/><path d="M20.62311687565034,145.2705446091095L32.615879986213734,135.2318170342018L18.702120611859655,141.93021407563043z" style="fill:rgb(162,50,222)"/></svg>
