<?xml version="1.0" encoding="UTF-8"?>
<!-- Generated by jsxcad -->
<!DOCTYPE svg PUBLIC "-//W3C//DTD SVG 1.1 Tiny//EN" "http://www.w3.org/Graphics/SVG/1.1/DTD/svg11-tiny.dtd">
<svg viewBox="-250 -250 500 500" width="500" height="500" xmlns="http://www.w3.org/2000/svg"><path d="M-42.169448686465564,-61.9643092914802L124.3286987839772,142.89027830915595L98.74003626552525,-100.79565455887246z" style="fill:rgb(83,212,212)"/><path d="M98.74003626552525,-100.79565455887246L126.32389064643442,147.24500378488958L100.42474762833992,-96.39497218118416zM-46.48215003022021,38.174348638025876L-49.90181193907104,185.0124344494818L-44.09316420510256,42.289115754482225z" style="fill:rgb(247,158,158)"/><path d="M-61.96772546163794,181.86257002514085L-50.53157258586953,38.887145309022266L-54.7311581999801,39.04352325023437z" style="fill:rgb(120,217,217)"/><path d="M-66.72125327208235,181.46882364397652L-54.7311581999801,39.04352325023437L-58.926418956532586,38.63799558134699z" style="fill:rgb(145,216,216)"/><path d="M-50.53157258586953,38.887145309022266L-52.63406520825247,181.01857028663838L-46.48215003022021,38.174348638025876z" style="fill:rgb(95,214,214)"/><path d="M-62.96291324508122,37.68481260841091L-66.72125327208235,181.46882364397652L-58.926418956532586,38.63799558134699z" style="fill:rgb(169,212,212)"/><path d="M-75.53723088194096,179.1178369193291L-62.96291324508122,37.68481260841091L-66.69115603648748,36.217624499883z" style="fill:rgb(192,205,205)"/><path d="M-69.97156287324599,34.28860736141662L-75.53723088194096,179.1178369193291L-66.69115603648748,36.217624499883z" style="fill:rgb(212,194,194)"/><path d="M-82.36576341679128,174.98549767770746L-69.97156287324599,34.28860736141662L-72.67922407772998,31.96708294477573z" style="fill:rgb(229,181,181)"/><path d="M-74.70852304195131,29.337562546172535L-82.36576341679128,174.98549767770746L-72.67922407772998,31.96708294477573z" style="fill:rgb(242,166,166)"/><path d="M-91.47419982292065,173.91396546427907L-74.70852304195131,29.337562546172535L-80.70473599323631,30.86567778119879zM124.3286987839772,142.89027830915595L-42.169448686465564,-61.9643092914802L-52.63406520825247,181.01857028663838z" style="fill:rgb(83,212,212)"/><path d="M-49.90181193907104,185.0124344494818L-46.48215003022021,38.174348638025876L-52.63406520825247,181.01857028663838z" style="fill:rgb(247,158,158)"/><path d="M-50.53157258586953,38.887145309022266L-61.96772546163794,181.86257002514085L-57.21404963855781,181.71074583006023z" style="fill:rgb(120,217,217)"/><path d="M-54.7311581999801,39.04352325023437L-66.72125327208235,181.46882364397652L-61.96772546163794,181.86257002514085z" style="fill:rgb(145,216,216)"/><path d="M-52.63406520825247,181.01857028663838L-50.53157258586953,38.887145309022266L-57.21404963855781,181.71074583006023z" style="fill:rgb(95,214,214)"/><path d="M-66.72125327208235,181.46882364397652L-62.96291324508122,37.68481260841091L-71.30066247808321,180.54314459665576z" style="fill:rgb(169,212,212)"/><path d="M-62.96291324508122,37.68481260841091L-75.53723088194096,179.1178369193291L-71.30066247808321,180.54314459665576z" style="fill:rgb(192,205,205)"/><path d="M-75.53723088194096,179.1178369193291L-69.97156287324599,34.28860736141662L-79.27293504246899,177.24303171245674z" style="fill:rgb(212,194,194)"/><path d="M-69.97156287324599,34.28860736141662L-82.36576341679128,174.98549767770746L-79.27293504246899,177.24303171245674z" style="fill:rgb(229,181,181)"/><path d="M-119.40014532961197,117.99323665134575L-69.44244188207563,36.72357160423774L-104.95749971306498,-22.212736995023228z" style="fill:rgb(247,158,158)"/><path d="M-82.36576341679128,174.98549767770746L-74.70852304195131,29.337562546172535L-84.69492355525637,172.42678710498885z" style="fill:rgb(242,166,166)"/><path d="M-74.70852304195131,29.337562546172535L-91.47419982292065,173.91396546427907L-84.69492355525637,172.42678710498885z" style="fill:rgb(83,212,212)"/><path d="M126.32389064643442,147.24500378488958L98.74003626552525,-100.79565455887246L124.3286987839772,142.89027830915595z" style="fill:rgb(247,158,158)"/><path d="M-111.25831500770695,-20.512264967412705L-119.40014532961197,117.99323665134575L-104.95749971306498,-22.212736995023228z" style="fill:rgb(83,212,212)"/><path d="M-69.44244188207563,36.72357160423774L-119.40014532961197,117.99323665134575L-78.40033044080373,175.76207724077324z" style="fill:rgb(247,158,158)"/><path d="M-61.96772546163794,181.86257002514085L-61.97923693932701,186.0991478707346L-55.82960105930154,185.9036934324874zM-66.72125327208235,181.46882364397652L-68.12920742819688,185.59223174326004L-61.97923693932701,186.0991478707346zM-52.63406520825247,181.01857028663838L-55.82960105930154,185.9036934324874L-49.90181193907104,185.0124344494818zM-71.30066247808321,180.54314459665576L-74.05772951156487,184.39999238668594L-68.12920742819688,185.59223174326004zM-61.96772546163794,181.86257002514085L-55.82960105930154,185.9036934324874L-57.21404963855781,181.71074583006023zM-66.72125327208235,181.46882364397652L-61.97923693932701,186.0991478707346L-61.96772546163794,181.86257002514085zM-57.21404963855781,181.71074583006023L-55.82960105930154,185.9036934324874L-52.63406520825247,181.01857028663838zM-71.30066247808321,180.54314459665576L-68.12920742819688,185.59223174326004L-66.72125327208235,181.46882364397652zM-79.27293504246899,177.24303171245674L-79.54918597695334,182.56275236584915L-74.05772951156487,184.39999238668594zM-75.53723088194096,179.1178369193291L-74.05772951156487,184.39999238668594L-71.30066247808321,180.54314459665576zM-79.27293504246899,177.24303171245674L-74.05772951156487,184.39999238668594L-75.53723088194096,179.1178369193291zM-84.69492355525637,172.42678710498885L-84.40060246686156,180.14339936160926L-79.54918597695334,182.56275236584915zM-82.36576341679128,174.98549767770746L-79.54918597695334,182.56275236584915L-79.27293504246899,177.24303171245674zM-84.69492355525637,172.42678710498885L-79.54918597695334,182.56275236584915L-82.36576341679128,174.98549767770746zM-84.69492355525637,172.42678710498885L-88.42824448871636,177.2260217294007L-84.40060246686156,180.14339936160926zM-88.42824448871636,177.2260217294007L-84.69492355525637,172.42678710498885L-91.47419982292065,173.91396546427907zM-49.90181193907104,185.0124344494818L124.3286987839772,142.89027830915595L-52.63406520825247,181.01857028663838zM124.3286987839772,142.89027830915595L-49.90181193907104,185.0124344494818L126.32389064643442,147.24500378488958z" style="fill:rgb(127,37,217)"/><path d="M-119.40014532961197,117.99323665134575L-111.25831500770695,-20.512264967412705L-126.54014792362709,119.67236759630173z" style="fill:rgb(83,212,212)"/><path d="M-119.40014532961197,117.99323665134575L-78.7279337760848,180.8469224611652L-78.40033044080373,175.76207724077324z" style="fill:rgb(247,158,158)"/><path d="M-119.9325096965018,123.16131098663043L-85.51962221787034,182.3201687598894L-78.7279337760848,180.8469224611652z" style="fill:rgb(127,37,217)"/><path d="M-78.7279337760848,180.8469224611652L-119.40014532961197,117.99323665134575L-119.9325096965018,123.16131098663043z" style="fill:rgb(247,158,158)"/><path d="M-85.51962221787034,182.3201687598894L-119.9325096965018,123.16131098663043L-127.103315540787,124.8384656531301z" style="fill:rgb(127,37,217)"/><path d="M-126.54014792362709,119.67236759630173L-119.9325096965018,123.16131098663043L-119.40014532961197,117.99323665134575zM-119.9325096965018,123.16131098663043L-126.54014792362709,119.67236759630173L-127.103315540787,124.8384656531301z" style="fill:rgb(83,212,212)"/></svg>
