<?xml version="1.0" encoding="UTF-8"?>
<!-- Generated by jsxcad -->
<!DOCTYPE svg PUBLIC "-//W3C//DTD SVG 1.1 Tiny//EN" "http://www.w3.org/Graphics/SVG/1.1/DTD/svg11-tiny.dtd">
<svg viewBox="-250 -250 500 500" width="500" height="500" xmlns="http://www.w3.org/2000/svg"><path d="M64.9485776066524,-92.53401894750746L68.69375846294318,-66.18085113123503L66.78999307469017,-93.20003254230403z" style="fill:rgb(72,208,208)"/><path d="M68.69375846294318,-66.18085113123503L68.44564450604584,-94.12543845038438L66.78999307469017,-93.20003254230403z" style="fill:rgb(50,199,199)"/><path d="M70.3982386201951,-67.10999322239651L69.852428093353,-95.2758382276849L68.44564450604584,-94.12543845038438z" style="fill:rgb(32,187,187)"/><path d="M69.852428093353,-95.2758382276849L72.98494316741507,-69.6030195894346L70.9561775326073,-96.60822750898167z" style="fill:rgb(17,173,173)"/><path d="M-34.79021181715421,-65.0228692168723L33.70170014137393,-4.937654105924895L31.155799978476175,-83.21288659381258z" style="fill:rgb(83,212,212)"/><path d="M72.98494316741507,-69.6030195894346L71.71380961035823,-98.07249267735817L70.9561775326073,-96.60822750898167z" style="fill:rgb(7,157,157)"/><path d="M73.76695080080415,-71.07346817126532L72.09502113646376,-99.61313137428891L71.71380961035823,-98.07249267735817z" style="fill:rgb(1,140,140)"/><path d="M31.155799978476175,-83.21288659381258L35.79656284670014,-0.5737791882107234L33.10283990245484,-78.87554473778334z" style="fill:rgb(247,158,158)"/><path d="M74.16194668502759,-72.62072959691531L72.08367141658823,-101.17130647268272L72.09502113646376,-99.61313137428891z" style="fill:rgb(0,122,122)"/><path d="M68.69375846294318,-66.18085113123503L64.9485776066524,-92.53401894750746L66.7987382143439,-65.51217134055022z" style="fill:rgb(72,208,208)"/><path d="M79.82399833685282,-77.35812296525916L78.22605752622748,-101.89933733021331L77.59007411964086,-104.32950583224243z" style="fill:rgb(251,149,149)"/><path d="M71.67859824714279,-102.68701897094122L79.82399833685282,-77.35812296525916L77.59007411964086,-104.32950583224243z" style="fill:rgb(83,212,212)"/><path d="M68.44564450604584,-94.12543845038438L68.69375846294318,-66.18085113123503L70.3982386201951,-67.10999322239651z" style="fill:rgb(50,199,199)"/><path d="M69.852428093353,-95.2758382276849L70.3982386201951,-67.10999322239651L71.84723069030319,-68.26509779115987z" style="fill:rgb(32,187,187)"/><path d="M72.98494316741507,-69.6030195894346L69.852428093353,-95.2758382276849L71.84723069030319,-68.26509779115987z" style="fill:rgb(17,173,173)"/><path d="M71.71380961035823,-98.07249267735817L72.98494316741507,-69.6030195894346L73.76695080080415,-71.07346817126532z" style="fill:rgb(7,157,157)"/><path d="M72.09502113646376,-99.61313137428891L73.76695080080415,-71.07346817126532L74.16194668502759,-72.62072959691531z" style="fill:rgb(1,140,140)"/><path d="M72.08367141658823,-101.17130647268272L74.16194668502759,-72.62072959691531L74.1531744222555,-74.18572464196588z" style="fill:rgb(0,122,122)"/><path d="M70.3982386201951,-67.10999322239651L68.67503811746731,-61.08572231695519L71.69783403603645,-62.14745302808831z" style="fill:rgb(127,37,217)"/><path d="M68.36749542325573,-127.37984975425238L79.82399833685282,-77.35812296525916L77.59007411964086,-104.32950583224243z" style="fill:rgb(247,158,158)"/><path d="M68.67503811746731,-61.08572231695519L68.69375846294318,-66.18085113123503L66.7987382143439,-65.51217134055022zM68.69375846294318,-66.18085113123503L68.67503811746731,-61.08572231695519L70.3982386201951,-67.10999322239651zM72.98494316741507,-69.6030195894346L71.69783403603645,-62.14745302808831L74.42044731502882,-63.62400870419453z" style="fill:rgb(127,37,217)"/><path d="M78.22605752622748,-101.89933733021331L79.82399833685282,-77.35812296525916L80.47337876513369,-74.91698400529144z" style="fill:rgb(251,149,149)"/><path d="M70.3982386201951,-67.10999322239651L71.69783403603645,-62.14745302808831L71.84723069030319,-68.26509779115987z" style="fill:rgb(127,37,217)"/><path d="M79.82399833685282,-77.35812296525916L71.67859824714279,-102.68701897094122L73.73927979944882,-75.70818880767811z" style="fill:rgb(83,212,212)"/><path d="M71.84723069030319,-68.26509779115987L71.69783403603645,-62.14745302808831L72.98494316741507,-69.6030195894346zM72.98494316741507,-69.6030195894346L74.42044731502882,-63.62400870419453L73.76695080080415,-71.07346817126532zM79.82399833685282,-77.35812296525916L74.42044731502882,-63.62400870419453L76.7396550408055,-65.46170573164183zM73.76695080080415,-71.07346817126532L74.42044731502882,-63.62400870419453L74.16194668502759,-72.62072959691531zM79.82399833685282,-77.35812296525916L76.7396550408055,-65.46170573164183L78.56613736181849,-67.59311868380605zM79.82399833685282,-77.35812296525916L74.16194668502759,-72.62072959691531L74.42044731502882,-63.62400870419453zM79.82399833685282,-77.35812296525916L78.56613736181849,-67.59311868380605L79.82786966416414,-69.9391830122074z" style="fill:rgb(127,37,217)"/><path d="M33.70170014137393,-4.937654105924895L-34.79021181715421,-65.0228692168723L-37.58343058797793,13.345248853100406z" style="fill:rgb(83,212,212)"/><path d="M80.47337876513369,-74.91698400529144L79.82786966416414,-69.9391830122074L80.47322833480874,-72.4118188738406zM79.82399833685282,-77.35812296525916L79.82786966416414,-69.9391830122074L80.47337876513369,-74.91698400529144zM79.82399833685282,-77.35812296525916L74.1531744222555,-74.18572464196588L74.16194668502759,-72.62072959691531zM74.1531744222555,-74.18572464196588L79.82399833685282,-77.35812296525916L73.73927979944882,-75.70818880767811z" style="fill:rgb(127,37,217)"/><path d="M62.35076655465132,-125.67066651248984L70.37664914245272,-100.52735535797393L68.36749542325573,-127.37984975425238z" style="fill:rgb(83,212,212)"/><path d="M79.82399833685282,-77.35812296525916L68.36749542325573,-127.37984975425238L70.37664914245272,-100.52735535797393zM35.79656284670014,-0.5737791882107234L31.155799978476175,-83.21288659381258L33.70170014137393,-4.937654105924895z" style="fill:rgb(247,158,158)"/><path d="M70.37664914245272,-100.52735535797393L73.73927979944882,-75.70818880767811L79.82399833685282,-77.35812296525916z" style="fill:rgb(127,37,217)"/><path d="M70.37664914245272,-100.52735535797393L62.35076655465132,-125.67066651248984L64.1803457024573,-98.80843519672497z" style="fill:rgb(83,212,212)"/><path d="M73.73927979944882,-75.70818880767811L70.37664914245272,-100.52735535797393L64.1803457024573,-98.80843519672497zM-2.254964800627417,4.284356537333338L-6.687532663626118,9.290507538026104L-3.3086372943117928,9.161184443332552zM-2.254964800627417,4.284356537333338L-10.041164812362892,8.955158733730121L-6.687532663626118,9.290507538026104zM-2.254964800627417,4.284356537333338L-3.3086372943117928,9.161184443332552L-0.029859483279235485,8.57181489801303zM-2.254964800627417,4.284356537333338L-13.244980685284775,8.167142537930465L-10.041164812362892,8.955158733730121zM-13.244980685284775,8.167142537930465L-2.254964800627417,4.284356537333338L-14.83407982910758,7.510593953533593z" style="fill:rgb(127,37,217)"/><path d="M-37.58343058797793,13.345248853100406L-18.015548458852564,39.91026760303829L-17.486939778821036,8.19098798718804z" style="fill:rgb(83,212,212)"/><path d="M-6.889466952046176,41.00822115833646L-3.3086372943117928,9.161184443332552L-6.687532663626118,9.290507538026104z" style="fill:rgb(120,217,217)"/><path d="M-10.344465627099863,40.673356347250476L-6.687532663626118,9.290507538026104L-10.041164812362892,8.955158733730121z" style="fill:rgb(145,216,216)"/><path d="M-3.4085565762261334,40.87908521724134L-0.029859483279235485,8.57181489801303L-3.3086372943117928,9.161184443332552z" style="fill:rgb(95,214,214)"/><path d="M-13.645369677720234,39.886456428822584L-10.041164812362892,8.955158733730121L-13.244980685284775,8.167142537930465z" style="fill:rgb(169,212,212)"/><path d="M-14.83407982910758,7.510593953533593L-13.645369677720234,39.886456428822584L-13.244980685284775,8.167142537930465z" style="fill:rgb(192,205,205)"/><path d="M-17.486939778821036,8.19098798718804L-16.54807932612389,39.54540211319639L-16.062357154866397,7.825617241721443zM-16.54807932612389,39.54540211319639L-15.155751353135388,7.593094635479564L-16.062357154866397,7.825617241721443zM-15.614164172878077,39.31319731852053L-14.83407982910758,7.510593953533593L-15.155751353135388,7.593094635479564z" style="fill:rgb(83,212,212)"/><path d="M-2.254964800627417,4.284356537333338L-0.030761756152486382,40.290558052040474L-0.029859483279235485,8.57181489801303z" style="fill:rgb(247,158,158)"/><path d="M-6.6285357892805115,36.46114206372496L-4.312346869180178,4.655855452516986L-6.433392568403131,4.73739335652391z" style="fill:rgb(120,217,217)"/><path d="M-8.797398657592566,36.249973271104814L-6.433392568403131,4.73739335652391L-8.538351586246504,4.525973101590888z" style="fill:rgb(145,216,216)"/><path d="M-4.443163298680597,36.37970228330592L-2.254964800627417,4.284356537333338L-4.312346869180178,4.655855452516986z" style="fill:rgb(95,214,214)"/><path d="M-10.868212220641729,35.75394917148468L-8.538351586246504,4.525973101590888L-10.54803498553035,4.029369572822169z" style="fill:rgb(169,212,212)"/><path d="M-12.762874375988105,34.9913280077142L-10.54803498553035,4.029369572822169L-12.386603757265776,3.265885323818835z" style="fill:rgb(192,205,205)"/><path d="M-14.409500806034645,33.99028285388485L-12.386603757265776,3.265885323818835L-13.984274892150681,2.2637614634666674z" style="fill:rgb(212,194,194)"/><path d="M-15.279868937017055,1.0602568234342777L-14.409500806034645,33.99028285388485L-13.984274892150681,2.2637614634666674z" style="fill:rgb(229,181,181)"/><path d="M-18.015548458852564,39.91026760303829L-37.58343058797793,13.345248853100406L-38.71369407448634,45.05656462665316zM-2.323395135738249,36.00863874675532L33.70170014137393,-4.937654105924895L-2.254964800627417,4.284356537333338z" style="fill:rgb(83,212,212)"/><path d="M-16.223123373220417,-0.299595263766128L-15.745044934654395,32.787999365242804L-15.279868937017055,1.0602568234342777z" style="fill:rgb(242,166,166)"/><path d="M-22.32934419122227,1.2788744939014145L-16.717680748190713,31.42942251835895L-16.223123373220417,-0.299595263766128z" style="fill:rgb(83,212,212)"/><path d="M-3.3086372943117928,9.161184443332552L-6.889466952046176,41.00822115833646L-3.4085565762261334,40.87908521724134z" style="fill:rgb(120,217,217)"/><path d="M-6.687532663626118,9.290507538026104L-10.344465627099863,40.673356347250476L-6.889466952046176,41.00822115833646z" style="fill:rgb(145,216,216)"/><path d="M-0.029859483279235485,8.57181489801303L-3.4085565762261334,40.87908521724134L-0.030761756152486382,40.290558052040474z" style="fill:rgb(95,214,214)"/><path d="M-10.041164812362892,8.955158733730121L-13.645369677720234,39.886456428822584L-10.344465627099863,40.673356347250476z" style="fill:rgb(169,212,212)"/><path d="M-16.54807932612389,39.54540211319639L-17.486939778821036,8.19098798718804L-18.015548458852564,39.91026760303829z" style="fill:rgb(83,212,212)"/><path d="M-13.645369677720234,39.886456428822584L-14.83407982910758,7.510593953533593L-15.282800002538078,39.23080863912771z" style="fill:rgb(192,205,205)"/><path d="M-15.155751353135388,7.593094635479564L-16.54807932612389,39.54540211319639L-15.614164172878077,39.31319731852053zM-14.83407982910758,7.510593953533593L-15.614164172878077,39.31319731852053L-15.282800002538078,39.23080863912771z" style="fill:rgb(83,212,212)"/><path d="M34.733800854137684,26.794902635202703L35.79656284670014,-0.5737791882107234L33.70170014137393,-4.937654105924895zM-0.030761756152486382,40.290558052040474L-2.254964800627417,4.284356537333338L-2.323395135738249,36.00863874675532z" style="fill:rgb(247,158,158)"/><path d="M-4.312346869180178,4.655855452516986L-6.6285357892805115,36.46114206372496L-4.443163298680597,36.37970228330592z" style="fill:rgb(120,217,217)"/><path d="M-6.433392568403131,4.73739335652391L-8.797398657592566,36.249973271104814L-6.6285357892805115,36.46114206372496z" style="fill:rgb(145,216,216)"/><path d="M-2.254964800627417,4.284356537333338L-4.443163298680597,36.37970228330592L-2.323395135738249,36.00863874675532z" style="fill:rgb(95,214,214)"/><path d="M-8.538351586246504,4.525973101590888L-10.868212220641729,35.75394917148468L-8.797398657592566,36.249973271104814z" style="fill:rgb(169,212,212)"/><path d="M-10.54803498553035,4.029369572822169L-12.762874375988105,34.9913280077142L-10.868212220641729,35.75394917148468z" style="fill:rgb(192,205,205)"/><path d="M-12.386603757265776,3.265885323818835L-14.409500806034645,33.99028285388485L-12.762874375988105,34.9913280077142z" style="fill:rgb(212,194,194)"/><path d="M-14.409500806034645,33.99028285388485L-15.279868937017055,1.0602568234342777L-15.745044934654395,32.787999365242804z" style="fill:rgb(229,181,181)"/><path d="M-16.717680748190713,31.42942251835895L-22.32934419122227,1.2788744939014145L-23.008985280674178,33.00640127160306z" style="fill:rgb(83,212,212)"/><path d="M-15.745044934654395,32.787999365242804L-16.223123373220417,-0.299595263766128L-16.717680748190713,31.42942251835895z" style="fill:rgb(242,166,166)"/><path d="M33.70170014137393,-4.937654105924895L-2.323395135738249,36.00863874675532L34.733800854137684,26.794902635202703z" style="fill:rgb(83,212,212)"/><path d="M35.79656284670014,-0.5737791882107234L34.733800854137684,26.794902635202703L36.88810699126988,31.15548273796232z" style="fill:rgb(247,158,158)"/><path d="M-6.6285357892805115,36.46114206372496L-6.889466952046176,41.00822115833646L-3.4085565762261334,40.87908521724134zM-8.797398657592566,36.249973271104814L-10.344465627099863,40.673356347250476L-6.889466952046176,41.00822115833646zM-2.323395135738249,36.00863874675532L-3.4085565762261334,40.87908521724134L-0.030761756152486382,40.290558052040474zM-12.762874375988105,34.9913280077142L-13.645369677720234,39.886456428822584L-10.344465627099863,40.673356347250476zM-6.6285357892805115,36.46114206372496L-3.4085565762261334,40.87908521724134L-4.443163298680597,36.37970228330592zM-8.797398657592566,36.249973271104814L-6.889466952046176,41.00822115833646L-6.6285357892805115,36.46114206372496zM-4.443163298680597,36.37970228330592L-3.4085565762261334,40.87908521724134L-2.323395135738249,36.00863874675532zM-10.868212220641729,35.75394917148468L-10.344465627099863,40.673356347250476L-8.797398657592566,36.249973271104814zM-12.762874375988105,34.9913280077142L-10.344465627099863,40.673356347250476L-10.868212220641729,35.75394917148468zM-16.717680748190713,31.42942251835895L-16.669090337186052,38.67572415927741L-13.645369677720234,39.886456428822584zM-14.409500806034645,33.99028285388485L-13.645369677720234,39.886456428822584L-12.762874375988105,34.9913280077142zM-16.717680748190713,31.42942251835895L-19.301797291972978,37.08481689011116L-16.669090337186052,38.67572415927741zM-15.745044934654395,32.787999365242804L-13.645369677720234,39.886456428822584L-14.409500806034645,33.99028285388485zM-16.717680748190713,31.42942251835895L-13.645369677720234,39.886456428822584L-15.745044934654395,32.787999365242804zM-16.717680748190713,31.42942251835895L-21.44293635846569,35.17160059705013L-19.301797291972978,37.08481689011116zM-21.44293635846569,35.17160059705013L-16.717680748190713,31.42942251835895L-23.008985280674178,33.00640127160306z" style="fill:rgb(127,37,217)"/><path d="M-33.016229343722024,1.6465077741819727L-16.223123373220417,-0.299595263766128L-32.01159153637777,-30.083319988671498zM-16.223123373220417,-0.299595263766128L-33.016229343722024,1.6465077741819727L-16.717680748190713,31.42942251835895z" style="fill:rgb(247,158,158)"/><path d="M-38.26749805784765,-28.413384311589688L-33.016229343722024,1.6465077741819727L-32.01159153637777,-30.083319988671498z" style="fill:rgb(83,212,212)"/><path d="M-33.016229343722024,1.6465077741819727L-23.008985280674178,33.00640127160306L-16.717680748190713,31.42942251835895z" style="fill:rgb(127,37,217)"/><path d="M-33.016229343722024,1.6465077741819727L-38.26749805784765,-28.413384311589688L-39.466538277692784,3.31777474180641z" style="fill:rgb(83,212,212)"/><path d="M-23.008985280674178,33.00640127160306L-33.016229343722024,1.6465077741819727L-39.466538277692784,3.31777474180641z" style="fill:rgb(127,37,217)"/><path d="M-38.71369407448634,45.05656462665316L39.24023624471505,165.34796951480652L34.733800854137684,26.794902635202703z" style="fill:rgb(83,212,212)"/><path d="M39.24023624471505,165.34796951480652L36.88810699126988,31.15548273796232L34.733800854137684,26.794902635202703zM-40.86432414708616,105.39585085530203L-40.87868498310977,187.20146902941877L-38.294929316074615,109.56506634432586z" style="fill:rgb(247,158,158)"/><path d="M-48.42229654234436,183.55194231526465L-43.06680168571007,105.75721708103738L-45.34949891061629,105.83652117470285z" style="fill:rgb(120,217,217)"/><path d="M-50.85458388081517,183.35058303944686L-45.34949891061629,105.83652117470285L-47.626728395414155,105.63088130543508z" style="fill:rgb(145,216,216)"/><path d="M-45.98519179225303,183.47427758114196L-40.86432414708616,105.39585085530203L-43.06680168571007,105.75721708103738z" style="fill:rgb(95,214,214)"/><path d="M-49.8129822227574,105.14781797025897L-50.85458388081517,183.35058303944686L-47.626728395414155,105.63088130543508z" style="fill:rgb(169,212,212)"/><path d="M-55.34324522559812,182.15029103490878L-49.8129822227574,105.14781797025897L-51.82588345772536,104.40508086207011z" style="fill:rgb(192,205,205)"/><path d="M-53.58914336271588,103.4300527788686L-55.34324522559812,182.15029103490878L-51.82588345772536,104.40508086207011z" style="fill:rgb(212,194,194)"/><path d="M-55.03531367549563,102.25890170191117L-57.23021704424578,181.1954109004671L-53.58914336271588,103.4300527788686z" style="fill:rgb(229,181,181)"/><path d="M-62.625935777231845,102.4716641318646L-59.9313897977227,178.75163186451573L-56.10832366576905,100.93535366586508z" style="fill:rgb(83,212,212)"/><path d="M-59.9313897977227,178.75163186451573L-55.03531367549563,102.25890170191117L-56.10832366576905,100.93535366586508z" style="fill:rgb(242,166,166)"/><path d="M39.24023624471505,165.34796951480652L-38.71369407448634,45.05656462665316L-43.63460710878279,183.1204796083697z" style="fill:rgb(83,212,212)"/><path d="M-40.87868498310977,187.20146902941877L-40.86432414708616,105.39585085530203L-43.63460710878279,183.1204796083697z" style="fill:rgb(247,158,158)"/><path d="M-43.06680168571007,105.75721708103738L-48.42229654234436,183.55194231526465L-45.98519179225303,183.47427758114196z" style="fill:rgb(120,217,217)"/><path d="M-45.34949891061629,105.83652117470285L-50.85458388081517,183.35058303944686L-48.42229654234436,183.55194231526465z" style="fill:rgb(145,216,216)"/><path d="M36.88810699126988,31.15548273796232L39.24023624471505,165.34796951480652L41.65082479577728,169.5992951587514z" style="fill:rgb(247,158,158)"/><path d="M-40.86432414708616,105.39585085530203L-45.98519179225303,183.47427758114196L-43.63460710878279,183.1204796083697z" style="fill:rgb(95,214,214)"/><path d="M-50.85458388081517,183.35058303944686L-49.8129822227574,105.14781797025897L-53.19086963806407,182.8776070758678z" style="fill:rgb(169,212,212)"/><path d="M-49.8129822227574,105.14781797025897L-55.34324522559812,182.15029103490878L-53.19086963806407,182.8776070758678z" style="fill:rgb(192,205,205)"/><path d="M-55.34324522559812,182.15029103490878L-53.58914336271588,103.4300527788686L-57.23021704424578,181.1954109004671z" style="fill:rgb(212,194,194)"/><path d="M-57.23021704424578,181.1954109004671L-55.03531367549563,102.25890170191117L-58.77963224438443,180.0482797067947z" style="fill:rgb(229,181,181)"/><path d="M-93.8602952743009,40.96992326089182L-59.9313897977227,178.75163186451573L-56.10832366576905,100.93535366586508z" style="fill:rgb(247,158,158)"/><path d="M-59.9313897977227,178.75163186451573L-62.625935777231845,102.4716641318646L-66.88564987030101,180.25668447865263z" style="fill:rgb(83,212,212)"/><path d="M-55.03531367549563,102.25890170191117L-59.9313897977227,178.75163186451573L-58.77963224438443,180.0482797067947z" style="fill:rgb(242,166,166)"/><path d="M-48.42229654234436,183.55194231526465L-48.502503037124335,187.88506541709333L-44.6226319275311,187.76206411186308zM-50.85458388081517,183.35058303944686L-52.375082568543974,187.5661130924255L-48.502503037124335,187.88506541709333zM-43.63460710878279,183.1204796083697L-44.6226319275311,187.76206411186308L-40.87868498310977,187.20146902941877zM-55.34324522559812,182.15029103490878L-56.09732219442081,186.81650821885876L-52.375082568543974,187.5661130924255zM-48.42229654234436,183.55194231526465L-44.6226319275311,187.76206411186308L-45.98519179225303,183.47427758114196zM-50.85458388081517,183.35058303944686L-48.502503037124335,187.88506541709333L-48.42229654234436,183.55194231526465zM-45.98519179225303,183.47427758114196L-44.6226319275311,187.76206411186308L-43.63460710878279,183.1204796083697zM-53.19086963806407,182.8776070758678L-52.375082568543974,187.5661130924255L-50.85458388081517,183.35058303944686zM-55.34324522559812,182.15029103490878L-52.375082568543974,187.5661130924255L-53.19086963806407,182.8776070758678zM-59.9313897977227,178.75163186451573L-59.53097287780643,185.6628905593282L-56.09732219442081,186.81650821885876zM-57.23021704424578,181.1954109004671L-56.09732219442081,186.81650821885876L-55.34324522559812,182.15029103490878zM-59.9313897977227,178.75163186451573L-62.54719048753189,184.14653341158504L-59.53097287780643,185.6628905593282zM-58.77963224438443,180.0482797067947L-56.09732219442081,186.81650821885876L-57.23021704424578,181.1954109004671zM-59.9313897977227,178.75163186451573L-56.09732219442081,186.81650821885876L-58.77963224438443,180.0482797067947zM-59.9313897977227,178.75163186451573L-65.03102296828256,182.32222740155294L-62.54719048753189,184.14653341158504zM-65.03102296828256,182.32222740155294L-59.9313897977227,178.75163186451573L-66.88564987030101,180.25668447865263zM-40.87868498310977,187.20146902941877L39.24023624471505,165.34796951480652L-43.63460710878279,183.1204796083697zM39.24023624471505,165.34796951480652L-40.87868498310977,187.20146902941877L41.65082479577728,169.5992951587514z" style="fill:rgb(127,37,217)"/><path d="M-100.72710847335175,42.70817865154984L-100.69307857465927,119.74298588999447L-93.8602952743009,40.96992326089182z" style="fill:rgb(83,212,212)"/><path d="M-59.9313897977227,178.75163186451573L-93.8602952743009,40.96992326089182L-100.69307857465927,119.74298588999447z" style="fill:rgb(247,158,158)"/><path d="M-100.69307857465927,119.74298588999447L-66.88564987030101,180.25668447865263L-59.9313897977227,178.75163186451573z" style="fill:rgb(127,37,217)"/><path d="M-100.69307857465927,119.74298588999447L-100.72710847335175,42.70817865154984L-108.04611322093994,121.46075619118503z" style="fill:rgb(83,212,212)"/><path d="M-66.88564987030101,180.25668447865263L-100.69307857465927,119.74298588999447L-108.04611322093994,121.46075619118503z" style="fill:rgb(127,37,217)"/></svg>
