<?xml version="1.0" encoding="UTF-8"?>
<!-- Generated by jsxcad -->
<!DOCTYPE svg PUBLIC "-//W3C//DTD SVG 1.1 Tiny//EN" "http://www.w3.org/Graphics/SVG/1.1/DTD/svg11-tiny.dtd">
<svg viewBox="-250 -250 500 500" width="500" height="500" xmlns="http://www.w3.org/2000/svg"><path d="M-56.71672519501924,-87.63101703072698L113.98944995062938,119.91828511827129L89.54829512305056,-129.02611985676822z" style="fill:rgb(83,212,212)"/><path d="M89.54829512305056,-129.02611985676822L116.14299545281582,124.62070355019284L91.34001476990016,-124.32898255154383zM-71.50670198716884,161.00871049224799L-60.211090747205546,18.633937549714787L-62.77600783272103,14.233811331479888z" style="fill:rgb(247,158,158)"/><path d="M-71.3780146182419,15.163399461613038L-76.30332181309123,161.7529389712735L-66.99389260907873,14.996155765888751z" style="fill:rgb(120,217,217)"/><path d="M-86.29911977426254,161.4928268919201L-71.3780146182419,15.163399461613038L-75.7674146271476,14.729693763136703z" style="fill:rgb(145,216,216)"/><path d="M-66.99389260907873,14.996155765888751L-71.50670198716884,161.00871049224799L-62.77600783272103,14.233811331479888z" style="fill:rgb(95,214,214)"/><path d="M-80.00082808702743,13.710219859382978L-86.29911977426254,161.4928268919201L-75.7674146271476,14.729693763136703z" style="fill:rgb(169,212,212)"/><path d="M-83.92178171552665,12.140822281910992L-91.13355681424073,160.49747829886925L-80.00082808702743,13.710219859382978z" style="fill:rgb(192,205,205)"/><path d="M-87.38370242648489,10.077115171787934L-95.62045879035101,158.96468459819894L-83.92178171552665,12.140822281910992z" style="fill:rgb(212,194,194)"/><path d="M-90.25489670623554,7.5930251178340065L-99.59280351527721,156.9481125880613L-87.38370242648489,10.077115171787934z" style="fill:rgb(229,181,181)"/><path d="M-112.50187671502377,153.3661940716901L-92.42341659390706,4.778749807981207L-98.66127417532186,6.414312994297976z" style="fill:rgb(83,212,212)"/><path d="M-105.41231233331371,151.76560476498824L-90.25489670623554,7.5930251178340065L-92.42341659390706,4.778749807981207z" style="fill:rgb(242,166,166)"/><path d="M113.98944995062938,119.91828511827129L-56.71672519501924,-87.63101703072698L-71.50670198716884,161.00871049224799z" style="fill:rgb(83,212,212)"/><path d="M-60.211090747205546,18.633937549714787L-71.50670198716884,161.00871049224799L-68.54423273637012,165.3021363817618z" style="fill:rgb(247,158,158)"/><path d="M-76.30332181309123,161.7529389712735L-71.3780146182419,15.163399461613038L-81.29481839349901,161.91618486501378z" style="fill:rgb(120,217,217)"/><path d="M-71.3780146182419,15.163399461613038L-86.29911977426254,161.4928268919201L-81.29481839349901,161.91618486501378z" style="fill:rgb(145,216,216)"/><path d="M-71.50670198716884,161.00871049224799L-66.99389260907873,14.996155765888751L-76.30332181309123,161.7529389712735z" style="fill:rgb(95,214,214)"/><path d="M-86.29911977426254,161.4928268919201L-80.00082808702743,13.710219859382978L-91.13355681424073,160.49747829886925z" style="fill:rgb(169,212,212)"/><path d="M-91.13355681424073,160.49747829886925L-83.92178171552665,12.140822281910992L-95.62045879035101,158.96468459819894z" style="fill:rgb(192,205,205)"/><path d="M-95.62045879035101,158.96468459819894L-87.38370242648489,10.077115171787934L-99.59280351527721,156.9481125880613z" style="fill:rgb(212,194,194)"/><path d="M-99.59280351527721,156.9481125880613L-90.25489670623554,7.5930251178340065L-102.89978071357876,154.51926606099562z" style="fill:rgb(229,181,181)"/><path d="M-90.25489670623554,7.5930251178340065L-105.41231233331371,151.76560476498824L-102.89978071357876,154.51926606099562z" style="fill:rgb(242,166,166)"/><path d="M-92.42341659390706,4.778749807981207L-112.50187671502377,153.3661940716901L-105.41231233331371,151.76560476498824z" style="fill:rgb(83,212,212)"/><path d="M116.14299545281582,124.62070355019284L89.54829512305056,-129.02611985676822L113.98944995062938,119.91828511827129z" style="fill:rgb(247,158,158)"/><path d="M-81.29481839349901,161.91618486501378L-81.20685395723874,166.47003116254012L-74.75112886882236,166.25998928666965zM-86.29911977426254,161.4928268919201L-87.67962903340575,165.92525411162427L-81.20685395723874,166.47003116254012zM-71.50670198716884,161.00871049224799L-74.75112886882236,166.25998928666965L-68.54423273637012,165.3021363817618zM-91.13355681424073,160.49747829886925L-93.9368424264408,164.6438868589725L-87.67962903340575,165.92525411162427zM-81.29481839349901,161.91618486501378L-74.75112886882236,166.25998928666965L-76.30332181309123,161.7529389712735zM-86.29911977426254,161.4928268919201L-81.20685395723874,166.47003116254012L-81.29481839349901,161.91618486501378zM-76.30332181309123,161.7529389712735L-74.75112886882236,166.25998928666965L-71.50670198716884,161.00871049224799zM-91.13355681424073,160.49747829886925L-87.67962903340575,165.92525411162427L-86.29911977426254,161.4928268919201zM-99.59280351527721,156.9481125880613L-99.75164474548392,162.66895696229983L-93.9368424264408,164.6438868589725zM-95.62045879035101,158.96468459819894L-93.9368424264408,164.6438868589725L-91.13355681424073,160.49747829886925zM-99.59280351527721,156.9481125880613L-93.9368424264408,164.6438868589725L-95.62045879035101,158.96468459819894zM-105.41231233331371,151.76560476498824L-104.90970165608834,160.06762331963063L-99.75164474548392,162.66895696229983zM-102.89978071357876,154.51926606099562L-99.75164474548392,162.66895696229983L-99.59280351527721,156.9481125880613zM-105.41231233331371,151.76560476498824L-99.75164474548392,162.66895696229983L-102.89978071357876,154.51926606099562zM-105.41231233331371,151.76560476498824L-109.21602016437451,156.92980504136182L-104.90970165608834,160.06762331963063zM-109.21602016437451,156.92980504136182L-105.41231233331371,151.76560476498824L-112.50187671502377,153.3661940716901zM-68.54423273637012,165.3021363817618L113.98944995062938,119.91828511827129L-71.50670198716884,161.00871049224799zM113.98944995062938,119.91828511827129L-68.54423273637012,165.3021363817618L116.14299545281582,124.62070355019284z" style="fill:rgb(127,37,217)"/></svg>
