<?xml version="1.0" encoding="UTF-8"?>
<!-- Generated by jsxcad -->
<!DOCTYPE svg PUBLIC "-//W3C//DTD SVG 1.1 Tiny//EN" "http://www.w3.org/Graphics/SVG/1.1/DTD/svg11-tiny.dtd">
<svg viewBox="-250 -250 500 500" width="500" height="500" xmlns="http://www.w3.org/2000/svg"><path d="M86.09778632276486,-95.74611045364713L-57.410315664846294,-62.78718902889893L-57.800046883702194,-56.1457695297624z" style="fill:rgb(83,212,212)"/><path d="M12.874035229824216,-75.59511299547813L4.7378385656121855,-70.0809459987146L9.89167458074891,-70.29328054304762zM12.874035229824216,-75.59511299547813L-0.37017218972127885,-70.63160681475561L4.7378385656121855,-70.0809459987146zM12.874035229824216,-75.59511299547813L9.89167458074891,-70.29328054304762L14.903674337703633,-71.26131509009832zM-0.37017218972127885,-70.63160681475561L12.874035229824216,-75.59511299547813L-2.808969899973242,-71.27918457601821z" style="fill:rgb(127,37,217)"/><path d="M-57.410315664846294,-62.78718902889893L86.09778632276486,-95.74611045364713L85.49645251386723,-102.34887366887662z" style="fill:rgb(83,212,212)"/><path d="M86.09778632276486,-95.74611045364713L87.26338855530781,-97.8629835833453L85.49645251386723,-102.34887366887662zM87.26338855530781,-97.8629835833453L86.09778632276486,-95.74611045364713L87.87472618370867,-91.25486878838191z" style="fill:rgb(247,158,158)"/><path d="M-57.800046883702194,-56.1457695297624L-11.109738587663816,34.125049976595676L-10.041233127193594,-69.288879453247zM-10.041233127193594,-69.288879453247L-7.899811154579176,33.323711889113106L-7.139481881030052,-70.08743441725126z" style="fill:rgb(83,212,212)"/><path d="M5.2423981786383305,33.33022702932365L9.89167458074891,-70.29328054304762L4.7378385656121855,-70.0809459987146z" style="fill:rgb(120,217,217)"/><path d="M-0.4096155601768457,32.77757423750927L4.7378385656121855,-70.0809459987146L-0.37017218972127885,-70.63160681475561z" style="fill:rgb(145,216,216)"/><path d="M-7.139481881030052,-70.08743441725126L-5.457721146835374,32.71405808893351L-4.932147426796406,-70.69488641439699z" style="fill:rgb(83,212,212)"/><path d="M10.945318414368781,33.1171320858258L14.903674337703633,-71.26131509009832L9.89167458074891,-70.29328054304762z" style="fill:rgb(95,214,214)"/><path d="M-2.808969899973242,-71.27918457601821L-0.4096155601768457,32.77757423750927L-0.37017218972127885,-70.63160681475561z" style="fill:rgb(169,212,212)"/><path d="M-4.932147426796406,-70.69488641439699L-3.7849945049719684,32.29647340583187L-3.4203665594435604,-71.11093012879674zM-3.7849945049719684,32.29647340583187L-2.808969899973242,-71.27918457601821L-3.4203665594435604,-71.11093012879674z" style="fill:rgb(83,212,212)"/><path d="M12.874035229824216,-75.59511299547813L16.4927171366503,32.145523074906386L14.903674337703633,-71.26131509009832z" style="fill:rgb(247,158,158)"/><path d="M5.560901515655193,28.712935047114748L9.004233409519005,-74.84450777509619L5.02347299897258,-74.67982832525145z" style="fill:rgb(120,217,217)"/><path d="M1.1939662431177471,28.28396706627532L5.02347299897258,-74.67982832525145L1.078532259356295,-75.10687815959072z" style="fill:rgb(145,216,216)"/><path d="M9.96769479132171,28.54751879684995L12.874035229824216,-75.59511299547813L9.004233409519005,-74.84450777509619z" style="fill:rgb(95,214,214)"/><path d="M-2.972630218437173,27.275628898355922L1.078532259356295,-75.10687815959072L-2.684974695978995,-76.11057473412764z" style="fill:rgb(169,212,212)"/><path d="M-6.784762411203609,25.723364886168813L-2.684974695978995,-76.11057473412764L-6.12730697427222,-77.65531383985929z" style="fill:rgb(192,205,205)"/><path d="M-10.09969572691403,23.682172216455744L-6.12730697427222,-77.65531383985929L-9.119241773802553,-79.68592217834421z" style="fill:rgb(212,194,194)"/><path d="M-12.790997032452939,21.225155451615688L-9.119241773802553,-79.68592217834421L-11.546572278188181,-82.12914499450187z" style="fill:rgb(229,181,181)"/><path d="M14.252594333789528,27.793502805853596L86.09778632276486,-95.74611045364713L12.874035229824216,-75.59511299547813z" style="fill:rgb(83,212,212)"/><path d="M-13.314361683478667,-84.89576724329457L-12.790997032452939,21.225155451615688L-11.546572278188181,-82.12914499450187z" style="fill:rgb(242,166,166)"/><path d="M-19.070715848074197,-83.28807558993302L-14.753223751270632,18.441520635681346L-13.314361683478667,-84.89576724329457z" style="fill:rgb(83,212,212)"/><path d="M95.50165301268353,7.510184452636037L87.87472618370867,-91.25486878838191L86.09778632276486,-95.74611045364713z" style="fill:rgb(247,158,158)"/><path d="M-11.109738587663816,34.125049976595676L-57.800046883702194,-56.1457695297624L-63.87023751022189,47.296375154739195zM-7.899811154579176,33.323711889113106L-10.041233127193594,-69.288879453247L-11.109738587663816,34.125049976595676z" style="fill:rgb(83,212,212)"/><path d="M9.89167458074891,-70.29328054304762L5.2423981786383305,33.33022702932365L10.945318414368781,33.1171320858258z" style="fill:rgb(120,217,217)"/><path d="M4.7378385656121855,-70.0809459987146L-0.4096155601768457,32.77757423750927L5.2423981786383305,33.33022702932365z" style="fill:rgb(145,216,216)"/><path d="M-5.457721146835374,32.71405808893351L-7.139481881030052,-70.08743441725126L-7.899811154579176,33.323711889113106zM-3.7849945049719684,32.29647340583187L-4.932147426796406,-70.69488641439699L-5.457721146835374,32.71405808893351z" style="fill:rgb(83,212,212)"/><path d="M14.903674337703633,-71.26131509009832L10.945318414368781,33.1171320858258L16.4927171366503,32.145523074906386z" style="fill:rgb(95,214,214)"/><path d="M-0.4096155601768457,32.77757423750927L-2.808969899973242,-71.27918457601821L-3.1084700635275566,32.127581727092085z" style="fill:rgb(169,212,212)"/><path d="M-2.808969899973242,-71.27918457601821L-3.7849945049719684,32.29647340583187L-3.1084700635275566,32.127581727092085z" style="fill:rgb(83,212,212)"/><path d="M16.4927171366503,32.145523074906386L12.874035229824216,-75.59511299547813L14.252594333789528,27.793502805853596z" style="fill:rgb(247,158,158)"/><path d="M9.004233409519005,-74.84450777509619L5.560901515655193,28.712935047114748L9.96769479132171,28.54751879684995z" style="fill:rgb(120,217,217)"/><path d="M5.02347299897258,-74.67982832525145L1.1939662431177471,28.28396706627532L5.560901515655193,28.712935047114748z" style="fill:rgb(145,216,216)"/><path d="M12.874035229824216,-75.59511299547813L9.96769479132171,28.54751879684995L14.252594333789528,27.793502805853596z" style="fill:rgb(95,214,214)"/><path d="M1.078532259356295,-75.10687815959072L-2.972630218437173,27.275628898355922L1.1939662431177471,28.28396706627532z" style="fill:rgb(169,212,212)"/><path d="M-2.684974695978995,-76.11057473412764L-6.784762411203609,25.723364886168813L-2.972630218437173,27.275628898355922z" style="fill:rgb(192,205,205)"/><path d="M-6.12730697427222,-77.65531383985929L-10.09969572691403,23.682172216455744L-6.784762411203609,25.723364886168813z" style="fill:rgb(212,194,194)"/><path d="M-39.8110601393061,-28.101713618377925L-13.314361683478667,-84.89576724329457L-35.76963674077554,-130.9380261958801z" style="fill:rgb(247,158,158)"/><path d="M-9.119241773802553,-79.68592217834421L-12.790997032452939,21.225155451615688L-10.09969572691403,23.682172216455744z" style="fill:rgb(229,181,181)"/><path d="M-14.753223751270632,18.441520635681346L-19.070715848074197,-83.28807558993302L-21.12839909392661,20.05928117805546z" style="fill:rgb(83,212,212)"/><path d="M-12.790997032452939,21.225155451615688L-13.314361683478667,-84.89576724329457L-14.753223751270632,18.441520635681346z" style="fill:rgb(242,166,166)"/><path d="M86.09778632276486,-95.74611045364713L14.252594333789528,27.793502805853596L95.50165301268353,7.510184452636037zM-46.43435922655527,-26.33354180652921L-35.76963674077554,-130.9380261958801L-41.72757310381329,-129.19631370109127z" style="fill:rgb(83,212,212)"/><path d="M87.87472618370867,-91.25486878838191L95.50165301268353,7.510184452636037L97.43065058665893,12.03771209076727zM-13.314361683478667,-84.89576724329457L-39.8110601393061,-28.101713618377925L-14.753223751270632,18.441520635681346z" style="fill:rgb(247,158,158)"/><path d="M5.560901515655193,28.712935047114748L5.2423981786383305,33.33022702932365L10.945318414368781,33.1171320858258zM1.1939662431177471,28.28396706627532L-0.4096155601768457,32.77757423750927L5.2423981786383305,33.33022702932365zM14.252594333789528,27.793502805853596L10.945318414368781,33.1171320858258L16.4927171366503,32.145523074906386zM-2.972630218437173,27.275628898355922L-5.80581441229328,31.477955048887335L-0.4096155601768457,32.77757423750927zM5.560901515655193,28.712935047114748L10.945318414368781,33.1171320858258L9.96769479132171,28.54751879684995zM1.1939662431177471,28.28396706627532L5.2423981786383305,33.33022702932365L5.560901515655193,28.712935047114748zM9.96769479132171,28.54751879684995L10.945318414368781,33.1171320858258L14.252594333789528,27.793502805853596zM-2.972630218437173,27.275628898355922L-0.4096155601768457,32.77757423750927L1.1939662431177471,28.28396706627532zM-10.09969572691403,23.682172216455744L-10.74889620195984,29.47579676403174L-5.80581441229328,31.477955048887335zM-6.784762411203609,25.723364886168813L-5.80581441229328,31.477955048887335L-2.972630218437173,27.275628898355922zM-10.09969572691403,23.682172216455744L-5.80581441229328,31.477955048887335L-6.784762411203609,25.723364886168813zM-14.753223751270632,18.441520635681346L-15.055261732802698,26.840248812189355L-10.74889620195984,29.47579676403174zM-12.790997032452939,21.225155451615688L-10.74889620195984,29.47579676403174L-10.09969572691403,23.682172216455744zM-14.753223751270632,18.441520635681346L-10.74889620195984,29.47579676403174L-12.790997032452939,21.225155451615688zM-14.753223751270632,18.441520635681346L-18.561106105737032,23.66365046725523L-15.055261732802698,26.840248812189355zM-18.561106105737032,23.66365046725523L-14.753223751270632,18.441520635681346L-21.12839909392661,20.05928117805546z" style="fill:rgb(127,37,217)"/><path d="M-35.76963674077554,-130.9380261958801L-46.43435922655527,-26.33354180652921L-39.8110601393061,-28.101713618377925z" style="fill:rgb(83,212,212)"/><path d="M-39.8110601393061,-28.101713618377925L-21.12839909392661,20.05928117805546L-14.753223751270632,18.441520635681346zM-21.12839909392661,20.05928117805546L-39.8110601393061,-28.101713618377925L-46.43435922655527,-26.33354180652921z" style="fill:rgb(127,37,217)"/><path d="M-63.87023751022189,47.296375154739195L108.15892259673512,146.48949466385807L95.50165301268353,7.510184452636037z" style="fill:rgb(83,212,212)"/><path d="M95.50165301268353,7.510184452636037L110.27958267425429,150.92532228129227L97.43065058665893,12.03771209076727z" style="fill:rgb(247,158,158)"/><path d="M108.15892259673512,146.48949466385807L-63.87023751022189,47.296375154739195L-71.96824640930006,185.29458995349927z" style="fill:rgb(83,212,212)"/><path d="M110.27958267425429,150.92532228129227L95.50165301268353,7.510184452636037L108.15892259673512,146.48949466385807z" style="fill:rgb(247,158,158)"/><path d="M-69.08490928947643,189.3550021997235L108.15892259673512,146.48949466385807L-71.96824640930006,185.29458995349927zM108.15892259673512,146.48949466385807L-69.08490928947643,189.3550021997235L110.27958267425429,150.92532228129227z" style="fill:rgb(127,37,217)"/></svg>
