<?xml version="1.0" encoding="UTF-8"?>
<!-- Generated by jsxcad -->
<!DOCTYPE svg PUBLIC "-//W3C//DTD SVG 1.1 Tiny//EN" "http://www.w3.org/Graphics/SVG/1.1/DTD/svg11-tiny.dtd">
<svg viewBox="-250 -250 500 500" width="500" height="500" xmlns="http://www.w3.org/2000/svg"><path d="M-18.504491440477313,-69.51498533299342L-16.84730833800752,-38.17085174093219L-16.39189255753538,-65.28244845965372z" style="fill:rgb(247,158,158)"/><path d="M-22.347746925320834,-69.06788846521238L-20.963346500658563,-42.04721182801618L-20.394686824799024,-69.14835667866602z" style="fill:rgb(120,217,217)"/><path d="M-24.290110780034492,-69.2765400488036L-22.970817194688863,-41.966515411614516L-22.347746925320834,-69.06788846521238z" style="fill:rgb(145,216,216)"/><path d="M-20.963346500658563,-42.04721182801618L-18.504491440477313,-69.51498533299342L-20.394686824799024,-69.14835667866602z" style="fill:rgb(95,214,214)"/><path d="M-26.87809328880627,-42.667219153554484L-24.290110780034492,-69.2765400488036L-26.148581900858904,-69.7666215383765z" style="fill:rgb(169,212,212)"/><path d="M-27.85293338641794,-70.52000763566137L-26.87809328880627,-42.667219153554484L-26.148581900858904,-69.7666215383765z" style="fill:rgb(192,205,205)"/><path d="M-30.158247317719383,-44.41435552843051L-27.85293338641794,-70.52000763566137L-29.338424492662966,-71.50874987259078z" style="fill:rgb(212,194,194)"/><path d="M-31.40272582671099,-45.605088172770174L-29.338424492662966,-71.50874987259078L-30.54816251014289,-72.69597155605229z" style="fill:rgb(229,181,181)"/><path d="M-38.074458366648514,-45.388800091435726L-31.435278363460522,-74.03717975607114L-37.03853751900591,-72.4803289704856z" style="fill:rgb(83,212,212)"/><path d="M-31.435278363460522,-74.03717975607114L-31.40272582671099,-45.605088172770174L-30.54816251014289,-72.69597155605229z" style="fill:rgb(242,166,166)"/><path d="M-16.84730833800752,-38.17085174093219L-18.504491440477313,-69.51498533299342L-19.020622500253126,-42.41487555887562z" style="fill:rgb(247,158,158)"/><path d="M-20.963346500658563,-42.04721182801618L-22.347746925320834,-69.06788846521238L-22.970817194688863,-41.966515411614516z" style="fill:rgb(120,217,217)"/><path d="M-22.970817194688863,-41.966515411614516L-24.290110780034492,-69.2765400488036L-24.967465878770838,-42.17575477156915z" style="fill:rgb(145,216,216)"/><path d="M-18.504491440477313,-69.51498533299342L-20.963346500658563,-42.04721182801618L-19.020622500253126,-42.41487555887562z" style="fill:rgb(95,214,214)"/><path d="M-24.290110780034492,-69.2765400488036L-26.87809328880627,-42.667219153554484L-24.967465878770838,-42.17575477156915z" style="fill:rgb(169,212,212)"/><path d="M-26.87809328880627,-42.667219153554484L-27.85293338641794,-70.52000763566137L-28.630535253147936,-43.4227534092685z" style="fill:rgb(192,205,205)"/><path d="M-27.85293338641794,-70.52000763566137L-30.158247317719383,-44.41435552843051L-28.630535253147936,-43.4227534092685z" style="fill:rgb(212,194,194)"/><path d="M-29.338424492662966,-71.50874987259078L-31.40272582671099,-45.605088172770174L-30.158247317719383,-44.41435552843051z" style="fill:rgb(229,181,181)"/><path d="M-31.435278363460522,-74.03717975607114L-38.074458366648514,-45.388800091435726L-32.31574652438501,-46.95033192429903z" style="fill:rgb(83,212,212)"/><path d="M-31.40272582671099,-45.605088172770174L-31.435278363460522,-74.03717975607114L-32.31574652438501,-46.95033192429903z" style="fill:rgb(242,166,166)"/><path d="M-22.970817194688863,-41.966515411614516L-23.14275966275454,-37.45925792450967L-19.94404651499035,-37.58730869314758zM-24.967465878770838,-42.17575477156915L-26.32452429195747,-37.79129899198511L-23.14275966275454,-37.45925792450967zM-19.020622500253126,-42.41487555887562L-19.94404651499035,-37.58730869314758L-16.84730833800752,-38.17085174093219zM-28.630535253147936,-43.4227534092685L-29.370961250287017,-38.57150212547385L-26.32452429195747,-37.79129899198511zM-22.970817194688863,-41.966515411614516L-19.94404651499035,-37.58730869314758L-20.963346500658563,-42.04721182801618zM-24.967465878770838,-42.17575477156915L-23.14275966275454,-37.45925792450967L-22.970817194688863,-41.966515411614516zM-20.963346500658563,-42.04721182801618L-19.94404651499035,-37.58730869314758L-19.020622500253126,-42.41487555887562zM-26.87809328880627,-42.667219153554484L-26.32452429195747,-37.79129899198511L-24.967465878770838,-42.17575477156915z" style="fill:rgb(127,37,217)"/><path d="M47.98246674101458,-87.85422065750534L51.219992243907804,-61.477312693119735L49.806352478955326,-88.51474730059822z" style="fill:rgb(72,208,208)"/><path d="M-28.630535253147936,-43.4227534092685L-26.32452429195747,-37.79129899198511L-26.87809328880627,-42.667219153554484z" style="fill:rgb(127,37,217)"/><path d="M51.219992243907804,-61.477312693119735L51.44136882837691,-89.43252393929959L49.806352478955326,-88.51474730059822z" style="fill:rgb(50,199,199)"/><path d="M-32.31574652438501,-46.95033192429903L-32.1682053598877,-39.7717416419968L-29.370961250287017,-38.57150212547385zM-30.158247317719383,-44.41435552843051L-29.370961250287017,-38.57150212547385L-28.630535253147936,-43.4227534092685z" style="fill:rgb(127,37,217)"/><path d="M52.90263427571416,-62.398577671343105L52.825175632818286,-90.57343092594608L51.44136882837691,-89.43252393929959z" style="fill:rgb(32,187,187)"/><path d="M-32.31574652438501,-46.95033192429903L-34.6107999901576,-41.34849708393692L-32.1682053598877,-39.7717416419968zM-31.40272582671099,-45.605088172770174L-29.370961250287017,-38.57150212547385L-30.158247317719383,-44.41435552843051z" style="fill:rgb(127,37,217)"/><path d="M54.3273068958605,-63.543876311083004L53.90448783398387,-91.89481375041744L52.825175632818286,-90.57343092594608z" style="fill:rgb(17,173,173)"/><path d="M-32.31574652438501,-46.95033192429903L-29.370961250287017,-38.57150212547385L-31.40272582671099,-45.605088172770174zM-32.31574652438501,-46.95033192429903L-36.60543852109389,-43.24416442711567L-34.6107999901576,-41.34849708393692zM-36.60543852109389,-43.24416442711567L-32.31574652438501,-46.95033192429903L-38.074458366648514,-45.388800091435726z" style="fill:rgb(127,37,217)"/><path d="M53.90448783398387,-91.89481375041744L56.194698214904335,-66.32837723299708L54.63712767551816,-93.34696829858832z" style="fill:rgb(7,157,157)"/><path d="M-47.676385452696756,-76.36733537473525L-31.435278363460522,-74.03717975607114L-46.34328062311637,-103.34320661405819z" style="fill:rgb(247,158,158)"/><path d="M54.63712767551816,-93.34696829858832L56.563674447555854,-67.86246005428727L54.993766136118325,-94.87484800076436z" style="fill:rgb(1,140,140)"/><path d="M-31.435278363460522,-74.03717975607114L-47.676385452696756,-76.36733537473525L-32.31574652438501,-46.95033192429903z" style="fill:rgb(247,158,158)"/><path d="M54.993766136118325,-94.87484800076436L56.53032646266417,-69.41411550497045L54.959210247609185,-96.42010998017128z" style="fill:rgb(0,122,122)"/><path d="M60.39552352781161,-99.55205671899888L62.811982128379945,-70.13912286291567L61.0651757532433,-97.14208888178446z" style="fill:rgb(251,149,149)"/><path d="M51.219992243907804,-61.477312693119735L47.98246674101458,-87.85422065750534L49.343521056385626,-60.81430176464794z" style="fill:rgb(72,208,208)"/><path d="M54.53320768986274,-97.92323617490045L62.126935433619636,-72.55939012059112L60.39552352781161,-99.55205671899888z" style="fill:rgb(83,212,212)"/><path d="M51.44136882837691,-89.43252393929959L51.219992243907804,-61.477312693119735L52.90263427571416,-62.398577671343105z" style="fill:rgb(50,199,199)"/><path d="M52.825175632818286,-90.57343092594608L52.90263427571416,-62.398577671343105L54.3273068958605,-63.543876311083004z" style="fill:rgb(32,187,187)"/><path d="M53.90448783398387,-91.89481375041744L54.3273068958605,-63.543876311083004L55.439150337403824,-64.87043614719907z" style="fill:rgb(17,173,173)"/><path d="M-52.07217740889321,-101.7035440478653L-47.676385452696756,-76.36733537473525L-46.34328062311637,-103.34320661405819z" style="fill:rgb(83,212,212)"/><path d="M56.194698214904335,-66.32837723299708L53.90448783398387,-91.89481375041744L55.439150337403824,-64.87043614719907z" style="fill:rgb(7,157,157)"/><path d="M-47.676385452696756,-76.36733537473525L-38.074458366648514,-45.388800091435726L-32.31574652438501,-46.95033192429903z" style="fill:rgb(127,37,217)"/><path d="M56.563674447555854,-67.86246005428727L54.63712767551816,-93.34696829858832L56.194698214904335,-66.32837723299708z" style="fill:rgb(1,140,140)"/><path d="M56.53032646266417,-69.41411550497045L54.993766136118325,-94.87484800076436L56.563674447555854,-67.86246005428727z" style="fill:rgb(0,122,122)"/><path d="M52.90263427571416,-62.398577671343105L51.28138495404298,-56.425266823923316L54.27471439102555,-57.478032994792926zM51.28138495404298,-56.425266823923316L51.219992243907804,-61.477312693119735L49.343521056385626,-60.81430176464794zM51.219992243907804,-61.477312693119735L51.28138495404298,-56.425266823923316L52.90263427571416,-62.398577671343105zM55.439150337403824,-64.87043614719907L54.27471439102555,-57.478032994792926L56.962583353397385,-58.94211334396949zM52.90263427571416,-62.398577671343105L54.27471439102555,-57.478032994792926L54.3273068958605,-63.543876311083004z" style="fill:rgb(127,37,217)"/><path d="M62.126935433619636,-72.55939012059112L54.53320768986274,-97.92323617490045L56.09426394366924,-70.92357642510686z" style="fill:rgb(83,212,212)"/><path d="M62.811982128379945,-70.13912286291567L60.39552352781161,-99.55205671899888L62.126935433619636,-72.55939012059112z" style="fill:rgb(251,149,149)"/><path d="M54.3273068958605,-63.543876311083004L54.27471439102555,-57.478032994792926L55.439150337403824,-64.87043614719907zM55.439150337403824,-64.87043614719907L56.962583353397385,-58.94211334396949L56.194698214904335,-66.32837723299708zM62.126935433619636,-72.55939012059112L56.962583353397385,-58.94211334396949L59.2430472957034,-60.76426006652666zM56.194698214904335,-66.32837723299708L56.962583353397385,-58.94211334396949L56.563674447555854,-67.86246005428727z" style="fill:rgb(127,37,217)"/><path d="M-47.676385452696756,-76.36733537473525L-52.07217740889321,-101.7035440478653L-53.56787206880215,-74.72031983357093z" style="fill:rgb(83,212,212)"/><path d="M62.126935433619636,-72.55939012059112L59.2430472957034,-60.76426006652666L61.028214895378674,-62.87760468175414zM-38.074458366648514,-45.388800091435726L-47.676385452696756,-76.36733537473525L-53.56787206880215,-74.72031983357093zM62.126935433619636,-72.55939012059112L56.563674447555854,-67.86246005428727L56.962583353397385,-58.94211334396949z" style="fill:rgb(127,37,217)"/><path d="M52.35608512126649,-95.52827110335281L60.39552352781161,-99.55205671899888L50.86774964962932,-122.40867659191763z" style="fill:rgb(247,158,158)"/><path d="M62.126935433619636,-72.55939012059112L61.028214895378674,-62.87760468175414L62.247636772605865,-65.20374164500512zM62.811982128379945,-70.13912286291567L62.247636772605865,-65.20374164500512L62.85129694586004,-67.6553297646021zM62.126935433619636,-72.55939012059112L62.247636772605865,-65.20374164500512L62.811982128379945,-70.13912286291567z" style="fill:rgb(127,37,217)"/><path d="M60.39552352781161,-99.55205671899888L52.35608512126649,-95.52827110335281L62.126935433619636,-72.55939012059112z" style="fill:rgb(247,158,158)"/><path d="M62.126935433619636,-72.55939012059112L56.53032646266417,-69.41411550497045L56.563674447555854,-67.86246005428727zM56.53032646266417,-69.41411550497045L62.126935433619636,-72.55939012059112L56.09426394366924,-70.92357642510686z" style="fill:rgb(127,37,217)"/><path d="M44.90205101395687,-120.71398958511664L52.35608512126649,-95.52827110335281L50.86774964962932,-122.40867659191763z" style="fill:rgb(83,212,212)"/><path d="M52.35608512126649,-95.52827110335281L56.09426394366924,-70.92357642510686L62.126935433619636,-72.55939012059112z" style="fill:rgb(127,37,217)"/><path d="M52.35608512126649,-95.52827110335281L44.90205101395687,-120.71398958511664L46.21386783806347,-93.82435467852994z" style="fill:rgb(83,212,212)"/><path d="M56.09426394366924,-70.92357642510686L52.35608512126649,-95.52827110335281L46.21386783806347,-93.82435467852994z" style="fill:rgb(127,37,217)"/><path d="M-18.504491440477313,-69.51498533299342L60.49793614226227,160.78925645715654L47.98246674101458,-87.85422065750534z" style="fill:rgb(83,212,212)"/><path d="M60.49793614226227,160.78925645715654L49.872354862410525,-83.48107788576463L47.98246674101458,-87.85422065750534z" style="fill:rgb(247,158,158)"/><path d="M60.49793614226227,160.78925645715654L-18.504491440477313,-69.51498533299342L-23.232694417785865,178.7452885071483z" style="fill:rgb(83,212,212)"/><path d="M49.872354862410525,-83.48107788576463L60.49793614226227,160.78925645715654L62.81732762791498,165.08482722332195zM-21.750654189485935,100.9288896411289L-20.56027833398361,182.8678851990196L-19.25458356930403,105.13789914280754z" style="fill:rgb(247,158,158)"/><path d="M-28.055080629657475,179.18116113712532L-23.97105050049637,101.29370309683539L-26.2662611118185,101.37376564084545z" style="fill:rgb(120,217,217)"/><path d="M-30.494962506264336,178.97774493634816L-26.2662611118185,101.37376564084545L-28.550144513406032,101.1661592729159z" style="fill:rgb(145,216,216)"/><path d="M-25.603706915494428,179.1027031598178L-21.750654189485935,100.9288896411289L-23.97105050049637,101.29370309683539z" style="fill:rgb(95,214,214)"/><path d="M-30.736935469579894,100.67847483694638L-30.494962506264336,178.97774493634816L-28.550144513406032,101.1661592729159z" style="fill:rgb(169,212,212)"/><path d="M-34.97790185898474,177.76518103858857L-30.736935469579894,100.67847483694638L-32.74424854094261,99.92862783526688z" style="fill:rgb(192,205,205)"/><path d="M-34.49599623482931,98.94425754826385L-34.97790185898474,177.76518103858857L-32.74424854094261,99.92862783526688z" style="fill:rgb(212,194,194)"/><path d="M-38.38180067867214,175.64163520362914L-34.49599623482931,98.94425754826385L-35.925137812132355,97.76188138185103z" style="fill:rgb(229,181,181)"/><path d="M-46.53422981405298,175.85217888786585L-36.97623482074846,96.42561141642241L-43.55644087157068,97.97667664454885z" style="fill:rgb(83,212,212)"/><path d="M-36.97623482074846,96.42561141642241L-38.38180067867214,175.64163520362914L-35.925137812132355,97.76188138185103z" style="fill:rgb(242,166,166)"/><path d="M-20.56027833398361,182.8678851990196L-21.750654189485935,100.9288896411289L-23.232694417785865,178.7452885071483z" style="fill:rgb(247,158,158)"/><path d="M-23.97105050049637,101.29370309683539L-28.055080629657475,179.18116113712532L-25.603706915494428,179.1027031598178z" style="fill:rgb(120,217,217)"/><path d="M-26.2662611118185,101.37376564084545L-30.494962506264336,178.97774493634816L-28.055080629657475,179.18116113712532z" style="fill:rgb(145,216,216)"/><path d="M-21.750654189485935,100.9288896411289L-25.603706915494428,179.1027031598178L-23.232694417785865,178.7452885071483z" style="fill:rgb(95,214,214)"/><path d="M-30.494962506264336,178.97774493634816L-30.736935469579894,100.67847483694638L-32.831876161132584,178.49993523865788z" style="fill:rgb(169,212,212)"/><path d="M-30.736935469579894,100.67847483694638L-34.97790185898474,177.76518103858857L-32.831876161132584,178.49993523865788z" style="fill:rgb(192,205,205)"/><path d="M-34.97790185898474,177.76518103858857L-34.49599623482931,98.94425754826385L-36.85177351635393,176.80052573086454z" style="fill:rgb(212,194,194)"/><path d="M-34.49599623482931,98.94425754826385L-38.38180067867214,175.64163520362914L-36.85177351635393,176.80052573086454z" style="fill:rgb(229,181,181)"/><path d="M-36.97623482074846,96.42561141642241L-46.53422981405298,175.85217888786585L-39.50860024372967,174.3316798169564z" style="fill:rgb(83,212,212)"/><path d="M-38.38180067867214,175.64163520362914L-36.97623482074846,96.42561141642241L-39.50860024372967,174.3316798169564z" style="fill:rgb(242,166,166)"/><path d="M-28.055080629657475,179.18116113712532L-28.239079331918575,183.55843138378674L-24.33660632804065,183.4341808499036zM-30.494962506264336,178.97774493634816L-32.123684511245926,183.23623709860175L-28.239079331918575,183.55843138378674zM-23.232694417785865,178.7452885071483L-24.33660632804065,183.4341808499036L-20.56027833398361,182.8678851990196zM-34.97790185898474,177.76518103858857L-35.846944573102725,182.4790081335599L-32.123684511245926,183.23623709860175zM-28.055080629657475,179.18116113712532L-24.33660632804065,183.4341808499036L-25.603706915494428,179.1027031598178zM-30.494962506264336,178.97774493634816L-28.239079331918575,183.55843138378674L-28.055080629657475,179.18116113712532zM-25.603706915494428,179.1027031598178L-24.33660632804065,183.4341808499036L-23.232694417785865,178.7452885071483zM-32.831876161132584,178.49993523865788L-32.123684511245926,183.23623709860175L-30.494962506264336,178.97774493634816zM-34.97790185898474,177.76518103858857L-32.123684511245926,183.23623709860175L-32.831876161132584,178.49993523865788zM-39.50860024372967,174.3316798169564L-39.27057291932405,181.3136440750692L-35.846944573102725,182.4790081335599zM-36.85177351635393,176.80052573086454L-35.846944573102725,182.4790081335599L-34.97790185898474,177.76518103858857zM-39.50860024372967,174.3316798169564L-42.26607193866851,179.78182359732776L-39.27057291932405,181.3136440750692zM-38.38180067867214,175.64163520362914L-35.846944573102725,182.4790081335599L-36.85177351635393,176.80052573086454zM-39.50860024372967,174.3316798169564L-35.846944573102725,182.4790081335599L-38.38180067867214,175.64163520362914zM-39.50860024372967,174.3316798169564L-44.71920283129694,177.93887635864283L-42.26607193866851,179.78182359732776zM-44.71920283129694,177.93887635864283L-39.50860024372967,174.3316798169564L-46.53422981405298,175.85217888786585z" style="fill:rgb(127,37,217)"/><path d="M-79.08903080025203,114.69600773173912L-36.97623482074846,96.42561141642241L-73.6948646843017,35.86527670362706z" style="fill:rgb(247,158,158)"/><path d="M-20.56027833398361,182.8678851990196L60.49793614226227,160.78925645715654L-23.232694417785865,178.7452885071483z" style="fill:rgb(127,37,217)"/><path d="M-36.97623482074846,96.42561141642241L-79.08903080025203,114.69600773173912L-39.50860024372967,174.3316798169564z" style="fill:rgb(247,158,158)"/><path d="M60.49793614226227,160.78925645715654L-20.56027833398361,182.8678851990196L62.81732762791498,165.08482722332195z" style="fill:rgb(127,37,217)"/><path d="M-86.52273475898343,116.43261293823929L-73.6948646843017,35.86527670362706L-80.63186653493239,37.621298493716964z" style="fill:rgb(83,212,212)"/><path d="M-79.08903080025203,114.69600773173912L-46.53422981405298,175.85217888786585L-39.50860024372967,174.3316798169564z" style="fill:rgb(127,37,217)"/><path d="M-73.6948646843017,35.86527670362706L-86.52273475898343,116.43261293823929L-79.08903080025203,114.69600773173912z" style="fill:rgb(83,212,212)"/><path d="M-46.53422981405298,175.85217888786585L-79.08903080025203,114.69600773173912L-86.52273475898343,116.43261293823929z" style="fill:rgb(127,37,217)"/></svg>
