<?xml version="1.0" encoding="UTF-8"?>
<!-- Generated by jsxcad -->
<!DOCTYPE svg PUBLIC "-//W3C//DTD SVG 1.1 Tiny//EN" "http://www.w3.org/Graphics/SVG/1.1/DTD/svg11-tiny.dtd">
<svg viewBox="-250 -250 500 500" width="500" height="500" xmlns="http://www.w3.org/2000/svg"><path d="M-14.839383315675637,-70.95299612938555L-13.302258629329001,-43.36763842581194L-12.984424948544596,-67.20706788318356z" style="fill:rgb(247,158,158)"/><path d="M-21.630886923691616,-70.16218857486666L-18.626931166258135,-46.47286096205707L-18.180630624236063,-70.30448502934613z" style="fill:rgb(120,217,217)"/><path d="M-25.677576958576203,-46.70014585244896L-21.630886923691616,-70.16218857486666L-25.062217776663825,-70.53118220029388z" style="fill:rgb(145,216,216)"/><path d="M-18.180630624236063,-70.30448502934613L-15.203880166728906,-47.12305610113909L-14.839383315675637,-70.95299612938555z" style="fill:rgb(95,214,214)"/><path d="M-28.347292074669056,-71.3982808703415L-25.677576958576203,-46.70014585244896L-25.062217776663825,-70.53118220029388z" style="fill:rgb(169,212,212)"/><path d="M-32.1352337863179,-48.90717439864098L-28.347292074669056,-71.3982808703415L-31.36359349598461,-72.7323924935519z" style="fill:rgb(192,205,205)"/><path d="M-33.997578586767474,-74.48536500384179L-32.1352337863179,-48.90717439864098L-31.36359349598461,-72.7323924935519z" style="fill:rgb(212,194,194)"/><path d="M-36.148678918558204,-76.59342755450093L-34.83537129247726,-50.664942672050195L-33.997578586767474,-74.48536500384179z" style="fill:rgb(229,181,181)"/><path d="M-38.66674357467429,-55.1715401022428L-36.148678918558204,-76.59342755450093L-37.73306171752517,-78.97905245525158z" style="fill:rgb(242,166,166)"/><path d="M-42.69201178567685,-77.59294975384338L-38.66674357467429,-55.1715401022428L-37.73306171752517,-78.97905245525158z" style="fill:rgb(83,212,212)"/><path d="M-13.302258629329001,-43.36763842581194L-14.839383315675637,-70.95299612938555L-15.203880166728906,-47.12305610113909z" style="fill:rgb(247,158,158)"/><path d="M-18.626931166258135,-46.47286096205707L-21.630886923691616,-70.16218857486666L-22.161815186796556,-46.33019346288019z" style="fill:rgb(120,217,217)"/><path d="M-21.630886923691616,-70.16218857486666L-25.677576958576203,-46.70014585244896L-22.161815186796556,-46.33019346288019z" style="fill:rgb(145,216,216)"/><path d="M-15.203880166728906,-47.12305610113909L-18.180630624236063,-70.30448502934613L-18.626931166258135,-46.47286096205707z" style="fill:rgb(95,214,214)"/><path d="M-25.677576958576203,-46.70014585244896L-28.347292074669056,-71.3982808703415L-29.04386657930748,-47.56951349772699z" style="fill:rgb(169,212,212)"/><path d="M-28.347292074669056,-71.3982808703415L-32.1352337863179,-48.90717439864098L-29.04386657930748,-47.56951349772699z" style="fill:rgb(192,205,205)"/><path d="M-32.1352337863179,-48.90717439864098L-33.997578586767474,-74.48536500384179L-34.83537129247726,-50.664942672050195z" style="fill:rgb(212,194,194)"/><path d="M-34.83537129247726,-50.664942672050195L-36.148678918558204,-76.59342755450093L-37.04120477336496,-52.77894850549146z" style="fill:rgb(229,181,181)"/><path d="M-22.161815186796556,-46.33019346288019L-22.316223790596737,-42.34423783844467L-17.73756188317221,-42.52835338848061zM-25.677576958576203,-46.70014585244896L-26.870495835501682,-42.821703874182454L-22.316223790596737,-42.34423783844467zM-15.203880166728906,-47.12305610113909L-17.73756188317221,-42.52835338848061L-13.302258629329001,-43.36763842581194zM-29.04386657930748,-47.56951349772699L-31.233337974877337,-43.94410543392703L-26.870495835501682,-42.821703874182454z" style="fill:rgb(127,37,217)"/><path d="M-36.148678918558204,-76.59342755450093L-38.66674357467429,-55.1715401022428L-37.04120477336496,-52.77894850549146z" style="fill:rgb(242,166,166)"/><path d="M-22.161815186796556,-46.33019346288019L-17.73756188317221,-42.52835338848061L-18.626931166258135,-46.47286096205707zM-25.677576958576203,-46.70014585244896L-22.316223790596737,-42.34423783844467L-22.161815186796556,-46.33019346288019zM-18.626931166258135,-46.47286096205707L-17.73756188317221,-42.52835338848061L-15.203880166728906,-47.12305610113909z" style="fill:rgb(127,37,217)"/><path d="M-38.66674357467429,-55.1715401022428L-42.69201178567685,-77.59294975384338L-43.74706079787275,-53.7813574518445z" style="fill:rgb(83,212,212)"/><path d="M-29.04386657930748,-47.56951349772699L-26.870495835501682,-42.821703874182454L-25.677576958576203,-46.70014585244896zM-34.83537129247726,-50.664942672050195L-35.24367561445766,-45.67213380455366L-31.233337974877337,-43.94410543392703zM-32.1352337863179,-48.90717439864098L-31.233337974877337,-43.94410543392703L-29.04386657930748,-47.56951349772699zM-34.83537129247726,-50.664942672050195L-31.233337974877337,-43.94410543392703L-32.1352337863179,-48.90717439864098zM-38.66674357467429,-55.1715401022428L-38.751612564011346,-47.94478322193486L-35.24367561445766,-45.67213380455366zM-37.04120477336496,-52.77894850549146L-35.24367561445766,-45.67213380455366L-34.83537129247726,-50.664942672050195zM-38.66674357467429,-55.1715401022428L-35.24367561445766,-45.67213380455366L-37.04120477336496,-52.77894850549146zM-38.66674357467429,-55.1715401022428L-41.62353737431808,-50.6808864192384L-38.751612564011346,-47.94478322193486zM-41.62353737431808,-50.6808864192384L-38.66674357467429,-55.1715401022428L-43.74706079787275,-53.7813574518445z" style="fill:rgb(127,37,217)"/><path d="M-52.34560787972254,-81.27397223218352L-37.73306171752517,-78.97905245525158L-51.052283381965026,-104.98920187563252zM-37.73306171752517,-78.97905245525158L-52.34560787972254,-81.27397223218352L-38.66674357467429,-55.1715401022428z" style="fill:rgb(247,158,158)"/><path d="M-57.52893585020377,-79.81687479722346L-51.052283381965026,-104.98920187563252L-56.10934379383825,-103.5380435125032z" style="fill:rgb(83,212,212)"/><path d="M-52.34560787972254,-81.27397223218352L-43.74706079787275,-53.7813574518445L-38.66674357467429,-55.1715401022428z" style="fill:rgb(127,37,217)"/><path d="M44.935057789887935,-63.36367160188026L48.83959993389369,-52.192689022665924L48.23018920357449,-64.53228442425137z" style="fill:rgb(72,208,208)"/><path d="M48.83959993389369,-52.192689022665924L51.186607817444624,-66.15785170430703L48.23018920357449,-64.53228442425137z" style="fill:rgb(50,199,199)"/><path d="M-51.052283381965026,-104.98920187563252L-57.52893585020377,-79.81687479722346L-52.34560787972254,-81.27397223218352z" style="fill:rgb(83,212,212)"/><path d="M-43.74706079787275,-53.7813574518445L-52.34560787972254,-81.27397223218352L-57.52893585020377,-79.81687479722346z" style="fill:rgb(127,37,217)"/><path d="M51.186607817444624,-66.15785170430703L54.37302790281026,-55.84704122342968L53.69233369371282,-68.1816007629508z" style="fill:rgb(32,187,187)"/><path d="M48.83959993389369,-52.192689022665924L44.935057789887935,-63.36367160188026L45.50222555768666,-51.02253152904605z" style="fill:rgb(72,208,208)"/><path d="M54.37302790281026,-55.84704122342968L55.650743702936886,-70.52963406024259L53.69233369371282,-68.1816007629508z" style="fill:rgb(17,173,173)"/><path d="M51.186607817444624,-66.15785170430703L48.83959993389369,-52.192689022665924L51.83433683427354,-53.82046186506984z" style="fill:rgb(50,199,199)"/><path d="M48.83959993389369,-52.192689022665924L47.241191596852595,-47.14952876889632L51.56817722198579,-48.66044738368098z" style="fill:rgb(127,37,217)"/><path d="M54.37302790281026,-55.84704122342968L51.186607817444624,-66.15785170430703L51.83433683427354,-53.82046186506984z" style="fill:rgb(32,187,187)"/><path d="M47.241191596852595,-47.14952876889632L48.83959993389369,-52.192689022665924L45.50222555768666,-51.02253152904605z" style="fill:rgb(127,37,217)"/><path d="M55.650743702936886,-70.52963406024259L57.71000376133608,-60.78790475940134L56.98432210111446,-73.1151717865209z" style="fill:rgb(7,157,157)"/><path d="M51.83433683427354,-53.82046186506984L51.56817722198579,-48.66044738368098L55.45574033845125,-50.763831090952934zM48.83959993389369,-52.192689022665924L51.56817722198579,-48.66044738368098L51.83433683427354,-53.82046186506984z" style="fill:rgb(127,37,217)"/><path d="M55.650743702936886,-70.52963406024259L54.37302790281026,-55.84704122342968L56.357777779555335,-58.198475784136434z" style="fill:rgb(17,173,173)"/><path d="M56.98432210111446,-73.1151717865209L58.37378616724784,-63.518372103131036L57.637962410799496,-75.84137048911646z" style="fill:rgb(1,140,140)"/><path d="M51.83433683427354,-53.82046186506984L55.45574033845125,-50.763831090952934L54.37302790281026,-55.84704122342968zM56.357777779555335,-58.198475784136434L55.45574033845125,-50.763831090952934L58.75732496450211,-53.38514013395268z" style="fill:rgb(127,37,217)"/><path d="M57.71000376133608,-60.78790475940134L55.650743702936886,-70.52963406024259L56.357777779555335,-58.198475784136434z" style="fill:rgb(7,157,157)"/><path d="M54.37302790281026,-55.84704122342968L55.45574033845125,-50.763831090952934L56.357777779555335,-58.198475784136434z" style="fill:rgb(127,37,217)"/><path d="M57.637962410799496,-75.84137048911646L58.318592813235234,-66.2861595466356L57.581646805385816,-78.60465763193379z" style="fill:rgb(0,122,122)"/><path d="M58.37378616724784,-63.518372103131036L56.98432210111446,-73.1151717865209L57.71000376133608,-60.78790475940134z" style="fill:rgb(1,140,140)"/><path d="M56.357777779555335,-58.198475784136434L58.75732496450211,-53.38514013395268L57.71000376133608,-60.78790475940134z" style="fill:rgb(127,37,217)"/><path d="M62.151304976507625,-82.75946551716247L63.943805068659614,-66.93345418721827L63.1353096072675,-79.25087462585222z" style="fill:rgb(251,149,149)"/><path d="M57.71000376133608,-60.78790475940134L58.75732496450211,-53.38514013395268L58.37378616724784,-63.518372103131036z" style="fill:rgb(127,37,217)"/><path d="M58.318592813235234,-66.2861595466356L57.637962410799496,-75.84137048911646L58.37378616724784,-63.518372103131036z" style="fill:rgb(0,122,122)"/><path d="M62.94972305136039,-70.44806293027142L58.75732496450211,-53.38514013395268L61.345543446156576,-56.43024034007364z" style="fill:rgb(127,37,217)"/><path d="M56.81234620162371,-81.29851251001149L62.94972305136039,-70.44806293027142L62.151304976507625,-82.75946551716247z" style="fill:rgb(83,212,212)"/><path d="M62.94972305136039,-70.44806293027142L61.345543446156576,-56.43024034007364L63.117092221553484,-59.78803398382297zM62.94972305136039,-70.44806293027142L58.37378616724784,-63.518372103131036L58.75732496450211,-53.38514013395268zM63.943805068659614,-66.93345418721827L63.117092221553484,-59.78803398382297L63.99727350933533,-63.33382785425953z" style="fill:rgb(127,37,217)"/><path d="M63.943805068659614,-66.93345418721827L62.151304976507625,-82.75946551716247L62.94972305136039,-70.44806293027142z" style="fill:rgb(251,149,149)"/><path d="M62.94972305136039,-70.44806293027142L56.81234620162371,-81.29851251001149L57.54121754564494,-68.98456989175324z" style="fill:rgb(83,212,212)"/><path d="M62.94972305136039,-70.44806293027142L63.117092221553484,-59.78803398382297L63.943805068659614,-66.93345418721827zM62.94972305136039,-70.44806293027142L58.318592813235234,-66.2861595466356L58.37378616724784,-63.518372103131036z" style="fill:rgb(127,37,217)"/><path d="M53.526463221862464,-103.22103942399659L62.94972305136039,-70.44806293027142L62.151304976507625,-82.75946551716247z" style="fill:rgb(247,158,158)"/><path d="M58.318592813235234,-66.2861595466356L62.94972305136039,-70.44806293027142L57.54121754564494,-68.98456989175324zM54.226761547679764,-90.95034713071448L57.54121754564494,-68.98456989175324L62.94972305136039,-70.44806293027142z" style="fill:rgb(127,37,217)"/><path d="M62.94972305136039,-70.44806293027142L53.526463221862464,-103.22103942399659L54.226761547679764,-90.95034713071448z" style="fill:rgb(247,158,158)"/><path d="M48.10187776220088,-101.7064610835419L54.226761547679764,-90.95034713071448L53.526463221862464,-103.22103942399659z" style="fill:rgb(83,212,212)"/><path d="M57.54121754564494,-68.98456989175324L54.226761547679764,-90.95034713071448L48.730361371755656,-89.43242645662873z" style="fill:rgb(127,37,217)"/><path d="M54.226761547679764,-90.95034713071448L48.10187776220088,-101.7064610835419L48.730361371755656,-89.43242645662873zM-15.203880166728906,-47.12305610113909L55.2685826712247,161.4860412905833L44.935057789887935,-63.36367160188026z" style="fill:rgb(83,212,212)"/><path d="M44.935057789887935,-63.36367160188026L57.33716569075455,165.27244150064396L46.65440974937714,-59.495570593850665z" style="fill:rgb(247,158,158)"/><path d="M55.2685826712247,161.4860412905833L-15.203880166728906,-47.12305610113909L-18.63725421367531,177.34279976797686z" style="fill:rgb(83,212,212)"/><path d="M57.33716569075455,165.27244150064396L44.935057789887935,-63.36367160188026L55.2685826712247,161.4860412905833zM-17.578679162991637,108.13567246277286L-16.29351182947405,180.99426518995304L-15.371747800696106,111.85643495459658z" style="fill:rgb(247,158,158)"/><path d="M-27.161978402449922,178.1141874365262L-21.534391157540863,108.78015873557082L-25.62050761191886,108.92155265744772z" style="fill:rgb(120,217,217)"/><path d="M-29.686533487729605,108.55488436987181L-27.161978402449922,178.1141874365262L-25.62050761191886,108.92155265744772z" style="fill:rgb(145,216,216)"/><path d="M-22.830226894124092,177.97539805896773L-17.578679162991637,108.13567246277286L-21.534391157540863,108.78015873557082z" style="fill:rgb(95,214,214)"/><path d="M-35.60591433607775,176.90831836096942L-29.686533487729605,108.55488436987181L-33.58257958983545,107.69307221453379z" style="fill:rgb(169,212,212)"/><path d="M-39.40666755858334,175.60607338177678L-33.58257958983545,107.69307221453379L-37.16417092609765,106.36660884701053z" style="fill:rgb(192,205,205)"/><path d="M-40.297026564445936,104.62279455168571L-39.40666755858334,175.60607338177678L-37.16417092609765,106.36660884701053z" style="fill:rgb(212,194,194)"/><path d="M-45.45926547183843,171.83272975282642L-40.297026564445936,104.62279455168571L-42.86170805945675,102.52439964382832z" style="fill:rgb(229,181,181)"/><path d="M-47.477818473269174,169.49793027835352L-42.86170805945675,102.52439964382832L-44.75805460789116,100.1479428802036z" style="fill:rgb(242,166,166)"/><path d="M-50.628582287056226,101.5289477792212L-47.477818473269174,169.49793027835352L-44.75805460789116,100.1479428802036z" style="fill:rgb(83,212,212)"/><path d="M-16.29351182947405,180.99426518995304L-17.578679162991637,108.13567246277286L-18.63725421367531,177.34279976797686z" style="fill:rgb(247,158,158)"/><path d="M-21.534391157540863,108.78015873557082L-27.161978402449922,178.1141874365262L-22.830226894124092,177.97539805896773z" style="fill:rgb(120,217,217)"/><path d="M-27.161978402449922,178.1141874365262L-29.686533487729605,108.55488436987181L-31.473383278196856,177.75428211624998z" style="fill:rgb(145,216,216)"/><path d="M-17.578679162991637,108.13567246277286L-22.830226894124092,177.97539805896773L-18.63725421367531,177.34279976797686z" style="fill:rgb(95,214,214)"/><path d="M-29.686533487729605,108.55488436987181L-35.60591433607775,176.90831836096942L-31.473383278196856,177.75428211624998z" style="fill:rgb(169,212,212)"/><path d="M-33.58257958983545,107.69307221453379L-39.40666755858334,175.60607338177678L-35.60591433607775,176.90831836096942z" style="fill:rgb(192,205,205)"/><path d="M-39.40666755858334,175.60607338177678L-40.297026564445936,104.62279455168571L-42.73336858685053,173.89374570651594z" style="fill:rgb(212,194,194)"/><path d="M-40.297026564445936,104.62279455168571L-45.45926547183843,171.83272975282642L-42.73336858685053,173.89374570651594z" style="fill:rgb(229,181,181)"/><path d="M-42.86170805945675,102.52439964382832L-47.477818473269174,169.49793027835352L-45.45926547183843,171.83272975282642z" style="fill:rgb(242,166,166)"/><path d="M-77.79523367087923,46.60122640936898L-47.477818473269174,169.49793027835352L-44.75805460789116,100.1479428802036z" style="fill:rgb(247,158,158)"/><path d="M-47.477818473269174,169.49793027835352L-50.628582287056226,101.5289477792212L-53.700287296964696,170.8548146559785z" style="fill:rgb(83,212,212)"/><path d="M-27.161978402449922,178.1141874365262L-27.328632767827767,181.9883416471344L-21.722394204425232,181.80953131473512zM-31.473383278196856,177.75428211624998L-32.90908821495373,181.52460875427315L-27.328632767827767,181.9883416471344zM-18.63725421367531,177.34279976797686L-21.722394204425232,181.80953131473512L-16.29351182947405,180.99426518995304zM-35.60591433607775,176.90831836096942L-38.26128944768928,180.43411281180596L-32.90908821495373,181.52460875427315zM-27.161978402449922,178.1141874365262L-21.722394204425232,181.80953131473512L-22.830226894124092,177.97539805896773zM-31.473383278196856,177.75428211624998L-27.328632767827767,181.9883416471344L-27.161978402449922,178.1141874365262zM-22.830226894124092,177.97539805896773L-21.722394204425232,181.80953131473512L-18.63725421367531,177.34279976797686zM-35.60591433607775,176.90831836096942L-32.90908821495373,181.52460875427315L-31.473383278196856,177.75428211624998zM-42.73336858685053,173.89374570651594L-43.189482532035115,178.75423547832028L-38.26128944768928,180.43411281180596zM-39.40666755858334,175.60607338177678L-38.26128944768928,180.43411281180596L-35.60591433607775,176.90831836096942zM-42.73336858685053,173.89374570651594L-38.26128944768928,180.43411281180596L-39.40666755858334,175.60607338177678zM-47.477818473269174,169.49793027835352L-47.51068621708207,176.54306497949682L-43.189482532035115,178.75423547832028zM-45.45926547183843,171.83272975282642L-43.189482532035115,178.75423547832028L-42.73336858685053,173.89374570651594zM-47.477818473269174,169.49793027835352L-43.189482532035115,178.75423547832028L-45.45926547183843,171.83272975282642zM-47.477818473269174,169.49793027835352L-51.06074047083811,173.87821349495084L-47.51068621708207,176.54306497949682zM-16.29351182947405,180.99426518995304L55.2685826712247,161.4860412905833L-18.63725421367531,177.34279976797686zM-51.06074047083811,173.87821349495084L-47.477818473269174,169.49793027835352L-53.700287296964696,170.8548146559785zM55.2685826712247,161.4860412905833L-16.29351182947405,180.99426518995304L57.33716569075455,165.27244150064396z" style="fill:rgb(127,37,217)"/><path d="M-89.34905090996287,118.22531163524997L-77.79523367087923,46.60122640936898L-83.94794619656656,48.14368064258598z" style="fill:rgb(83,212,212)"/><path d="M-47.477818473269174,169.49793027835352L-77.79523367087923,46.60122640936898L-82.80875320655932,116.6992877919457z" style="fill:rgb(247,158,158)"/><path d="M-82.80875320655932,116.6992877919457L-53.700287296964696,170.8548146559785L-47.477818473269174,169.49793027835352z" style="fill:rgb(127,37,217)"/><path d="M-77.79523367087923,46.60122640936898L-89.34905090996287,118.22531163524997L-82.80875320655932,116.6992877919457z" style="fill:rgb(83,212,212)"/><path d="M-53.700287296964696,170.8548146559785L-82.80875320655932,116.6992877919457L-89.34905090996287,118.22531163524997z" style="fill:rgb(127,37,217)"/></svg>
