<?xml version="1.0" encoding="UTF-8"?>
<!-- Generated by jsxcad -->
<!DOCTYPE svg PUBLIC "-//W3C//DTD SVG 1.1 Tiny//EN" "http://www.w3.org/Graphics/SVG/1.1/DTD/svg11-tiny.dtd">
<svg viewBox="-250 -250 500 500" width="500" height="500" xmlns="http://www.w3.org/2000/svg"><path d="M47.98246674101458,-87.85422065750534L51.219992243907804,-61.477312693119735L49.806352478955326,-88.51474730059822z" style="fill:rgb(72,208,208)"/><path d="M51.219992243907804,-61.477312693119735L51.44136882837691,-89.43252393929959L49.806352478955326,-88.51474730059822z" style="fill:rgb(50,199,199)"/><path d="M52.90263427571416,-62.398577671343105L52.825175632818286,-90.57343092594608L51.44136882837691,-89.43252393929959z" style="fill:rgb(32,187,187)"/><path d="M54.3273068958605,-63.543876311083004L53.90448783398387,-91.89481375041744L52.825175632818286,-90.57343092594608z" style="fill:rgb(17,173,173)"/><path d="M53.90448783398387,-91.89481375041744L56.194698214904335,-66.32837723299708L54.63712767551816,-93.34696829858832z" style="fill:rgb(7,157,157)"/><path d="M54.63712767551816,-93.34696829858832L56.563674447555854,-67.86246005428727L54.993766136118325,-94.87484800076436z" style="fill:rgb(1,140,140)"/><path d="M54.993766136118325,-94.87484800076436L56.53032646266417,-69.41411550497045L54.959210247609185,-96.42010998017128z" style="fill:rgb(0,122,122)"/><path d="M60.39552352781161,-99.55205671899888L62.811982128379945,-70.13912286291567L61.0651757532433,-97.14208888178446z" style="fill:rgb(251,149,149)"/><path d="M51.219992243907804,-61.477312693119735L47.98246674101458,-87.85422065750534L49.343521056385626,-60.81430176464794z" style="fill:rgb(72,208,208)"/><path d="M54.53320768986274,-97.92323617490045L62.126935433619636,-72.55939012059112L60.39552352781161,-99.55205671899888z" style="fill:rgb(83,212,212)"/><path d="M51.44136882837691,-89.43252393929959L51.219992243907804,-61.477312693119735L52.90263427571416,-62.398577671343105z" style="fill:rgb(50,199,199)"/><path d="M52.825175632818286,-90.57343092594608L52.90263427571416,-62.398577671343105L54.3273068958605,-63.543876311083004z" style="fill:rgb(32,187,187)"/><path d="M-18.504491440477313,-69.51498533299342L51.920867967863686,-9.610427304852639L47.98246674101458,-87.85422065750534z" style="fill:rgb(83,212,212)"/><path d="M53.90448783398387,-91.89481375041744L54.3273068958605,-63.543876311083004L55.439150337403824,-64.87043614719907z" style="fill:rgb(17,173,173)"/><path d="M56.194698214904335,-66.32837723299708L53.90448783398387,-91.89481375041744L55.439150337403824,-64.87043614719907z" style="fill:rgb(7,157,157)"/><path d="M56.563674447555854,-67.86246005428727L54.63712767551816,-93.34696829858832L56.194698214904335,-66.32837723299708z" style="fill:rgb(1,140,140)"/><path d="M56.53032646266417,-69.41411550497045L54.993766136118325,-94.87484800076436L56.563674447555854,-67.86246005428727z" style="fill:rgb(0,122,122)"/><path d="M51.920867967863686,-9.610427304852639L49.872354862410525,-83.48107788576463L47.98246674101458,-87.85422065750534z" style="fill:rgb(247,158,158)"/><path d="M52.90263427571416,-62.398577671343105L51.28138495404298,-56.425266823923316L54.27471439102555,-57.478032994792926zM51.28138495404298,-56.425266823923316L51.219992243907804,-61.477312693119735L49.343521056385626,-60.81430176464794zM51.219992243907804,-61.477312693119735L51.28138495404298,-56.425266823923316L52.90263427571416,-62.398577671343105zM55.439150337403824,-64.87043614719907L54.27471439102555,-57.478032994792926L56.962583353397385,-58.94211334396949zM52.90263427571416,-62.398577671343105L54.27471439102555,-57.478032994792926L54.3273068958605,-63.543876311083004z" style="fill:rgb(127,37,217)"/><path d="M62.126935433619636,-72.55939012059112L54.53320768986274,-97.92323617490045L56.09426394366924,-70.92357642510686z" style="fill:rgb(83,212,212)"/><path d="M62.811982128379945,-70.13912286291567L60.39552352781161,-99.55205671899888L62.126935433619636,-72.55939012059112z" style="fill:rgb(251,149,149)"/><path d="M54.3273068958605,-63.543876311083004L54.27471439102555,-57.478032994792926L55.439150337403824,-64.87043614719907zM55.439150337403824,-64.87043614719907L56.962583353397385,-58.94211334396949L56.194698214904335,-66.32837723299708zM62.126935433619636,-72.55939012059112L56.962583353397385,-58.94211334396949L59.2430472957034,-60.76426006652666zM56.194698214904335,-66.32837723299708L56.962583353397385,-58.94211334396949L56.563674447555854,-67.86246005428727zM62.126935433619636,-72.55939012059112L59.2430472957034,-60.76426006652666L61.028214895378674,-62.87760468175414zM62.126935433619636,-72.55939012059112L56.563674447555854,-67.86246005428727L56.962583353397385,-58.94211334396949z" style="fill:rgb(127,37,217)"/><path d="M52.35608512126649,-95.52827110335281L60.39552352781161,-99.55205671899888L50.86774964962932,-122.40867659191763z" style="fill:rgb(247,158,158)"/><path d="M62.126935433619636,-72.55939012059112L61.028214895378674,-62.87760468175414L62.247636772605865,-65.20374164500512zM62.811982128379945,-70.13912286291567L62.247636772605865,-65.20374164500512L62.85129694586004,-67.6553297646021zM62.126935433619636,-72.55939012059112L62.247636772605865,-65.20374164500512L62.811982128379945,-70.13912286291567z" style="fill:rgb(127,37,217)"/><path d="M60.39552352781161,-99.55205671899888L52.35608512126649,-95.52827110335281L62.126935433619636,-72.55939012059112z" style="fill:rgb(247,158,158)"/><path d="M62.126935433619636,-72.55939012059112L56.53032646266417,-69.41411550497045L56.563674447555854,-67.86246005428727zM56.53032646266417,-69.41411550497045L62.126935433619636,-72.55939012059112L56.09426394366924,-70.92357642510686z" style="fill:rgb(127,37,217)"/><path d="M44.90205101395687,-120.71398958511664L52.35608512126649,-95.52827110335281L50.86774964962932,-122.40867659191763zM51.920867967863686,-9.610427304852639L-18.504491440477313,-69.51498533299342L-19.996687994966166,8.83467783024257z" style="fill:rgb(83,212,212)"/><path d="M52.35608512126649,-95.52827110335281L56.09426394366924,-70.92357642510686L62.126935433619636,-72.55939012059112z" style="fill:rgb(127,37,217)"/><path d="M52.35608512126649,-95.52827110335281L44.90205101395687,-120.71398958511664L46.21386783806347,-93.82435467852994z" style="fill:rgb(83,212,212)"/><path d="M49.872354862410525,-83.48107788576463L51.920867967863686,-9.610427304852639L53.948732265630476,-5.207575935530828z" style="fill:rgb(247,158,158)"/><path d="M56.09426394366924,-70.92357642510686L52.35608512126649,-95.52827110335281L46.21386783806347,-93.82435467852994zM15.643800151722989,-0.30624175417515875L11.104943356701567,4.744211690151488L14.500961451865612,4.613746304467194zM15.643800151722989,-0.30624175417515875L7.74234183084283,4.405901940672364L11.104943356701567,4.744211690151488zM15.643800151722989,-0.30624175417515875L14.500961451865612,4.613746304467194L17.804402188171185,4.019171706585788zM15.643800151722989,-0.30624175417515875L4.538031390955667,3.610923948347751L7.74234183084283,4.405901940672364zM4.538031390955667,3.610923948347751L15.643800151722989,-0.30624175417515875L2.9532693014594216,2.9485708851879364z" style="fill:rgb(127,37,217)"/><path d="M-19.996687994966166,8.83467783024257L0.2853674890341468,35.36000941336731L0.2769573743056713,3.6349798556227504z" style="fill:rgb(83,212,212)"/><path d="M11.441785808693691,36.46795380929759L14.500961451865612,4.613746304467194L11.104943356701567,4.744211690151488z" style="fill:rgb(120,217,217)"/><path d="M7.97726659696842,36.13004243337083L11.104943356701567,4.744211690151488L7.74234183084283,4.405901940672364z" style="fill:rgb(145,216,216)"/><path d="M14.940871188872155,36.33764312457982L17.804402188171185,4.019171706585788L14.500961451865612,4.613746304467194z" style="fill:rgb(95,214,214)"/><path d="M4.538031390955667,3.610923948347751L7.97726659696842,36.13004243337083L7.74234183084283,4.405901940672364z" style="fill:rgb(169,212,212)"/><path d="M0.2853674890341468,35.36000941336731L1.714131489743372,3.2663795910135383L0.2769573743056713,3.6349798556227504z" style="fill:rgb(83,212,212)"/><path d="M2.9532693014594216,2.9485708851879364L4.675836968436999,35.33598140228126L4.538031390955667,3.610923948347751z" style="fill:rgb(192,205,205)"/><path d="M1.714131489743372,3.2663795910135383L2.7086257710709964,34.75750033142208L2.6287530000588744,3.031801374765224zM2.7086257710709964,34.75750033142208L2.9532693014594216,2.9485708851879364L2.6287530000588744,3.031801374765224z" style="fill:rgb(83,212,212)"/><path d="M16.12070015507735,31.422783134731077L17.804402188171185,4.019171706585788L15.643800151722989,-0.30624175417515875z" style="fill:rgb(247,158,158)"/><path d="M11.787595588423253,31.87942027956866L13.57087673031534,0.06855219022529603L11.439035132518725,0.15081331155245248z" style="fill:rgb(120,217,217)"/><path d="M9.612730583838127,31.666321626395558L11.439035132518725,0.15081331155245248L9.328422935144209,-0.06248203681704426z" style="fill:rgb(145,216,216)"/><path d="M13.984430436808736,31.79723627361214L15.643800151722989,-0.30624175417515875L13.57087673031534,0.06855219022529603z" style="fill:rgb(95,214,214)"/><path d="M7.318437450499357,-0.5634908388339378L9.612730583838127,31.666321626395558L9.328422935144209,-0.06248203681704426z" style="fill:rgb(169,212,212)"/><path d="M5.484929010196439,-1.3337521321275194L7.541596186841664,31.165762782905034L7.318437450499357,-0.5634908388339378z" style="fill:rgb(192,205,205)"/><path d="M4.016553594804011,29.38595446096197L5.484929010196439,-1.3337521321275194L3.897499054692746,-2.3447792769453892z" style="fill:rgb(212,194,194)"/><path d="M0.2853674890341468,35.36000941336731L-19.996687994966166,8.83467783024257L-20.600775442998557,40.553047468791775z" style="fill:rgb(83,212,212)"/><path d="M2.6969875357666617,28.172648628378887L3.897499054692746,-2.3447792769453892L2.616953226711605,-3.558987207875351z" style="fill:rgb(229,181,181)"/><path d="M16.12070015507735,31.422783134731077L51.920867967863686,-9.610427304852639L15.643800151722989,-0.30624175417515875zM-4.604191141638296,28.393055502200422L1.69299932690109,-4.93094849436129L-4.467588567851092,-3.3384243083710534z" style="fill:rgb(83,212,212)"/><path d="M1.69299932690109,-4.93094849436129L2.6969875357666617,28.172648628378887L2.616953226711605,-3.558987207875351z" style="fill:rgb(242,166,166)"/><path d="M14.500961451865612,4.613746304467194L11.441785808693691,36.46795380929759L14.940871188872155,36.33764312457982z" style="fill:rgb(120,217,217)"/><path d="M11.104943356701567,4.744211690151488L7.97726659696842,36.13004243337083L11.441785808693691,36.46795380929759z" style="fill:rgb(145,216,216)"/><path d="M17.804402188171185,4.019171706585788L14.940871188872155,36.33764312457982L18.34484616649923,35.74376433897592z" style="fill:rgb(95,214,214)"/><path d="M7.97726659696842,36.13004243337083L4.538031390955667,3.610923948347751L4.675836968436999,35.33598140228126z" style="fill:rgb(169,212,212)"/><path d="M1.714131489743372,3.2663795910135383L0.2853674890341468,35.36000941336731L1.7662020214753968,34.9918207000874zM2.7086257710709964,34.75750033142208L1.714131489743372,3.2663795910135383L1.7662020214753968,34.9918207000874z" style="fill:rgb(83,212,212)"/><path d="M4.675836968436999,35.33598140228126L2.9532693014594216,2.9485708851879364L3.0430096772461175,34.67436090571828z" style="fill:rgb(192,205,205)"/><path d="M2.9532693014594216,2.9485708851879364L2.7086257710709964,34.75750033142208L3.0430096772461175,34.67436090571828z" style="fill:rgb(83,212,212)"/><path d="M17.804402188171185,4.019171706585788L16.12070015507735,31.422783134731077L18.34484616649923,35.74376433897592zM53.518241556464204,22.124423257056936L53.948732265630476,-5.207575935530828L51.920867967863686,-9.610427304852639z" style="fill:rgb(247,158,158)"/><path d="M13.57087673031534,0.06855219022529603L11.787595588423253,31.87942027956866L13.984430436808736,31.79723627361214z" style="fill:rgb(120,217,217)"/><path d="M11.439035132518725,0.15081331155245248L9.612730583838127,31.666321626395558L11.787595588423253,31.87942027956866z" style="fill:rgb(145,216,216)"/><path d="M15.643800151722989,-0.30624175417515875L13.984430436808736,31.79723627361214L16.12070015507735,31.422783134731077z" style="fill:rgb(95,214,214)"/><path d="M9.612730583838127,31.666321626395558L7.318437450499357,-0.5634908388339378L7.541596186841664,31.165762782905034z" style="fill:rgb(169,212,212)"/><path d="M7.541596186841664,31.165762782905034L5.484929010196439,-1.3337521321275194L5.652306575332433,30.396163121946664z" style="fill:rgb(192,205,205)"/><path d="M5.484929010196439,-1.3337521321275194L4.016553594804011,29.38595446096197L5.652306575332433,30.396163121946664z" style="fill:rgb(212,194,194)"/><path d="M3.897499054692746,-2.3447792769453892L2.6969875357666617,28.172648628378887L4.016553594804011,29.38595446096197z" style="fill:rgb(229,181,181)"/><path d="M1.69299932690109,-4.93094849436129L-4.604191141638296,28.393055502200422L1.7448463893772732,26.801605090606497z" style="fill:rgb(83,212,212)"/><path d="M2.6969875357666617,28.172648628378887L1.69299932690109,-4.93094849436129L1.7448463893772732,26.801605090606497z" style="fill:rgb(242,166,166)"/><path d="M51.920867967863686,-9.610427304852639L16.12070015507735,31.422783134731077L53.518241556464204,22.124423257056936z" style="fill:rgb(83,212,212)"/><path d="M53.948732265630476,-5.207575935530828L53.518241556464204,22.124423257056936L55.601329104941286,26.525149091842803z" style="fill:rgb(247,158,158)"/><path d="M11.787595588423253,31.87942027956866L11.441785808693691,36.46795380929759L14.940871188872155,36.33764312457982zM9.612730583838127,31.666321626395558L7.97726659696842,36.13004243337083L11.441785808693691,36.46795380929759zM16.12070015507735,31.422783134731077L14.940871188872155,36.33764312457982L18.34484616649923,35.74376433897592zM5.652306575332433,30.396163121946664L4.675836968436999,35.33598140228126L7.97726659696842,36.13004243337083zM11.787595588423253,31.87942027956866L14.940871188872155,36.33764312457982L13.984430436808736,31.79723627361214zM9.612730583838127,31.666321626395558L11.441785808693691,36.46795380929759L11.787595588423253,31.87942027956866zM13.984430436808736,31.79723627361214L14.940871188872155,36.33764312457982L16.12070015507735,31.422783134731077zM7.541596186841664,31.165762782905034L7.97726659696842,36.13004243337083L9.612730583838127,31.666321626395558zM5.652306575332433,30.396163121946664L7.97726659696842,36.13004243337083L7.541596186841664,31.165762782905034zM1.7448463893772732,26.801605090606497L1.6606092254676705,34.11421467225885L4.675836968436999,35.33598140228126zM4.016553594804011,29.38595446096197L4.675836968436999,35.33598140228126L5.652306575332433,30.396163121946664zM1.7448463893772732,26.801605090606497L-0.9548820107741924,32.508792454450926L1.6606092254676705,34.11421467225885zM2.6969875357666617,28.172648628378887L4.675836968436999,35.33598140228126L4.016553594804011,29.38595446096197zM1.7448463893772732,26.801605090606497L4.675836968436999,35.33598140228126L2.6969875357666617,28.172648628378887zM1.7448463893772732,26.801605090606497L-3.0706885812749367,30.578087395958875L-0.9548820107741924,32.508792454450926zM-3.0706885812749367,30.578087395958875L1.7448463893772732,26.801605090606497L-4.604191141638296,28.393055502200422z" style="fill:rgb(127,37,217)"/><path d="M-14.083651358271837,-3.2588988350200427L1.69299932690109,-4.93094849436129L-13.653145745249997,-34.98388296047129zM1.69299932690109,-4.93094849436129L-14.083651358271837,-3.2588988350200427L1.7448463893772732,26.801605090606497z" style="fill:rgb(247,158,158)"/><path d="M-19.966355253971084,-33.298648737901594L-14.083651358271837,-3.2588988350200427L-13.653145745249997,-34.98388296047129z" style="fill:rgb(83,212,212)"/><path d="M-14.083651358271837,-3.2588988350200427L-4.604191141638296,28.393055502200422L1.7448463893772732,26.801605090606497z" style="fill:rgb(127,37,217)"/><path d="M-14.083651358271837,-3.2588988350200427L-19.966355253971084,-33.298648737901594L-20.594909918814217,-1.5718398965049896z" style="fill:rgb(83,212,212)"/><path d="M-4.604191141638296,28.393055502200422L-14.083651358271837,-3.2588988350200427L-20.594909918814217,-1.5718398965049896z" style="fill:rgb(127,37,217)"/><path d="M-20.600775442998557,40.553047468791775L60.49793614226227,160.78925645715654L53.518241556464204,22.124423257056936z" style="fill:rgb(83,212,212)"/><path d="M60.49793614226227,160.78925645715654L55.601329104941286,26.525149091842803L53.518241556464204,22.124423257056936zM-21.750654189485935,100.9288896411289L-20.56027833398361,182.8678851990196L-19.25458356930403,105.13789914280754z" style="fill:rgb(247,158,158)"/><path d="M-28.055080629657475,179.18116113712532L-23.97105050049637,101.29370309683539L-26.2662611118185,101.37376564084545z" style="fill:rgb(120,217,217)"/><path d="M-30.494962506264336,178.97774493634816L-26.2662611118185,101.37376564084545L-28.550144513406032,101.1661592729159z" style="fill:rgb(145,216,216)"/><path d="M-25.603706915494428,179.1027031598178L-21.750654189485935,100.9288896411289L-23.97105050049637,101.29370309683539z" style="fill:rgb(95,214,214)"/><path d="M-30.736935469579894,100.67847483694638L-30.494962506264336,178.97774493634816L-28.550144513406032,101.1661592729159z" style="fill:rgb(169,212,212)"/><path d="M-34.97790185898474,177.76518103858857L-30.736935469579894,100.67847483694638L-32.74424854094261,99.92862783526688z" style="fill:rgb(192,205,205)"/><path d="M-34.49599623482931,98.94425754826385L-34.97790185898474,177.76518103858857L-32.74424854094261,99.92862783526688z" style="fill:rgb(212,194,194)"/><path d="M-38.38180067867214,175.64163520362914L-34.49599623482931,98.94425754826385L-35.925137812132355,97.76188138185103z" style="fill:rgb(229,181,181)"/><path d="M-46.53422981405298,175.85217888786585L-36.97623482074846,96.42561141642241L-43.55644087157068,97.97667664454885z" style="fill:rgb(83,212,212)"/><path d="M-36.97623482074846,96.42561141642241L-38.38180067867214,175.64163520362914L-35.925137812132355,97.76188138185103z" style="fill:rgb(242,166,166)"/><path d="M60.49793614226227,160.78925645715654L-20.600775442998557,40.553047468791775L-23.232694417785865,178.7452885071483z" style="fill:rgb(83,212,212)"/><path d="M-20.56027833398361,182.8678851990196L-21.750654189485935,100.9288896411289L-23.232694417785865,178.7452885071483z" style="fill:rgb(247,158,158)"/><path d="M-23.97105050049637,101.29370309683539L-28.055080629657475,179.18116113712532L-25.603706915494428,179.1027031598178z" style="fill:rgb(120,217,217)"/><path d="M-26.2662611118185,101.37376564084545L-30.494962506264336,178.97774493634816L-28.055080629657475,179.18116113712532z" style="fill:rgb(145,216,216)"/><path d="M55.601329104941286,26.525149091842803L60.49793614226227,160.78925645715654L62.81732762791498,165.08482722332195z" style="fill:rgb(247,158,158)"/><path d="M-21.750654189485935,100.9288896411289L-25.603706915494428,179.1027031598178L-23.232694417785865,178.7452885071483z" style="fill:rgb(95,214,214)"/><path d="M-30.494962506264336,178.97774493634816L-30.736935469579894,100.67847483694638L-32.831876161132584,178.49993523865788z" style="fill:rgb(169,212,212)"/><path d="M-30.736935469579894,100.67847483694638L-34.97790185898474,177.76518103858857L-32.831876161132584,178.49993523865788z" style="fill:rgb(192,205,205)"/><path d="M-34.97790185898474,177.76518103858857L-34.49599623482931,98.94425754826385L-36.85177351635393,176.80052573086454z" style="fill:rgb(212,194,194)"/><path d="M-34.49599623482931,98.94425754826385L-38.38180067867214,175.64163520362914L-36.85177351635393,176.80052573086454z" style="fill:rgb(229,181,181)"/><path d="M-36.97623482074846,96.42561141642241L-46.53422981405298,175.85217888786585L-39.50860024372967,174.3316798169564z" style="fill:rgb(83,212,212)"/><path d="M-38.38180067867214,175.64163520362914L-36.97623482074846,96.42561141642241L-39.50860024372967,174.3316798169564z" style="fill:rgb(242,166,166)"/><path d="M-28.055080629657475,179.18116113712532L-28.239079331918575,183.55843138378674L-24.33660632804065,183.4341808499036zM-30.494962506264336,178.97774493634816L-32.123684511245926,183.23623709860175L-28.239079331918575,183.55843138378674zM-23.232694417785865,178.7452885071483L-24.33660632804065,183.4341808499036L-20.56027833398361,182.8678851990196zM-34.97790185898474,177.76518103858857L-35.846944573102725,182.4790081335599L-32.123684511245926,183.23623709860175zM-28.055080629657475,179.18116113712532L-24.33660632804065,183.4341808499036L-25.603706915494428,179.1027031598178zM-30.494962506264336,178.97774493634816L-28.239079331918575,183.55843138378674L-28.055080629657475,179.18116113712532zM-25.603706915494428,179.1027031598178L-24.33660632804065,183.4341808499036L-23.232694417785865,178.7452885071483zM-32.831876161132584,178.49993523865788L-32.123684511245926,183.23623709860175L-30.494962506264336,178.97774493634816zM-34.97790185898474,177.76518103858857L-32.123684511245926,183.23623709860175L-32.831876161132584,178.49993523865788zM-39.50860024372967,174.3316798169564L-39.27057291932405,181.3136440750692L-35.846944573102725,182.4790081335599zM-36.85177351635393,176.80052573086454L-35.846944573102725,182.4790081335599L-34.97790185898474,177.76518103858857zM-39.50860024372967,174.3316798169564L-42.26607193866851,179.78182359732776L-39.27057291932405,181.3136440750692zM-38.38180067867214,175.64163520362914L-35.846944573102725,182.4790081335599L-36.85177351635393,176.80052573086454zM-39.50860024372967,174.3316798169564L-35.846944573102725,182.4790081335599L-38.38180067867214,175.64163520362914zM-39.50860024372967,174.3316798169564L-44.71920283129694,177.93887635864283L-42.26607193866851,179.78182359732776zM-44.71920283129694,177.93887635864283L-39.50860024372967,174.3316798169564L-46.53422981405298,175.85217888786585z" style="fill:rgb(127,37,217)"/><path d="M-79.08903080025203,114.69600773173912L-36.97623482074846,96.42561141642241L-73.6948646843017,35.86527670362706z" style="fill:rgb(247,158,158)"/><path d="M-20.56027833398361,182.8678851990196L60.49793614226227,160.78925645715654L-23.232694417785865,178.7452885071483z" style="fill:rgb(127,37,217)"/><path d="M-36.97623482074846,96.42561141642241L-79.08903080025203,114.69600773173912L-39.50860024372967,174.3316798169564z" style="fill:rgb(247,158,158)"/><path d="M60.49793614226227,160.78925645715654L-20.56027833398361,182.8678851990196L62.81732762791498,165.08482722332195z" style="fill:rgb(127,37,217)"/><path d="M-86.52273475898343,116.43261293823929L-73.6948646843017,35.86527670362706L-80.63186653493239,37.621298493716964z" style="fill:rgb(83,212,212)"/><path d="M-79.08903080025203,114.69600773173912L-46.53422981405298,175.85217888786585L-39.50860024372967,174.3316798169564z" style="fill:rgb(127,37,217)"/><path d="M-73.6948646843017,35.86527670362706L-86.52273475898343,116.43261293823929L-79.08903080025203,114.69600773173912z" style="fill:rgb(83,212,212)"/><path d="M-46.53422981405298,175.85217888786585L-79.08903080025203,114.69600773173912L-86.52273475898343,116.43261293823929z" style="fill:rgb(127,37,217)"/></svg>
