solid JSxCAD
facet normal 0 0 1
outer loop
vertex 75 42.5 3
vertex -75 42.5 3
vertex -75 -42.5 3
endloop
endfacet
facet normal 0 0 1
outer loop
vertex 75 42.5 3
vertex -75 -42.5 3
vertex 75 -42.5 3
endloop
endfacet
facet normal 0 0 -1
outer loop
vertex 75 -42.5 0
vertex -75 -42.5 0
vertex -75 42.5 0
endloop
endfacet
facet normal 0 0 -1
outer loop
vertex 75 -42.5 0
vertex -75 42.5 0
vertex 75 42.5 0
endloop
endfacet
facet normal 0 -1 0
outer loop
vertex 75 -42.5 0
vertex 75 -42.5 3
vertex -75 -42.5 3
endloop
endfacet
facet normal 0 -1 0
outer loop
vertex 75 -42.5 0
vertex -75 -42.5 3
vertex -75 -42.5 0
endloop
endfacet
facet normal -1 0 0
outer loop
vertex -75 -42.5 0
vertex -75 -42.5 3
vertex -75 42.5 3
endloop
endfacet
facet normal -1 0 0
outer loop
vertex -75 -42.5 0
vertex -75 42.5 3
vertex -75 42.5 0
endloop
endfacet
facet normal 0 1 0
outer loop
vertex -75 42.5 0
vertex -75 42.5 3
vertex 75 42.5 3
endloop
endfacet
facet normal 0 1 0
outer loop
vertex -75 42.5 0
vertex 75 42.5 3
vertex 75 42.5 0
endloop
endfacet
facet normal 1 0 0
outer loop
vertex 75 42.5 0
vertex 75 42.5 3
vertex 75 -42.5 3
endloop
endfacet
facet normal 1 0 0
outer loop
vertex 75 42.5 0
vertex 75 -42.5 3
vertex 75 -42.5 0
endloop
endfacet
endsolid JSxCAD
