<?xml version="1.0" encoding="UTF-8"?>
<!-- Generated by jsxcad -->
<!DOCTYPE svg PUBLIC "-//W3C//DTD SVG 1.1 Tiny//EN" "http://www.w3.org/Graphics/SVG/1.1/DTD/svg11-tiny.dtd">
<svg viewBox="-250 -250 500 500" width="500" height="500" xmlns="http://www.w3.org/2000/svg"><path d="M-27.29236678775445,-71.12491106189013L49.06580480613767,19.102603515430783L43.97709333629597,-90.8548408675647zM49.06580480613767,19.102603515430783L-27.29236678775445,-71.12491106189013L-30.389174843018893,38.93803817959393z" style="fill:rgb(83,212,212)"/><path d="M49.07789460191646,22.018607313983782L-96.79767443620673,55.516502419714996L-97.25006470201455,58.444174142961785z" style="fill:rgb(84,220,202)"/><path d="M55.48627621729705,157.83684548535246L117.81971401009513,-111.29710537764042L43.97709333629597,-90.8548408675647z" style="fill:rgb(83,212,212)"/><path d="M48.816420590422844,24.270426307314096L-97.25006470201455,58.444174142961785L-98.0305610680619,60.746783540248934z" style="fill:rgb(85,234,182)"/><path d="M-99.11333772535086,62.331043377626706L48.816420590422844,24.270426307314096L-98.0305610680619,60.746783540248934z" style="fill:rgb(89,244,159)"/><path d="M51.198993050263056,27.326387928122355L-27.98402455212882,43.19509756947453L-28.29163939678472,47.00086013565524z" style="fill:rgb(84,220,202)"/><path d="M-27.98402455212882,43.19509756947453L49.06580480613767,19.102603515430783L-30.389174843018893,38.93803817959393z" style="fill:rgb(127,37,217)"/><path d="M-100.46070691826579,63.12834917081185L48.28816164870621,25.766064375293244L-99.11333772535086,62.331043377626706z" style="fill:rgb(93,250,135)"/><path d="M-96.79767443620673,55.516502419714996L49.07789460191646,22.018607313983782L49.06580480613767,19.102603515430783z" style="fill:rgb(84,220,202)"/><path d="M50.870150789919805,30.272927965572794L-28.29163939678472,47.00086013565524L-28.992708258925756,49.98368562105701z" style="fill:rgb(85,234,182)"/><path d="M-27.98402455212882,43.19509756947453L51.198993050263056,27.326387928122355L51.17431811599022,23.529401395426326z" style="fill:rgb(84,220,202)"/><path d="M49.06580480613767,19.102603515430783L-27.98402455212882,43.19509756947453L51.17431811599022,23.529401395426326z" style="fill:rgb(127,37,217)"/><path d="M117.81971401009513,-111.29710537764042L151.29516736550255,142.13754233207098L119.47266983570177,-106.74089712618812z" style="fill:rgb(247,158,158)"/><path d="M-97.25006470201455,58.444174142961785L48.816420590422844,24.270426307314096L49.07789460191646,22.018607313983782z" style="fill:rgb(85,234,182)"/><path d="M49.19354434592593,33.157908368804826L-100.89341867452258,69.60625056127708L-98.86668861158765,69.61096213297348z" style="fill:rgb(155,4,143)"/><path d="M-30.066640878289046,52.0205492107629L50.870150789919805,30.272927965572794L-28.992708258925756,49.98368562105701z" style="fill:rgb(89,244,159)"/><path d="M-28.29163939678472,47.00086013565524L50.870150789919805,30.272927965572794L51.198993050263056,27.326387928122355z" style="fill:rgb(85,234,182)"/><path d="M48.816420590422844,24.270426307314096L-99.11333772535086,62.331043377626706L48.28816164870621,25.766064375293244z" style="fill:rgb(89,244,159)"/><path d="M-30.77130514967611,52.51924861225652L50.19494437421733,32.24678962476174L-30.066640878289046,52.0205492107629z" style="fill:rgb(93,250,135)"/><path d="M49.07789460191646,22.018607313983782L51.17431811599022,23.529401395426326L49.06580480613767,19.102603515430783z" style="fill:rgb(247,158,158)"/><path d="M-100.89341867452258,69.60625056127708L46.35789831307624,31.62455998712433L-103.13060472656787,68.51075950664686z" style="fill:rgb(148,8,167)"/><path d="M49.720110558625926,33.24091356512716L-30.77130514967611,52.51924861225652L-30.786457913849556,53.057789552117335zM49.781973933730754,34.577662248349824L-30.786457913849556,53.057789552117335L-30.824009660904775,54.39240764034529z" style="fill:rgb(83,212,212)"/><path d="M51.17431811599022,23.529401395426326L48.816420590422844,24.270426307314096L51.198993050263056,27.326387928122355z" style="fill:rgb(247,158,158)"/><path d="M50.870150789919805,30.272927965572794L-30.066640878289046,52.0205492107629L50.19494437421733,32.24678962476174z" style="fill:rgb(89,244,159)"/><path d="M48.28816164870621,25.766064375293244L-100.46070691826579,63.12834917081185L47.509991402657064,26.439539203556066z" style="fill:rgb(93,250,135)"/><path d="M51.17431811599022,23.529401395426326L49.07789460191646,22.018607313983782L48.816420590422844,24.270426307314096z" style="fill:rgb(247,158,158)"/><path d="M49.87266047834733,36.537228991814736L-30.824009660904775,54.39240764034529L-30.87905404896786,56.34872553941277zM49.99253239866429,39.127434478936294L-30.87905404896786,56.34872553941277L-30.951807156862728,58.93442716968665z" style="fill:rgb(83,212,212)"/><path d="M-103.13060472656787,68.51075950664686L44.626990608604125,29.205223619427787L-105.49257393992941,66.35158866691457z" style="fill:rgb(140,16,189)"/><path d="M50.19494437421733,32.24678962476174L-30.77130514967611,52.51924861225652L49.69514844098134,32.701528287278855z" style="fill:rgb(93,250,135)"/><path d="M51.198993050263056,27.326387928122355L48.816420590422844,24.270426307314096L48.28816164870621,25.766064375293244z" style="fill:rgb(247,158,158)"/><path d="M-30.77130514967611,52.51924861225652L49.720110558625926,33.24091356512716L49.69514844098134,32.701528287278855z" style="fill:rgb(83,212,212)"/><path d="M-100.89341867452258,69.60625056127708L49.19354434592593,33.157908368804826L47.89922439358345,32.95388142841207z" style="fill:rgb(155,4,143)"/><path d="M-30.786457913849556,53.057789552117335L49.781973933730754,34.577662248349824L49.720110558625926,33.24091356512716zM-30.824009660904775,54.39240764034529L49.87266047834733,36.537228991814736L49.781973933730754,34.577662248349824z" style="fill:rgb(83,212,212)"/><path d="M51.198993050263056,27.326387928122355L48.28816164870621,25.766064375293244L47.509991402657064,26.439539203556066z" style="fill:rgb(247,158,158)"/><path d="M42.77355769700349,25.777775642590754L-107.39012002290943,58.12514798108277L-107.88599708531116,63.200929789648015z" style="fill:rgb(83,212,212)"/><path d="M-105.49257393992941,66.35158866691457L42.77355769700349,25.777775642590754L-107.88599708531116,63.200929789648015z" style="fill:rgb(131,29,208)"/><path d="M46.35789831307624,31.62455998712433L-100.89341867452258,69.60625056127708L47.89922439358345,32.95388142841207z" style="fill:rgb(148,8,167)"/><path d="M-30.87905404896786,56.34872553941277L49.99253239866429,39.127434478936294L49.87266047834733,36.537228991814736z" style="fill:rgb(83,212,212)"/><path d="M51.198993050263056,27.326387928122355L44.626990608604125,29.205223619427787L50.870150789919805,30.272927965572794zM50.870150789919805,30.272927965572794L46.35789831307624,31.62455998712433L50.19494437421733,32.24678962476174zM47.509991402657064,26.439539203556066L44.626990608604125,29.205223619427787L51.198993050263056,27.326387928122355zM50.19494437421733,32.24678962476174L47.89922439358345,32.95388142841207L49.19354434592593,33.157908368804826z" style="fill:rgb(247,158,158)"/><path d="M44.626990608604125,29.205223619427787L-103.13060472656787,68.51075950664686L46.35789831307624,31.62455998712433z" style="fill:rgb(140,16,189)"/><path d="M50.19494437421733,32.24678962476174L46.35789831307624,31.62455998712433L47.89922439358345,32.95388142841207z" style="fill:rgb(247,158,158)"/><path d="M-107.39012002290943,58.12514798108277L42.77355769700349,25.777775642590754L42.569472907641675,20.687320278107485z" style="fill:rgb(83,212,212)"/><path d="M42.77355769700349,25.777775642590754L-105.49257393992941,66.35158866691457L44.626990608604125,29.205223619427787z" style="fill:rgb(131,29,208)"/><path d="M50.870150789919805,30.272927965572794L44.626990608604125,29.205223619427787L46.35789831307624,31.62455998712433zM46.508754028889605,26.25463096454743L44.626990608604125,29.205223619427787L47.509991402657064,26.439539203556066zM45.32068959043068,25.207845317858204L42.77355769700349,25.777775642590754L46.508754028889605,26.25463096454743zM46.508754028889605,26.25463096454743L42.77355769700349,25.777775642590754L44.626990608604125,29.205223619427787zM43.99043917945366,23.33016118780368L42.77355769700349,25.777775642590754L45.32068959043068,25.207845317858204zM42.77355769700349,25.777775642590754L43.99043917945366,23.33016118780368L42.569472907641675,20.687320278107485z" style="fill:rgb(247,158,158)"/><path d="M19.507498221915355,-22.131094243185288L-107.88599708531116,63.200929789648015L42.77355769700349,25.777775642590754zM-107.88599708531116,63.200929789648015L19.507498221915355,-22.131094243185288L-137.0882990044548,18.834308097713407z" style="fill:rgb(127,37,217)"/><path d="M-30.951807156862728,58.93442716968665L55.48627621729705,157.83684548535246L49.99253239866429,39.127434478936294z" style="fill:rgb(83,212,212)"/><path d="M42.569472907641675,20.687320278107485L19.507498221915355,-22.131094243185288L42.77355769700349,25.777775642590754z" style="fill:rgb(247,158,158)"/><path d="M19.507498221915355,-22.131094243185288L-136.4297622408944,13.742576239431017L-137.0882990044548,18.834308097713407z" style="fill:rgb(83,212,212)"/><path d="M19.507498221915355,-22.131094243185288L42.569472907641675,20.687320278107485L19.410054324763397,-27.221133328525084z" style="fill:rgb(247,158,158)"/><path d="M117.81971401009513,-111.29710537764042L55.48627621729705,157.83684548535246L149.3597882317277,137.613522370379zM-136.4297622408944,13.742576239431017L19.507498221915355,-22.131094243185288L19.410054324763397,-27.221133328525084z" style="fill:rgb(83,212,212)"/><path d="M151.29516736550255,142.13754233207098L117.81971401009513,-111.29710537764042L149.3597882317277,137.613522370379z" style="fill:rgb(247,158,158)"/><path d="M55.48627621729705,157.83684548535246L-30.951807156862728,58.93442716968665L-34.27870855816017,177.17506941402706z" style="fill:rgb(83,212,212)"/><path d="M-31.548576045984564,181.31266860445598L55.48627621729705,157.83684548535246L-34.27870855816017,177.17506941402706zM55.48627621729705,157.83684548535246L-31.548576045984564,181.31266860445598L57.837929054276415,162.1611830758094zM57.837929054276415,162.1611830758094L149.3597882317277,137.613522370379L55.48627621729705,157.83684548535246zM149.3597882317277,137.613522370379L57.837929054276415,162.1611830758094L151.29516736550255,142.13754233207098z" style="fill:rgb(127,37,217)"/></svg>
