<?xml version="1.0" encoding="UTF-8"?>
<!-- Generated by jsxcad -->
<!DOCTYPE svg PUBLIC "-//W3C//DTD SVG 1.1 Tiny//EN" "http://www.w3.org/Graphics/SVG/1.1/DTD/svg11-tiny.dtd">
<svg viewBox="-250 -250 500 500" width="500" height="500" xmlns="http://www.w3.org/2000/svg"><path d="M9.067107352619711,-79.26937324990043L11.179940586298247,-24.403683776510086L10.612776631038356,-75.9820392927353z" style="fill:rgb(247,158,158)"/><path d="M7.209769214887455,-27.445791536240613L7.971187442538382,-79.05596153462221L6.8430233475940945,-79.00911517777607z" style="fill:rgb(120,217,217)"/><path d="M5.72547086662358,-79.13058133825072L7.209769214887455,-27.445791536240613L6.8430233475940945,-79.00911517777607z" style="fill:rgb(145,216,216)"/><path d="M8.39841513528789,-27.492879893267858L9.067107352619711,-79.26937324990043L7.971187442538382,-79.05596153462221z" style="fill:rgb(95,214,214)"/><path d="M4.910894822688851,-27.854572780093466L5.72547086662358,-79.13058133825072L4.660997177458547,-79.41581127642975z" style="fill:rgb(169,212,212)"/><path d="M3.690120307177647,-79.85406725464598L4.910894822688851,-27.854572780093466L4.660997177458547,-79.41581127642975z" style="fill:rgb(192,205,205)"/><path d="M2.8499091794491664,-80.42885344729686L3.888046231117798,-28.295099369429725L3.690120307177647,-79.85406725464598z" style="fill:rgb(212,194,194)"/><path d="M2.1725979649224256,-81.11846480322433L3.0028514958830033,-28.872888498580565L2.8499091794491664,-80.42885344729686z" style="fill:rgb(229,181,181)"/><path d="M-2.7979558735393106,-29.13782433939699L1.6843552741661667,-81.89675854857012L-2.6554158885534354,-80.69240039232915z" style="fill:rgb(83,212,212)"/><path d="M1.6843552741661667,-81.89675854857012L2.2892674357252236,-29.56613775139111L2.1725979649224256,-81.11846480322433z" style="fill:rgb(242,166,166)"/><path d="M11.179940586298247,-24.403683776510086L9.067107352619711,-79.26937324990043L9.55317005922109,-27.707383852664933z" style="fill:rgb(247,158,158)"/><path d="M7.971187442538382,-79.05596153462221L7.209769214887455,-27.445791536240613L8.39841513528789,-27.492879893267858z" style="fill:rgb(120,217,217)"/><path d="M7.209769214887455,-27.445791536240613L5.72547086662358,-79.13058133825072L6.032357555771417,-27.567881721788726z" style="fill:rgb(145,216,216)"/><path d="M9.067107352619711,-79.26937324990043L8.39841513528789,-27.492879893267858L9.55317005922109,-27.707383852664933z" style="fill:rgb(95,214,214)"/><path d="M5.72547086662358,-79.13058133825072L4.910894822688851,-27.854572780093466L6.032357555771417,-27.567881721788726z" style="fill:rgb(169,212,212)"/><path d="M4.910894822688851,-27.854572780093466L3.690120307177647,-79.85406725464598L3.888046231117798,-28.295099369429725z" style="fill:rgb(192,205,205)"/><path d="M3.888046231117798,-28.295099369429725L2.8499091794491664,-80.42885344729686L3.0028514958830033,-28.872888498580565z" style="fill:rgb(212,194,194)"/><path d="M3.0028514958830033,-28.872888498580565L2.1725979649224256,-81.11846480322433L2.2892674357252236,-29.56613775139111z" style="fill:rgb(229,181,181)"/><path d="M1.6843552741661667,-81.89675854857012L-2.7979558735393106,-29.13782433939699L1.7748719575817355,-30.34859606670535z" style="fill:rgb(83,212,212)"/><path d="M2.2892674357252236,-29.56613775139111L1.6843552741661667,-81.89675854857012L1.7748719575817355,-30.34859606670535z" style="fill:rgb(242,166,166)"/><path d="M-13.304943807912492,-92.60035220822978L27.9636073490125,30.994196502927856L24.462913333606107,-103.22067650394423z" style="fill:rgb(83,212,212)"/><path d="M24.462913333606107,-103.22067650394423L29.665650794906274,34.3793687218348L25.962770008520543,-99.8645605679637zM-17.576652473432386,-69.17184019387948L0.10407736740092799,-85.21903436274371L-16.649506369174663,-120.44069756946763z" style="fill:rgb(247,158,158)"/><path d="M7.209769214887455,-27.445791536240613L6.97495484642087,-23.93581430288053L9.10754897931441,-24.020022321031473zM4.910894822688851,-27.854572780093466L4.862332932391241,-24.154156417203797L6.97495484642087,-23.93581430288053zM9.55317005922109,-27.707383852664933L9.10754897931441,-24.020022321031473L11.179940586298247,-24.403683776510086zM3.0028514958830033,-28.872888498580565L2.8491545715662996,-24.667019276954544L4.862332932391241,-24.154156417203797zM6.032357555771417,-27.567881721788726L6.97495484642087,-23.93581430288053L7.209769214887455,-27.445791536240613zM7.209769214887455,-27.445791536240613L9.10754897931441,-24.020022321031473L8.39841513528789,-27.492879893267858zM8.39841513528789,-27.492879893267858L9.10754897931441,-24.020022321031473L9.55317005922109,-27.707383852664933zM4.910894822688851,-27.854572780093466L6.97495484642087,-23.93581430288053L6.032357555771417,-27.567881721788726zM3.888046231117798,-28.295099369429725L4.862332932391241,-24.154156417203797L4.910894822688851,-27.854572780093466zM1.7748719575817355,-30.34859606670535L1.011388835270157,-25.455505164523377L2.8491545715662996,-24.667019276954544zM3.0028514958830033,-28.872888498580565L4.862332932391241,-24.154156417203797L3.888046231117798,-28.295099369429725z" style="fill:rgb(127,37,217)"/><path d="M0.10407736740092799,-85.21903436274371L-17.576652473432386,-69.17184019387948L0.10968788180602435,-33.689307249539866z" style="fill:rgb(247,158,158)"/><path d="M1.7748719575817355,-30.34859606670535L-0.5812057866765071,-26.490455152466797L1.011388835270157,-25.455505164523377zM2.2892674357252236,-29.56613775139111L2.8491545715662996,-24.667019276954544L3.0028514958830033,-28.872888498580565zM1.7748719575817355,-30.34859606670535L-1.867630369460114,-27.733394647799376L-0.5812057866765071,-26.490455152466797zM1.7748719575817355,-30.34859606670535L2.8491545715662996,-24.667019276954544L2.2892674357252236,-29.56613775139111zM-1.867630369460114,-27.733394647799376L1.7748719575817355,-30.34859606670535L-2.7979558735393106,-29.13782433939699z" style="fill:rgb(127,37,217)"/><path d="M-22.292263866688806,-67.87182802189524L-16.649506369174663,-120.44069756946763L-21.117679084174494,-119.15233824469692z" style="fill:rgb(83,212,212)"/><path d="M9.55317005922109,-27.707383852664933L10.899924257190808,-2.371839986925657L10.630146120250403,-28.08124949593397z" style="fill:rgb(72,208,208)"/><path d="M10.630146120250403,-28.08124949593397L11.882548111590204,-2.891406614345334L11.588306856364321,-28.60042990591361z" style="fill:rgb(50,199,199)"/><path d="M11.588306856364321,-28.60042990591361L12.705809883362443,-3.536834319692585L12.390993017624629,-29.24536124422395z" style="fill:rgb(32,187,187)"/><path d="M12.390993017624629,-29.24536124422395L13.338014495010018,-4.2837341146498495L13.00730288199599,-29.9916581435225z" style="fill:rgb(17,173,173)"/><path d="M13.338014495010018,-4.2837341146498495L13.413289117709777,-30.811004804426865L13.00730288199599,-29.9916581435225z" style="fill:rgb(7,157,157)"/><path d="M13.75459033709975,-5.103770572715036L13.592918858121402,-31.672168039438503L13.413289117709777,-30.811004804426865z" style="fill:rgb(1,140,140)"/><path d="M18.370855589810613,-33.08378980138633L18.93135967012312,-5.810605172671545L18.46129468048652,-31.51721761058815z" style="fill:rgb(254,132,132)"/><path d="M17.86153972631816,-34.607949219126L18.83931815467972,-7.378636463258078L18.370855589810613,-33.08378980138633z" style="fill:rgb(251,149,149)"/><path d="M13.590354791559324,-7.682685886560448L17.86153972631816,-34.607949219126L13.252318623243264,-33.38754133625843z" style="fill:rgb(83,212,212)"/><path d="M-17.576652473432386,-69.17184019387948L-4.475489093447256,-32.4709807392499L0.10968788180602435,-33.689307249539866z" style="fill:rgb(127,37,217)"/><path d="M10.899924257190808,-2.371839986925657L9.55317005922109,-27.707383852664933L9.795529145432797,-1.9977018929344552z" style="fill:rgb(72,208,208)"/><path d="M11.882548111590204,-2.891406614345334L10.630146120250403,-28.08124949593397L10.899924257190808,-2.371839986925657z" style="fill:rgb(50,199,199)"/><path d="M12.705809883362443,-3.536834319692585L11.588306856364321,-28.60042990591361L11.882548111590204,-2.891406614345334z" style="fill:rgb(32,187,187)"/><path d="M13.338014495010018,-4.2837341146498495L12.390993017624629,-29.24536124422395L12.705809883362443,-3.536834319692585z" style="fill:rgb(17,173,173)"/><path d="M13.413289117709777,-30.811004804426865L13.338014495010018,-4.2837341146498495L13.75459033709975,-5.103770572715036z" style="fill:rgb(7,157,157)"/><path d="M-16.649506369174663,-120.44069756946763L-22.292263866688806,-67.87182802189524L-17.576652473432386,-69.17184019387948z" style="fill:rgb(83,212,212)"/><path d="M13.592918858121402,-31.672168039438503L13.75459033709975,-5.103770572715036L13.939075557502855,-5.9656937438946525z" style="fill:rgb(1,140,140)"/><path d="M18.93135967012312,-5.810605172671545L18.370855589810613,-33.08378980138633L18.83931815467972,-7.378636463258078z" style="fill:rgb(254,132,132)"/><path d="M18.83931815467972,-7.378636463258078L17.86153972631816,-34.607949219126L18.317677088566796,-8.904331301895622z" style="fill:rgb(251,149,149)"/><path d="M17.86153972631816,-34.607949219126L13.590354791559324,-7.682685886560448L18.317677088566796,-8.904331301895622z" style="fill:rgb(83,212,212)"/><path d="M11.882548111590204,-2.891406614345334L11.462671507119559,1.3081000834086307L13.445922563373173,0.6387208922832679zM11.462671507119559,1.3081000834086307L10.899924257190808,-2.371839986925657L9.795529145432797,-1.9977018929344552zM10.899924257190808,-2.371839986925657L11.462671507119559,1.3081000834086307L11.882548111590204,-2.891406614345334zM13.75459033709975,-5.103770572715036L13.445922563373173,0.6387208922832679L15.212518332190838,-0.29148067955915424zM11.882548111590204,-2.891406614345334L13.445922563373173,0.6387208922832679L12.705809883362443,-3.536834319692585zM12.705809883362443,-3.536834319692585L13.445922563373173,0.6387208922832679L13.338014495010018,-4.2837341146498495zM13.338014495010018,-4.2837341146498495L13.445922563373173,0.6387208922832679L13.75459033709975,-5.103770572715036zM18.317677088566796,-8.904331301895622L15.212518332190838,-0.29148067955915424L16.695124107187667,-1.448042238919714zM-4.475489093447256,-32.4709807392499L-17.576652473432386,-69.17184019387948L-22.292263866688806,-67.87182802189524z" style="fill:rgb(127,37,217)"/><path d="M9.901830123054038,-25.979199042394917L16.24005530767739,-37.97530492712406L9.651353244779692,-51.658137219642825z" style="fill:rgb(247,158,158)"/><path d="M13.75459033709975,-5.103770572715036L15.212518332190838,-0.29148067955915424L13.939075557502855,-5.9656937438946525zM18.317677088566796,-8.904331301895622L16.695124107187667,-1.448042238919714L17.83658842865638,-2.7878555887226435zM18.317677088566796,-8.904331301895622L13.939075557502855,-5.9656937438946525L15.212518332190838,-0.29148067955915424zM18.317677088566796,-8.904331301895622L17.83658842865638,-2.7878555887226435L18.592165581905736,-4.2606223799991785zM18.83931815467972,-7.378636463258078L18.592165581905736,-4.2606223799991785L18.93135967012312,-5.810605172671545zM18.317677088566796,-8.904331301895622L18.592165581905736,-4.2606223799991785L18.83931815467972,-7.378636463258078zM18.317677088566796,-8.904331301895622L13.8838181505906,-6.836501248308135L13.939075557502855,-5.9656937438946525z" style="fill:rgb(127,37,217)"/><path d="M4.978646184715256,-50.39877143693368L9.901830123054038,-25.979199042394917L9.651353244779692,-51.658137219642825z" style="fill:rgb(83,212,212)"/><path d="M13.8838181505906,-6.836501248308135L18.317677088566796,-8.904331301895622L13.590354791559324,-7.682685886560448z" style="fill:rgb(127,37,217)"/><path d="M16.24005530767739,-37.97530492712406L9.901830123054038,-25.979199042394917L16.656115104285135,-12.27546728871209z" style="fill:rgb(247,158,158)"/><path d="M27.9636073490125,30.994196502927856L-13.304943807912492,-92.60035220822978L-15.188744188856429,41.696761025253025z" style="fill:rgb(83,212,212)"/><path d="M29.665650794906274,34.3793687218348L24.462913333606107,-103.22067650394423L27.9636073490125,30.994196502927856z" style="fill:rgb(247,158,158)"/><path d="M9.901830123054038,-25.979199042394917L4.978646184715256,-50.39877143693368L5.107701843641878,-24.717539590667137z" style="fill:rgb(83,212,212)"/><path d="M9.901830123054038,-25.979199042394917L11.915576677572432,-11.045972128645449L16.656115104285135,-12.27546728871209zM11.915576677572432,-11.045972128645449L9.901830123054038,-25.979199042394917L5.107701843641878,-24.717539590667137zM-13.361638469328806,45.01072371094017L27.9636073490125,30.994196502927856L-15.188744188856429,41.696761025253025zM27.9636073490125,30.994196502927856L-13.361638469328806,45.01072371094017L29.665650794906274,34.3793687218348z" style="fill:rgb(127,37,217)"/><path d="M-19.11527659312956,46.60613333210879L-17.27609183606772,67.34479493227938L-6.6804262154359755,40.580313594498676zM-6.6804262154359755,40.580313594498676L-1.9240886191855382,58.56265158074378L6.2725672655684495,36.37396593324065zM-30.626290389326726,54.252704736638705L-29.187908475231847,79.65376146387375L-19.11527659312956,46.60613333210879zM6.2725672655684495,36.37396593324065L14.738290147422871,54.51312043253874L19.320557309870452,34.137995921683085zM-6.6804262154359755,40.580313594498676L-9.903837301427496,62.42505262925054L-1.9240886191855382,58.56265158074378zM-6.6804262154359755,40.580313594498676L-17.27609183606772,67.34479493227938L-9.903837301427496,62.42505262925054zM-19.11527659312956,46.60613333210879L-23.782129522763874,73.15366460065106L-17.27609183606772,67.34479493227938zM6.2725672655684495,36.37396593324065L-1.9240886191855382,58.56265158074378L6.3861938343294264,55.892540999778696zM19.320557309870452,34.137995921683085L22.83849207427773,54.48313360306435L32.029153337658286,33.971371066338925zM6.2725672655684495,36.37396593324065L6.3861938343294264,55.892540999778696L14.738290147422871,54.51312043253874zM-19.11527659312956,46.60613333210879L-29.187908475231847,79.65376146387375L-23.782129522763874,73.15366460065106zM-36.974615204529826,100.96790946384465L-30.626290389326726,54.252704736638705L-40.83116053785517,63.27667109253z" style="fill:rgb(83,212,212)"/><path d="M-1.9240886191855382,58.56265158074378L-8.054909857239712,65.74086117812024L-0.10178079127007322,61.89227919063706z" style="fill:rgb(162,50,222)"/><path d="M-9.903837301427496,62.42505262925054L-15.400285097273727,70.6473110847781L-8.054909857239712,65.74086117812024z" style="fill:rgb(183,62,221)"/><path d="M6.3861938343294264,55.892540999778696L-0.10178079127007322,61.89227919063706L8.182967584087166,59.236079932894484z" style="fill:rgb(139,40,220)"/><path d="M-8.054909857239712,65.74086117812024L-1.9240886191855382,58.56265158074378L-9.903837301427496,62.42505262925054z" style="fill:rgb(162,50,222)"/><path d="M-15.400285097273727,70.6473110847781L-9.903837301427496,62.42505262925054L-17.27609183606772,67.34479493227938z" style="fill:rgb(183,62,221)"/><path d="M-0.10178079127007322,61.89227919063706L6.3861938343294264,55.892540999778696L-1.9240886191855382,58.56265158074378z" style="fill:rgb(139,40,220)"/><path d="M19.320557309870452,34.137995921683085L14.738290147422871,54.51312043253874L22.83849207427773,54.48313360306435zM-30.626290389326726,54.252704736638705L-33.29071264791491,86.62153725615006L-29.187908475231847,79.65376146387375z" style="fill:rgb(83,212,212)"/><path d="M-15.400285097273727,70.6473110847781L-23.782129522763874,73.15366460065106L-21.880035069491935,76.4438091021062zM-23.782129522763874,73.15366460065106L-15.400285097273727,70.6473110847781L-17.27609183606772,67.34479493227938z" style="fill:rgb(203,77,216)"/><path d="M14.738290147422871,54.51312043253874L8.182967584087166,59.236079932894484L16.5114068268784,57.87019177021051zM8.182967584087166,59.236079932894484L14.738290147422871,54.51312043253874L6.3861938343294264,55.892540999778696z" style="fill:rgb(115,34,214)"/><path d="M-21.880035069491935,76.4438091021062L-29.187908475231847,79.65376146387375L-27.2609906203795,82.93280904210512zM-29.187908475231847,79.65376146387375L-21.880035069491935,76.4438091021062L-23.782129522763874,73.15366460065106z" style="fill:rgb(220,94,208)"/><path d="M-30.626290389326726,54.252704736638705L-35.92602901455792,93.81265754685474L-33.29071264791491,86.62153725615006zM32.029153337658286,33.971371066338925L37.12844673588928,58.49077804971154L43.960090668115825,35.916022943791724z" style="fill:rgb(83,212,212)"/><path d="M16.5114068268784,57.87019177021051L22.83849207427773,54.48313360306435L14.738290147422871,54.51312043253874zM22.83849207427773,54.48313360306435L16.5114068268784,57.87019177021051L24.59058482681919,57.8528593273496z" style="fill:rgb(92,32,204)"/><path d="M32.029153337658286,33.971371066338925L22.83849207427773,54.48313360306435L30.39546693084837,55.81871255577824z" style="fill:rgb(83,212,212)"/><path d="M-33.29071264791491,86.62153725615006L-27.2609906203795,82.93280904210512L-29.187908475231847,79.65376146387375z" style="fill:rgb(233,112,197)"/><path d="M-30.626290389326726,54.252704736638705L-36.974615204529826,100.96790946384465L-35.92602901455792,93.81265754685474z" style="fill:rgb(83,212,212)"/><path d="M-27.2609906203795,82.93280904210512L-33.29071264791491,86.62153725615006L-31.341313589116503,89.89107910785651z" style="fill:rgb(233,112,197)"/><path d="M32.029153337658286,33.971371066338925L30.39546693084837,55.81871255577824L37.12844673588928,58.49077804971154z" style="fill:rgb(83,212,212)"/><path d="M24.59058482681919,57.8528593273496L30.39546693084837,55.81871255577824L22.83849207427773,54.48313360306435zM30.39546693084837,55.81871255577824L24.59058482681919,57.8528593273496L32.129880729032664,59.19970263953884z" style="fill:rgb(71,33,192)"/><path d="M-35.92602901455792,93.81265754685474L-31.341313589116503,89.89107910785651L-33.29071264791491,86.62153725615006z" style="fill:rgb(242,130,183)"/><path d="M-49.37748706991929,73.39275667896817L-43.81523051659153,143.98922004326488L-40.83116053785517,63.27667109253z" style="fill:rgb(83,212,212)"/><path d="M-31.341313589116503,89.89107910785651L-35.92602901455792,93.81265754685474L-33.957353218967825,97.07456647632384z" style="fill:rgb(242,130,183)"/><path d="M38.84917419489144,61.88113904965741L30.39546693084837,55.81871255577824L32.129880729032664,59.19970263953884z" style="fill:rgb(51,38,177)"/><path d="M-55.95056687314754,84.27653125290894L-52.18464294608431,136.75365551123272L-49.37748706991929,73.39275667896817zM-60.282904045000016,95.56805757337082L-58.11888273519635,127.89017847492457L-55.95056687314754,84.27653125290894zM43.960090668115825,35.916022943791724L47.10796374016504,67.49127323606804L54.68061459723789,39.95093516791607zM43.960090668115825,35.916022943791724L37.12844673588928,58.49077804971154L42.77637669786035,62.42306749403335z" style="fill:rgb(83,212,212)"/><path d="M30.39546693084837,55.81871255577824L38.84917419489144,61.88113904965741L37.12844673588928,58.49077804971154z" style="fill:rgb(51,38,177)"/><path d="M-61.46153755544482,117.79218433820861L-60.282904045000016,95.56805757337082L-62.165632997588105,106.87729045329404z" style="fill:rgb(83,212,212)"/><path d="M-36.974615204529826,100.96790946384465L-33.957353218967825,97.07456647632384L-35.92602901455792,93.81265754685474zM-33.957353218967825,97.07456647632384L-36.974615204529826,100.96790946384465L-34.99068392930358,104.22430774433207z" style="fill:rgb(246,149,167)"/><path d="M44.48798964941247,65.8204335478716L37.12844673588928,58.49077804971154L38.84917419489144,61.88113904965741z" style="fill:rgb(34,46,160)"/><path d="M43.960090668115825,35.916022943791724L42.77637669786035,62.42306749403335L47.10796374016504,67.49127323606804z" style="fill:rgb(83,212,212)"/><path d="M37.12844673588928,58.49077804971154L44.48798964941247,65.8204335478716L42.77637669786035,62.42306749403335z" style="fill:rgb(34,46,160)"/><path d="M-36.974615204529826,100.96790946384465L-34.375010518914735,111.0737082532153L-34.99068392930358,104.22430774433207z" style="fill:rgb(246,167,149)"/><path d="M-60.282904045000016,95.56805757337082L-61.46153755544482,117.79218433820861L-58.11888273519635,127.89017847492457z" style="fill:rgb(83,212,212)"/><path d="M48.815505556201295,70.89289499663822L42.77637669786035,62.42306749403335L44.48798964941247,65.8204335478716z" style="fill:rgb(21,57,142)"/><path d="M-34.375010518914735,111.0737082532153L-36.974615204529826,100.96790946384465L-36.369444825445434,107.8204851429664z" style="fill:rgb(246,167,149)"/><path d="M-40.83116053785517,63.27667109253L-33.282395541427704,149.25004293313452L-36.974615204529826,100.96790946384465zM54.68061459723789,39.95093516791607L47.10796374016504,67.49127323606804L49.93235300732249,73.52381980691516zM-55.95056687314754,84.27653125290894L-58.11888273519635,127.89017847492457L-52.18464294608431,136.75365551123272z" style="fill:rgb(83,212,212)"/><path d="M42.77637669786035,62.42306749403335L48.815505556201295,70.89289499663822L47.10796374016504,67.49127323606804z" style="fill:rgb(21,57,142)"/><path d="M-36.369444825445434,107.8204851429664L-32.1024302944325,117.35734169915271L-34.375010518914735,111.0737082532153z" style="fill:rgb(242,183,130)"/><path d="M54.68061459723789,39.95093516791607L49.93235300732249,73.52381980691516L51.109874820413225,80.30477378316994z" style="fill:rgb(83,212,212)"/><path d="M-32.1024302944325,117.35734169915271L-36.369444825445434,107.8204851429664L-34.10201536329601,114.1047854329187z" style="fill:rgb(242,183,130)"/><path d="M-49.37748706991929,73.39275667896817L-52.18464294608431,136.75365551123272L-43.81523051659153,143.98922004326488zM-40.83116053785517,63.27667109253L-43.81523051659153,143.98922004326488L-33.282395541427704,149.25004293313452z" style="fill:rgb(83,212,212)"/><path d="M-50.09753270137653,139.96386159031388L-58.11888273519635,127.89017847492457L-56.03246903541535,131.0983860317769z" style="fill:rgb(21,57,142)"/><path d="M54.68061459723789,39.95093516791607L58.77927540139612,120.98385460857341L63.7755622325637,45.98598801033586zM-36.974615204529826,100.96790946384465L-33.282395541427704,149.25004293313452L-36.369444825445434,107.8204851429664zM63.7755622325637,45.98598801033586L73.69953477434002,97.69366850657711L70.86255346287581,53.85643482538383z" style="fill:rgb(83,212,212)"/><path d="M75.61017371336125,63.31935104265241L79.39036677098925,77.4985647848257L77.23302606519978,66.76708690428212z" style="fill:rgb(246,167,149)"/><path d="M-58.11888273519635,127.89017847492457L-50.09753270137653,139.96386159031388L-52.18464294608431,136.75365551123272z" style="fill:rgb(21,57,142)"/><path d="M-36.369444825445434,107.8204851429664L-33.282395541427704,149.25004293313452L-34.10201536329601,114.1047854329187zM51.109874820413225,80.30477378316994L58.77927540139612,120.98385460857341L54.68061459723789,39.95093516791607z" style="fill:rgb(83,212,212)"/><path d="M79.39036677098925,77.4985647848257L75.61017371336125,63.31935104265241L77.7584187519667,74.05347664575466z" style="fill:rgb(246,167,149)"/><path d="M70.86255346287581,53.85643482538383L73.69953477434002,97.69366850657711L75.61017371336125,63.31935104265241zM-34.10201536329601,114.1047854329187L-33.282395541427704,149.25004293313452L-30.227347617724778,119.56661131436854z" style="fill:rgb(83,212,212)"/><path d="M-41.737253478382875,147.20557620722875L-52.18464294608431,136.75365551123272L-50.09753270137653,139.96386159031388z" style="fill:rgb(34,46,160)"/><path d="M75.61017371336125,63.31935104265241L77.13989796394495,85.66399760295087L77.7584187519667,74.05347664575466z" style="fill:rgb(83,212,212)"/><path d="M-52.18464294608431,136.75365551123272L-41.737253478382875,147.20557620722875L-43.81523051659153,143.98922004326488z" style="fill:rgb(34,46,160)"/><path d="M77.13989796394495,85.66399760295087L79.39036677098925,77.4985647848257L77.7584187519667,74.05347664575466zM79.39036677098925,77.4985647848257L77.13989796394495,85.66399760295087L78.78996513056458,89.1008945127487z" style="fill:rgb(246,149,167)"/><path d="M-30.227347617724778,119.56661131436854L-20.971995215151924,152.25960472242224L-24.866811630410286,123.97455504798211zM63.7755622325637,45.98598801033586L67.50991065553762,109.64077537362898L73.69953477434002,97.69366850657711zM75.61017371336125,63.31935104265241L73.69953477434002,97.69366850657711L77.13989796394495,85.66399760295087z" style="fill:rgb(83,212,212)"/><path d="M-31.223484585663694,152.47682018177179L-43.81523051659153,143.98922004326488L-41.737253478382875,147.20557620722875z" style="fill:rgb(51,38,177)"/><path d="M-24.866811630410286,123.97455504798211L-20.971995215151924,152.25960472242224L-18.207914498506117,127.13201436863314zM50.56200129932416,87.57946622028965L58.77927540139612,120.98385460857341L51.109874820413225,80.30477378316994zM63.7755622325637,45.98598801033586L58.77927540139612,120.98385460857341L67.50991065553762,109.64077537362898zM-30.227347617724778,119.56661131436854L-33.282395541427704,149.25004293313452L-20.971995215151924,152.25960472242224z" style="fill:rgb(83,212,212)"/><path d="M-43.81523051659153,143.98922004326488L-31.223484585663694,152.47682018177179L-33.282395541427704,149.25004293313452z" style="fill:rgb(51,38,177)"/><path d="M73.69953477434002,97.69366850657711L78.78996513056458,89.1008945127487L77.13989796394495,85.66399760295087z" style="fill:rgb(242,130,183)"/><path d="M48.279567371770476,95.06302591701689L58.77927540139612,120.98385460857341L50.56200129932416,87.57946622028965z" style="fill:rgb(83,212,212)"/><path d="M78.78996513056458,89.1008945127487L73.69953477434002,97.69366850657711L75.376539784811,101.11705001849914z" style="fill:rgb(242,130,183)"/><path d="M-18.207914498506117,127.13201436863314L-7.373693505659259,152.83440564055465L-10.500322938062888,128.8888669930852zM-10.500322938062888,128.8888669930852L-7.373693505659259,152.83440564055465L-2.047597201960459,129.15183976343434zM44.328006458159514,102.45181803038857L47.84966109228108,131.2114245985061L48.279567371770476,95.06302591701689z" style="fill:rgb(83,212,212)"/><path d="M-31.223484585663694,152.47682018177179L-20.971995215151924,152.25960472242224L-33.282395541427704,149.25004293313452zM-20.971995215151924,152.25960472242224L-31.223484585663694,152.47682018177179L-18.94161802752174,155.50102141380452z" style="fill:rgb(71,33,192)"/><path d="M-18.207914498506117,127.13201436863314L-20.971995215151924,152.25960472242224L-7.373693505659259,152.83440564055465zM38.84867172168826,109.43747848845925L47.84966109228108,131.2114245985061L44.328006458159514,102.45181803038857z" style="fill:rgb(83,212,212)"/><path d="M67.50991065553762,109.64077537362898L75.376539784811,101.11705001849914L73.69953477434002,97.69366850657711z" style="fill:rgb(233,112,197)"/><path d="M-2.047597201960459,129.15183976343434L6.9392922389214275,150.9028203386355L6.805337741052446,127.89235031094412z" style="fill:rgb(83,212,212)"/><path d="M75.376539784811,101.11705001849914L67.50991065553762,109.64077537362898L69.22197298852807,113.04589797159812z" style="fill:rgb(233,112,197)"/><path d="M32.0553671410419,115.72249650423358L35.183631114014595,139.85432395274836L38.84867172168826,109.43747848845925zM6.805337741052446,127.89235031094412L21.33981902492669,146.51677343332545L15.688500053945956,125.15077088250482zM24.225837593180863,121.03637076319029L35.183631114014595,139.85432395274836L32.0553671410419,115.72249650423358zM15.688500053945956,125.15077088250482L21.33981902492669,146.51677343332545L24.225837593180863,121.03637076319029zM48.279567371770476,95.06302591701689L47.84966109228108,131.2114245985061L58.77927540139612,120.98385460857341z" style="fill:rgb(83,212,212)"/><path d="M-18.94161802752174,155.50102141380452L-7.373693505659259,152.83440564055465L-20.971995215151924,152.25960472242224zM-7.373693505659259,152.83440564055465L-18.94161802752174,155.50102141380452L-5.38024220448563,156.09439656182187z" style="fill:rgb(92,32,204)"/><path d="M-2.047597201960459,129.15183976343434L-7.373693505659259,152.83440564055465L6.9392922389214275,150.9028203386355z" style="fill:rgb(83,212,212)"/><path d="M58.77927540139612,120.98385460857341L69.22197298852807,113.04589797159812L67.50991065553762,109.64077537362898zM69.22197298852807,113.04589797159812L58.77927540139612,120.98385460857341L60.53327857876283,124.36689291778673z" style="fill:rgb(220,94,208)"/><path d="M38.84867172168826,109.43747848845925L35.183631114014595,139.85432395274836L47.84966109228108,131.2114245985061zM6.805337741052446,127.89235031094412L6.9392922389214275,150.9028203386355L21.33981902492669,146.51677343332545z" style="fill:rgb(83,212,212)"/><path d="M-5.38024220448563,156.09439656182187L6.9392922389214275,150.9028203386355L-7.373693505659259,152.83440564055465z" style="fill:rgb(115,34,214)"/><path d="M24.225837593180863,121.03637076319029L21.33981902492669,146.51677343332545L35.183631114014595,139.85432395274836z" style="fill:rgb(83,212,212)"/><path d="M6.9392922389214275,150.9028203386355L-5.38024220448563,156.09439656182187L8.889070207221302,154.18476146444172z" style="fill:rgb(115,34,214)"/><path d="M47.84966109228108,131.2114245985061L60.53327857876283,124.36689291778673L58.77927540139612,120.98385460857341zM60.53327857876283,124.36689291778673L47.84966109228108,131.2114245985061L49.650730531954174,134.569741718137z" style="fill:rgb(203,77,216)"/><path d="M21.33981902492669,146.51677343332545L8.889070207221302,154.18476146444172L23.241311678513906,149.82319249257193z" style="fill:rgb(139,40,220)"/><path d="M47.84966109228108,131.2114245985061L37.034694201163866,143.1866368796698L49.650730531954174,134.569741718137z" style="fill:rgb(183,62,221)"/><path d="M8.889070207221302,154.18476146444172L21.33981902492669,146.51677343332545L6.9392922389214275,150.9028203386355z" style="fill:rgb(139,40,220)"/><path d="M35.183631114014595,139.85432395274836L23.241311678513906,149.82319249257193L37.034694201163866,143.1866368796698z" style="fill:rgb(162,50,222)"/><path d="M37.034694201163866,143.1866368796698L47.84966109228108,131.2114245985061L35.183631114014595,139.85432395274836z" style="fill:rgb(183,62,221)"/><path d="M23.241311678513906,149.82319249257193L35.183631114014595,139.85432395274836L21.33981902492669,146.51677343332545z" style="fill:rgb(162,50,222)"/></svg>
