<?xml version="1.0" encoding="UTF-8"?>
<!-- Generated by jsxcad -->
<!DOCTYPE svg PUBLIC "-//W3C//DTD SVG 1.1 Tiny//EN" "http://www.w3.org/Graphics/SVG/1.1/DTD/svg11-tiny.dtd">
<svg viewBox="-250 -250 500 500" width="500" height="500" xmlns="http://www.w3.org/2000/svg"><path d="M-36.14301077850242,-68.67473861943591L111.92815036276441,145.6774768131731L88.45910093034041,-103.16904725556665z" style="fill:rgb(83,212,212)"/><path d="M88.45910093034041,-103.16904725556665L114.03202772267876,150.121336805265L90.21567217992606,-98.67673464977993zM-40.53994377639878,49.62647783204431L-42.59381417141189,183.67915074259366L-38.079178761529334,53.85968151792591z" style="fill:rgb(247,158,158)"/><path d="M-54.97780571096994,180.43400816487474L-44.75899777352433,50.35989267093264L-49.130857746810264,50.5207881642217z" style="fill:rgb(120,217,217)"/><path d="M-53.49499372461076,50.1035409414825L-54.97780571096994,180.43400816487474L-49.130857746810264,50.5207881642217z" style="fill:rgb(145,216,216)"/><path d="M-50.08662859656057,180.27755433114777L-40.53994377639878,49.62647783204431L-44.75899777352433,50.35989267093264z" style="fill:rgb(95,214,214)"/><path d="M-64.56754458240384,179.07444304643187L-53.49499372461076,50.1035409414825L-57.691030731483394,49.122756964687284z" style="fill:rgb(169,212,212)"/><path d="M-68.91443507245215,177.60566080136624L-57.691030731483394,49.122756964687284L-61.56380674987756,47.612935349491735z" style="fill:rgb(192,205,205)"/><path d="M-72.74295773374159,175.67347719048368L-61.56380674987756,47.612935349491735L-64.96846847421466,45.627588028502984z" style="fill:rgb(212,194,194)"/><path d="M-67.77540553445648,43.237865403876846L-72.74295773374159,175.67347719048368L-64.96846847421466,45.627588028502984z" style="fill:rgb(229,181,181)"/><path d="M-78.28460912995124,170.70865553603434L-67.77540553445648,43.237865403876846L-69.87502844639528,40.53054611639198z" style="fill:rgb(242,166,166)"/><path d="M-76.12555820489762,42.103942531799994L-78.28460912995124,170.70865553603434L-69.87502844639528,40.53054611639198zM111.92815036276441,145.6774768131731L-36.14301077850242,-68.67473861943591L-45.36937981022699,179.56435904375093z" style="fill:rgb(83,212,212)"/><path d="M-42.59381417141189,183.67915074259366L-40.53994377639878,49.62647783204431L-45.36937981022699,179.56435904375093z" style="fill:rgb(247,158,158)"/><path d="M-44.75899777352433,50.35989267093264L-54.97780571096994,180.43400816487474L-50.08662859656057,180.27755433114777z" style="fill:rgb(120,217,217)"/><path d="M-54.97780571096994,180.43400816487474L-53.49499372461076,50.1035409414825L-59.86430669488892,180.02828229921477z" style="fill:rgb(145,216,216)"/><path d="M-40.53994377639878,49.62647783204431L-50.08662859656057,180.27755433114777L-45.36937981022699,179.56435904375093z" style="fill:rgb(95,214,214)"/><path d="M-53.49499372461076,50.1035409414825L-64.56754458240384,179.07444304643187L-59.86430669488892,180.02828229921477z" style="fill:rgb(169,212,212)"/><path d="M114.03202772267876,150.121336805265L88.45910093034041,-103.16904725556665L111.92815036276441,145.6774768131731z" style="fill:rgb(247,158,158)"/><path d="M-57.691030731483394,49.122756964687284L-68.91443507245215,177.60566080136624L-64.56754458240384,179.07444304643187z" style="fill:rgb(192,205,205)"/><path d="M-61.56380674987756,47.612935349491735L-72.74295773374159,175.67347719048368L-68.91443507245215,177.60566080136624z" style="fill:rgb(212,194,194)"/><path d="M-109.57108801116074,126.36029159793425L-69.87502844639528,40.53054611639198L-97.26848520087245,-4.723606427694691z" style="fill:rgb(247,158,158)"/><path d="M-72.74295773374159,175.67347719048368L-67.77540553445648,43.237865403876846L-75.90758492290688,173.3465077172557z" style="fill:rgb(229,181,181)"/><path d="M-67.77540553445648,43.237865403876846L-78.28460912995124,170.70865553603434L-75.90758492290688,173.3465077172557z" style="fill:rgb(242,166,166)"/><path d="M-78.28460912995124,170.70865553603434L-76.12555820489762,42.103942531799994L-85.27127048702256,172.24189558269103zM-116.85500893059452,128.053510172959L-97.26848520087245,-4.723606427694691L-103.75612457944273,-3.0048538715681667z" style="fill:rgb(83,212,212)"/><path d="M-69.87502844639528,40.53054611639198L-109.57108801116074,126.36029159793425L-78.28460912995124,170.70865553603434z" style="fill:rgb(247,158,158)"/><path d="M-54.97780571096994,180.43400816487474L-55.025074712389916,184.79860184697395L-48.69845155086455,184.59726851144904zM-59.86430669488892,180.02828229921477L-61.3462348968804,184.2764142246126L-55.025074712389916,184.79860184697395zM-45.36937981022699,179.56435904375093L-48.69845155086455,184.59726851144904L-42.59381417141189,183.67915074259366zM-64.56754458240384,179.07444304643187L-67.4343926835213,183.04823228731027L-61.3462348968804,184.2764142246126zM-54.97780571096994,180.43400816487474L-48.69845155086455,184.59726851144904L-50.08662859656057,180.27755433114777zM-59.86430669488892,180.02828229921477L-55.025074712389916,184.79860184697395L-54.97780571096994,180.43400816487474zM-50.08662859656057,180.27755433114777L-48.69845155086455,184.59726851144904L-45.36937981022699,179.56435904375093zM-64.56754458240384,179.07444304643187L-61.3462348968804,184.2764142246126L-59.86430669488892,180.02828229921477zM-72.74295773374159,175.67347719048368L-73.06845506251028,181.15541287586078L-67.4343926835213,183.04823228731027zM-68.91443507245215,177.60566080136624L-67.4343926835213,183.04823228731027L-64.56754458240384,179.07444304643187zM-72.74295773374159,175.67347719048368L-67.4343926835213,183.04823228731027L-68.91443507245215,177.60566080136624zM-78.28460912995124,170.70865553603434L-78.0403875233642,178.66253806648513L-73.06845506251028,181.15541287586078zM-75.90758492290688,173.3465077172557L-73.06845506251028,181.15541287586078L-72.74295773374159,175.67347719048368zM-78.28460912995124,170.70865553603434L-73.06845506251028,181.15541287586078L-75.90758492290688,173.3465077172557zM-78.28460912995124,170.70865553603434L-82.16191634747459,175.65592531331356L-78.0403875233642,178.66253806648513zM-82.16191634747459,175.65592531331356L-78.28460912995124,170.70865553603434L-85.27127048702256,172.24189558269103zM-42.59381417141189,183.67915074259366L111.92815036276441,145.6774768131731L-45.36937981022699,179.56435904375093z" style="fill:rgb(127,37,217)"/><path d="M-97.26848520087245,-4.723606427694691L-116.85500893059452,128.053510172959L-109.57108801116074,126.36029159793425z" style="fill:rgb(83,212,212)"/><path d="M111.92815036276441,145.6774768131731L-42.59381417141189,183.67915074259366L114.03202772267876,150.121336805265zM-109.57108801116074,126.36029159793425L-85.27127048702256,172.24189558269103L-78.28460912995124,170.70865553603434zM-85.27127048702256,172.24189558269103L-109.57108801116074,126.36029159793425L-116.85500893059452,128.053510172959z" style="fill:rgb(127,37,217)"/></svg>
