<?xml version="1.0" encoding="UTF-8"?>
<!-- Generated by jsxcad -->
<!DOCTYPE svg PUBLIC "-//W3C//DTD SVG 1.1 Tiny//EN" "http://www.w3.org/Graphics/SVG/1.1/DTD/svg11-tiny.dtd">
<svg viewBox="-250 -250 500 500" width="500" height="500" xmlns="http://www.w3.org/2000/svg"><path d="M-45.41746516039307,-66.10723783541835L124.54178945379995,142.96010589811422L98.36535547202935,-105.91144502389501z" style="fill:rgb(83,212,212)"/><path d="M98.36535547202935,-105.91144502389501L126.5892583415803,147.43089834740132L100.08714918926304,-101.39762433522279zM-56.97772330503332,182.06515613919885L-48.42971064074382,56.41005095926187L-50.928342009393525,52.19872760271736z" style="fill:rgb(247,158,158)"/><path d="M-59.48765560183499,53.08841185327422L-61.67172029924374,182.77422076437617L-55.12880179969537,52.92834493501847z" style="fill:rgb(120,217,217)"/><path d="M-63.84482888364998,52.67332427929022L-66.54662275645953,182.92976894264578L-59.48765560183499,53.08841185327422z" style="fill:rgb(145,216,216)"/><path d="M-55.12880179969537,52.92834493501847L-56.97772330503332,182.06515613919885L-50.928342009393525,52.19872760271736z" style="fill:rgb(95,214,214)"/><path d="M-76.12673117089248,181.5780795478438L-63.84482888364998,52.67332427929022L-68.04018691585294,51.69762059437478z" style="fill:rgb(169,212,212)"/><path d="M-80.48061937832915,180.1178196334888L-68.04018691585294,51.69762059437478L-71.9186122259168,50.19562521464262z" style="fill:rgb(192,205,205)"/><path d="M-75.33503480582768,48.22059681179471L-80.48061937832915,180.1178196334888L-71.9186122259168,50.19562521464262z" style="fill:rgb(212,194,194)"/><path d="M-87.51018412853888,175.88346114233784L-75.33503480582768,48.22059681179471L-78.15945623452315,45.84331265229412z" style="fill:rgb(229,181,181)"/><path d="M-89.91539524604013,173.26104523951176L-78.15945623452315,45.84331265229412L-80.28167604757363,43.15012992935508z" style="fill:rgb(242,166,166)"/><path d="M-86.49955514441812,44.71530423914268L-89.91539524604013,173.26104523951176L-80.28167604757363,43.15012992935508zM124.54178945379995,142.96010589811422L-45.41746516039307,-66.10723783541835L-56.97772330503332,182.06515613919885z" style="fill:rgb(83,212,212)"/><path d="M-48.42971064074382,56.41005095926187L-56.97772330503332,182.06515613919885L-54.154916992949936,186.15618186013964z" style="fill:rgb(247,158,158)"/><path d="M-61.67172029924374,182.77422076437617L-59.48765560183499,53.08841185327422L-66.54662275645953,182.92976894264578z" style="fill:rgb(120,217,217)"/><path d="M-66.54662275645953,182.92976894264578L-63.84482888364998,52.67332427929022L-71.42438924639643,182.52639206177037z" style="fill:rgb(145,216,216)"/><path d="M-56.97772330503332,182.06515613919885L-55.12880179969537,52.92834493501847L-61.67172029924374,182.77422076437617z" style="fill:rgb(95,214,214)"/><path d="M-63.84482888364998,52.67332427929022L-76.12673117089248,181.5780795478438L-71.42438924639643,182.52639206177037z" style="fill:rgb(169,212,212)"/><path d="M-68.04018691585294,51.69762059437478L-80.48061937832915,180.1178196334888L-76.12673117089248,181.5780795478438z" style="fill:rgb(192,205,205)"/><path d="M-80.48061937832915,180.1178196334888L-75.33503480582768,48.22059681179471L-84.32377231201491,178.19686916932054z" style="fill:rgb(212,194,194)"/><path d="M-121.69599825367699,129.17884012451972L-80.28167604757363,43.15012992935508L-108.0693854359476,-1.862152762028332z" style="fill:rgb(247,158,158)"/><path d="M-75.33503480582768,48.22059681179471L-87.51018412853888,175.88346114233784L-84.32377231201491,178.19686916932054z" style="fill:rgb(229,181,181)"/><path d="M126.5892583415803,147.43089834740132L98.36535547202935,-105.91144502389501L124.54178945379995,142.96010589811422z" style="fill:rgb(247,158,158)"/><path d="M-78.15945623452315,45.84331265229412L-89.91539524604013,173.26104523951176L-87.51018412853888,175.88346114233784z" style="fill:rgb(242,166,166)"/><path d="M-89.91539524604013,173.26104523951176L-86.49955514441812,44.71530423914268L-96.8611920201729,174.78529930858127zM-128.93517479776878,130.86164597224553L-108.0693854359476,-1.862152762028332L-114.5216244283922,-0.15278104518470786z" style="fill:rgb(83,212,212)"/><path d="M-80.28167604757363,43.15012992935508L-121.69599825367699,129.17884012451972L-89.91539524604013,173.26104523951176z" style="fill:rgb(247,158,158)"/><path d="M-66.54662275645953,182.92976894264578L-66.53528672418041,187.26916364945055L-60.22960408633123,187.06898910749737zM-71.42438924639643,182.52639206177037L-72.84520230873574,186.7500023296206L-66.53528672418041,187.26916364945055zM-56.97772330503332,182.06515613919885L-60.22960408633123,187.06898910749737L-54.154916992949936,186.15618186013964zM-76.12673117089248,181.5780795478438L-78.93219044940183,185.52888484891707L-72.84520230873574,186.7500023296206zM-66.54662275645953,182.92976894264578L-60.22960408633123,187.06898910749737L-61.67172029924374,182.77422076437617zM-71.42438924639643,182.52639206177037L-66.53528672418041,187.26916364945055L-66.54662275645953,182.92976894264578zM-61.67172029924374,182.77422076437617L-60.22960408633123,187.06898910749737L-56.97772330503332,182.06515613919885zM-76.12673117089248,181.5780795478438L-72.84520230873574,186.7500023296206L-71.42438924639643,182.52639206177037zM-84.32377231201491,178.19686916932054L-84.57521460246166,183.64702034146003L-78.93219044940183,185.52888484891707zM-80.48061937832915,180.1178196334888L-78.93219044940183,185.52888484891707L-76.12673117089248,181.5780795478438zM-84.32377231201491,178.19686916932054L-78.93219044940183,185.52888484891707L-80.48061937832915,180.1178196334888zM-89.91539524604013,173.26104523951176L-89.56595917759755,181.1685631394542L-84.57521460246166,183.64702034146003zM-87.51018412853888,175.88346114233784L-84.57521460246166,183.64702034146003L-84.32377231201491,178.19686916932054zM-89.91539524604013,173.26104523951176L-84.57521460246166,183.64702034146003L-87.51018412853888,175.88346114233784zM-89.91539524604013,173.26104523951176L-93.71551508907999,178.17944017937356L-89.56595917759755,181.1685631394542zM-93.71551508907999,178.17944017937356L-89.91539524604013,173.26104523951176L-96.8611920201729,174.78529930858127zM-54.154916992949936,186.15618186013964L124.54178945379995,142.96010589811422L-56.97772330503332,182.06515613919885z" style="fill:rgb(127,37,217)"/><path d="M-108.0693854359476,-1.862152762028332L-128.93517479776878,130.86164597224553L-121.69599825367699,129.17884012451972z" style="fill:rgb(83,212,212)"/><path d="M-121.69599825367699,129.17884012451972L-96.8611920201729,174.78529930858127L-89.91539524604013,173.26104523951176zM124.54178945379995,142.96010589811422L-54.154916992949936,186.15618186013964L126.5892583415803,147.43089834740132zM-96.8611920201729,174.78529930858127L-121.69599825367699,129.17884012451972L-128.93517479776878,130.86164597224553z" style="fill:rgb(127,37,217)"/></svg>
