<?xml version="1.0" encoding="UTF-8"?>
<!-- Generated by jsxcad -->
<!DOCTYPE svg PUBLIC "-//W3C//DTD SVG 1.1 Tiny//EN" "http://www.w3.org/Graphics/SVG/1.1/DTD/svg11-tiny.dtd">
<svg viewBox="-250 -250 500 500" width="500" height="500" xmlns="http://www.w3.org/2000/svg"><path d="M-11.01547126075291,-71.5807006944706L60.303930869713994,-11.760479590465419L55.720995904117686,-89.98874977950246z" style="fill:rgb(83,212,212)"/><path d="M60.303930869713994,-11.760479590465419L57.58442135264556,-85.59909375542169L55.720995904117686,-89.98874977950246z" style="fill:rgb(247,158,158)"/><path d="M60.303930869713994,-11.760479590465419L-11.01547126075291,-71.5807006944706L-11.905540409976485,6.759494233940256z" style="fill:rgb(83,212,212)"/><path d="M57.58442135264556,-85.59909375542169L60.303930869713994,-11.760479590465419L62.300740562552754,-7.339636134643023z" style="fill:rgb(247,158,158)"/><path d="M23.87896662922439,-2.418361834804019L19.29095029373263,2.65253998752971L22.69485376433773,2.5215476214548094zM23.87896662922439,-2.418361834804019L15.924240247589854,2.312863586520261L19.29095029373263,2.65253998752971zM23.87896662922439,-2.418361834804019L22.69485376433773,2.5215476214548094L26.00967055729148,1.9245706910383165zM23.87896662922439,-2.418361834804019L12.71974243556634,1.514672544503721L15.924240247589854,2.312863586520261zM12.71974243556634,1.514672544503721L23.87896662922439,-2.418361834804019L11.137009633433731,0.8496404742133764z" style="fill:rgb(127,37,217)"/><path d="M-11.905540409976485,6.759494233940256L8.706996267133608,33.26609370171963L8.449872661021779,1.5388257308359543z" style="fill:rgb(83,212,212)"/><path d="M19.87731252251158,34.37864969957567L22.69485376433773,2.5215476214548094L19.29095029373263,2.65253998752971z" style="fill:rgb(120,217,217)"/><path d="M16.408431956304646,34.039333808524056L19.29095029373263,2.65253998752971L15.924240247589854,2.312863586520261z" style="fill:rgb(145,216,216)"/><path d="M23.384769697826933,34.247796643409266L26.00967055729148,1.9245706910383165L22.69485376433773,2.5215476214548094z" style="fill:rgb(95,214,214)"/><path d="M13.106804426603812,33.24196350883629L15.924240247589854,2.312863586520261L12.71974243556634,1.514672544503721z" style="fill:rgb(169,212,212)"/><path d="M8.706996267133608,33.26609370171963L9.892859178366603,1.1687348992192823L8.449872661021779,1.5388257308359543z" style="fill:rgb(83,212,212)"/><path d="M11.137009633433731,0.8496404742133764L13.106804426603812,33.24196350883629L12.71974243556634,1.514672544503721z" style="fill:rgb(192,205,205)"/><path d="M10.194002222473962,32.89637066021638L10.81118065601217,0.9332077645171972L9.892859178366603,1.1687348992192823zM11.140354587874553,32.66107353071524L11.137009633433731,0.8496404742133764L10.81118065601217,0.9332077645171972z" style="fill:rgb(83,212,212)"/><path d="M23.87896662922439,-2.418361834804019L26.80082392406917,33.6514451573009L26.00967055729148,1.9245706910383165z" style="fill:rgb(247,158,158)"/><path d="M20.262437530290303,29.770977641980803L21.798873762410174,-2.042047010635688L19.66206102801522,-1.9594520743020145z" style="fill:rgb(120,217,217)"/><path d="M18.08482338715939,29.556985860902245L19.66206102801522,-1.9594520743020145L17.548859631872123,-2.173612889546769z" style="fill:rgb(145,216,216)"/><path d="M22.464551689063306,29.688447933458733L23.87896662922439,-2.418361834804019L21.798873762410174,-2.042047010635688z" style="fill:rgb(95,214,214)"/><path d="M16.01356785741839,29.054333252142154L17.548859631872123,-2.173612889546769L15.538759315671799,-2.676655054901379z" style="fill:rgb(169,212,212)"/><path d="M13.707618994584488,-3.4500446101277458L16.01356785741839,29.054333252142154L15.538759315671799,-2.676655054901379z" style="fill:rgb(192,205,205)"/><path d="M12.496100197915696,27.267073912891835L13.707618994584488,-3.4500446101277458L12.124951352985958,-4.465181416861145z" style="fill:rgb(212,194,194)"/><path d="M10.851391268550028,-5.68433028216647L12.496100197915696,27.267073912891835L12.124951352985958,-4.465181416861145z" style="fill:rgb(229,181,181)"/><path d="M8.706996267133608,33.26609370171963L-11.905540409976485,6.759494233940256L-12.265943901158272,38.48071237754661zM24.60843592937605,29.312428812945534L60.303930869713994,-11.760479590465419L23.87896662922439,-2.418361834804019zM3.865626880623492,26.270009287460244L9.936387394885408,-7.061880795116495L3.750703705927948,-5.462868934242891z" style="fill:rgb(83,212,212)"/><path d="M9.936387394885408,-7.061880795116495L11.18395502550731,26.04867971317801L10.851391268550028,-5.68433028216647z" style="fill:rgb(242,166,166)"/><path d="M22.69485376433773,2.5215476214548094L19.87731252251158,34.37864969957567L23.384769697826933,34.247796643409266z" style="fill:rgb(120,217,217)"/><path d="M19.29095029373263,2.65253998752971L16.408431956304646,34.039333808524056L19.87731252251158,34.37864969957567z" style="fill:rgb(145,216,216)"/><path d="M26.00967055729148,1.9245706910383165L23.384769697826933,34.247796643409266L26.80082392406917,33.6514451573009z" style="fill:rgb(95,214,214)"/><path d="M15.924240247589854,2.312863586520261L13.106804426603812,33.24196350883629L16.408431956304646,34.039333808524056z" style="fill:rgb(169,212,212)"/><path d="M9.892859178366603,1.1687348992192823L8.706996267133608,33.26609370171963L10.194002222473962,32.89637066021638z" style="fill:rgb(83,212,212)"/><path d="M13.106804426603812,33.24196350883629L11.137009633433731,0.8496404742133764L11.476132319132434,32.57758748478297z" style="fill:rgb(192,205,205)"/><path d="M10.81118065601217,0.9332077645171972L10.194002222473962,32.89637066021638L11.140354587874553,32.66107353071524zM11.137009633433731,0.8496404742133764L11.140354587874553,32.66107353071524L11.476132319132434,32.57758748478297z" style="fill:rgb(83,212,212)"/><path d="M62.16312591985649,19.974995923340757L62.300740562552754,-7.339636134643023L60.303930869713994,-11.760479590465419zM26.80082392406917,33.6514451573009L23.87896662922439,-2.418361834804019L24.60843592937605,29.312428812945534z" style="fill:rgb(247,158,158)"/><path d="M21.798873762410174,-2.042047010635688L20.262437530290303,29.770977641980803L22.464551689063306,29.688447933458733z" style="fill:rgb(120,217,217)"/><path d="M19.66206102801522,-1.9594520743020145L18.08482338715939,29.556985860902245L20.262437530290303,29.770977641980803z" style="fill:rgb(145,216,216)"/><path d="M23.87896662922439,-2.418361834804019L22.464551689063306,29.688447933458733L24.60843592937605,29.312428812945534z" style="fill:rgb(95,214,214)"/><path d="M17.548859631872123,-2.173612889546769L16.01356785741839,29.054333252142154L18.08482338715939,29.556985860902245z" style="fill:rgb(169,212,212)"/><path d="M16.01356785741839,29.054333252142154L13.707618994584488,-3.4500446101277458L14.126794190365267,28.28151452585337z" style="fill:rgb(192,205,205)"/><path d="M13.707618994584488,-3.4500446101277458L12.496100197915696,27.267073912891835L14.126794190365267,28.28151452585337z" style="fill:rgb(212,194,194)"/><path d="M12.496100197915696,27.267073912891835L10.851391268550028,-5.68433028216647L11.18395502550731,26.04867971317801z" style="fill:rgb(229,181,181)"/><path d="M9.936387394885408,-7.061880795116495L3.865626880623492,26.270009287460244L10.2413218231132,24.67187682387514z" style="fill:rgb(83,212,212)"/><path d="M11.18395502550731,26.04867971317801L9.936387394885408,-7.061880795116495L10.2413218231132,24.67187682387514z" style="fill:rgb(242,166,166)"/><path d="M60.303930869713994,-11.760479590465419L24.60843592937605,29.312428812945534L62.16312591985649,19.974995923340757z" style="fill:rgb(83,212,212)"/><path d="M62.300740562552754,-7.339636134643023L62.16312591985649,19.974995923340757L64.21318887768425,24.394258991682957z" style="fill:rgb(247,158,158)"/><path d="M20.262437530290303,29.770977641980803L19.87731252251158,34.37864969957567L23.384769697826933,34.247796643409266zM18.08482338715939,29.556985860902245L16.408431956304646,34.039333808524056L19.87731252251158,34.37864969957567zM24.60843592937605,29.312428812945534L23.384769697826933,34.247796643409266L26.80082392406917,33.6514451573009zM14.126794190365267,28.28151452585337L13.106804426603812,33.24196350883629L16.408431956304646,34.039333808524056zM20.262437530290303,29.770977641980803L23.384769697826933,34.247796643409266L22.464551689063306,29.688447933458733zM18.08482338715939,29.556985860902245L19.87731252251158,34.37864969957567L20.262437530290303,29.770977641980803zM22.464551689063306,29.688447933458733L23.384769697826933,34.247796643409266L24.60843592937605,29.312428812945534zM16.01356785741839,29.054333252142154L16.408431956304646,34.039333808524056L18.08482338715939,29.556985860902245zM37.82601240592165,26.026068267686504L26.80082392406917,33.6514451573009L29.998490658160076,32.61091686733012zM14.126794190365267,28.28151452585337L16.408431956304646,34.039333808524056L16.01356785741839,29.054333252142154zM10.2413218231132,24.67187682387514L10.095552538516907,32.015105172690085L13.106804426603812,33.24196350883629zM37.82601240592165,26.026068267686504L29.998490658160076,32.61091686733012L32.858008279731614,31.163604593202628zM26.80082392406917,33.6514451573009L37.82601240592165,26.026068267686504L24.60843592937605,29.312428812945534zM12.496100197915696,27.267073912891835L13.106804426603812,33.24196350883629L14.126794190365267,28.28151452585337zM10.2413218231132,24.67187682387514L7.488072816838017,30.402978272612323L10.095552538516907,32.015105172690085zM11.18395502550731,26.04867971317801L13.106804426603812,33.24196350883629L12.496100197915696,27.267073912891835zM37.82601240592165,26.026068267686504L32.858008279731614,31.163604593202628L35.27097921889459,29.36191335396693zM10.2413218231132,24.67187682387514L13.106804426603812,33.24196350883629L11.18395502550731,26.04867971317801zM10.2413218231132,24.67187682387514L5.384030978040521,28.46419837573629L7.488072816838017,30.402978272612323zM37.82601240592165,26.026068267686504L35.27097921889459,29.36191335396693L37.14430228309181,27.271720876657017zM5.384030978040521,28.46419837573629L10.2413218231132,24.67187682387514L3.865626880623492,26.270009287460244z" style="fill:rgb(127,37,217)"/><path d="M-5.369138437540639,-5.516817652311732L9.936387394885408,-7.061880795116495L-5.204672098492696,-37.2391002592883zM9.936387394885408,-7.061880795116495L-5.369138437540639,-5.516817652311732L10.2413218231132,24.67187682387514z" style="fill:rgb(247,158,158)"/><path d="M26.80082392406917,33.6514451573009L30.940603021784405,66.33168219059979L29.998490658160076,32.61091686733012z" style="fill:rgb(72,208,208)"/><path d="M-12.265943901158272,38.48071237754661L25.38387812907359,63.04297473726031L24.60843592937605,29.312428812945534z" style="fill:rgb(83,212,212)"/><path d="M30.940603021784405,66.33168219059979L32.858008279731614,31.163604593202628L29.998490658160076,32.61091686733012z" style="fill:rgb(50,199,199)"/><path d="M25.38387812907359,63.04297473726031L26.80082392406917,33.6514451573009L24.60843592937605,29.312428812945534z" style="fill:rgb(247,158,158)"/><path d="M32.858008279731614,31.163604593202628L36.38235527571334,63.09231535850986L35.27097921889459,29.36191335396693z" style="fill:rgb(32,187,187)"/><path d="M25.38387812907359,63.04297473726031L26.613388850030628,28.656738369636894L24.60843592937605,29.312428812945534z" style="fill:rgb(72,208,208)"/><path d="M36.38235527571334,63.09231535850986L37.14430228309181,27.271720876657017L35.27097921889459,29.36191335396693z" style="fill:rgb(17,173,173)"/><path d="M27.45256993616535,62.3891475711045L28.4035891887065,27.745552435921088L26.613388850030628,28.656738369636894z" style="fill:rgb(50,199,199)"/><path d="M-11.54434092048872,-35.54680118459309L-5.369138437540639,-5.516817652311732L-5.204672098492696,-37.2391002592883z" style="fill:rgb(83,212,212)"/><path d="M28.4035891887065,27.745552435921088L30.855935095721875,60.35066280835704L29.910815033548047,26.612615959919868z" style="fill:rgb(32,187,187)"/><path d="M37.14430228309181,27.271720876657017L39.02194894741559,59.76568485347482L37.82601240592165,26.026068267686504z" style="fill:rgb(7,157,157)"/><path d="M30.855935095721875,60.35066280835704L31.07698352182816,25.30015228084648L29.910815033548047,26.612615959919868z" style="fill:rgb(17,173,173)"/><path d="M39.02194894741559,59.76568485347482L38.16622142794618,25.941480446711505L37.82601240592165,26.026068267686504z" style="fill:rgb(83,212,212)"/><path d="M-5.369138437540639,-5.516817652311732L3.865626880623492,26.270009287460244L10.2413218231132,24.67187682387514z" style="fill:rgb(127,37,217)"/><path d="M38.16622142794618,25.941480446711505L40.36310481421071,59.44339911752092L39.12567117309891,25.702926840506596zM40.36310481421071,59.44339911752092L40.6350712442265,25.327637365846762L39.12567117309891,25.702926840506596zM25.38387812907359,63.04297473726031L-12.265943901158272,38.48071237754661L-12.648848765132579,72.18240678568476z" style="fill:rgb(83,212,212)"/><path d="M31.07698352182816,25.30015228084648L32.865821260627534,57.60265361449467L31.856405389129915,23.85742087430043z" style="fill:rgb(7,157,157)"/><path d="M30.940603021784405,66.33168219059979L26.80082392406917,33.6514451573009L27.64161723293763,67.36898790646332z" style="fill:rgb(72,208,208)"/><path d="M62.16312591985649,19.974995923340757L66.2467685364653,58.13812816622764L64.21318887768425,24.394258991682957z" style="fill:rgb(247,158,158)"/><path d="M31.856405389129915,23.85742087430043L33.240093796821704,56.08801321773704L32.2176595756441,22.339020585487845z" style="fill:rgb(1,140,140)"/><path d="M26.80082392406917,33.6514451573009L25.38387812907359,63.04297473726031L27.64161723293763,67.36898790646332z" style="fill:rgb(247,158,158)"/><path d="M38.89736285307879,20.085042139100253L40.234625604986654,56.29254943674223L38.99729504928066,22.544056093160357z" style="fill:rgb(254,132,132)"/><path d="M40.6350712442265,25.327637365846762L64.14060721686111,53.72955730063861L62.16312591985649,19.974995923340757z" style="fill:rgb(83,212,212)"/><path d="M32.858008279731614,31.163604593202628L30.940603021784405,66.33168219059979L33.89145157172679,64.88874362557561z" style="fill:rgb(50,199,199)"/><path d="M36.38235527571334,63.09231535850986L32.858008279731614,31.163604593202628L33.89145157172679,64.88874362557561z" style="fill:rgb(32,187,187)"/><path d="M38.10287284860695,17.68810031767773L40.13459569058547,53.8393520526572L38.89736285307879,20.085042139100253z" style="fill:rgb(251,149,149)"/><path d="M26.613388850030628,28.656738369636894L25.38387812907359,63.04297473726031L27.45256993616535,62.3891475711045z" style="fill:rgb(72,208,208)"/><path d="M31.639369121116992,19.308241474698256L39.31776952753518,51.447717237074365L38.10287284860695,17.68810031767773z" style="fill:rgb(83,212,212)"/><path d="M28.4035891887065,27.745552435921088L27.45256993616535,62.3891475711045L29.300050577634583,61.48050458648716z" style="fill:rgb(50,199,199)"/><path d="M37.14430228309181,27.271720876657017L36.38235527571334,63.09231535850986L38.31719934692764,61.007978280002725z" style="fill:rgb(17,173,173)"/><path d="M-5.369138437540639,-5.516817652311732L-11.54434092048872,-35.54680118459309L-11.908548895642399,-3.8224651590487135z" style="fill:rgb(83,212,212)"/><path d="M30.855935095721875,60.35066280835704L28.4035891887065,27.745552435921088L29.300050577634583,61.48050458648716z" style="fill:rgb(32,187,187)"/><path d="M3.865626880623492,26.270009287460244L-5.369138437540639,-5.516817652311732L-11.908548895642399,-3.8224651590487135z" style="fill:rgb(127,37,217)"/><path d="M39.02194894741559,59.76568485347482L37.14430228309181,27.271720876657017L38.31719934692764,61.007978280002725z" style="fill:rgb(7,157,157)"/><path d="M38.16622142794618,25.941480446711505L39.02194894741559,59.76568485347482L39.373017993707094,59.68132168271867zM40.36310481421071,59.44339911752092L38.16622142794618,25.941480446711505L39.373017993707094,59.68132168271867z" style="fill:rgb(83,212,212)"/><path d="M31.07698352182816,25.30015228084648L30.855935095721875,60.35066280835704L32.060262166476825,59.04167991438352z" style="fill:rgb(17,173,173)"/><path d="M40.6350712442265,25.327637365846762L40.36310481421071,59.44339911752092L41.920732798819216,59.06909315775585z" style="fill:rgb(83,212,212)"/><path d="M32.865821260627534,57.60265361449467L31.07698352182816,25.30015228084648L32.060262166476825,59.04167991438352z" style="fill:rgb(7,157,157)"/><path d="M64.14060721686111,53.72955730063861L40.6350712442265,25.327637365846762L41.920732798819216,59.06909315775585z" style="fill:rgb(83,212,212)"/><path d="M33.240093796821704,56.08801321773704L31.856405389129915,23.85742087430043L32.865821260627534,57.60265361449467z" style="fill:rgb(1,140,140)"/><path d="M66.2467685364653,58.13812816622764L62.16312591985649,19.974995923340757L64.14060721686111,53.72955730063861z" style="fill:rgb(247,158,158)"/><path d="M29.300050577634583,61.48050458648716L27.64161723293763,67.36898790646332L30.940603021784405,66.33168219059979z" style="fill:rgb(127,37,217)"/><path d="M40.234625604986654,56.29254943674223L38.89736285307879,20.085042139100253L40.13459569058547,53.8393520526572z" style="fill:rgb(254,132,132)"/><path d="M27.64161723293763,67.36898790646332L27.45256993616535,62.3891475711045L25.38387812907359,63.04297473726031zM27.45256993616535,62.3891475711045L27.64161723293763,67.36898790646332L29.300050577634583,61.48050458648716zM32.060262166476825,59.04167991438352L30.940603021784405,66.33168219059979L33.89145157172679,64.88874362557561zM29.300050577634583,61.48050458648716L30.940603021784405,66.33168219059979L30.855935095721875,60.35066280835704z" style="fill:rgb(127,37,217)"/><path d="M39.31776952753518,51.447717237074365L31.639369121116992,19.308241474698256L32.64653209488197,53.06431074929474z" style="fill:rgb(83,212,212)"/><path d="M40.13459569058547,53.8393520526572L38.10287284860695,17.68810031767773L39.31776952753518,51.447717237074365z" style="fill:rgb(251,149,149)"/><path d="M30.855935095721875,60.35066280835704L30.940603021784405,66.33168219059979L32.060262166476825,59.04167991438352zM32.060262166476825,59.04167991438352L33.89145157172679,64.88874362557561L32.865821260627534,57.60265361449467zM39.31776952753518,51.447717237074365L33.89145157172679,64.88874362557561L36.38235527571334,63.09231535850986zM32.865821260627534,57.60265361449467L33.89145157172679,64.88874362557561L33.240093796821704,56.08801321773704zM39.31776952753518,51.447717237074365L36.38235527571334,63.09231535850986L38.31719934692764,61.007978280002725zM39.31776952753518,51.447717237074365L33.240093796821704,56.08801321773704L33.89145157172679,64.88874362557561z" style="fill:rgb(127,37,217)"/><path d="M27.90112723329598,28.692393638385283L38.10287284860695,17.68810031767773L27.019809675231333,-5.0998445271364z" style="fill:rgb(247,158,158)"/><path d="M39.31776952753518,51.447717237074365L38.31719934692764,61.007978280002725L39.619283493403586,58.71273573028548zM40.13459569058547,53.8393520526572L39.619283493403586,58.71273573028548L40.234625604986654,56.29254943674223zM39.31776952753518,51.447717237074365L39.619283493403586,58.71273573028548L40.13459569058547,53.8393520526572z" style="fill:rgb(127,37,217)"/><path d="M38.10287284860695,17.68810031767773L27.90112723329598,28.692393638385283L39.31776952753518,51.447717237074365z" style="fill:rgb(247,158,158)"/><path d="M39.31776952753518,51.447717237074365L33.16674275989258,54.555559702850445L33.240093796821704,56.08801321773704zM33.16674275989258,54.555559702850445L39.31776952753518,51.447717237074365L32.64653209488197,53.06431074929474z" style="fill:rgb(127,37,217)"/><path d="M20.430606660466058,-3.4068396233493297L27.90112723329598,28.692393638385283L27.019809675231333,-5.0998445271364z" style="fill:rgb(83,212,212)"/><path d="M27.90112723329598,28.692393638385283L32.64653209488197,53.06431074929474L39.31776952753518,51.447717237074365z" style="fill:rgb(127,37,217)"/><path d="M27.90112723329598,28.692393638385283L20.430606660466058,-3.4068396233493297L21.095888111137025,30.384084207753975z" style="fill:rgb(83,212,212)"/><path d="M32.64653209488197,53.06431074929474L27.90112723329598,28.692393638385283L21.095888111137025,30.384084207753975z" style="fill:rgb(127,37,217)"/><path d="M-12.95209196790073,98.87261390636264L-11.20305137891278,180.87214900723143L-10.49004542359853,103.1000049698134z" style="fill:rgb(247,158,158)"/><path d="M-12.648848765132579,72.18240678568476L70.28958945704127,158.68944189383774L64.14060721686111,53.72955730063861z" style="fill:rgb(83,212,212)"/><path d="M-18.675078474811674,177.16820958581678L-15.180760442388628,99.23902385184294L-17.481735347506998,99.31944566564964z" style="fill:rgb(120,217,217)"/><path d="M-21.11843838924106,176.96386336738468L-17.481735347506998,99.31944566564964L-19.76866510996472,99.11092194540123z" style="fill:rgb(145,216,216)"/><path d="M-16.217128315180684,177.0894057321193L-12.95209196790073,98.87261390636264L-15.180760442388628,99.23902385184294z" style="fill:rgb(95,214,214)"/><path d="M-23.455604958457197,176.4838192506531L-19.76866510996472,99.11092194540123L-21.955673797482042,98.62110289027282z" style="fill:rgb(169,212,212)"/><path d="M-23.960368131345707,97.86797149667343L-23.455604958457197,176.4838192506531L-21.955673797482042,98.62110289027282z" style="fill:rgb(192,205,205)"/><path d="M64.14060721686111,53.72955730063861L72.566614543813,163.0054595847208L66.2467685364653,58.13812816622764z" style="fill:rgb(247,158,158)"/><path d="M-25.706748375326747,96.87929496459942L-25.598649483739162,175.74562669574874L-23.960368131345707,97.86797149667343z" style="fill:rgb(212,194,194)"/><path d="M-28.987413784090947,173.61210767296137L-25.706748375326747,96.87929496459942L-27.127977531736494,95.69172007148117z" style="fill:rgb(229,181,181)"/><path d="M-37.16123352900041,173.82365860680454L-28.168898083267017,94.34958633737388L-34.77802036653208,95.90745867620004z" style="fill:rgb(83,212,212)"/><path d="M-30.10261004169951,172.29599812035946L-27.127977531736494,95.69172007148117L-28.168898083267017,94.34958633737388z" style="fill:rgb(242,166,166)"/><path d="M-11.20305137891278,180.87214900723143L-12.95209196790073,98.87261390636264L-13.83667924867872,176.73030084542657z" style="fill:rgb(247,158,158)"/><path d="M-15.180760442388628,99.23902385184294L-18.675078474811674,177.16820958581678L-16.217128315180684,177.0894057321193z" style="fill:rgb(120,217,217)"/><path d="M-17.481735347506998,99.31944566564964L-21.11843838924106,176.96386336738468L-18.675078474811674,177.16820958581678z" style="fill:rgb(145,216,216)"/><path d="M70.28958945704127,158.68944189383774L-12.648848765132579,72.18240678568476L-13.83667924867872,176.73030084542657z" style="fill:rgb(83,212,212)"/><path d="M-12.95209196790073,98.87261390636264L-16.217128315180684,177.0894057321193L-13.83667924867872,176.73030084542657z" style="fill:rgb(95,214,214)"/><path d="M-19.76866510996472,99.11092194540123L-23.455604958457197,176.4838192506531L-21.11843838924106,176.96386336738468z" style="fill:rgb(169,212,212)"/><path d="M-23.455604958457197,176.4838192506531L-23.960368131345707,97.86797149667343L-25.598649483739162,175.74562669574874z" style="fill:rgb(192,205,205)"/><path d="M-25.598649483739162,175.74562669574874L-25.706748375326747,96.87929496459942L-27.466405299448095,174.77645106568272z" style="fill:rgb(212,194,194)"/><path d="M-25.706748375326747,96.87929496459942L-28.987413784090947,173.61210767296137L-27.466405299448095,174.77645106568272z" style="fill:rgb(229,181,181)"/><path d="M-64.40768932667055,33.51433783343431L-30.10261004169951,172.29599812035946L-28.168898083267017,94.34958633737388z" style="fill:rgb(247,158,158)"/><path d="M-27.127977531736494,95.69172007148117L-30.10261004169951,172.29599812035946L-28.987413784090947,173.61210767296137z" style="fill:rgb(242,166,166)"/><path d="M-28.168898083267017,94.34958633737388L-37.16123352900041,173.82365860680454L-30.10261004169951,172.29599812035946z" style="fill:rgb(83,212,212)"/><path d="M72.566614543813,163.0054595847208L64.14060721686111,53.72955730063861L70.28958945704127,158.68944189383774z" style="fill:rgb(247,158,158)"/><path d="M-18.675078474811674,177.16820958581678L-18.907227915687205,181.56588851332924L-14.994337109603826,181.4410775715361zM-21.11843838924106,176.96386336738468L-22.79734426053477,181.24221477907753L-18.907227915687205,181.56588851332924zM-13.83667924867872,176.73030084542657L-14.994337109603826,181.4410775715361L-11.20305137891278,180.87214900723143zM-25.598649483739162,175.74562669574874L-26.52101474891641,180.48146172337218L-22.79734426053477,181.24221477907753zM-18.675078474811674,177.16820958581678L-14.994337109603826,181.4410775715361L-16.217128315180684,177.0894057321193zM-21.11843838924106,176.96386336738468L-18.907227915687205,181.56588851332924L-18.675078474811674,177.16820958581678zM-16.217128315180684,177.0894057321193L-14.994337109603826,181.4410775715361L-13.83667924867872,176.73030084542657zM-23.455604958457197,176.4838192506531L-22.79734426053477,181.24221477907753L-21.11843838924106,176.96386336738468zM-25.598649483739162,175.74562669574874L-22.79734426053477,181.24221477907753L-23.455604958457197,176.4838192506531zM-30.10261004169951,172.29599812035946L-29.939934171017224,179.3106680491186L-26.52101474891641,180.48146172337218zM-27.466405299448095,174.77645106568272L-26.52101474891641,180.48146172337218L-25.598649483739162,175.74562669574874zM-30.10261004169951,172.29599812035946L-32.925766108406776,177.77169770705638L-29.939934171017224,179.3106680491186zM-28.987413784090947,173.61210767296137L-26.52101474891641,180.48146172337218L-27.466405299448095,174.77645106568272zM-30.10261004169951,172.29599812035946L-26.52101474891641,180.48146172337218L-28.987413784090947,173.61210767296137zM-30.10261004169951,172.29599812035946L-35.364609949387116,175.92013511052917L-32.925766108406776,177.77169770705638zM-35.364609949387116,175.92013511052917L-30.10261004169951,172.29599812035946L-37.16123352900041,173.82365860680454zM-11.20305137891278,180.87214900723143L70.28958945704127,158.68944189383774L-13.83667924867872,176.73030084542657zM70.28958945704127,158.68944189383774L-11.20305137891278,180.87214900723143L72.566614543813,163.0054595847208z" style="fill:rgb(127,37,217)"/><path d="M-76.60492259532874,114.11568038878703L-64.40768932667055,33.51433783343431L-71.37713374722797,35.27857208110835z" style="fill:rgb(83,212,212)"/><path d="M-30.10261004169951,172.29599812035946L-64.40768932667055,33.51433783343431L-69.1339019255632,112.37035847126471z" style="fill:rgb(247,158,158)"/><path d="M-69.1339019255632,112.37035847126471L-37.16123352900041,173.82365860680454L-30.10261004169951,172.29599812035946z" style="fill:rgb(127,37,217)"/><path d="M-64.40768932667055,33.51433783343431L-76.60492259532874,114.11568038878703L-69.1339019255632,112.37035847126471z" style="fill:rgb(83,212,212)"/><path d="M-37.16123352900041,173.82365860680454L-69.1339019255632,112.37035847126471L-76.60492259532874,114.11568038878703z" style="fill:rgb(127,37,217)"/></svg>
