<?xml version="1.0" encoding="UTF-8"?>
<!-- Generated by jsxcad -->
<!DOCTYPE svg PUBLIC "-//W3C//DTD SVG 1.1 Tiny//EN" "http://www.w3.org/Graphics/SVG/1.1/DTD/svg11-tiny.dtd">
<svg viewBox="-250 -250 500 500" width="500" height="500" xmlns="http://www.w3.org/2000/svg"><path d="M-37.01320951531372,-76.70004732041208L92.35321596021427,77.54471275520795L76.99423654425132,-108.49641486425277z" style="fill:rgb(83,212,212)"/><path d="M76.99423654425132,-108.49641486425277L94.01013663006508,81.14452734924748L78.42430482084065,-104.91386312756563zM-40.03436735881435,2.019283818314254L-42.057692818668905,112.7054283998054L-38.14722132355267,5.424496345376831z" style="fill:rgb(247,158,158)"/><path d="M-51.41668119284452,110.04961586545859L-43.27038720433182,2.608761283642024L-46.62362787646257,2.7381091207909933z" style="fill:rgb(120,217,217)"/><path d="M-49.96962439811769,2.402697732088141L-51.41668119284452,110.04961586545859L-46.62362787646257,2.7381091207909933z" style="fill:rgb(145,216,216)"/><path d="M-43.27038720433182,2.608761283642024L-44.15316552761309,109.33873963662867L-40.03436735881435,2.019283818314254z" style="fill:rgb(95,214,214)"/><path d="M-53.18409511260248,1.6145397724926105L-55.10848575911523,109.71792468315955L-49.96962439811769,2.402697732088141z" style="fill:rgb(169,212,212)"/><path d="M-61.93349965097067,107.73891092011961L-53.18409511260248,1.6145397724926105L-56.14708641886845,0.4019559303905622z" style="fill:rgb(192,205,205)"/><path d="M-58.74704976392513,-1.1912240919300028L-61.93349965097067,107.73891092011961L-56.14708641886845,0.4019559303905622z" style="fill:rgb(212,194,194)"/><path d="M-67.18275942005737,104.26623047550139L-58.74704976392513,-1.1912240919300028L-60.88475582735211,-3.1069386124086735z" style="fill:rgb(229,181,181)"/><path d="M-68.95452281303328,102.1196733143687L-60.88475582735211,-3.1069386124086735L-62.47701329533494,-5.27465399120838z" style="fill:rgb(242,166,166)"/><path d="M-67.27037342400406,-4.015190702215658L-68.95452281303328,102.1196733143687L-62.47701329533494,-5.27465399120838zM92.35321596021427,77.54471275520795L-37.01320951531372,-76.70004732041208L-44.15316552761309,109.33873963662867z" style="fill:rgb(83,212,212)"/><path d="M-42.057692818668905,112.7054283998054L-40.03436735881435,2.019283818314254L-44.15316552761309,109.33873963662867z" style="fill:rgb(247,158,158)"/><path d="M-43.27038720433182,2.608761283642024L-51.41668119284452,110.04961586545859L-47.71932799624971,109.92170702808994z" style="fill:rgb(120,217,217)"/><path d="M-51.41668119284452,110.04961586545859L-49.96962439811769,2.402697732088141L-55.10848575911523,109.71792468315955z" style="fill:rgb(145,216,216)"/><path d="M-44.15316552761309,109.33873963662867L-43.27038720433182,2.608761283642024L-47.71932799624971,109.92170702808994z" style="fill:rgb(95,214,214)"/><path d="M-55.10848575911523,109.71792468315955L-53.18409511260248,1.6145397724926105L-58.65810712015332,108.93841902929091z" style="fill:rgb(169,212,212)"/><path d="M-53.18409511260248,1.6145397724926105L-61.93349965097067,107.73891092011961L-58.65810712015332,108.93841902929091z" style="fill:rgb(192,205,205)"/><path d="M-61.93349965097067,107.73891092011961L-58.74704976392513,-1.1912240919300028L-64.81163114820623,106.16246834943108z" style="fill:rgb(212,194,194)"/><path d="M-58.74704976392513,-1.1912240919300028L-67.18275942005737,104.26623047550139L-64.81163114820623,106.16246834943108z" style="fill:rgb(229,181,181)"/><path d="M-60.88475582735211,-3.1069386124086735L-68.95452281303328,102.1196733143687L-67.18275942005737,104.26623047550139z" style="fill:rgb(242,166,166)"/><path d="M-68.95452281303328,102.1196733143687L-67.27037342400406,-4.015190702215658L-74.23559062464392,103.36695689962836z" style="fill:rgb(83,212,212)"/><path d="M94.01013663006508,81.14452734924748L76.99423654425132,-108.49641486425277L92.35321596021427,77.54471275520795z" style="fill:rgb(247,158,158)"/><path d="M-51.41668119284452,110.04961586545859L-51.46611796697804,113.6227058254415L-46.67781029388932,113.45768847280286zM-55.10848575911523,109.71792468315955L-56.24757408752541,113.19475751195596L-51.46611796697804,113.6227058254415zM-44.15316552761309,109.33873963662867L-46.67781029388932,113.45768847280286L-42.057692818668905,112.7054283998054zM-58.65810712015332,108.93841902929091L-60.84723258893392,112.18870021250825L-56.24757408752541,113.19475751195596zM-51.41668119284452,110.04961586545859L-46.67781029388932,113.45768847280286L-47.71932799624971,109.92170702808994zM-55.10848575911523,109.71792468315955L-51.46611796697804,113.6227058254415L-51.41668119284452,110.04961586545859zM-47.71932799624971,109.92170702808994L-46.67781029388932,113.45768847280286L-44.15316552761309,109.33873963662867zM-58.65810712015332,108.93841902929091L-56.24757408752541,113.19475751195596L-55.10848575911523,109.71792468315955zM-64.81163114820623,106.16246834943108L-65.09567051883093,110.63960090278519L-60.84723258893392,112.18870021250825zM-61.93349965097067,107.73891092011961L-60.84723258893392,112.18870021250825L-58.65810712015332,108.93841902929091zM-64.81163114820623,106.16246834943108L-60.84723258893392,112.18870021250825L-61.93349965097067,107.73891092011961zM-68.95452281303328,102.1196733143687L-68.83439948917761,108.60192056001553L-65.09567051883093,110.63960090278519zM-67.18275942005737,104.26623047550139L-65.09567051883093,110.63960090278519L-64.81163114820623,106.16246834943108zM-68.95452281303328,102.1196733143687L-65.09567051883093,110.63960090278519L-67.18275942005737,104.26623047550139zM-68.95452281303328,102.1196733143687L-71.92126028620443,106.14817201946745L-68.83439948917761,108.60192056001553zM-71.92126028620443,106.14817201946745L-68.95452281303328,102.1196733143687L-74.23559062464392,103.36695689962836zM-42.057692818668905,112.7054283998054L92.35321596021427,77.54471275520795L-44.15316552761309,109.33873963662867zM92.35321596021427,77.54471275520795L-42.057692818668905,112.7054283998054L94.01013663006508,81.14452734924748z" style="fill:rgb(127,37,217)"/><path d="M-23.809643883510592,104.60048062112227L-22.96019106075112,170.41284078617528L-21.777406582970908,108.00141906063497zM-53.01882634942161,123.57222491525228L-22.639149031848024,48.276409309403675L-47.57331247080059,3.9481122918174707z" style="fill:rgb(247,158,158)"/><path d="M-52.833191834145666,5.312874825021533L-53.01882634942161,123.57222491525228L-47.57331247080059,3.9481122918174707z" style="fill:rgb(83,212,212)"/><path d="M-22.96019106075112,170.41284078617528L-23.809643883510592,104.60048062112227L-25.107772114887762,167.06625383822285zM-22.639149031848024,48.276409309403675L-53.01882634942161,123.57222491525228L-25.107772114887762,167.06625383822285z" style="fill:rgb(247,158,158)"/><path d="M-25.107772114887762,167.06625383822285L-28.556846483386497,171.62456453157245L-22.96019106075112,170.41284078617528zM-28.556846483386497,171.62456453157245L-25.107772114887762,167.06625383822285L-30.722899564010078,168.28728377115294z" style="fill:rgb(127,37,217)"/><path d="M-53.01882634942161,123.57222491525228L-52.833191834145666,5.312874825021533L-58.87191812361659,124.91765265043364z" style="fill:rgb(83,212,212)"/><path d="M-53.01882634942161,123.57222491525228L-30.722899564010078,168.28728377115294L-25.107772114887762,167.06625383822285zM-30.722899564010078,168.28728377115294L-53.01882634942161,123.57222491525228L-58.87191812361659,124.91765265043364z" style="fill:rgb(127,37,217)"/></svg>
