<?xml version="1.0" encoding="UTF-8"?>
<!-- Generated by jsxcad -->
<!DOCTYPE svg PUBLIC "-//W3C//DTD SVG 1.1 Tiny//EN" "http://www.w3.org/Graphics/SVG/1.1/DTD/svg11-tiny.dtd">
<svg viewBox="-250 -250 500 500" width="500" height="500" xmlns="http://www.w3.org/2000/svg"><path d="M7.209769214887455,-27.445791536240613L8.195679853283897,-51.961457525597815L7.035735009351339,-51.91445195996493z" style="fill:rgb(120,217,217)"/><path d="M6.032357555771417,-27.567881721788726L7.035735009351339,-51.91445195996493L5.886728240998448,-52.03632395624399z" style="fill:rgb(145,216,216)"/><path d="M8.195679853283897,-51.961457525597815L9.55317005922109,-27.707383852664933L9.32251421682478,-52.17557148973475z" style="fill:rgb(95,214,214)"/><path d="M4.910894822688851,-27.854572780093466L5.886728240998448,-52.03632395624399L4.792308139884225,-52.322495352727756z" style="fill:rgb(169,212,212)"/><path d="M-9.727643251476698,-85.21516098007659L31.77723867369392,38.57907359863564L27.825271229288543,-95.6969922507383z" style="fill:rgb(83,212,212)"/><path d="M3.888046231117798,-28.295099369429725L4.792308139884225,-52.322495352727756L3.7941212033842495,-52.76221563675564z" style="fill:rgb(192,205,205)"/><path d="M3.0028514958830033,-28.872888498580565L3.7941212033842495,-52.76221563675564L2.9302722525645333,-53.33893241327897z" style="fill:rgb(212,194,194)"/><path d="M2.2339006170985787,-54.03087715400454L3.0028514958830033,-28.872888498580565L2.9302722525645333,-53.33893241327897z" style="fill:rgb(229,181,181)"/><path d="M-2.7979558735393106,-29.13782433939699L1.731915393330873,-54.81184186002101L-2.7303126337726997,-53.60337444381551z" style="fill:rgb(83,212,212)"/><path d="M1.7748719575817355,-30.34859606670535L2.2339006170985787,-54.03087715400454L1.731915393330873,-54.81184186002101z" style="fill:rgb(242,166,166)"/><path d="M31.77723867369392,38.57907359863564L29.30550613606559,-92.38478243361098L27.825271229288543,-95.6969922507383z" style="fill:rgb(247,158,158)"/><path d="M8.195679853283897,-51.961457525597815L7.209769214887455,-27.445791536240613L8.39841513528789,-27.492879893267858z" style="fill:rgb(120,217,217)"/><path d="M7.035735009351339,-51.91445195996493L6.032357555771417,-27.567881721788726L7.209769214887455,-27.445791536240613z" style="fill:rgb(145,216,216)"/><path d="M9.55317005922109,-27.707383852664933L8.195679853283897,-51.961457525597815L8.39841513528789,-27.492879893267858z" style="fill:rgb(95,214,214)"/><path d="M5.886728240998448,-52.03632395624399L4.910894822688851,-27.854572780093466L6.032357555771417,-27.567881721788726z" style="fill:rgb(169,212,212)"/><path d="M4.792308139884225,-52.322495352727756L3.888046231117798,-28.295099369429725L4.910894822688851,-27.854572780093466z" style="fill:rgb(192,205,205)"/><path d="M3.7941212033842495,-52.76221563675564L3.0028514958830033,-28.872888498580565L3.888046231117798,-28.295099369429725z" style="fill:rgb(212,194,194)"/><path d="M3.0028514958830033,-28.872888498580565L2.2339006170985787,-54.03087715400454L2.2892674357252236,-29.56613775139111z" style="fill:rgb(229,181,181)"/><path d="M2.2339006170985787,-54.03087715400454L1.7748719575817355,-30.34859606670535L2.2892674357252236,-29.56613775139111z" style="fill:rgb(242,166,166)"/><path d="M1.731915393330873,-54.81184186002101L-2.7979558735393106,-29.13782433939699L1.7748719575817355,-30.34859606670535z" style="fill:rgb(83,212,212)"/><path d="M-6.6561559028220785,-47.26301690794175L1.731915393330873,-54.81184186002101L-6.492579794842255,-71.68713189061297z" style="fill:rgb(247,158,158)"/><path d="M7.209769214887455,-27.445791536240613L1.0112537013698915,-25.4555928434989L8.39841513528789,-27.492879893267858zM6.032357555771417,-27.567881721788726L1.0112537013698915,-25.4555928434989L7.209769214887455,-27.445791536240613zM8.39841513528789,-27.492879893267858L1.0112537013698915,-25.4555928434989L9.55317005922109,-27.707383852664933zM4.910894822688851,-27.854572780093466L1.0112537013698915,-25.4555928434989L6.032357555771417,-27.567881721788726zM3.888046231117798,-28.295099369429725L1.0112537013698915,-25.4555928434989L4.910894822688851,-27.854572780093466z" style="fill:rgb(127,37,217)"/><path d="M1.731915393330873,-54.81184186002101L-6.6561559028220785,-47.26301690794175L1.7748719575817355,-30.34859606670535z" style="fill:rgb(247,158,158)"/><path d="M1.7748719575817355,-30.34859606670535L-0.5812057866765071,-26.490455152466797L1.0112537013698915,-25.4555928434989zM3.0028514958830033,-28.872888498580565L1.0112537013698915,-25.4555928434989L3.888046231117798,-28.295099369429725zM2.2892674357252236,-29.56613775139111L1.0112537013698915,-25.4555928434989L3.0028514958830033,-28.872888498580565zM1.7748719575817355,-30.34859606670535L-1.867630369460114,-27.733394647799376L-0.5812057866765071,-26.490455152466797zM1.7748719575817355,-30.34859606670535L1.0112537013698915,-25.4555928434989L2.2892674357252236,-29.56613775139111z" style="fill:rgb(127,37,217)"/><path d="M-11.291386640392663,-46.01375589387455L-6.492579794842255,-71.68713189061297L-11.014209556140749,-70.44120142445003z" style="fill:rgb(83,212,212)"/><path d="M-1.867630369460114,-27.733394647799376L1.7748719575817355,-30.34859606670535L-2.7979558735393106,-29.13782433939699zM-6.6561559028220785,-47.26301690794175L-2.7979558735393106,-29.13782433939699L1.7748719575817355,-30.34859606670535z" style="fill:rgb(127,37,217)"/><path d="M9.55317005922109,-27.707383852664933L10.899924257190808,-2.371839986925657L10.630146120250403,-28.08124949593397z" style="fill:rgb(72,208,208)"/><path d="M10.630146120250403,-28.08124949593397L11.882548111590204,-2.891406614345334L11.588306856364321,-28.60042990591361z" style="fill:rgb(50,199,199)"/><path d="M-6.492579794842255,-71.68713189061297L-11.291386640392663,-46.01375589387455L-6.6561559028220785,-47.26301690794175z" style="fill:rgb(83,212,212)"/><path d="M11.588306856364321,-28.60042990591361L12.705809883362443,-3.536834319692585L12.390993017624629,-29.24536124422395z" style="fill:rgb(32,187,187)"/><path d="M12.390993017624629,-29.24536124422395L13.338014495010018,-4.2837341146498495L13.00730288199599,-29.9916581435225z" style="fill:rgb(17,173,173)"/><path d="M13.338014495010018,-4.2837341146498495L13.413289117709777,-30.811004804426865L13.00730288199599,-29.9916581435225z" style="fill:rgb(7,157,157)"/><path d="M13.75459033709975,-5.103770572715036L13.592918858121402,-31.672168039438503L13.413289117709777,-30.811004804426865z" style="fill:rgb(1,140,140)"/><path d="M-2.7979558735393106,-29.13782433939699L-6.6561559028220785,-47.26301690794175L-11.291386640392663,-46.01375589387455z" style="fill:rgb(127,37,217)"/><path d="M18.370855589810613,-33.08378980138633L18.93135967012312,-5.810605172671545L18.46129468048652,-31.51721761058815z" style="fill:rgb(254,132,132)"/><path d="M13.590354791559324,-7.682685886560448L17.86153972631816,-34.607949219126L13.252318623243264,-33.38754133625843z" style="fill:rgb(83,212,212)"/><path d="M18.317677088566796,-8.904331301895622L18.370855589810613,-33.08378980138633L17.86153972631816,-34.607949219126z" style="fill:rgb(251,149,149)"/><path d="M10.899924257190808,-2.371839986925657L9.55317005922109,-27.707383852664933L9.795529145432797,-1.9977018929344552z" style="fill:rgb(72,208,208)"/><path d="M11.882548111590204,-2.891406614345334L10.630146120250403,-28.08124949593397L10.899924257190808,-2.371839986925657z" style="fill:rgb(50,199,199)"/><path d="M12.705809883362443,-3.536834319692585L11.588306856364321,-28.60042990591361L11.882548111590204,-2.891406614345334z" style="fill:rgb(32,187,187)"/><path d="M13.338014495010018,-4.2837341146498495L12.390993017624629,-29.24536124422395L12.705809883362443,-3.536834319692585z" style="fill:rgb(17,173,173)"/><path d="M13.413289117709777,-30.811004804426865L13.338014495010018,-4.2837341146498495L13.75459033709975,-5.103770572715036z" style="fill:rgb(7,157,157)"/><path d="M13.592918858121402,-31.672168039438503L13.75459033709975,-5.103770572715036L13.939075557502855,-5.9656937438946525z" style="fill:rgb(1,140,140)"/><path d="M18.93135967012312,-5.810605172671545L18.370855589810613,-33.08378980138633L18.83931815467972,-7.378636463258078z" style="fill:rgb(254,132,132)"/><path d="M18.370855589810613,-33.08378980138633L18.317677088566796,-8.904331301895622L18.83931815467972,-7.378636463258078z" style="fill:rgb(251,149,149)"/><path d="M17.86153972631816,-34.607949219126L13.590354791559324,-7.682685886560448L18.317677088566796,-8.904331301895622z" style="fill:rgb(83,212,212)"/><path d="M-10.495504410062056,-9.760129482567603L-9.294605109340031,52.387418229848976L-8.794176913133759,-6.487623705230562z" style="fill:rgb(247,158,158)"/><path d="M31.77723867369392,38.57907359863564L-9.727643251476698,-85.21516098007659L-11.094717179764878,49.12241467835266z" style="fill:rgb(83,212,212)"/><path d="M12.534695474834786,-2.702386524527352L10.899924257190808,-2.371839986925657L9.795529145432797,-1.9977018929344552z" style="fill:rgb(127,37,217)"/><path d="M9.901830123054038,-25.979199042394917L17.86153972631816,-34.607949219126L9.651353244779692,-51.658137219642825z" style="fill:rgb(247,158,158)"/><path d="M10.899924257190808,-2.371839986925657L12.534695474834786,-2.702386524527352L12.671690144967357,-2.9720649511650943zM12.671690144967357,-2.9720649511650943L11.882548111590204,-2.891406614345334L10.899924257190808,-2.371839986925657z" style="fill:rgb(127,37,217)"/><path d="M-13.585046689521135,49.38099078769358L-11.65485610052352,-9.547646902191602L-12.851514961051421,-9.501001704419226z" style="fill:rgb(120,217,217)"/><path d="M-14.040053677996047,-9.62194206832688L-13.585046689521135,49.38099078769358L-12.851514961051421,-9.501001704419226z" style="fill:rgb(145,216,216)"/><path d="M11.882548111590204,-2.891406614345334L12.671690144967357,-2.9720649511650943L12.905481724110022,-3.4322869156712166z" style="fill:rgb(127,37,217)"/><path d="M-12.320116777850894,49.33444853647997L-10.495504410062056,-9.760129482567603L-11.65485610052352,-9.547646902191602z" style="fill:rgb(95,214,214)"/><path d="M12.705809883362443,-3.536834319692585L11.882548111590204,-2.891406614345334L12.38386236150932,-3.1564785352699785z" style="fill:rgb(127,37,217)"/><path d="M-16.041864957190995,48.97692184576802L-14.040053677996047,-9.62194206832688L-15.175342348457802,-9.90593207815073z" style="fill:rgb(169,212,212)"/><path d="M12.905481724110022,-3.4322869156712166L12.705809883362443,-3.536834319692585L12.38386236150932,-3.1564785352699785zM15.089610121525501,-3.3596701411862897L13.338014495010018,-4.2837341146498495L12.534695474834786,-2.702386524527352zM12.705809883362443,-3.536834319692585L12.905481724110022,-3.4322869156712166L13.338014495010018,-4.2837341146498495z" style="fill:rgb(127,37,217)"/><path d="M-17.140441417279526,48.54144829292706L-15.175342348457802,-9.90593207815073L-16.21419347657876,-10.342312550825334z" style="fill:rgb(192,205,205)"/><path d="M13.338014495010018,-4.2837341146498495L15.089610121525501,-3.3596701411862897L13.75459033709975,-5.103770572715036z" style="fill:rgb(127,37,217)"/><path d="M-18.095346816885144,47.97024870494579L-16.21419347657876,-10.342312550825334L-17.11696488652099,-10.914665109495306z" style="fill:rgb(212,194,194)"/><path d="M-17.849032681286587,-11.601398866284093L-18.095346816885144,47.97024870494579L-17.11696488652099,-10.914665109495306z" style="fill:rgb(229,181,181)"/><path d="M13.75459033709975,-5.103770572715036L15.089610121525501,-3.3596701411862897L14.188508503368249,-5.957945241694797z" style="fill:rgb(127,37,217)"/><path d="M-24.279371122891114,47.70832467248924L-18.382112697793694,-12.376511269142233L-22.96630313989177,-11.177110126745388z" style="fill:rgb(83,212,212)"/><path d="M18.317677088566796,-8.904331301895622L15.089610121525501,-3.3596701411862897L18.59219410158385,-4.260753841428376zM13.9672098318511,-5.522316581316209L13.939075557502855,-5.9656937438946525L13.75459033709975,-5.103770572715036z" style="fill:rgb(127,37,217)"/><path d="M-19.434351679412966,46.51119560656821L-17.849032681286587,-11.601398866284093L-18.382112697793694,-12.376511269142233z" style="fill:rgb(242,166,166)"/><path d="M14.188508503368249,-5.957945241694797L13.939075557502855,-5.9656937438946525L13.9672098318511,-5.522316581316209zM18.83931815467972,-7.378636463258078L18.59219410158385,-4.260753841428376L18.93135967012312,-5.810605172671545z" style="fill:rgb(127,37,217)"/><path d="M17.86153972631816,-34.607949219126L9.901830123054038,-25.979199042394917L18.317677088566796,-8.904331301895622z" style="fill:rgb(247,158,158)"/><path d="M13.8838181505906,-6.836501248308135L13.939075557502855,-5.9656937438946525L14.188508503368249,-5.957945241694797z" style="fill:rgb(127,37,217)"/><path d="M29.30550613606559,-92.38478243361098L31.77723867369392,38.57907359863564L33.453869850620926,41.913703700659866z" style="fill:rgb(247,158,158)"/><path d="M18.317677088566796,-8.904331301895622L13.8838181505906,-6.836501248308135L15.089610121525501,-3.3596701411862897zM18.317677088566796,-8.904331301895622L18.59219410158385,-4.260753841428376L18.83931815467972,-7.378636463258078z" style="fill:rgb(127,37,217)"/><path d="M5.107701843641878,-24.717539590667137L9.651353244779692,-51.658137219642825L4.978646184715256,-50.39877143693368z" style="fill:rgb(83,212,212)"/><path d="M13.8838181505906,-6.836501248308135L18.317677088566796,-8.904331301895622L13.590354791559324,-7.682685886560448zM9.901830123054038,-25.979199042394917L13.590354791559324,-7.682685886560448L18.317677088566796,-8.904331301895622z" style="fill:rgb(127,37,217)"/><path d="M9.651353244779692,-51.658137219642825L5.107701843641878,-24.717539590667137L9.901830123054038,-25.979199042394917z" style="fill:rgb(83,212,212)"/><path d="M-38.620034839555686,-50.84595166587662L-19.434351679412966,46.51119560656821L-18.382112697793694,-12.376511269142233z" style="fill:rgb(247,158,158)"/><path d="M13.590354791559324,-7.682685886560448L9.901830123054038,-25.979199042394917L5.107701843641878,-24.717539590667137z" style="fill:rgb(127,37,217)"/><path d="M-9.294605109340031,52.387418229848976L-10.495504410062056,-9.760129482567603L-11.094717179764878,49.12241467835266z" style="fill:rgb(247,158,158)"/><path d="M-11.65485610052352,-9.547646902191602L-13.585046689521135,49.38099078769358L-12.320116777850894,49.33444853647997z" style="fill:rgb(120,217,217)"/><path d="M-13.585046689521135,49.38099078769358L-14.040053677996047,-9.62194206832688L-14.841521614637964,49.26031190335936z" style="fill:rgb(145,216,216)"/><path d="M-10.495504410062056,-9.760129482567603L-12.320116777850894,49.33444853647997L-11.094717179764878,49.12241467835266z" style="fill:rgb(95,214,214)"/><path d="M-14.040053677996047,-9.62194206832688L-16.041864957190995,48.97692184576802L-14.841521614637964,49.26031190335936z" style="fill:rgb(169,212,212)"/><path d="M-15.175342348457802,-9.90593207815073L-17.140441417279526,48.54144829292706L-16.041864957190995,48.97692184576802z" style="fill:rgb(192,205,205)"/><path d="M-16.21419347657876,-10.342312550825334L-18.095346816885144,47.97024870494579L-17.140441417279526,48.54144829292706z" style="fill:rgb(212,194,194)"/><path d="M-18.095346816885144,47.97024870494579L-17.849032681286587,-11.601398866284093L-18.86996236879083,47.284855879522915z" style="fill:rgb(229,181,181)"/><path d="M-17.849032681286587,-11.601398866284093L-19.434351679412966,46.51119560656821L-18.86996236879083,47.284855879522915z" style="fill:rgb(242,166,166)"/><path d="M-18.382112697793694,-12.376511269142233L-24.279371122891114,47.70832467248924L-19.434351679412966,46.51119560656821z" style="fill:rgb(83,212,212)"/><path d="M-13.585046689521135,49.38099078769358L-13.76236758924238,52.849704038980974L-11.493384226620911,52.76650083558633zM-16.041864957190995,48.97692184576802L-16.01637216611225,52.633969603313496L-13.76236758924238,52.849704038980974zM-11.094717179764878,49.12241467835266L-11.493384226620911,52.76650083558633L-9.294605109340031,52.387418229848976zM-18.095346816885144,47.97024870494579L-18.17073311318804,52.127215317537186L-16.01637216611225,52.633969603313496zM-14.841521614637964,49.26031190335936L-13.76236758924238,52.849704038980974L-13.585046689521135,49.38099078769358zM-13.585046689521135,49.38099078769358L-11.493384226620911,52.76650083558633L-12.320116777850894,49.33444853647997zM-12.320116777850894,49.33444853647997L-11.493384226620911,52.76650083558633L-11.094717179764878,49.12241467835266zM-16.041864957190995,48.97692184576802L-13.76236758924238,52.849704038980974L-14.841521614637964,49.26031190335936zM-17.140441417279526,48.54144829292706L-16.01637216611225,52.633969603313496L-16.041864957190995,48.97692184576802zM-19.434351679412966,46.51119560656821L-20.144260124413577,51.34805928590149L-18.17073311318804,52.127215317537186zM-18.095346816885144,47.97024870494579L-16.01637216611225,52.633969603313496L-17.140441417279526,48.54144829292706zM-19.434351679412966,46.51119560656821L-21.862117611072268,50.32524203389513L-20.144260124413577,51.34805928590149zM-18.86996236879083,47.284855879522915L-18.17073311318804,52.127215317537186L-18.095346816885144,47.97024870494579zM-19.434351679412966,46.51119560656821L-23.258554378062325,49.096701041517946L-21.862117611072268,50.32524203389513zM-19.434351679412966,46.51119560656821L-18.17073311318804,52.127215317537186L-18.86996236879083,47.284855879522915zM-23.258554378062325,49.096701041517946L-19.434351679412966,46.51119560656821L-24.279371122891114,47.70832467248924z" style="fill:rgb(127,37,217)"/><path d="M-45.921544218314494,9.32325772382417L-38.620034839555686,-50.84595166587662L-43.34748684517785,-49.55744326342024z" style="fill:rgb(83,212,212)"/><path d="M-9.294605109340031,52.387418229848976L31.77723867369392,38.57907359863564L-11.094717179764878,49.12241467835266zM31.77723867369392,38.57907359863564L-9.294605109340031,52.387418229848976L33.453869850620926,41.913703700659866z" style="fill:rgb(127,37,217)"/><path d="M-19.434351679412966,46.51119560656821L-38.620034839555686,-50.84595166587662L-40.916236244448385,8.03180992172477z" style="fill:rgb(247,158,158)"/><path d="M-14.981091411047254,54.0150347609751L-13.073334684067277,74.74410154876404L-2.6374465992289293,48.03665539302329zM-2.6374465992289293,48.03665539302329L2.1588164018689917,66.02272670450742L10.227994197232139,43.87860169185924zM-26.399693511613368,61.61632281308443L-24.870739839332355,87.00031301754511L-14.981091411047254,54.0150347609751zM10.227994197232139,43.87860169185924L18.71091424250351,62.0345483310353L23.19443798668066,41.69026528494197z" style="fill:rgb(83,212,212)"/><path d="M-40.916236244448385,8.03180992172477L-24.279371122891114,47.70832467248924L-19.434351679412966,46.51119560656821z" style="fill:rgb(127,37,217)"/><path d="M-2.6374465992289293,48.03665539302329L-5.76128694716571,69.85417282814532L2.1588164018689917,66.02272670450742zM-2.6374465992289293,48.03665539302329L-13.073334684067277,74.74410154876404L-5.76128694716571,69.85417282814532zM-14.981091411047254,54.0150347609751L-19.520514690993686,80.52518309829114L-13.073334684067277,74.74410154876404zM10.227994197232139,43.87860169185924L2.1588164018689917,66.02272670450742L10.41186451464122,63.38373858706103zM23.19443798668066,41.69026528494197L26.763951734502708,62.03279889128512L35.82978604425199,41.568920405387594zM10.227994197232139,43.87860169185924L10.41186451464122,63.38373858706103L18.71091424250351,62.0345483310353zM-14.981091411047254,54.0150347609751L-24.870739839332355,87.00031301754511L-19.520514690993686,80.52518309829114zM-32.53000483847949,108.26322836499791L-26.399693511613368,61.61632281308443L-36.51353133110362,70.59828377855477z" style="fill:rgb(83,212,212)"/><path d="M2.1588164018689917,66.02272670450742L-3.9402642560875303,73.1199378664603L3.9536152607599133,69.30209128314547z" style="fill:rgb(162,50,222)"/><path d="M-5.76128694716571,69.85417282814532L-11.225866987214848,77.99672431461143L-3.9402642560875303,73.1199378664603z" style="fill:rgb(183,62,221)"/><path d="M10.41186451464122,63.38373858706103L3.9536152607599133,69.30209128314547L12.181475522012668,66.67673154103666z" style="fill:rgb(139,40,220)"/><path d="M-3.9402642560875303,73.1199378664603L2.1588164018689917,66.02272670450742L-5.76128694716571,69.85417282814532z" style="fill:rgb(162,50,222)"/><path d="M-11.225866987214848,77.99672431461143L-5.76128694716571,69.85417282814532L-13.073334684067277,74.74410154876404z" style="fill:rgb(183,62,221)"/><path d="M3.9536152607599133,69.30209128314547L10.41186451464122,63.38373858706103L2.1588164018689917,66.02272670450742z" style="fill:rgb(139,40,220)"/><path d="M-38.620034839555686,-50.84595166587662L-45.921544218314494,9.32325772382417L-40.916236244448385,8.03180992172477zM23.19443798668066,41.69026528494197L18.71091424250351,62.0345483310353L26.763951734502708,62.03279889128512zM-26.399693511613368,61.61632281308443L-28.923257042391207,93.94666073844502L-24.870739839332355,87.00031301754511z" style="fill:rgb(83,212,212)"/><path d="M-11.225866987214848,77.99672431461143L-19.520514690993686,80.52518309829114L-17.647218659294545,83.76551154729268zM-19.520514690993686,80.52518309829114L-11.225866987214848,77.99672431461143L-13.073334684067277,74.74410154876404z" style="fill:rgb(203,77,216)"/><path d="M18.71091424250351,62.0345483310353L12.181475522012668,66.67673154103666L20.457155622996765,65.34073624279146zM12.181475522012668,66.67673154103666L18.71091424250351,62.0345483310353L10.41186451464122,63.38373858706103z" style="fill:rgb(115,34,214)"/><path d="M-17.647218659294545,83.76551154729268L-24.870739839332355,87.00031301754511L-22.973094629774625,90.22954716111445zM-24.870739839332355,87.00031301754511L-17.647218659294545,83.76551154729268L-19.520514690993686,80.52518309829114z" style="fill:rgb(220,94,208)"/><path d="M-26.399693511613368,61.61632281308443L-31.515484111079196,101.12050715795704L-28.923257042391207,93.94666073844502zM35.82978604425199,41.568920405387594L40.98346111310873,66.08634538195153L47.698036348021795,43.55464824636941z" style="fill:rgb(83,212,212)"/><path d="M20.457155622996765,65.34073624279146L26.763951734502708,62.03279889128512L18.71091424250351,62.0345483310353zM26.763951734502708,62.03279889128512L20.457155622996765,65.34073624279146L28.489389518133674,65.35126026025404z" style="fill:rgb(92,32,204)"/><path d="M35.82978604425199,41.568920405387594L26.763951734502708,62.03279889128512L34.281234596359674,63.3934636019613z" style="fill:rgb(83,212,212)"/><path d="M-24.279371122891114,47.70832467248924L-40.916236244448385,8.03180992172477L-45.921544218314494,9.32325772382417z" style="fill:rgb(127,37,217)"/><path d="M-28.923257042391207,93.94666073844502L-22.973094629774625,90.22954716111445L-24.870739839332355,87.00031301754511z" style="fill:rgb(233,112,197)"/><path d="M-26.399693511613368,61.61632281308443L-32.53000483847949,108.26322836499791L-31.515484111079196,101.12050715795704z" style="fill:rgb(83,212,212)"/><path d="M-22.973094629774625,90.22954716111445L-28.923257042391207,93.94666073844502L-27.003600496270696,97.16631828181018z" style="fill:rgb(233,112,197)"/><path d="M35.82978604425199,41.568920405387594L34.281234596359674,63.3934636019613L40.98346111310873,66.08634538195153z" style="fill:rgb(83,212,212)"/><path d="M28.489389518133674,65.35126026025404L34.281234596359674,63.3934636019613L26.763951734502708,62.03279889128512zM34.281234596359674,63.3934636019613L28.489389518133674,65.35126026025404L35.9891369951929,66.7227784657934z" style="fill:rgb(71,33,192)"/><path d="M-55.72860505527238,102.79247384790409L-56.80971153902085,124.98373030877686L-51.46613363008951,91.52772923125411z" style="fill:rgb(83,212,212)"/><path d="M-31.515484111079196,101.12050715795704L-27.003600496270696,97.16631828181018L-28.923257042391207,93.94666073844502z" style="fill:rgb(242,130,183)"/><path d="M-44.97294954757194,80.67660909958511L-39.160635252748214,151.19375488299866L-36.51353133110362,70.59828377855477z" style="fill:rgb(83,212,212)"/><path d="M-27.003600496270696,97.16631828181018L-31.515484111079196,101.12050715795704L-29.576998189191034,104.33239049448656z" style="fill:rgb(242,130,183)"/><path d="M42.67774318625856,69.42460587630588L34.281234596359674,63.3934636019613L35.9891369951929,66.7227784657934z" style="fill:rgb(51,38,177)"/><path d="M-51.46613363008951,91.52772923125411L-47.50938263763987,143.9447210317646L-44.97294954757194,80.67660909958511zM47.698036348021795,43.55464824636941L50.93323680733725,75.11165661036304L58.368647807095904,47.62449948218577zM47.698036348021795,43.55464824636941L40.98346111310873,66.08634538195153L46.61086858589137,70.0341359590514z" style="fill:rgb(83,212,212)"/><path d="M34.281234596359674,63.3934636019613L42.67774318625856,69.42460587630588L40.98346111310873,66.08634538195153z" style="fill:rgb(51,38,177)"/><path d="M-56.80971153902085,124.98373030877686L-55.72860505527238,102.79247384790409L-57.55455801650603,114.08158855508795z" style="fill:rgb(83,212,212)"/><path d="M-32.53000483847949,108.26322836499791L-29.576998189191034,104.33239049448656L-31.515484111079196,101.12050715795704zM-29.576998189191034,104.33239049448656L-32.53000483847949,108.26322836499791L-30.576677760101678,111.46939334349634z" style="fill:rgb(246,149,167)"/><path d="M48.29601755516664,73.37898407029692L40.98346111310873,66.08634538195153L42.67774318625856,69.42460587630588z" style="fill:rgb(34,46,160)"/><path d="M47.698036348021795,43.55464824636941L46.61086858589137,70.0341359590514L50.93323680733725,75.11165661036304zM-51.46613363008951,91.52772923125411L-56.80971153902085,124.98373030877686L-53.44496977187191,135.07709465073228z" style="fill:rgb(83,212,212)"/><path d="M40.98346111310873,66.08634538195153L48.29601755516664,73.37898407029692L46.61086858589137,70.0341359590514z" style="fill:rgb(34,46,160)"/><path d="M-32.53000483847949,108.26322836499791L-29.937949817023277,118.31122431004414L-30.576677760101678,111.46939334349634z" style="fill:rgb(246,167,149)"/><path d="M52.61421126619671,78.4603531255219L46.61086858589137,70.0341359590514L48.29601755516664,73.37898407029692z" style="fill:rgb(21,57,142)"/><path d="M-29.937949817023277,118.31122431004414L-32.53000483847949,108.26322836499791L-31.90142685838871,115.10850139985989z" style="fill:rgb(246,167,149)"/><path d="M-36.51353133110362,70.59828377855477L-28.670695820268694,156.4776248184901L-32.53000483847949,108.26322836499791zM58.368647807095904,47.62449948218577L50.93323680733725,75.11165661036304L53.76046406301798,81.14665409264258zM-51.46613363008951,91.52772923125411L-53.44496977187191,135.07709465073228L-47.50938263763987,143.9447210317646z" style="fill:rgb(83,212,212)"/><path d="M46.61086858589137,70.0341359590514L52.61421126619671,78.4603531255219L50.93323680733725,75.11165661036304z" style="fill:rgb(21,57,142)"/><path d="M-31.90142685838871,115.10850139985989L-27.654242664276534,124.59283829053005L-29.937949817023277,118.31122431004414z" style="fill:rgb(242,183,130)"/><path d="M58.368647807095904,47.62449948218577L53.76046406301798,81.14665409264258L54.95325514892044,87.92286035480512z" style="fill:rgb(83,212,212)"/><path d="M-27.654242664276534,124.59283829053005L-31.90142685838871,115.10850139985989L-29.622586047356037,121.39110025591893z" style="fill:rgb(242,183,130)"/><path d="M-44.97294954757194,80.67660909958511L-47.50938263763987,143.9447210317646L-39.160635252748214,151.19375488299866zM-36.51353133110362,70.59828377855477L-39.160635252748214,151.19375488299866L-28.670695820268694,156.4776248184901z" style="fill:rgb(83,212,212)"/><path d="M-45.45525878205883,147.10419040529268L-53.44496977187191,135.07709465073228L-51.391194629339445,138.23511500969627z" style="fill:rgb(21,57,142)"/><path d="M58.368647807095904,47.62449948218577L62.70773914419074,128.560878834509L67.42860126573792,53.68642977689224zM-32.53000483847949,108.26322836499791L-28.670695820268694,156.4776248184901L-31.90142685838871,115.10850139985989z" style="fill:rgb(83,212,212)"/><path d="M79.24557781409565,71.04273021121155L83.02009591467355,85.16101945849336L80.84294967011331,74.43633299813668z" style="fill:rgb(246,167,149)"/><path d="M67.42860126573792,53.68642977689224L71.34453866193532,117.26747125993367L74.4974926744234,61.57395556368803z" style="fill:rgb(83,212,212)"/><path d="M-53.44496977187191,135.07709465073228L-45.45525878205883,147.10419040529268L-47.50938263763987,143.9447210317646z" style="fill:rgb(21,57,142)"/><path d="M-31.90142685838871,115.10850139985989L-28.670695820268694,156.4776248184901L-29.622586047356037,121.39110025591893zM54.95325514892044,87.92286035480512L62.70773914419074,128.560878834509L58.368647807095904,47.62449948218577z" style="fill:rgb(83,212,212)"/><path d="M83.02009591467355,85.16101945849336L79.24557781409565,71.04273021121155L81.4140276111573,81.77057529272811z" style="fill:rgb(246,167,149)"/><path d="M74.4974926744234,61.57395556368803L77.45576815699958,105.36150611414944L79.24557781409565,71.04273021121155zM-29.622586047356037,121.39110025591893L-28.670695820268694,156.4776248184901L-25.749432383756616,126.8571117640295z" style="fill:rgb(83,212,212)"/><path d="M-37.115827736584926,154.3587743251478L-47.50938263763987,143.9447210317646L-45.45525878205883,147.10419040529268z" style="fill:rgb(34,46,160)"/><path d="M79.24557781409565,71.04273021121155L80.83594004300357,93.36242072841529L81.4140276111573,81.77057529272811z" style="fill:rgb(83,212,212)"/><path d="M-47.50938263763987,143.9447210317646L-37.115827736584926,154.3587743251478L-39.160635252748214,151.19375488299866z" style="fill:rgb(34,46,160)"/><path d="M80.83594004300357,93.36242072841529L83.02009591467355,85.16101945849336L81.4140276111573,81.77057529272811zM83.02009591467355,85.16101945849336L80.83594004300357,93.36242072841529L82.45958249464391,96.7442780484396z" style="fill:rgb(246,149,167)"/><path d="M-25.749432383756616,126.8571117640295L-16.42436532528441,159.51970700829807L-20.40374436829191,131.27524848772237zM79.24557781409565,71.04273021121155L77.45576815699958,105.36150611414944L80.83594004300357,93.36242072841529z" style="fill:rgb(83,212,212)"/><path d="M-26.64494785959694,159.65243235072109L-39.160635252748214,151.19375488299866L-37.115827736584926,154.3587743251478z" style="fill:rgb(51,38,177)"/><path d="M74.4974926744234,61.57395556368803L71.34453866193532,117.26747125993367L77.45576815699958,105.36150611414944zM-20.40374436829191,131.27524848772237L-16.42436532528441,159.51970700829807L-13.772830386883875,134.4488278548589zM54.432979969542856,95.18558928894637L62.70773914419074,128.560878834509L54.95325514892044,87.92286035480512zM67.42860126573792,53.68642977689224L62.70773914419074,128.560878834509L71.34453866193532,117.26747125993367zM-25.749432383756616,126.8571117640295L-28.670695820268694,156.4776248184901L-16.42436532528441,159.51970700829807z" style="fill:rgb(83,212,212)"/><path d="M-39.160635252748214,151.19375488299866L-26.64494785959694,159.65243235072109L-28.670695820268694,156.4776248184901z" style="fill:rgb(51,38,177)"/><path d="M77.45576815699958,105.36150611414944L82.45958249464391,96.7442780484396L80.83594004300357,93.36242072841529z" style="fill:rgb(242,130,183)"/><path d="M52.18982223388902,102.65037928890429L62.70773914419074,128.560878834509L54.432979969542856,95.18558928894637z" style="fill:rgb(83,212,212)"/><path d="M82.45958249464391,96.7442780484396L77.45576815699958,105.36150611414944L79.10568415158765,108.72958906021985z" style="fill:rgb(242,130,183)"/><path d="M-13.772830386883875,134.4488278548589L-2.90890129537372,160.13591163202435L-6.105486064267954,136.22740151381734zM-6.105486064267954,136.22740151381734L-2.90890129537372,160.13591163202435L2.2962736748812675,136.51707735598154zM48.28797169979933,110.01439337093474L51.883468692761376,138.73295924366428L52.18982223388902,102.65037928890429z" style="fill:rgb(83,212,212)"/><path d="M-26.64494785959694,159.65243235072109L-16.42436532528441,159.51970700829807L-28.670695820268694,156.4776248184901zM-16.42436532528441,159.51970700829807L-26.64494785959694,159.65243235072109L-14.426945742146621,162.70850822155094z" style="fill:rgb(71,33,192)"/><path d="M-13.772830386883875,134.4488278548589L-16.42436532528441,159.51970700829807L-2.90890129537372,160.13591163202435zM42.866949563035035,116.97038708972664L51.883468692761376,138.73295924366428L48.28797169979933,110.01439337093474z" style="fill:rgb(83,212,212)"/><path d="M71.34453866193532,117.26747125993367L79.10568415158765,108.72958906021985L77.45576815699958,105.36150611414944z" style="fill:rgb(233,112,197)"/><path d="M2.2962736748812675,136.51707735598154L11.306177665349855,158.25332360085218L11.089692595176587,135.288382570134z" style="fill:rgb(83,212,212)"/><path d="M79.10568415158765,108.72958906021985L71.34453866193532,117.26747125993367L73.02874267372876,120.61718641261893z" style="fill:rgb(233,112,197)"/><path d="M36.138171752851754,123.2222932250143L39.32937121213572,147.31754467782798L42.866949563035035,116.97038708972664zM11.089692595176587,135.288382570134L25.59851622571365,153.922026537129L19.907467293795026,132.58049409868175zM28.376568552963924,128.5012051240787L39.32937121213572,147.31754467782798L36.138171752851754,123.2222932250143zM19.907467293795026,132.58049409868175L25.59851622571365,153.922026537129L28.376568552963924,128.5012051240787zM52.18982223388902,102.65037928890429L51.883468692761376,138.73295924366428L62.70773914419074,128.560878834509z" style="fill:rgb(83,212,212)"/><path d="M-14.426945742146621,162.70850822155094L-2.90890129537372,160.13591163202435L-16.42436532528441,159.51970700829807zM-2.90890129537372,160.13591163202435L-14.426945742146621,162.70850822155094L-0.9480129154631769,163.34265144275207z" style="fill:rgb(92,32,204)"/><path d="M2.2962736748812675,136.51707735598154L-2.90890129537372,160.13591163202435L11.306177665349855,158.25332360085218z" style="fill:rgb(83,212,212)"/><path d="M62.70773914419074,128.560878834509L73.02874267372876,120.61718641261893L71.34453866193532,117.26747125993367zM73.02874267372876,120.61718641261893L62.70773914419074,128.560878834509L64.43303898904479,131.8885555535453z" style="fill:rgb(220,94,208)"/><path d="M42.866949563035035,116.97038708972664L39.32937121213572,147.31754467782798L51.883468692761376,138.73295924366428zM11.089692595176587,135.288382570134L11.306177665349855,158.25332360085218L25.59851622571365,153.922026537129z" style="fill:rgb(83,212,212)"/><path d="M-0.9480129154631769,163.34265144275207L11.306177665349855,158.25332360085218L-2.90890129537372,160.13591163202435z" style="fill:rgb(115,34,214)"/><path d="M28.376568552963924,128.5012051240787L25.59851622571365,153.922026537129L39.32937121213572,147.31754467782798z" style="fill:rgb(83,212,212)"/><path d="M11.306177665349855,158.25332360085218L-0.9480129154631769,163.34265144275207L13.223963123262832,161.48141372668306z" style="fill:rgb(115,34,214)"/><path d="M51.883468692761376,138.73295924366428L64.43303898904479,131.8885555535453L62.70773914419074,128.560878834509zM64.43303898904479,131.8885555535453L51.883468692761376,138.73295924366428L53.65495243442229,142.03611016156785z" style="fill:rgb(203,77,216)"/><path d="M25.59851622571365,153.922026537129L13.223963123262832,161.48141372668306L27.468732182862176,157.17405759755476z" style="fill:rgb(139,40,220)"/><path d="M51.883468692761376,138.73295924366428L41.14997417190939,150.59502282528078L53.65495243442229,142.03611016156785z" style="fill:rgb(183,62,221)"/><path d="M13.223963123262832,161.48141372668306L25.59851622571365,153.922026537129L11.306177665349855,158.25332360085218z" style="fill:rgb(139,40,220)"/><path d="M39.32937121213572,147.31754467782798L27.468732182862176,157.17405759755476L41.14997417190939,150.59502282528078z" style="fill:rgb(162,50,222)"/><path d="M41.14997417190939,150.59502282528078L51.883468692761376,138.73295924366428L39.32937121213572,147.31754467782798z" style="fill:rgb(183,62,221)"/><path d="M27.468732182862176,157.17405759755476L39.32937121213572,147.31754467782798L25.59851622571365,153.922026537129z" style="fill:rgb(162,50,222)"/></svg>
