<?xml version="1.0" encoding="UTF-8"?>
<!-- Generated by jsxcad -->
<!DOCTYPE svg PUBLIC "-//W3C//DTD SVG 1.1 Tiny//EN" "http://www.w3.org/Graphics/SVG/1.1/DTD/svg11-tiny.dtd">
<svg viewBox="-250 -250 500 500" width="500" height="500" xmlns="http://www.w3.org/2000/svg"><path d="M-16.394783537278,-74.09398883623521L-14.886029595920995,-46.49534891342636L-14.52935371383874,-70.32691493191861z" style="fill:rgb(247,158,158)"/><path d="M-19.800775669305107,-73.69621490997933L-18.515160848966538,-49.94540815812031L-18.070156455437818,-73.76780875602468z" style="fill:rgb(120,217,217)"/><path d="M-21.521307598149594,-73.88185300239327L-20.28836704823115,-49.87361503463622L-19.800775669305107,-73.69621490997933z" style="fill:rgb(145,216,216)"/><path d="M-18.515160848966538,-49.94540815812031L-16.394783537278,-74.09398883623521L-18.070156455437818,-73.76780875602468z" style="fill:rgb(95,214,214)"/><path d="M-23.166768562655683,-74.3178489097154L-22.05135723413322,-50.05976527126576L-21.521307598149594,-73.88185300239327z" style="fill:rgb(169,212,212)"/><path d="M-25.283195412088038,-51.168981994281836L-23.166768562655683,-74.3178489097154L-24.674859388742497,-74.98800558354493z" style="fill:rgb(192,205,205)"/><path d="M-26.629449470858766,-52.050808708080176L-24.674859388742497,-74.98800558354493L-25.988216588616286,-75.8673604502123z" style="fill:rgb(212,194,194)"/><path d="M-27.72475526211267,-53.1094721415079L-25.988216588616286,-75.8673604502123L-27.056516883625278,-76.92300076271094z" style="fill:rgb(229,181,181)"/><path d="M-33.61586008035344,-52.91719369263728L-27.838405579625405,-78.1152517618747L-32.805769712113296,-76.73127724474548z" style="fill:rgb(83,212,212)"/><path d="M-27.838405579625405,-78.1152517618747L-27.72475526211267,-53.1094721415079L-27.056516883625278,-76.92300076271094z" style="fill:rgb(242,166,166)"/><path d="M-14.886029595920995,-46.49534891342636L-16.394783537278,-74.09398883623521L-16.7986503742255,-50.27248821354828z" style="fill:rgb(247,158,158)"/><path d="M-18.515160848966538,-49.94540815812031L-19.800775669305107,-73.69621490997933L-20.28836704823115,-49.87361503463622z" style="fill:rgb(120,217,217)"/><path d="M-20.28836704823115,-49.87361503463622L-21.521307598149594,-73.88185300239327L-22.05135723413322,-50.05976527126576z" style="fill:rgb(145,216,216)"/><path d="M-16.394783537278,-74.09398883623521L-18.515160848966538,-49.94540815812031L-16.7986503742255,-50.27248821354828z" style="fill:rgb(95,214,214)"/><path d="M-22.05135723413322,-50.05976527126576L-23.166768562655683,-74.3178489097154L-23.737572879594094,-50.49696273890747z" style="fill:rgb(169,212,212)"/><path d="M-23.166768562655683,-74.3178489097154L-25.283195412088038,-51.168981994281836L-23.737572879594094,-50.49696273890747z" style="fill:rgb(192,205,205)"/><path d="M-24.674859388742497,-74.98800558354493L-26.629449470858766,-52.050808708080176L-25.283195412088038,-51.168981994281836z" style="fill:rgb(212,194,194)"/><path d="M-25.988216588616286,-75.8673604502123L-27.72475526211267,-53.1094721415079L-26.629449470858766,-52.050808708080176z" style="fill:rgb(229,181,181)"/><path d="M-27.838405579625405,-78.1152517618747L-33.61586008035344,-52.91719369263728L-28.526706165118814,-54.305182575991736z" style="fill:rgb(83,212,212)"/><path d="M-27.72475526211267,-53.1094721415079L-27.838405579625405,-78.1152517618747L-28.526706165118814,-54.305182575991736z" style="fill:rgb(242,166,166)"/><path d="M-20.28836704823115,-49.87361503463622L-20.450165101765187,-45.86169866421702L-17.62336982736354,-45.975730692898544zM-22.05135723413322,-50.05976527126576L-23.260907586306075,-46.15738199857977L-20.450165101765187,-45.86169866421702zM-16.7986503742255,-50.27248821354828L-17.62336982736354,-45.975730692898544L-14.886029595920995,-46.49534891342636zM-25.283195412088038,-51.168981994281836L-25.950620730459367,-46.85207130460849L-23.260907586306075,-46.15738199857977zM-20.28836704823115,-49.87361503463622L-17.62336982736354,-45.975730692898544L-18.515160848966538,-49.94540815812031zM-22.05135723413322,-50.05976527126576L-20.450165101765187,-45.86169866421702L-20.28836704823115,-49.87361503463622zM-18.515160848966538,-49.94540815812031L-17.62336982736354,-45.975730692898544L-16.7986503742255,-50.27248821354828zM-23.737572879594094,-50.49696273890747L-23.260907586306075,-46.15738199857977L-22.05135723413322,-50.05976527126576zM-25.283195412088038,-51.168981994281836L-23.260907586306075,-46.15738199857977L-23.737572879594094,-50.49696273890747zM-28.526706165118814,-54.305182575991736L-28.41843949907044,-47.92053089988246L-25.950620730459367,-46.85207130460849zM-26.629449470858766,-52.050808708080176L-25.950620730459367,-46.85207130460849L-25.283195412088038,-51.168981994281836zM-28.526706165118814,-54.305182575991736L-30.57111063648309,-49.323746927097346L-28.41843949907044,-47.92053089988246zM-27.72475526211267,-53.1094721415079L-25.950620730459367,-46.85207130460849L-26.629449470858766,-52.050808708080176zM-28.526706165118814,-54.305182575991736L-25.950620730459367,-46.85207130460849L-27.72475526211267,-53.1094721415079zM-28.526706165118814,-54.305182575991736L-32.326334751403685,-51.01014369912797L-30.57111063648309,-49.323746927097346zM-32.326334751403685,-51.01014369912797L-28.526706165118814,-54.305182575991736L-33.61586008035344,-52.91719369263728z" style="fill:rgb(127,37,217)"/><path d="M-41.95336031015194,-80.36590830808115L-27.838405579625405,-78.1152517618747L-40.91761896918859,-104.08485011064434zM-27.838405579625405,-78.1152517618747L-41.95336031015194,-80.36590830808115L-28.526706165118814,-54.305182575991736z" style="fill:rgb(247,158,158)"/><path d="M-45.983512604681714,-102.63597107374964L-41.95336031015194,-80.36590830808115L-40.91761896918859,-104.08485011064434z" style="fill:rgb(83,212,212)"/><path d="M-41.95336031015194,-80.36590830808115L-33.61586008035344,-52.91719369263728L-28.526706165118814,-54.305182575991736z" style="fill:rgb(127,37,217)"/><path d="M-41.95336031015194,-80.36590830808115L-45.983512604681714,-102.63597107374964L-47.14597681733939,-78.9111575929626z" style="fill:rgb(83,212,212)"/><path d="M-33.61586008035344,-52.91719369263728L-41.95336031015194,-80.36590830808115L-47.14597681733939,-78.9111575929626z" style="fill:rgb(127,37,217)"/><path d="M43.49301094485735,-66.60791522830505L46.30205290373372,-42.20693343490664L45.14377537671768,-67.1953445240094z" style="fill:rgb(72,208,208)"/><path d="M45.14377537671768,-67.1953445240094L47.819299479751315,-43.02512684726802L46.62218647862145,-68.01144846998818z" style="fill:rgb(50,199,199)"/><path d="M47.819299479751315,-43.02512684726802L47.871829895664256,-69.02579105532838L46.62218647862145,-68.01144846998818z" style="fill:rgb(32,187,187)"/><path d="M47.871829895664256,-69.02579105532838L50.101305937325364,-45.21978438408267L48.84459060788888,-70.20034916009439z" style="fill:rgb(17,173,173)"/><path d="M48.84459060788888,-70.20034916009439L50.77766503249052,-46.513785364118434L49.50250576879686,-71.49085190291979z" style="fill:rgb(7,157,157)"/><path d="M50.77766503249052,-46.513785364118434L49.819325342153206,-72.84831516083355L49.50250576879686,-71.49085190291979z" style="fill:rgb(1,140,140)"/><path d="M51.10425124390283,-47.875015413236866L49.78165163378861,-74.22087262580159L49.819325342153206,-72.84831516083355z" style="fill:rgb(0,122,122)"/><path d="M54.69164391012936,-77.00170385996189L56.73824539332911,-49.89447663967117L55.3090848025918,-74.86203998469838z" style="fill:rgb(251,149,149)"/><path d="M46.30205290373372,-42.20693343490664L43.49301094485735,-66.60791522830505L44.60832754026079,-41.618019275377414z" style="fill:rgb(72,208,208)"/><path d="M49.38963564233525,-75.55566666661336L56.107628771498966,-52.04044580977994L54.69164391012936,-77.00170385996189z" style="fill:rgb(83,212,212)"/><path d="M47.819299479751315,-43.02512684726802L45.14377537671768,-67.1953445240094L46.30205290373372,-42.20693343490664z" style="fill:rgb(50,199,199)"/><path d="M47.871829895664256,-69.02579105532838L47.819299479751315,-43.02512684726802L49.102182472090625,-44.04210591757285z" style="fill:rgb(32,187,187)"/><path d="M50.101305937325364,-45.21978438408267L47.871829895664256,-69.02579105532838L49.102182472090625,-44.04210591757285z" style="fill:rgb(17,173,173)"/><path d="M50.77766503249052,-46.513785364118434L48.84459060788888,-70.20034916009439L50.101305937325364,-45.21978438408267z" style="fill:rgb(7,157,157)"/><path d="M49.819325342153206,-72.84831516083355L50.77766503249052,-46.513785364118434L51.10425124390283,-47.875015413236866z" style="fill:rgb(1,140,140)"/><path d="M49.78165163378861,-74.22087262580159L51.10425124390283,-47.875015413236866L51.06722812109554,-49.25145761129163z" style="fill:rgb(0,122,122)"/><path d="M47.819299479751315,-43.02512684726802L46.377946827251094,-37.71777882799885L49.080559400783685,-38.65357317559311zM46.377946827251094,-37.71777882799885L46.30205290373372,-42.20693343490664L44.60832754026079,-41.618019275377414zM46.30205290373372,-42.20693343490664L46.377946827251094,-37.71777882799885L47.819299479751315,-43.02512684726802zM50.101305937325364,-45.21978438408267L49.080559400783685,-38.65357317559311L51.504629689558946,-39.95469573476904z" style="fill:rgb(127,37,217)"/><path d="M56.107628771498966,-52.04044580977994L49.38963564233525,-75.55566666661336L50.66665388613501,-50.59012042904021z" style="fill:rgb(83,212,212)"/><path d="M47.819299479751315,-43.02512684726802L49.080559400783685,-38.65357317559311L49.102182472090625,-44.04210591757285z" style="fill:rgb(127,37,217)"/><path d="M56.73824539332911,-49.89447663967117L54.69164391012936,-77.00170385996189L56.107628771498966,-52.04044580977994z" style="fill:rgb(251,149,149)"/><path d="M49.102182472090625,-44.04210591757285L49.080559400783685,-38.65357317559311L50.101305937325364,-45.21978438408267zM50.101305937325364,-45.21978438408267L51.504629689558946,-39.95469573476904L50.77766503249052,-46.513785364118434zM56.107628771498966,-52.04044580977994L51.504629689558946,-39.95469573476904L53.55809057465909,-41.57356731501989zM50.77766503249052,-46.513785364118434L51.504629689558946,-39.95469573476904L51.10425124390283,-47.875015413236866zM56.107628771498966,-52.04044580977994L53.55809057465909,-41.57356731501989L55.16180524363435,-43.450508235446435zM56.107628771498966,-52.04044580977994L51.10425124390283,-47.875015413236866L51.504629689558946,-39.95469573476904z" style="fill:rgb(127,37,217)"/><path d="M47.189189043299336,-72.36129890691292L54.69164391012936,-77.00170385996189L45.976717327937756,-97.25235011487304z" style="fill:rgb(247,158,158)"/><path d="M56.107628771498966,-52.04044580977994L55.16180524363435,-43.450508235446435L56.25261965249813,-45.51563985773166zM56.73824539332911,-49.89447663967117L56.25261965249813,-45.51563985773166L56.78602714102442,-47.69124161308066zM56.107628771498966,-52.04044580977994L56.25261965249813,-45.51563985773166L56.73824539332911,-49.89447663967117z" style="fill:rgb(127,37,217)"/><path d="M54.69164391012936,-77.00170385996189L47.189189043299336,-72.36129890691292L56.107628771498966,-52.04044580977994z" style="fill:rgb(247,158,158)"/><path d="M56.107628771498966,-52.04044580977994L51.06722812109554,-49.25145761129163L51.10425124390283,-47.875015413236866zM51.06722812109554,-49.25145761129163L56.107628771498966,-52.04044580977994L50.66665388613501,-50.59012042904021z" style="fill:rgb(127,37,217)"/><path d="M40.59031462123187,-95.7535062561521L47.189189043299336,-72.36129890691292L45.976717327937756,-97.25235011487304z" style="fill:rgb(83,212,212)"/><path d="M47.189189043299336,-72.36129890691292L50.66665388613501,-50.59012042904021L56.107628771498966,-52.04044580977994z" style="fill:rgb(127,37,217)"/><path d="M47.189189043299336,-72.36129890691292L40.59031462123187,-95.7535062561521L41.65929337815092,-70.8566058684666z" style="fill:rgb(83,212,212)"/><path d="M50.66665388613501,-50.59012042904021L47.189189043299336,-72.36129890691292L41.65929337815092,-70.8566058684666z" style="fill:rgb(127,37,217)"/><path d="M-16.7986503742255,-50.27248821354828L53.53106046324285,158.3056331476606L43.49301094485735,-66.60791522830505z" style="fill:rgb(83,212,212)"/><path d="M53.53106046324285,158.3056331476606L45.22245680116761,-62.717105512706524L43.49301094485735,-66.60791522830505z" style="fill:rgb(247,158,158)"/><path d="M53.53106046324285,158.3056331476606L-16.7986503742255,-50.27248821354828L-20.60562047501566,174.27616717277363z" style="fill:rgb(83,212,212)"/><path d="M45.22245680116761,-62.717105512706524L53.53106046324285,158.3056331476606L55.614589455275976,162.1193909078192zM-19.43132804478501,105.01221436316959L-18.245250132734945,177.95352140298291L-17.2096313363967,108.75787038432507z" style="fill:rgb(247,158,158)"/><path d="M-24.884129162821537,174.6647774253347L-21.415843705335355,105.33672542656824L-23.46660812132526,105.40794661444517z" style="fill:rgb(120,217,217)"/><path d="M-27.047520080655488,174.48341251620027L-23.46660812132526,105.40794661444517L-25.506457906937147,105.22326861901801z" style="fill:rgb(145,216,216)"/><path d="M-22.709590761092603,174.59482357793064L-19.43132804478501,105.01221436316959L-21.415843705335355,105.33672542656824z" style="fill:rgb(95,214,214)"/><path d="M-29.118423117628954,174.05743746234933L-25.506457906937147,105.22326861901801L-27.45860033355192,104.78947919727807z" style="fill:rgb(169,212,212)"/><path d="M-31.018735475492367,173.40249643546125L-27.45860033355192,104.78947919727807L-29.24933142335851,104.12259300348121z" style="fill:rgb(192,205,205)"/><path d="M-30.81067060643558,103.24730238543404L-31.018735475492367,173.40249643546125L-29.24933142335851,104.12259300348121z" style="fill:rgb(212,194,194)"/><path d="M-34.02787611116047,171.51033083637242L-30.81067060643558,103.24730238543404L-32.082832600293145,102.1962054678117z" style="fill:rgb(229,181,181)"/><path d="M-41.256654354973755,171.69788678976482L-33.01651174732076,101.00864051959697L-38.8988909834799,102.38713116137124z" style="fill:rgb(83,212,212)"/><path d="M-33.01651174732076,101.00864051959697L-34.02787611116047,171.51033083637242L-32.082832600293145,102.1962054678117z" style="fill:rgb(242,166,166)"/><path d="M-18.245250132734945,177.95352140298291L-19.43132804478501,105.01221436316959L-20.60562047501566,174.27616717277363z" style="fill:rgb(247,158,158)"/><path d="M-21.415843705335355,105.33672542656824L-24.884129162821537,174.6647774253347L-22.709590761092603,174.59482357793064z" style="fill:rgb(120,217,217)"/><path d="M-23.46660812132526,105.40794661444517L-27.047520080655488,174.48341251620027L-24.884129162821537,174.6647774253347z" style="fill:rgb(145,216,216)"/><path d="M-19.43132804478501,105.01221436316959L-22.709590761092603,174.59482357793064L-20.60562047501566,174.27616717277363z" style="fill:rgb(95,214,214)"/><path d="M-25.506457906937147,105.22326861901801L-29.118423117628954,174.05743746234933L-27.047520080655488,174.48341251620027z" style="fill:rgb(169,212,212)"/><path d="M-27.45860033355192,104.78947919727807L-31.018735475492367,173.40249643546125L-29.118423117628954,174.05743746234933z" style="fill:rgb(192,205,205)"/><path d="M-31.018735475492367,173.40249643546125L-30.81067060643558,103.24730238543404L-32.67637195781658,172.54281882989892z" style="fill:rgb(212,194,194)"/><path d="M-30.81067060643558,103.24730238543404L-34.02787611116047,171.51033083637242L-32.67637195781658,172.54281882989892z" style="fill:rgb(229,181,181)"/><path d="M-65.35454379294822,47.562577563995546L-35.02084461838498,170.34363230151388L-33.01651174732076,101.00864051959697z" style="fill:rgb(247,158,158)"/><path d="M-33.01651174732076,101.00864051959697L-41.256654354973755,171.69788678976482L-35.02084461838498,170.34363230151388z" style="fill:rgb(83,212,212)"/><path d="M-34.02787611116047,171.51033083637242L-33.01651174732076,101.00864051959697L-35.02084461838498,170.34363230151388z" style="fill:rgb(242,166,166)"/><path d="M-24.884129162821537,174.6647774253347L-25.061709571882155,178.5698770074121L-21.597978264861595,178.45896739999918zM-27.047520080655488,174.48341251620027L-28.508026997996183,178.28228456832946L-25.061709571882155,178.5698770074121zM-20.60562047501566,174.27616717277363L-21.597978264861595,178.45896739999918L-18.245250132734945,177.95352140298291zM-31.018735475492367,173.40249643546125L-31.809059625299916,177.60647338291665L-28.508026997996183,178.28228456832946zM-24.884129162821537,174.6647774253347L-21.597978264861595,178.45896739999918L-22.709590761092603,174.59482357793064zM-27.047520080655488,174.48341251620027L-25.061709571882155,178.5698770074121L-24.884129162821537,174.6647774253347zM-22.709590761092603,174.59482357793064L-21.597978264861595,178.45896739999918L-20.60562047501566,174.27616717277363zM-29.118423117628954,174.05743746234933L-28.508026997996183,178.28228456832946L-27.047520080655488,174.48341251620027zM-31.018735475492367,173.40249643546125L-28.508026997996183,178.28228456832946L-29.118423117628954,174.05743746234933zM-35.02084461838498,170.34363230151388L-34.84171829248446,176.5666722276074L-31.809059625299916,177.60647338291665zM-32.67637195781658,172.54281882989892L-31.809059625299916,177.60647338291665L-31.018735475492367,173.40249643546125zM-35.02084461838498,170.34363230151388L-37.49186169040714,175.20038194545964L-34.84171829248446,176.5666722276074zM-34.02787611116047,171.51033083637242L-31.809059625299916,177.60647338291665L-32.67637195781658,172.54281882989892zM-35.02084461838498,170.34363230151388L-31.809059625299916,177.60647338291665L-34.02787611116047,171.51033083637242zM-35.02084461838498,170.34363230151388L-39.65831635207856,173.557312610336L-37.49186169040714,175.20038194545964zM-39.65831635207856,173.557312610336L-35.02084461838498,170.34363230151388L-41.256654354973755,171.69788678976482zM-18.245250132734945,177.95352140298291L53.53106046324285,158.3056331476606L-20.60562047501566,174.27616717277363zM53.53106046324285,158.3056331476606L-18.245250132734945,177.95352140298291L55.614589455275976,162.1193909078192z" style="fill:rgb(127,37,217)"/><path d="M-71.52059297446701,49.10205475400105L-69.56199051829034,117.65044114598045L-65.35454379294822,47.562577563995546z" style="fill:rgb(83,212,212)"/><path d="M-35.02084461838498,170.34363230151388L-65.35454379294822,47.562577563995546L-69.56199051829034,117.65044114598045z" style="fill:rgb(247,158,158)"/><path d="M-69.56199051829034,117.65044114598045L-41.256654354973755,171.69788678976482L-35.02084461838498,170.34363230151388z" style="fill:rgb(127,37,217)"/><path d="M-69.56199051829034,117.65044114598045L-71.52059297446701,49.10205475400105L-76.11741279803356,119.17333028328494z" style="fill:rgb(83,212,212)"/><path d="M-41.256654354973755,171.69788678976482L-69.56199051829034,117.65044114598045L-76.11741279803356,119.17333028328494z" style="fill:rgb(127,37,217)"/></svg>
