<?xml version="1.0" encoding="UTF-8"?>
<!-- Generated by jsxcad -->
<!DOCTYPE svg PUBLIC "-//W3C//DTD SVG 1.1 Tiny//EN" "http://www.w3.org/Graphics/SVG/1.1/DTD/svg11-tiny.dtd">
<svg viewBox="-250 -250 500 500" width="500" height="500" xmlns="http://www.w3.org/2000/svg"><path d="M-37.01320951531372,-76.70004732041208L92.35321596021427,77.54471275520795L76.99423654425132,-108.49641486425277z" style="fill:rgb(83,212,212)"/><path d="M76.99423654425132,-108.49641486425277L94.01013663006508,81.14452734924748L78.42430482084065,-104.91386312756563zM-40.03436735881435,2.019283818314254L-42.057692818668905,112.7054283998054L-38.14722132355267,5.424496345376831z" style="fill:rgb(247,158,158)"/><path d="M-51.41668119284452,110.04961586545859L-43.27038720433182,2.608761283642024L-46.62362787646257,2.7381091207909933z" style="fill:rgb(120,217,217)"/><path d="M-49.96962439811769,2.402697732088141L-51.41668119284452,110.04961586545859L-46.62362787646257,2.7381091207909933z" style="fill:rgb(145,216,216)"/><path d="M-43.27038720433182,2.608761283642024L-44.15316552761309,109.33873963662867L-40.03436735881435,2.019283818314254z" style="fill:rgb(95,214,214)"/><path d="M-53.18409511260248,1.6145397724926105L-55.10848575911523,109.71792468315955L-49.96962439811769,2.402697732088141z" style="fill:rgb(169,212,212)"/><path d="M-61.93349965097067,107.73891092011961L-53.18409511260248,1.6145397724926105L-56.14708641886845,0.4019559303905622z" style="fill:rgb(192,205,205)"/><path d="M-58.74704976392513,-1.1912240919300028L-61.93349965097067,107.73891092011961L-56.14708641886845,0.4019559303905622z" style="fill:rgb(212,194,194)"/><path d="M-67.18275942005737,104.26623047550139L-58.74704976392513,-1.1912240919300028L-60.88475582735211,-3.1069386124086735z" style="fill:rgb(229,181,181)"/><path d="M-68.95452281303328,102.1196733143687L-60.88475582735211,-3.1069386124086735L-62.47701329533494,-5.27465399120838z" style="fill:rgb(242,166,166)"/><path d="M-67.27037342400406,-4.015190702215658L-68.95452281303328,102.1196733143687L-62.47701329533494,-5.27465399120838zM92.35321596021427,77.54471275520795L-37.01320951531372,-76.70004732041208L-44.15316552761309,109.33873963662867z" style="fill:rgb(83,212,212)"/><path d="M-57.955036091172786,114.5313826407169L-54.15137044571388,59.92734177063812L-55.13466438942029,58.291972476232345zM-56.154348278635545,56.596083006113666L-57.955036091172786,114.5313826407169L-55.13466438942029,58.291972476232345zM-56.341180347591404,56.28534920150727L-59.03208945936617,112.85055612140744L-56.154348278635545,56.596083006113666z" style="fill:rgb(247,158,158)"/><path d="M-57.8789944810581,55.92837769319786L-59.22945371323749,112.54255016567915L-56.341180347591404,56.28534920150727z" style="fill:rgb(169,212,212)"/><path d="M-65.09567051883093,110.63960090278519L-57.8789944810581,55.92837769319786L-61.91515151148143,54.36576928789434z" style="fill:rgb(192,205,205)"/><path d="M-63.954444495076935,53.184929661880815L-65.09567051883093,110.63960090278519L-61.91515151148143,54.36576928789434z" style="fill:rgb(212,194,194)"/><path d="M-42.057692818668905,112.7054283998054L-40.03436735881435,2.019283818314254L-44.15316552761309,109.33873963662867z" style="fill:rgb(247,158,158)"/><path d="M-43.27038720433182,2.608761283642024L-51.41668119284452,110.04961586545859L-47.71932799624971,109.92170702808994z" style="fill:rgb(120,217,217)"/><path d="M-51.41668119284452,110.04961586545859L-49.96962439811769,2.402697732088141L-55.10848575911523,109.71792468315955z" style="fill:rgb(145,216,216)"/><path d="M-44.15316552761309,109.33873963662867L-43.27038720433182,2.608761283642024L-47.71932799624971,109.92170702808994z" style="fill:rgb(95,214,214)"/><path d="M-55.10848575911523,109.71792468315955L-53.18409511260248,1.6145397724926105L-58.65810712015332,108.93841902929091z" style="fill:rgb(169,212,212)"/><path d="M-53.18409511260248,1.6145397724926105L-61.93349965097067,107.73891092011961L-58.65810712015332,108.93841902929091z" style="fill:rgb(192,205,205)"/><path d="M-61.93349965097067,107.73891092011961L-58.74704976392513,-1.1912240919300028L-64.81163114820623,106.16246834943108z" style="fill:rgb(212,194,194)"/><path d="M-58.74704976392513,-1.1912240919300028L-67.18275942005737,104.26623047550139L-64.81163114820623,106.16246834943108z" style="fill:rgb(229,181,181)"/><path d="M-60.88475582735211,-3.1069386124086735L-68.95452281303328,102.1196733143687L-67.18275942005737,104.26623047550139z" style="fill:rgb(242,166,166)"/><path d="M-68.95452281303328,102.1196733143687L-67.27037342400406,-4.015190702215658L-74.23559062464392,103.36695689962836z" style="fill:rgb(83,212,212)"/><path d="M94.01013663006508,81.14452734924748L76.99423654425132,-108.49641486425277L92.35321596021427,77.54471275520795zM-54.15137044571388,59.92734177063812L-57.955036091172786,114.5313826407169L-56.916599818297044,116.15194504868474zM-57.955036091172786,114.5313826407169L-56.154348278635545,56.596083006113666L-59.03208945936617,112.85055612140744zM-59.03208945936617,112.85055612140744L-56.341180347591404,56.28534920150727L-59.22945371323749,112.54255016567915z" style="fill:rgb(247,158,158)"/><path d="M-59.22945371323749,112.54255016567915L-57.8789944810581,55.92837769319786L-60.84723258893392,112.18870021250825z" style="fill:rgb(169,212,212)"/><path d="M-57.8789944810581,55.92837769319786L-65.09567051883093,110.63960090278519L-60.84723258893392,112.18870021250825z" style="fill:rgb(192,205,205)"/><path d="M-65.09567051883093,110.63960090278519L-63.954444495076935,53.184929661880815L-67.24385186752812,109.46880644724381z" style="fill:rgb(212,194,194)"/><path d="M-86.79845304900117,69.51894837374505L-59.4456444739213,51.122153188283214L-82.37975665319897,12.979213802380576z" style="fill:rgb(247,158,158)"/><path d="M-51.41668119284452,110.04961586545859L-51.46611796697804,113.6227058254415L-46.67781029388932,113.45768847280286zM-55.10848575911523,109.71792468315955L-56.24757408752541,113.19475751195596L-51.46611796697804,113.6227058254415zM-44.15316552761309,109.33873963662867L-46.67781029388932,113.45768847280286L-42.057692818668905,112.7054283998054zM-58.65810712015332,108.93841902929091L-60.84723258893392,112.18870021250825L-56.24757408752541,113.19475751195596zM-51.41668119284452,110.04961586545859L-46.67781029388932,113.45768847280286L-47.71932799624971,109.92170702808994zM-55.10848575911523,109.71792468315955L-51.46611796697804,113.6227058254415L-51.41668119284452,110.04961586545859zM-47.71932799624971,109.92170702808994L-46.67781029388932,113.45768847280286L-44.15316552761309,109.33873963662867zM-58.65810712015332,108.93841902929091L-56.24757408752541,113.19475751195596L-55.10848575911523,109.71792468315955z" style="fill:rgb(127,37,217)"/><path d="M-59.4456444739213,51.122153188283214L-86.79845304900117,69.51894837374505L-62.509858361601225,107.4232261223516z" style="fill:rgb(247,158,158)"/><path d="M-64.81163114820623,106.16246834943108L-65.09567051883093,110.63960090278519L-60.84723258893392,112.18870021250825zM-61.93349965097067,107.73891092011961L-60.84723258893392,112.18870021250825L-58.65810712015332,108.93841902929091zM-64.81163114820623,106.16246834943108L-60.84723258893392,112.18870021250825L-61.93349965097067,107.73891092011961zM-68.95452281303328,102.1196733143687L-68.83439948917761,108.60192056001553L-65.09567051883093,110.63960090278519zM-67.18275942005737,104.26623047550139L-65.09567051883093,110.63960090278519L-64.81163114820623,106.16246834943108zM-68.95452281303328,102.1196733143687L-65.09567051883093,110.63960090278519L-67.18275942005737,104.26623047550139zM-68.95452281303328,102.1196733143687L-71.92126028620443,106.14817201946745L-68.83439948917761,108.60192056001553zM-71.92126028620443,106.14817201946745L-68.95452281303328,102.1196733143687L-74.23559062464392,103.36695689962836z" style="fill:rgb(127,37,217)"/><path d="M-92.23802603033427,70.85424143705804L-82.37975665319897,12.979213802380576L-87.54853735098905,14.32033742241744z" style="fill:rgb(83,212,212)"/><path d="M-42.057692818668905,112.7054283998054L92.35321596021427,77.54471275520795L-44.15316552761309,109.33873963662867zM92.35321596021427,77.54471275520795L-42.057692818668905,112.7054283998054L94.01013663006508,81.14452734924748z" style="fill:rgb(127,37,217)"/><path d="M-82.37975665319897,12.979213802380576L-92.23802603033427,70.85424143705804L-86.79845304900117,69.51894837374505z" style="fill:rgb(83,212,212)"/><path d="M-86.79845304900117,69.51894837374505L-59.9794383642219,178.4277489500678L-56.916599818297044,116.15194504868474z" style="fill:rgb(247,158,158)"/><path d="M-92.23802603033427,70.85424143705804L-91.71803721986505,132.46783001080234L-86.79845304900117,69.51894837374505z" style="fill:rgb(83,212,212)"/><path d="M-59.9794383642219,178.4277489500678L-86.79845304900117,69.51894837374505L-91.71803721986505,132.46783001080234z" style="fill:rgb(247,158,158)"/><path d="M-91.71803721986505,132.46783001080234L-65.47365379268717,179.61727816315747L-59.9794383642219,178.4277489500678z" style="fill:rgb(127,37,217)"/><path d="M-91.71803721986505,132.46783001080234L-92.23802603033427,70.85424143705804L-97.45832819709156,133.78731893436205z" style="fill:rgb(83,212,212)"/><path d="M-65.47365379268717,179.61727816315747L-91.71803721986505,132.46783001080234L-97.45832819709156,133.78731893436205z" style="fill:rgb(127,37,217)"/></svg>
