<?xml version="1.0" encoding="UTF-8"?>
<!-- Generated by jsxcad -->
<!DOCTYPE svg PUBLIC "-//W3C//DTD SVG 1.1 Tiny//EN" "http://www.w3.org/Graphics/SVG/1.1/DTD/svg11-tiny.dtd">
<svg viewBox="-250 -250 500 500" width="500" height="500" xmlns="http://www.w3.org/2000/svg"><path d="M-8.796056811941481,-87.55789125436151L-7.530843047476199,-64.25659694845557L-7.373927498960936,-84.61083055405612z" style="fill:rgb(247,158,158)"/><path d="M-11.0007773419643,-66.97820288337516L-9.76800419831872,-87.36662719185301L-10.771008533313248,-87.32464155845254z" style="fill:rgb(120,217,217)"/><path d="M-12.017956238488042,-67.08738356674968L-10.771008533313248,-87.32464155845254L-11.766917816902716,-87.43350373151499z" style="fill:rgb(145,216,216)"/><path d="M-9.76800419831872,-87.36662719185301L-8.983735245104311,-67.2121355740466L-8.796056811941481,-87.55789125436151z" style="fill:rgb(95,214,214)"/><path d="M-12.989231208284416,-67.3437560173883L-11.766917816902716,-87.43350373151499L-12.717842768518944,-87.68912636842595z" style="fill:rgb(169,212,212)"/><path d="M-13.587548857002052,-88.08186287308293L-12.989231208284416,-67.3437560173883L-12.717842768518944,-87.68912636842595z" style="fill:rgb(192,205,205)"/><path d="M-14.34281007901778,-88.59689741789101L-13.87759911518226,-67.73764899047079L-13.587548857002052,-88.08186287308293z" style="fill:rgb(212,194,194)"/><path d="M-14.954649851657,-89.21474421126275L-14.64912530064035,-68.25420917774929L-14.34281007901778,-88.59689741789101z" style="fill:rgb(229,181,181)"/><path d="M-19.24336544420481,-88.83303579311524L-15.728720587983455,-69.57319537338424L-15.399448177106118,-89.91194255314764z" style="fill:rgb(83,212,212)"/><path d="M-15.728720587983455,-69.57319537338424L-14.954649851657,-89.21474421126275L-15.399448177106118,-89.91194255314764z" style="fill:rgb(242,166,166)"/><path d="M-7.530843047476199,-64.25659694845557L-8.796056811941481,-87.55789125436151L-8.983735245104311,-67.2121355740466z" style="fill:rgb(247,158,158)"/><path d="M-9.76800419831872,-87.36662719185301L-11.0007773419643,-66.97820288337516L-9.976384679751977,-67.02031130565308z" style="fill:rgb(120,217,217)"/><path d="M-10.771008533313248,-87.32464155845254L-12.017956238488042,-67.08738356674968L-11.0007773419643,-66.97820288337516z" style="fill:rgb(145,216,216)"/><path d="M-8.983735245104311,-67.2121355740466L-9.76800419831872,-87.36662719185301L-9.976384679751977,-67.02031130565308z" style="fill:rgb(95,214,214)"/><path d="M-11.766917816902716,-87.43350373151499L-12.989231208284416,-67.3437560173883L-12.017956238488042,-67.08738356674968z" style="fill:rgb(169,212,212)"/><path d="M-12.989231208284416,-67.3437560173883L-13.587548857002052,-88.08186287308293L-13.87759911518226,-67.73764899047079z" style="fill:rgb(192,205,205)"/><path d="M-13.87759911518226,-67.73764899047079L-14.34281007901778,-88.59689741789101L-14.64912530064035,-68.25420917774929z" style="fill:rgb(212,194,194)"/><path d="M-14.64912530064035,-68.25420917774929L-14.954649851657,-89.21474421126275L-15.27421029591712,-68.87389943209358z" style="fill:rgb(229,181,181)"/><path d="M-15.728720587983455,-69.57319537338424L-19.24336544420481,-88.83303579311524L-19.654428104687618,-68.49105055132189z" style="fill:rgb(83,212,212)"/><path d="M-14.954649851657,-89.21474421126275L-15.728720587983455,-69.57319537338424L-15.27421029591712,-68.87389943209358z" style="fill:rgb(242,166,166)"/><path d="M-23.218749120668466,-84.65554800684329L-15.399448177106118,-89.91194255314764L-22.726218873690737,-104.94458442991105z" style="fill:rgb(247,158,158)"/><path d="M-11.0007773419643,-66.97820288337516L-11.151783348266388,-63.83782858866614L-9.313054884000929,-63.91320454832539zM-12.989231208284416,-67.3437560173883L-12.977688551201563,-64.03326396455552L-11.151783348266388,-63.83782858866614zM-8.983735245104311,-67.2121355740466L-9.313054884000929,-63.91320454832539L-7.530843047476199,-64.25659694845557zM-14.64912530064035,-68.25420917774929L-14.721885052175496,-64.49227273848429L-12.977688551201563,-64.03326396455552zM-12.017956238488042,-67.08738356674968L-11.151783348266388,-63.83782858866614L-11.0007773419643,-66.97820288337516zM-11.0007773419643,-66.97820288337516L-9.313054884000929,-63.91320454832539L-9.976384679751977,-67.02031130565308zM-9.976384679751977,-67.02031130565308L-9.313054884000929,-63.91320454832539L-8.983735245104311,-67.2121355740466zM-12.989231208284416,-67.3437560173883L-11.151783348266388,-63.83782858866614L-12.017956238488042,-67.08738356674968zM-13.87759911518226,-67.73764899047079L-12.977688551201563,-64.03326396455552L-12.989231208284416,-67.3437560173883zM-15.728720587983455,-69.57319537338424L-16.318392927455253,-65.19784463677942L-14.721885052175496,-64.49227273848429zM-14.64912530064035,-68.25420917774929L-12.977688551201563,-64.03326396455552L-13.87759911518226,-67.73764899047079z" style="fill:rgb(127,37,217)"/><path d="M-15.399448177106118,-89.91194255314764L-23.218749120668466,-84.65554800684329L-15.728720587983455,-69.57319537338424z" style="fill:rgb(247,158,158)"/><path d="M-15.728720587983455,-69.57319537338424L-17.706515233527888,-66.12374549087424L-16.318392927455253,-65.19784463677942zM-15.27421029591712,-68.87389943209358L-14.721885052175496,-64.49227273848429L-14.64912530064035,-68.25420917774929zM-15.728720587983455,-69.57319537338424L-18.833077084837257,-67.23539305844821L-17.706515233527888,-66.12374549087424zM-15.728720587983455,-69.57319537338424L-14.721885052175496,-64.49227273848429L-15.27421029591712,-68.87389943209358z" style="fill:rgb(127,37,217)"/><path d="M-26.61408061062454,-103.83683193726924L-23.218749120668466,-84.65554800684329L-22.726218873690737,-104.94458442991105z" style="fill:rgb(83,212,212)"/><path d="M-18.833077084837257,-67.23539305844821L-15.728720587983455,-69.57319537338424L-19.654428104687618,-68.49105055132189zM-23.218749120668466,-84.65554800684329L-19.654428104687618,-68.49105055132189L-15.728720587983455,-69.57319537338424z" style="fill:rgb(127,37,217)"/><path d="M-23.218749120668466,-84.65554800684329L-26.61408061062454,-103.83683193726924L-27.19030052572024,-83.54383993233179z" style="fill:rgb(83,212,212)"/><path d="M-19.654428104687618,-68.49105055132189L-23.218749120668466,-84.65554800684329L-27.19030052572024,-83.54383993233179z" style="fill:rgb(127,37,217)"/><path d="M25.66069646086076,-77.42221889215566L27.186409284876852,-56.58403565739328L26.601603951222085,-77.76226687429497z" style="fill:rgb(72,208,208)"/><path d="M26.601603951222085,-77.76226687429497L28.044559718482404,-57.05744459217824L27.44104028216373,-78.2344216989713z" style="fill:rgb(50,199,199)"/><path d="M28.044559718482404,-57.05744459217824L28.146867887968256,-78.82084515151297L27.44104028216373,-78.2344216989713z" style="fill:rgb(32,187,187)"/><path d="M28.146867887968256,-78.82084515151297L29.323685691125007,-58.325767509124844L28.69192659363916,-79.49934153760405z" style="fill:rgb(17,173,173)"/><path d="M28.69192659363916,-79.49934153760405L29.695265184237687,-59.07255785523365L29.05507563157915,-80.24409463387923z" style="fill:rgb(7,157,157)"/><path d="M29.05507563157915,-80.24409463387923L29.866365428218728,-59.85732608489061L29.222037987441706,-81.02669873466377z" style="fill:rgb(1,140,140)"/><path d="M34.12700777606087,-61.14340866576738L33.44946799648322,-80.8858953334279L33.389921453109686,-82.30919769208535z" style="fill:rgb(254,132,132)"/><path d="M33.6947667337757,-62.53160107714638L33.389921453109686,-82.30919769208535L32.96611972038208,-83.6934405561661z" style="fill:rgb(251,149,149)"/><path d="M28.947907235313888,-82.58510133824444L33.6947667337757,-62.53160107714638L32.96611972038208,-83.6934405561661z" style="fill:rgb(83,212,212)"/><path d="M27.186409284876852,-56.58403565739328L25.66069646086076,-77.42221889215566L26.22464188795202,-56.243098128423966z" style="fill:rgb(72,208,208)"/><path d="M28.044559718482404,-57.05744459217824L26.601603951222085,-77.76226687429497L27.186409284876852,-56.58403565739328z" style="fill:rgb(50,199,199)"/><path d="M28.146867887968256,-78.82084515151297L28.044559718482404,-57.05744459217824L28.766242140276947,-57.64544613402261z" style="fill:rgb(32,187,187)"/><path d="M29.323685691125007,-58.325767509124844L28.146867887968256,-78.82084515151297L28.766242140276947,-57.64544613402261z" style="fill:rgb(17,173,173)"/><path d="M29.695265184237687,-59.07255785523365L28.69192659363916,-79.49934153760405L29.323685691125007,-58.325767509124844z" style="fill:rgb(7,157,157)"/><path d="M29.866365428218728,-59.85732608489061L29.05507563157915,-80.24409463387923L29.695265184237687,-59.07255785523365z" style="fill:rgb(1,140,140)"/><path d="M33.44946799648322,-80.8858953334279L34.12700777606087,-61.14340866576738L34.18691304351371,-59.71613228348552z" style="fill:rgb(254,132,132)"/><path d="M33.389921453109686,-82.30919769208535L33.6947667337757,-62.53160107714638L34.12700777606087,-61.14340866576738z" style="fill:rgb(251,149,149)"/><path d="M33.6947667337757,-62.53160107714638L28.947907235313888,-82.58510133824444L29.58709593363568,-61.4201017702243z" style="fill:rgb(83,212,212)"/><path d="M28.044559718482404,-57.05744459217824L27.624355522090752,-53.22921618081621L29.351993525023843,-53.83968968370324zM27.624355522090752,-53.22921618081621L27.186409284876852,-56.58403565739328L26.22464188795202,-56.243098128423966zM27.186409284876852,-56.58403565739328L27.624355522090752,-53.22921618081621L28.044559718482404,-57.05744459217824zM29.695265184237687,-59.07255785523365L29.351993525023843,-53.83968968370324L30.895006032966403,-54.68786340336274zM28.044559718482404,-57.05744459217824L29.351993525023843,-53.83968968370324L28.766242140276947,-57.64544613402261zM28.766242140276947,-57.64544613402261L29.351993525023843,-53.83968968370324L29.323685691125007,-58.325767509124844z" style="fill:rgb(127,37,217)"/><path d="M26.642513247693074,-78.03068635579486L32.96611972038208,-83.6934405561661L26.058459931443835,-99.14331430373984z" style="fill:rgb(247,158,158)"/><path d="M29.323685691125007,-58.325767509124844L29.351993525023843,-53.83968968370324L29.695265184237687,-59.07255785523365zM33.6947667337757,-62.53160107714638L30.895006032966403,-54.68786340336274L32.19452578789426,-55.74215233321015zM29.695265184237687,-59.07255785523365L30.895006032966403,-54.68786340336274L29.866365428218728,-59.85732608489061zM33.6947667337757,-62.53160107714638L32.19452578789426,-55.74215233321015L33.20049722602769,-56.96309975043533zM33.6947667337757,-62.53160107714638L29.866365428218728,-59.85732608489061L30.895006032966403,-54.68786340336274zM33.6947667337757,-62.53160107714638L33.20049722602769,-56.96309975043533L33.87360995867701,-58.30471985756443zM34.12700777606087,-61.14340866576738L33.87360995867701,-58.30471985756443L34.18691304351371,-59.71613228348552z" style="fill:rgb(127,37,217)"/><path d="M32.96611972038208,-83.6934405561661L26.642513247693074,-78.03068635579486L33.6947667337757,-62.53160107714638z" style="fill:rgb(247,158,158)"/><path d="M33.6947667337757,-62.53160107714638L33.87360995867701,-58.30471985756443L34.12700777606087,-61.14340866576738zM33.6947667337757,-62.53160107714638L29.829990883929536,-60.65000492269345L29.866365428218728,-59.85732608489061z" style="fill:rgb(127,37,217)"/><path d="M21.99202817171463,-98.00434631771263L26.642513247693074,-78.03068635579486L26.058459931443835,-99.14331430373984z" style="fill:rgb(83,212,212)"/><path d="M29.829990883929536,-60.65000492269345L33.6947667337757,-62.53160107714638L29.58709593363568,-61.4201017702243zM26.642513247693074,-78.03068635579486L29.58709593363568,-61.4201017702243L33.6947667337757,-62.53160107714638z" style="fill:rgb(127,37,217)"/><path d="M26.642513247693074,-78.03068635579486L21.99202817171463,-98.00434631771263L22.48443648418524,-76.88776906924022z" style="fill:rgb(83,212,212)"/><path d="M29.58709593363568,-61.4201017702243L26.642513247693074,-78.03068635579486L22.48443648418524,-76.88776906924022z" style="fill:rgb(127,37,217)"/><path d="M-8.977350350517828,-67.90430623591723L28.984990325423844,47.42254030003753L25.66069646086076,-77.42221889215566z" style="fill:rgb(83,212,212)"/><path d="M28.984990325423844,47.42254030003753L27.031906020412148,-74.41607555004269L25.66069646086076,-77.42221889215566zM-9.627371728410527,2.5629132727212958L-8.488161940775969,59.92161874807223L-8.068846600781294,5.530311442402645z" style="fill:rgb(247,158,158)"/><path d="M28.984990325423844,47.42254030003753L-8.977350350517828,-67.90430623591723L-10.129186958256094,56.963460633862006z" style="fill:rgb(83,212,212)"/><path d="M-12.40307399113223,57.1976739964485L-10.69100670128904,2.7555384594060555L-11.788745880356256,2.7978254233388866z" style="fill:rgb(120,217,217)"/><path d="M-13.550085382793904,57.08836403844578L-11.788745880356256,2.7978254233388866L-12.878874628328669,2.6881858447468563z" style="fill:rgb(145,216,216)"/><path d="M-11.248153920209635,57.155516116993184L-9.627371728410527,2.5629132727212958L-10.69100670128904,2.7555384594060555z" style="fill:rgb(95,214,214)"/><path d="M-14.645616786162579,56.83168069307307L-12.878874628328669,2.6881858447468563L-13.919958507272746,2.4307388712729496z" style="fill:rgb(169,212,212)"/><path d="M-15.647978046144917,56.437271075957085L-13.919958507272746,2.4307388712729496L-14.8723598061542,2.0351689959818935z" style="fill:rgb(192,205,205)"/><path d="M-15.699713846370916,1.5163829588470106L-15.647978046144917,56.437271075957085L-14.8723598061542,2.0351689959818935z" style="fill:rgb(212,194,194)"/><path d="M-16.37028343587545,0.8939830884010589L-16.518909953033848,55.919979707504126L-15.699713846370916,1.5163829588470106z" style="fill:rgb(229,181,181)"/><path d="M-21.064303472989813,1.2785161635234934L-17.73899348994152,54.59886310431807L-16.858171182177003,0.19156383811617286z" style="fill:rgb(83,212,212)"/><path d="M-17.73899348994152,54.59886310431807L-16.37028343587545,0.8939830884010589L-16.858171182177003,0.19156383811617286z" style="fill:rgb(242,166,166)"/><path d="M27.031906020412148,-74.41607555004269L28.984990325423844,47.42254030003753L30.523214211289698,50.43822016673214zM-8.488161940775969,59.92161874807223L-9.627371728410527,2.5629132727212958L-10.129186958256094,56.963460633862006z" style="fill:rgb(247,158,158)"/><path d="M-10.69100670128904,2.7555384594060555L-12.40307399113223,57.1976739964485L-11.248153920209635,57.155516116993184z" style="fill:rgb(120,217,217)"/><path d="M-11.788745880356256,2.7978254233388866L-13.550085382793904,57.08836403844578L-12.40307399113223,57.1976739964485z" style="fill:rgb(145,216,216)"/><path d="M-9.627371728410527,2.5629132727212958L-11.248153920209635,57.155516116993184L-10.129186958256094,56.963460633862006z" style="fill:rgb(95,214,214)"/><path d="M-12.878874628328669,2.6881858447468563L-14.645616786162579,56.83168069307307L-13.550085382793904,57.08836403844578z" style="fill:rgb(169,212,212)"/><path d="M-13.919958507272746,2.4307388712729496L-15.647978046144917,56.437271075957085L-14.645616786162579,56.83168069307307z" style="fill:rgb(192,205,205)"/><path d="M-15.647978046144917,56.437271075957085L-15.699713846370916,1.5163829588470106L-16.518909953033848,55.919979707504126z" style="fill:rgb(212,194,194)"/><path d="M-16.518909953033848,55.919979707504126L-16.37028343587545,0.8939830884010589L-17.225007104000095,55.29934072487331z" style="fill:rgb(229,181,181)"/><path d="M-17.73899348994152,54.59886310431807L-21.064303472989813,1.2785161635234934L-22.163683212011872,55.68279268010398z" style="fill:rgb(83,212,212)"/><path d="M-16.37028343587545,0.8939830884010589L-17.73899348994152,54.59886310431807L-17.225007104000095,55.29934072487331z" style="fill:rgb(242,166,166)"/><path d="M-37.22133511308825,19.87884311996368L-16.858171182177003,0.19156383811617286L-35.31144211484719,-34.56272947718648zM-16.858171182177003,0.19156383811617286L-37.22133511308825,19.87884311996368L-17.73899348994152,54.59886310431807z" style="fill:rgb(247,158,158)"/><path d="M-12.40307399113223,57.1976739964485L-12.568790225205168,60.340595808635406L-10.4965137785978,60.26518936638349zM-14.645616786162579,56.83168069307307L-14.627033554610655,60.14506798473076L-12.568790225205168,60.340595808635406zM-10.129186958256094,56.963460633862006L-10.4965137785978,60.26518936638349L-8.488161940775969,59.92161874807223zM-16.518909953033848,55.919979707504126L-16.59377705225206,59.685807590363126L-14.627033554610655,60.14506798473076zM-13.550085382793904,57.08836403844578L-12.568790225205168,60.340595808635406L-12.40307399113223,57.1976739964485zM-12.40307399113223,57.1976739964485L-10.4965137785978,60.26518936638349L-11.248153920209635,57.155516116993184zM-11.248153920209635,57.155516116993184L-10.4965137785978,60.26518936638349L-10.129186958256094,56.963460633862006zM-14.645616786162579,56.83168069307307L-12.568790225205168,60.340595808635406L-13.550085382793904,57.08836403844578zM-15.647978046144917,56.437271075957085L-14.627033554610655,60.14506798473076L-14.645616786162579,56.83168069307307zM-17.73899348994152,54.59886310431807L-18.39477338645582,58.97975507857073L-16.59377705225206,59.685807590363126zM-16.518909953033848,55.919979707504126L-14.627033554610655,60.14506798473076L-15.647978046144917,56.437271075957085zM-17.73899348994152,54.59886310431807L-19.961647783075435,58.05304902581956L-18.39477338645582,58.97975507857073zM-17.225007104000095,55.29934072487331L-16.59377705225206,59.685807590363126L-16.518909953033848,55.919979707504126zM-17.73899348994152,54.59886310431807L-21.234404690337684,56.94017480848528L-19.961647783075435,58.05304902581956zM-17.73899348994152,54.59886310431807L-16.59377705225206,59.685807590363126L-17.225007104000095,55.29934072487331zM-21.234404690337684,56.94017480848528L-17.73899348994152,54.59886310431807L-22.163683212011872,55.68279268010398z" style="fill:rgb(127,37,217)"/><path d="M-41.77935817352822,21.04033148832699L-35.31144211484719,-34.56272947718648L-39.63789705396601,-33.40205430847771z" style="fill:rgb(83,212,212)"/><path d="M-8.488161940775969,59.92161874807223L28.984990325423844,47.42254030003753L-10.129186958256094,56.963460633862006zM28.984990325423844,47.42254030003753L-8.488161940775969,59.92161874807223L30.523214211289698,50.43822016673214z" style="fill:rgb(127,37,217)"/><path d="M-13.674171416456867,61.448350357872755L-11.912095582774995,80.47138054018599L-2.407288760288645,55.994009668556735zM-2.407288760288645,55.994009668556735L1.9671984188105698,72.51997221990824L9.33359956637094,52.21600525260389zM-24.093304885825873,68.3963107437845L-22.650378040370377,91.6624845314584L-13.674171416456867,61.448350357872755zM9.33359956637094,52.21600525260389L17.043936076871905,68.91130615102195L21.15857128225007,50.25103881031893z" style="fill:rgb(83,212,212)"/><path d="M-37.22133511308825,19.87884311996368L-22.163683212011872,55.68279268010398L-17.73899348994152,54.59886310431807z" style="fill:rgb(127,37,217)"/><path d="M-2.407288760288645,55.994009668556735L-5.2500142349259935,76.01009682198436L1.9671984188105698,72.51997221990824zM-2.407288760288645,55.994009668556735L-11.912095582774995,80.47138054018599L-5.2500142349259935,76.01009682198436zM-13.674171416456867,61.448350357872755L-17.783097261981776,85.74949968526671L-11.912095582774995,80.47138054018599zM9.33359956637094,52.21600525260389L1.9671984188105698,72.51997221990824L9.486478208063978,70.12412499333855zM21.15857128225007,50.25103881031893L24.37143482062296,68.93302269248244L32.66814966765888,50.18590278150854zM9.33359956637094,52.21600525260389L9.486478208063978,70.12412499333855L17.043936076871905,68.91130615102195zM-13.674171416456867,61.448350357872755L-22.650378040370377,91.6624845314584L-17.783097261981776,85.74949968526671zM-29.5848358635458,111.0661767784141L-24.093304885825873,68.3963107437845L-33.31346344826981,76.6125362310554z" style="fill:rgb(83,212,212)"/><path d="M1.9671984188105698,72.51997221990824L-3.591665439628179,78.96807729929698L3.6037650427682495,75.48924108136822z" style="fill:rgb(162,50,222)"/><path d="M-5.2500142349259935,76.01009682198436L-10.231786893965426,83.41841275411545L-3.591665439628179,78.96807729929698z" style="fill:rgb(183,62,221)"/><path d="M9.486478208063978,70.12412499333855L3.6037650427682495,75.48924108136822L11.102131523825797,73.10465987576305z" style="fill:rgb(139,40,220)"/><path d="M-3.591665439628179,78.96807729929698L1.9671984188105698,72.51997221990824L-5.2500142349259935,76.01009682198436z" style="fill:rgb(162,50,222)"/><path d="M-10.231786893965426,83.41841275411545L-5.2500142349259935,76.01009682198436L-11.912095582774995,80.47138054018599z" style="fill:rgb(183,62,221)"/><path d="M3.6037650427682495,75.48924108136822L9.486478208063978,70.12412499333855L1.9671984188105698,72.51997221990824z" style="fill:rgb(139,40,220)"/><path d="M-35.31144211484719,-34.56272947718648L-41.77935817352822,21.04033148832699L-37.22133511308825,19.87884311996368zM21.15857128225007,50.25103881031893L17.043936076871905,68.91130615102195L24.37143482062296,68.93302269248244zM-24.093304885825873,68.3963107437845L-26.330857879195886,98.0047259018291L-22.650378040370377,91.6624845314584z" style="fill:rgb(83,212,212)"/><path d="M-10.231786893965426,83.41841275411545L-17.783097261981776,85.74949968526671L-16.08135950061541,88.68625762688896zM-17.783097261981776,85.74949968526671L-10.231786893965426,83.41841275411545L-11.912095582774995,80.47138054018599z" style="fill:rgb(203,77,216)"/><path d="M17.043936076871905,68.91130615102195L11.102131523825797,73.10465987576305L18.640208118669733,71.90269754998089zM11.102131523825797,73.10465987576305L17.043936076871905,68.91130615102195L9.486478208063978,70.12412499333855z" style="fill:rgb(115,34,214)"/><path d="M-16.08135950061541,88.68625762688896L-22.650378040370377,91.6624845314584L-20.928468060700663,94.58994525189817zM-22.650378040370377,91.6624845314584L-16.08135950061541,88.68625762688896L-17.783097261981776,85.74949968526671z" style="fill:rgb(220,94,208)"/><path d="M-24.093304885825873,68.3963107437845L-28.677343275311944,104.55178822280836L-26.330857879195886,98.0047259018291zM32.66814966765888,50.18590278150854L37.2858795384858,72.68476937976008L43.460950255876774,52.052947785636896z" style="fill:rgb(83,212,212)"/><path d="M18.640208118669733,71.90269754998089L24.37143482062296,68.93302269248244L17.043936076871905,68.91130615102195zM24.37143482062296,68.93302269248244L18.640208118669733,71.90269754998089L25.950489311879828,71.93445725014487z" style="fill:rgb(92,32,204)"/><path d="M32.66814966765888,50.18590278150854L24.37143482062296,68.93302269248244L31.20366266766217,70.20094239239492z" style="fill:rgb(83,212,212)"/><path d="M-22.163683212011872,55.68279268010398L-37.22133511308825,19.87884311996368L-41.77935817352822,21.04033148832699z" style="fill:rgb(127,37,217)"/><path d="M-26.330857879195886,98.0047259018291L-20.928468060700663,94.58994525189817L-22.650378040370377,91.6624845314584z" style="fill:rgb(233,112,197)"/><path d="M-24.093304885825873,68.3963107437845L-29.5848358635458,111.0661767784141L-28.677343275311944,104.55178822280836z" style="fill:rgb(83,212,212)"/><path d="M-20.928468060700663,94.58994525189817L-26.330857879195886,98.0047259018291L-24.59074954213567,100.92414134643217z" style="fill:rgb(233,112,197)"/><path d="M32.66814966765888,50.18590278150854L31.20366266766217,70.20094239239492L37.2858795384858,72.68476937976008z" style="fill:rgb(83,212,212)"/><path d="M25.950489311879828,71.93445725014487L31.20366266766217,70.20094239239492L24.37143482062296,68.93302269248244zM31.20366266766217,70.20094239239492L25.950489311879828,71.93445725014487L32.76825229888896,73.21119974290211z" style="fill:rgb(71,33,192)"/><path d="M-28.677343275311944,104.55178822280836L-24.59074954213567,100.92414134643217L-26.330857879195886,98.0047259018291z" style="fill:rgb(242,130,183)"/><path d="M-41.01266680911338,85.83210379333971L-35.50300033313344,150.0756089080997L-33.31346344826981,76.6125362310554z" style="fill:rgb(83,212,212)"/><path d="M-24.59074954213567,100.92414134643217L-28.677343275311944,104.55178822280836L-26.921709007311282,107.46465610083581z" style="fill:rgb(242,130,183)"/><path d="M38.83929341239851,75.70223496184732L31.20366266766217,70.20094239239492L32.76825229888896,73.21119974290211z" style="fill:rgb(51,38,177)"/><path d="M-46.90583440383056,95.75383638286203L-43.111631384326955,143.50759280276245L-41.01266680911338,85.83210379333971zM-50.753739034685864,106.04455398718171L-48.54394565658738,135.45722642319495L-46.90583440383056,95.75383638286203zM43.460950255876774,52.052947785636896L46.28561654649575,80.96170311795731L53.14298112141339,55.8251295968465zM43.460950255876774,52.052947785636896L37.2858795384858,72.68476937976008L42.382380263212696,76.31081949219845z" style="fill:rgb(83,212,212)"/><path d="M31.20366266766217,70.20094239239492L38.83929341239851,75.70223496184732L37.2858795384858,72.68476937976008z" style="fill:rgb(51,38,177)"/><path d="M-51.64889097724948,126.2772257531091L-50.753739034685864,106.04455398718171L-52.3733027968445,116.34483775623656z" style="fill:rgb(83,212,212)"/><path d="M-29.5848358635458,111.0661767784141L-26.921709007311282,107.46465610083581L-28.677343275311944,104.55178822280836zM-26.921709007311282,107.46465610083581L-29.5848358635458,111.0661767784141L-27.81700912601397,113.9742122257888z" style="fill:rgb(246,149,167)"/><path d="M43.92837503957858,79.33352067527535L37.2858795384858,72.68476937976008L38.83929341239851,75.70223496184732z" style="fill:rgb(34,46,160)"/><path d="M43.460950255876774,52.052947785636896L42.382380263212696,76.31081949219845L46.28561654649575,80.96170311795731z" style="fill:rgb(83,212,212)"/><path d="M37.2858795384858,72.68476937976008L43.92837503957858,79.33352067527535L42.382380263212696,76.31081949219845z" style="fill:rgb(34,46,160)"/><path d="M-29.5848358635458,111.0661767784141L-27.220433219278647,120.20935443696668L-27.81700912601397,113.9742122257888z" style="fill:rgb(246,167,149)"/><path d="M-50.753739034685864,106.04455398718171L-51.64889097724948,126.2772257531091L-48.54394565658738,135.45722642319495z" style="fill:rgb(83,212,212)"/><path d="M47.82832583104612,83.98736920939933L42.382380263212696,76.31081949219845L43.92837503957858,79.33352067527535z" style="fill:rgb(21,57,142)"/><path d="M-33.31346344826981,76.6125362310554L-25.970722509813342,154.8526566483311L-29.5848358635458,111.0661767784141z" style="fill:rgb(83,212,212)"/><path d="M-27.220433219278647,120.20935443696668L-29.5848358635458,111.0661767784141L-28.99655142428187,117.30424975398635z" style="fill:rgb(246,167,149)"/><path d="M53.14298112141339,55.8251295968465L46.28561654649575,80.96170311795731L48.825651400658,86.47757561871475zM-46.90583440383056,95.75383638286203L-48.54394565658738,135.45722642319495L-43.111631384326955,143.50759280276245z" style="fill:rgb(83,212,212)"/><path d="M42.382380263212696,76.31081949219845L47.82832583104612,83.98736920939933L46.28561654649575,80.96170311795731z" style="fill:rgb(21,57,142)"/><path d="M-28.99655142428187,117.30424975398635L-25.129153683339446,125.92864152483773L-27.220433219278647,120.20935443696668z" style="fill:rgb(242,183,130)"/><path d="M53.14298112141339,55.8251295968465L48.825651400658,86.47757561871475L49.87952865587914,92.65923480895934z" style="fill:rgb(83,212,212)"/><path d="M-25.129153683339446,125.92864152483773L-28.99655142428187,117.30424975398635L-26.909189584311505,123.02441625234242z" style="fill:rgb(242,183,130)"/><path d="M-41.01266680911338,85.83210379333971L-43.111631384326955,143.50759280276245L-35.50300033313344,150.0756089080997zM53.14298112141339,55.8251295968465L64.56284141720835,119.35439864964056L61.33916550854546,61.41112455813469zM-33.31346344826981,76.6125362310554L-35.50300033313344,150.0756089080997L-25.970722509813342,154.8526566483311z" style="fill:rgb(83,212,212)"/><path d="M-41.261093471305024,146.3769340379994L-48.54394565658738,135.45722642319495L-46.69342408921798,138.3253626204089z" style="fill:rgb(21,57,142)"/><path d="M-29.5848358635458,111.0661767784141L-25.970722509813342,154.8526566483311L-28.99655142428187,117.30424975398635zM61.33916550854546,61.41112455813469L70.14203927109665,108.55880554637544L67.70727471496265,68.65136634084661z" style="fill:rgb(83,212,212)"/><path d="M71.95411601187611,77.3160003421192L75.33486875297467,90.16551225997658L73.42813714671249,80.37842185188607z" style="fill:rgb(246,167,149)"/><path d="M-48.54394565658738,135.45722642319495L-41.261093471305024,146.3769340379994L-43.111631384326955,143.50759280276245z" style="fill:rgb(21,57,142)"/><path d="M-28.99655142428187,117.30424975398635L-25.970722509813342,154.8526566483311L-26.909189584311505,123.02441625234242zM67.70727471496265,68.65136634084661L73.26286409304109,97.65877889970726L71.95411601187611,77.3160003421192zM53.14298112141339,55.8251295968465L49.87952865587914,92.65923480895934L56.71612465910159,129.57956566854102z" style="fill:rgb(83,212,212)"/><path d="M75.33486875297467,90.16551225997658L71.95411601187611,77.3160003421192L73.85323829730778,87.10602660746204z" style="fill:rgb(246,167,149)"/><path d="M-26.909189584311505,123.02441625234242L-25.970722509813342,154.8526566483311L-23.376889941602517,127.99643288243662z" style="fill:rgb(83,212,212)"/><path d="M-33.660355583202566,152.9495707934234L-43.111631384326955,143.50759280276245L-41.261093471305024,146.3769340379994z" style="fill:rgb(34,46,160)"/><path d="M71.95411601187611,77.3160003421192L73.26286409304109,97.65877889970726L73.85323829730778,87.10602660746204z" style="fill:rgb(83,212,212)"/><path d="M-43.111631384326955,143.50759280276245L-33.660355583202566,152.9495707934234L-35.50300033313344,150.0756089080997z" style="fill:rgb(34,46,160)"/><path d="M73.26286409304109,97.65877889970726L75.33486875297467,90.16551225997658L73.85323829730778,87.10602660746204z" style="fill:rgb(246,149,167)"/><path d="M67.70727471496265,68.65136634084661L70.14203927109665,108.55880554637544L73.26286409304109,97.65877889970726z" style="fill:rgb(83,212,212)"/><path d="M75.33486875297467,90.16551225997658L73.26286409304109,97.65877889970726L74.7593769481516,100.7109401365428z" style="fill:rgb(246,149,167)"/><path d="M-23.376889941602517,127.99643288243662L-14.866591140973282,157.59460095040174L-18.513160508635412,132.01160931489264zM61.33916550854546,61.41112455813469L64.56284141720835,119.35439864964056L70.14203927109665,108.55880554637544zM53.14298112141339,55.8251295968465L56.71612465910159,129.57956566854102L64.56284141720835,119.35439864964056z" style="fill:rgb(83,212,212)"/><path d="M-24.14389900944551,157.73474021864865L-35.50300033313344,150.0756089080997L-33.660355583202566,152.9495707934234z" style="fill:rgb(51,38,177)"/><path d="M-18.513160508635412,132.01160931489264L-14.866591140973282,157.59460095040174L-12.490097767016987,134.89340277879396zM49.37973341323324,99.27371221434836L56.71612465910159,129.57956566854102L49.87952865587914,92.65923480895934zM-23.376889941602517,127.99643288243662L-25.970722509813342,154.8526566483311L-14.866591140973282,157.59460095040174z" style="fill:rgb(83,212,212)"/><path d="M-35.50300033313344,150.0756089080997L-24.14389900944551,157.73474021864865L-25.970722509813342,154.8526566483311z" style="fill:rgb(51,38,177)"/><path d="M70.14203927109665,108.55880554637544L74.7593769481516,100.7109401365428L73.26286409304109,97.65877889970726z" style="fill:rgb(242,130,183)"/><path d="M47.32100916745794,106.06219884839088L56.71612465910159,129.57956566854102L49.37973341323324,99.27371221434836z" style="fill:rgb(83,212,212)"/><path d="M74.7593769481516,100.7109401365428L70.14203927109665,108.55880554637544L71.66050664607859,111.59947478723356z" style="fill:rgb(242,130,183)"/><path d="M-12.490097767016987,134.89340277879396L-2.631420386515089,158.140954539231L-5.5343262616919935,136.50756770110323zM-5.5343262616919935,136.50756770110323L-2.631420386515089,158.140954539231L2.080695587560752,136.77105489404718zM43.76448419261934,112.75051823342392L46.90893704557619,138.7798735533451L47.32100916745794,106.06219884839088z" style="fill:rgb(83,212,212)"/><path d="M-24.14389900944551,157.73474021864865L-14.866591140973282,157.59460095040174L-25.970722509813342,154.8526566483311zM-14.866591140973282,157.59460095040174L-24.14389900944551,157.73474021864865L-13.063096799613069,160.4882513685872z" style="fill:rgb(71,33,192)"/><path d="M-12.490097767016987,134.89340277879396L-14.866591140973282,157.59460095040174L-2.631420386515089,158.140954539231zM38.8384006977835,119.0615846064373L46.90893704557619,138.7798735533451L43.76448419261934,112.75051823342392z" style="fill:rgb(83,212,212)"/><path d="M64.56284141720835,119.35439864964056L71.66050664607859,111.59947478723356L70.14203927109665,108.55880554637544z" style="fill:rgb(233,112,197)"/><path d="M2.080695587560752,136.77105489404718L10.22326158067415,156.43052275803046L10.045935547877376,135.65864911167625z" style="fill:rgb(83,212,212)"/><path d="M71.66050664607859,111.59947478723356L64.56284141720835,119.35439864964056L66.1097271945774,122.37990245875552z" style="fill:rgb(233,112,197)"/><path d="M32.734710262540666,124.72915810370347L35.552514830628354,146.5401547311133L38.8384006977835,119.0615846064373zM10.045935547877376,135.65864911167625L23.14110386449252,152.51087557912183L18.031157276328496,133.2064929195549zM25.7014601413024,129.51190801397365L35.552514830628354,146.5401547311133L32.734710262540666,124.72915810370347zM18.031157276328496,133.2064929195549L23.14110386449252,152.51087557912183L25.7014601413024,129.51190801397365zM47.32100916745794,106.06219884839088L46.90893704557619,138.7798735533451L56.71612465910159,129.57956566854102z" style="fill:rgb(83,212,212)"/><path d="M-13.063096799613069,160.4882513685872L-2.631420386515089,158.140954539231L-14.866591140973282,157.59460095040174zM-2.631420386515089,158.140954539231L-13.063096799613069,160.4882513685872L-0.8578794279268669,161.04937770676304z" style="fill:rgb(92,32,204)"/><path d="M2.080695587560752,136.77105489404718L-2.631420386515089,158.140954539231L10.22326158067415,156.43052275803046z" style="fill:rgb(83,212,212)"/><path d="M56.71612465910159,129.57956566854102L66.1097271945774,122.37990245875552L64.56284141720835,119.35439864964056zM66.1097271945774,122.37990245875552L56.71612465910159,129.57956566854102L58.29687772342169,132.58697785801812z" style="fill:rgb(220,94,208)"/><path d="M38.8384006977835,119.0615846064373L35.552514830628354,146.5401547311133L46.90893704557619,138.7798735533451zM10.045935547877376,135.65864911167625L10.22326158067415,156.43052275803046L23.14110386449252,152.51087557912183z" style="fill:rgb(83,212,212)"/><path d="M-0.8578794279268669,161.04937770676304L10.22326158067415,156.43052275803046L-2.631420386515089,158.140954539231z" style="fill:rgb(115,34,214)"/><path d="M25.7014601413024,129.51190801397365L23.14110386449252,152.51087557912183L35.552514830628354,146.5401547311133z" style="fill:rgb(83,212,212)"/><path d="M10.22326158067415,156.43052275803046L-0.8578794279268669,161.04937770676304L11.96154688843151,159.35647132146062z" style="fill:rgb(115,34,214)"/><path d="M46.90893704557619,138.7798735533451L58.29687772342169,132.58697785801812L56.71612465910159,129.57956566854102zM58.29687772342169,132.58697785801812L46.90893704557619,138.7798735533451L48.52759630966685,141.76721465221783z" style="fill:rgb(203,77,216)"/><path d="M23.14110386449252,152.51087557912183L11.96154688843151,159.35647132146062L24.84051926082888,155.45642725323512z" style="fill:rgb(139,40,220)"/><path d="M46.90893704557619,138.7798735533451L37.21138010641609,149.50651166215036L48.52759630966685,141.76721465221783z" style="fill:rgb(183,62,221)"/><path d="M11.96154688843151,159.35647132146062L23.14110386449252,152.51087557912183L10.22326158067415,156.43052275803046z" style="fill:rgb(139,40,220)"/><path d="M35.552514830628354,146.5401547311133L24.84051926082888,155.45642725323512L37.21138010641609,149.50651166215036z" style="fill:rgb(162,50,222)"/><path d="M37.21138010641609,149.50651166215036L46.90893704557619,138.7798735533451L35.552514830628354,146.5401547311133z" style="fill:rgb(183,62,221)"/><path d="M24.84051926082888,155.45642725323512L35.552514830628354,146.5401547311133L23.14110386449252,152.51087557912183z" style="fill:rgb(162,50,222)"/></svg>
